<?xml version="1.0" standalone="no"?>
<!DOCTYPE svg PUBLIC "-//W3C//DTD SVG 1.1//EN" "http://www.w3.org/Graphics/SVG/1.1/DTD/svg11.dtd" >
<svg>
<metadata>
Created by FontForge 20131121 at Fri May 29 12:19:03 2015

Copyright (c) MCKL, Inc. All rights reserved.
</metadata>
<defs>
<font id="adineuePROCyr-BoldItalicWeb" horiz-adv-x="533" >
  <font-face 
    font-family="adineue PRO Cyr Bold Italic Web"
    font-weight="700"
    font-style="italic"
    font-stretch="normal"
    units-per-em="1000"
    panose-1="2 0 0 0 0 0 0 0 0 0"
    ascent="750"
    descent="-250"
    x-height="513"
    cap-height="685"
    bbox="-266 -219 4968 929"
    underline-thickness="50"
    underline-position="-50"
    slope="-16"
    unicode-range="U+000D-FB02"
  />
<missing-glyph horiz-adv-x="390" 
 />
    <glyph glyph-name=".notdef" horiz-adv-x="390" 
 />
    <glyph glyph-name="space" unicode=" " horiz-adv-x="195" 
 />
    <glyph glyph-name="A" unicode="A" horiz-adv-x="676" 
d="M419 524l-164 -269h174zM434 118h-263l-72 -118h-166l432 685h191l39 -685h-156z" />
    <glyph glyph-name="B" unicode="B" horiz-adv-x="603" 
d="M-32 0l196 685h273q45 0 77 -13.5t52 -35.5t29 -50t9 -57q0 -62 -34 -109.5t-96 -72.5q47 -23 67 -57t20 -73q0 -47 -18 -86.5t-53.5 -68.5t-87.5 -45.5t-120 -16.5h-314zM281 552l-39 -140h107q48 0 72.5 23t24.5 60q0 23 -13.5 40t-45.5 17h-106zM203 281l-42 -148h138
q51 0 80.5 21t29.5 62q0 26 -17 45.5t-54 19.5h-135z" />
    <glyph glyph-name="C" unicode="C" horiz-adv-x="706" 
d="M463 698q47 0 90.5 -11.5t79 -33t61.5 -53.5t39 -74l-137 -81q-17 51 -53.5 80.5t-102.5 29.5q-52 0 -95.5 -22t-75 -58.5t-49 -83.5t-17.5 -96q0 -78 45.5 -121t120.5 -43q65 0 114 30t83 73l106 -89q-51 -71 -133.5 -115t-186.5 -44q-72 0 -129 22t-96.5 61t-61 93
t-21.5 119q0 84 33.5 159.5t90.5 133t133 91t162 33.5z" />
    <glyph glyph-name="D" unicode="D" horiz-adv-x="691" 
d="M-32 0l196 685h216q70 0 127.5 -21t99 -59.5t64.5 -92.5t23 -119q0 -77 -31 -148t-86 -125.5t-129 -87t-161 -32.5h-319zM279 543l-115 -401h136q55 0 99 20t74.5 53.5t46.5 76t16 87.5q0 77 -46.5 120.5t-122.5 43.5h-88z" />
    <glyph glyph-name="E" unicode="E" horiz-adv-x="563" 
d="M164 685h492l-40 -140h-337l-37 -129h311l-39 -136h-311l-40 -140h338l-40 -140h-493z" />
    <glyph glyph-name="F" unicode="F" horiz-adv-x="544" 
d="M193 243l-70 -243h-155l196 685h476l-40 -142h-321l-47 -164h295l-39 -136h-295z" />
    <glyph glyph-name="G" unicode="G" horiz-adv-x="757" 
d="M769 384q-17 -101 -57.5 -176t-96 -124.5t-123 -73.5t-139.5 -24t-129.5 22.5t-98 62t-62 93.5t-21.5 117q0 75 30.5 149t86.5 133.5t135.5 96t177.5 36.5q57 0 104.5 -13t83.5 -35.5t60.5 -53.5t35.5 -68l-139 -82q-17 50 -58 78.5t-108 28.5q-56 0 -102 -23t-79 -59.5
t-51.5 -83t-18.5 -93.5q0 -74 45 -118.5t124 -44.5q61 0 111.5 30.5t79.5 89.5h-187l43 135h353v0z" />
    <glyph glyph-name="H" unicode="H" horiz-adv-x="673" 
d="M479 268h-279l-77 -268h-155l196 685h155l-78 -275h279l78 275h155l-196 -685h-155z" />
    <glyph glyph-name="I" unicode="I" horiz-adv-x="237" 
d="M-32 0l196 685h155l-196 -685h-155z" />
    <glyph glyph-name="J" unicode="J" horiz-adv-x="567" 
d="M173 245q-14 -59 10.5 -86.5t68.5 -27.5q42 0 72 28t44 77l129 449h154l-134 -470q-30 -107 -101 -167t-177 -60q-57 0 -102.5 16.5t-75.5 49t-41.5 80.5t-0.5 111h154z" />
    <glyph glyph-name="K" unicode="K" horiz-adv-x="619" 
d="M212 312l-89 -312h-155l196 685h155l-86 -300l300 300h201l-364 -342l180 -343h-178z" />
    <glyph glyph-name="L" unicode="L" horiz-adv-x="535" 
d="M164 685h155l-155 -543h309l-41 -142h-464z" />
    <glyph glyph-name="M" unicode="M" horiz-adv-x="844" 
d="M237 415l-118 -415h-151l196 685h182l64 -448l322 448h192l-196 -685h-148l117 409l-298 -409h-100z" />
    <glyph glyph-name="N" unicode="N" horiz-adv-x="668" 
d="M245 441l-126 -441h-151l196 685h164l143 -440l126 440h151l-196 -685h-164z" />
    <glyph glyph-name="O" unicode="O" horiz-adv-x="763" 
d="M359 -15q-70 0 -127.5 23.5t-99 64.5t-64.5 96.5t-23 120.5q0 80 32.5 154t88 131t129.5 91t157 34q70 0 127.5 -23.5t99 -64.5t64.5 -96.5t23 -120.5q0 -80 -32.5 -154t-88 -131t-129.5 -91t-157 -34zM439 555q-48 0 -91 -21.5t-75.5 -57t-51.5 -81t-19 -93.5
q0 -36 12 -67.5t34.5 -55t54 -36.5t69.5 -13q48 0 91 21.5t75 57t51 81t19 93.5q0 36 -12 67.5t-34.5 55t-53.5 36.5t-69 13z" />
    <glyph glyph-name="P" unicode="P" horiz-adv-x="596" 
d="M178 191l-55 -191h-155l196 685h267q49 0 86 -16t62 -43.5t37.5 -64t12.5 -77.5q0 -58 -21.5 -111t-62 -93.5t-98 -64.5t-128.5 -24h-141zM279 543l-61 -210h121q31 0 55.5 10t41 27t25.5 40t9 50q0 35 -22 59t-65 24h-104z" />
    <glyph glyph-name="Q" unicode="Q" horiz-adv-x="764" 
d="M496 10q-32 -12 -66 -18.5t-70 -6.5q-70 0 -127.5 23.5t-99 64.5t-64.5 96.5t-23 120.5q0 80 32.5 154t88 131t129.5 91t157 34q70 0 127.5 -23.5t99 -64.5t64.5 -96.5t23 -120.5q0 -90 -40 -171t-107 -139l60 -104l-151 -27zM373 130q27 0 51 7l-79 136l151 27l49 -85
q29 35 46.5 78.5t17.5 89.5q0 36 -12 67.5t-34.5 55t-53.5 36.5t-69 13q-48 0 -91 -21.5t-75.5 -57t-51.5 -81t-19 -93.5q0 -36 12 -67.5t34.5 -55t54 -36.5t69.5 -13z" />
    <glyph glyph-name="R" unicode="R" horiz-adv-x="611" 
d="M331 360q65 0 101 30t36 83q0 29 -17 49.5t-55 20.5h-117l-53 -183h105zM192 239l-69 -239h-155l196 685h252q53 0 92.5 -15t65.5 -41t39 -61t13 -74q0 -47 -16.5 -92t-49 -81t-81 -60t-112.5 -29l148 -232h-183z" />
    <glyph glyph-name="S" unicode="S" horiz-adv-x="588" 
d="M267 -13q-142 0 -206 61.5t-54 165.5h155q-3 -21 1.5 -39.5t18 -33t36.5 -22.5t58 -8q56 0 82 21.5t26 49.5q0 16 -9 29t-24 23.5t-35 19.5t-42 18q-86 34 -133 82t-47 122q0 50 19 91.5t54 71t84.5 46t110.5 16.5q65 0 112.5 -17t78 -47.5t44 -72t9.5 -90.5h-154
q7 48 -21.5 74.5t-83.5 26.5q-46 0 -71.5 -21t-25.5 -51q0 -17 9.5 -31t25.5 -25t37 -20.5t44 -18.5q36 -14 69 -30t59 -37.5t41.5 -50.5t15.5 -69q0 -44 -16.5 -86t-51 -75t-88 -53t-128.5 -20z" />
    <glyph glyph-name="T" unicode="T" horiz-adv-x="584" 
d="M141 0l156 543h-199l40 142h552l-40 -142h-198l-156 -543h-155z" />
    <glyph glyph-name="U" unicode="U" horiz-adv-x="655" 
d="M610 232q-32 -113 -110 -178.5t-196 -65.5q-79 0 -135.5 24t-89 67.5t-39 103t13.5 130.5l106 372h155l-106 -373q-23 -83 4 -131.5t103 -48.5q54 0 92.5 36.5t58.5 106.5l117 410h155z" />
    <glyph glyph-name="V" unicode="V" horiz-adv-x="666" 
d="M163 0l-34 685h157l14 -527l317 527h165l-428 -685h-191z" />
    <glyph glyph-name="W" unicode="W" horiz-adv-x="943" 
d="M521 422l-237 -422h-185l33 685h155l-38 -493l273 493h135l-8 -495l246 495h161l-358 -685h-184z" />
    <glyph glyph-name="X" unicode="X" horiz-adv-x="640" 
d="M323 221l-198 -221h-188l326 353l-129 332h164l76 -218l190 218h184l-315 -347l133 -338h-163z" />
    <glyph glyph-name="Y" unicode="Y" horiz-adv-x="660" 
d="M248 255l-120 430h159l72 -288l234 288h177l-366 -429l-73 -256h-156z" />
    <glyph glyph-name="Z" unicode="Z" horiz-adv-x="575" 
d="M191 139h322l-40 -139h-520l37 128l435 418h-315l39 139h515l-37 -130z" />
    <glyph glyph-name="A.left" horiz-adv-x="664" 
d="M548 536l-235 -284h154zM430 122h-224l-101 -122h-179l588 685h230l-196 -685h-153z" />
    <glyph glyph-name="A.right" horiz-adv-x="649" 
d="M271 544l-83 -292h158zM380 122h-228l-35 -122h-149l196 685h215l196 -685h-164z" />
    <glyph glyph-name="M.left" horiz-adv-x="999" 
d="M456 434l-347 -434h-183l560 685h181l-115 -403l338 403h189l-196 -685h-156l127 442l-372 -442h-150z" />
    <glyph glyph-name="M.right" horiz-adv-x="977" 
d="M251 466l-131 -466h-152l196 685h175l97 -422l114 422h175l178 -685h-165l-111 461l-126 -461h-140z" />
    <glyph glyph-name="V.left" horiz-adv-x="648" 
d="M122 685h164l140 -544l154 544h149l-196 -685h-215z" />
    <glyph glyph-name="V.right" horiz-adv-x="664" 
d="M164 685h153l-151 -527l436 527h184l-588 -685h-230z" />
    <glyph glyph-name="W.left" horiz-adv-x="977" 
d="M589 422l-114 -422h-175l-178 685h165l112 -460l125 460h140l110 -464l131 464h152l-196 -685h-175z" />
    <glyph glyph-name="W.right" horiz-adv-x="999" 
d="M495 403l-338 -403h-189l196 685h156l-127 -442l372 442h150l-124 -434l347 434h183l-560 -685h-181z" />
    <glyph glyph-name="Aacute" unicode="&#xc1;" horiz-adv-x="676" 
d="M419 524l-164 -269h174zM434 118h-263l-72 -118h-166l432 685h191l39 -685h-156zM359 719l35 123l246 57l-36 -126z" />
    <glyph glyph-name="acute" unicode="&#xb4;" horiz-adv-x="394" 
d="M169 547l35 123l246 57l-36 -126z" />
    <glyph glyph-name="Abreve" unicode="&#x102;" horiz-adv-x="676" 
d="M419 524l-164 -269h174zM434 118h-263l-72 -118h-166l432 685h191l39 -685h-156zM627 769q-22 -19 -60 -34.5t-92 -15.5t-87 20t-45 43l28 94q20 -17 53.5 -30t78.5 -13q51 0 91.5 14.5t63.5 28.5z" />
    <glyph glyph-name="breve" unicode="&#x2d8;" horiz-adv-x="394" 
d="M437 597q-22 -19 -60 -34.5t-92 -15.5t-87 20t-45 43l28 94q20 -17 53.5 -30t78.5 -13q51 0 91.5 14.5t63.5 28.5z" />
    <glyph glyph-name="Acircumflex" unicode="&#xc2;" horiz-adv-x="676" 
d="M419 524l-164 -269h174zM434 118h-263l-72 -118h-166l432 685h191l39 -685h-156zM615 722l-119 37l-171 -39l30 103l160 54l130 -54z" />
    <glyph glyph-name="circumflex" unicode="&#x2c6;" horiz-adv-x="394" 
d="M425 550l-119 37l-171 -39l30 103l160 54l130 -54z" />
    <glyph glyph-name="Adieresis" unicode="&#xc4;" horiz-adv-x="676" 
d="M419 524l-164 -269h174zM434 118h-263l-72 -118h-166l432 685h191l39 -685h-156zM321 728l37 129h133l-37 -129h-133zM490 728l37 129h133l-37 -129h-133z" />
    <glyph glyph-name="dieresis" unicode="&#xa8;" horiz-adv-x="394" 
d="M131 556l37 129h133l-37 -129h-133zM300 556l37 129h133l-37 -129h-133z" />
    <glyph glyph-name="AE" unicode="&#xc6;" horiz-adv-x="922" 
d="M419 524l-164 -269h174zM434 118h-263l-72 -118h-166l432 685h650l-40 -140h-411l7 -129h341l-39 -136h-294l8 -140h273l-40 -140h-381z" />
    <glyph glyph-name="Agrave" unicode="&#xc0;" horiz-adv-x="676" 
d="M419 524l-164 -269h174zM434 118h-263l-72 -118h-166l432 685h191l39 -685h-156zM578 715l-215 55l36 125l214 -57z" />
    <glyph glyph-name="grave" unicode="`" horiz-adv-x="394" 
d="M388 543l-215 55l36 125l214 -57z" />
    <glyph glyph-name="Amacron" unicode="&#x100;" horiz-adv-x="676" 
d="M419 524l-164 -269h174zM434 118h-263l-72 -118h-166l432 685h191l39 -685h-156zM341 743l35 123h272l-35 -123h-272z" />
    <glyph glyph-name="macron" unicode="&#xaf;" horiz-adv-x="394" 
d="M151 571l35 123h272l-35 -123h-272z" />
    <glyph glyph-name="Aogonek" unicode="&#x104;" horiz-adv-x="676" 
d="M420 524l-164 -269h174zM505 -165q-8 -5 -19 -9q-9 -4 -22 -6.5t-29 -2.5q-38 0 -58.5 17t-20.5 45q0 38 25.5 71t60.5 50h-2l-5 118h-263l-72 -118h-166l432 685h191l39 -685h-75q-36 -17 -56 -43.5t-20 -44.5q0 -24 31 -24q10 0 18.5 1t14.5 3q7 2 13 5z" />
    <glyph glyph-name="Aring" unicode="&#xc5;" horiz-adv-x="676" 
d="M419 524l-164 -269h174zM434 118h-263l-72 -118h-166l432 685h191l39 -685h-156zM397 811q0 22 9 43.5t25 38t38 26.5t47 10q38 0 63.5 -25t25.5 -63q0 -23 -9 -44.5t-25 -38t-38 -26.5t-47 -10q-38 0 -63.5 25t-25.5 64zM537 832q0 15 -9 24t-23 9q-17 0 -28.5 -13
t-11.5 -32q0 -15 9 -24t23 -9q18 0 29 14t11 31z" />
    <glyph glyph-name="ring" unicode="&#x2da;" horiz-adv-x="394" 
d="M206 639q0 22 9 43.5t25 38t38 26.5t47 10q38 0 63.5 -25t25.5 -63q0 -23 -9 -44.5t-25 -38t-38 -26.5t-47 -10q-38 0 -63.5 25t-25.5 64zM346 660q0 15 -9 24t-23 9q-17 0 -28.5 -13t-11.5 -32q0 -15 9 -24t23 -9q18 0 29 14t11 31z" />
    <glyph glyph-name="Atilde" unicode="&#xc3;" horiz-adv-x="676" 
d="M419 524l-164 -269h174zM434 118h-263l-72 -118h-166l432 685h191l39 -685h-156zM402 751q-22 0 -43.5 -9t-34.5 -17l28 94q20 17 44 29t55 12q21 0 37.5 -5t31 -11t28.5 -11t32 -5q22 0 43.5 9t34.5 17l-28 -94q-20 -17 -44.5 -29t-55.5 -12q-21 0 -37.5 5t-30.5 11
t-28 11t-32 5z" />
    <glyph glyph-name="tilde" unicode="&#x2dc;" horiz-adv-x="394" 
d="M212 579q-22 0 -43.5 -9t-34.5 -17l28 94q20 17 44 29t55 12q21 0 37.5 -5t31 -11t28.5 -11t32 -5q22 0 43.5 9t34.5 17l-28 -94q-20 -17 -44.5 -29t-55.5 -12q-21 0 -37.5 5t-30.5 11t-28 11t-32 5z" />
    <glyph glyph-name="Cacute" unicode="&#x106;" horiz-adv-x="706" 
d="M463 698q47 0 90.5 -11.5t79 -33t61.5 -53.5t39 -74l-137 -81q-17 51 -53.5 80.5t-102.5 29.5q-52 0 -95.5 -22t-75 -58.5t-49 -83.5t-17.5 -96q0 -78 45.5 -121t120.5 -43q65 0 114 30t83 73l106 -89q-51 -71 -133.5 -115t-186.5 -44q-72 0 -129 22t-96.5 61t-61 93
t-21.5 119q0 84 33.5 159.5t90.5 133t133 91t162 33.5zM386 719l35 123l246 57l-36 -126z" />
    <glyph glyph-name="Ccaron" unicode="&#x10c;" horiz-adv-x="706" 
d="M463 698q47 0 90.5 -11.5t79 -33t61.5 -53.5t39 -74l-137 -81q-17 51 -53.5 80.5t-102.5 29.5q-52 0 -95.5 -22t-75 -58.5t-49 -83.5t-17.5 -96q0 -78 45.5 -121t120.5 -43q65 0 114 30t83 73l106 -89q-51 -71 -133.5 -115t-186.5 -44q-72 0 -129 22t-96.5 61t-61 93
t-21.5 119q0 84 33.5 159.5t90.5 133t133 91t162 33.5zM396 871l119 -37l171 39l-30 -103l-160 -54l-130 54z" />
    <glyph glyph-name="caron" unicode="&#x2c7;" horiz-adv-x="394" 
d="M179 699l119 -37l171 39l-30 -103l-160 -54l-130 54z" />
    <glyph glyph-name="Ccedilla" unicode="&#xc7;" horiz-adv-x="706" 
d="M281 -218q-42 0 -64.5 26t-15.5 64h70q-2 -11 4 -18.5t17 -7.5t20 7t12 17q4 13 -2 21t-18 8h-73l66 91q-59 8 -106 32.5t-79.5 62.5t-50 88t-17.5 108q0 84 33.5 159.5t90.5 133t133 91t162 33.5q47 0 90.5 -11.5t79 -33t61.5 -53.5t39 -74l-137 -81q-17 51 -53.5 80.5
t-102.5 29.5q-52 0 -95.5 -22t-75 -58.5t-49 -83.5t-17.5 -96q0 -78 45.5 -121t120.5 -43q65 0 114 30t83 73l106 -89q-51 -71 -133 -115t-185 -44l-23 -29q38 -2 54 -26.5t9 -58.5q-8 -37 -38 -63.5t-75 -26.5z" />
    <glyph glyph-name="Ccircumflex" unicode="&#x108;" horiz-adv-x="706" 
d="M463 698q47 0 90.5 -11.5t79 -33t61.5 -53.5t39 -74l-137 -81q-17 51 -53.5 80.5t-102.5 29.5q-52 0 -95.5 -22t-75 -58.5t-49 -83.5t-17.5 -96q0 -78 45.5 -121t120.5 -43q65 0 114 30t83 73l106 -89q-51 -71 -133.5 -115t-186.5 -44q-72 0 -129 22t-96.5 61t-61 93
t-21.5 119q0 84 33.5 159.5t90.5 133t133 91t162 33.5zM642 722l-119 37l-171 -39l30 103l160 54l130 -54z" />
    <glyph glyph-name="Cdotaccent" unicode="&#x10a;" horiz-adv-x="706" 
d="M463 698q47 0 90.5 -11.5t79 -33t61.5 -53.5t39 -74l-137 -81q-17 51 -53.5 80.5t-102.5 29.5q-52 0 -95.5 -22t-75 -58.5t-49 -83.5t-17.5 -96q0 -78 45.5 -121t120.5 -43q65 0 114 30t83 73l106 -89q-51 -71 -133.5 -115t-186.5 -44q-72 0 -129 22t-96.5 61t-61 93
t-21.5 119q0 84 33.5 159.5t90.5 133t133 91t162 33.5zM430 729l36 128h140l-36 -128h-140z" />
    <glyph glyph-name="dotaccent" unicode="&#x2d9;" horiz-adv-x="394" 
d="M213 557l36 128h140l-36 -128h-140z" />
    <glyph glyph-name="Dcaron" unicode="&#x10e;" horiz-adv-x="691" 
d="M-32 0l196 685h216q70 0 127.5 -21t99 -59.5t64.5 -92.5t23 -119q0 -77 -31 -148t-86 -125.5t-129 -87t-161 -32.5h-319zM279 543l-115 -401h136q55 0 99 20t74.5 53.5t46.5 76t16 87.5q0 77 -46.5 120.5t-122.5 43.5h-88zM374 871l119 -37l171 39l-30 -103l-160 -54
l-130 54z" />
    <glyph glyph-name="Dcroat" unicode="&#x110;" horiz-adv-x="701" 
d="M-21 0l80 278h-49l37 131h49l79 276h216q70 0 127.5 -21t99 -59.5t64.5 -92.5t23 -119q0 -77 -31 -148t-86 -125.5t-129 -87t-161 -32.5h-319zM311 142q55 0 99 20t74.5 53.5t46.5 76t16 87.5q0 77 -46.5 120.5t-122.5 43.5h-88l-38 -134h122l-37 -131h-123l-39 -136h136
z" />
    <glyph glyph-name="Eacute" unicode="&#xc9;" horiz-adv-x="563" 
d="M164 685h492l-40 -140h-337l-37 -129h311l-39 -136h-311l-40 -140h338l-40 -140h-493zM307 719l35 123l246 57l-36 -126z" />
    <glyph glyph-name="Ebreve" unicode="&#x114;" horiz-adv-x="563" 
d="M164 685h492l-40 -140h-337l-37 -129h311l-39 -136h-311l-40 -140h338l-40 -140h-493zM575 769q-22 -19 -60 -34.5t-92 -15.5t-87 20t-45 43l28 94q20 -17 53.5 -30t78.5 -13q51 0 91.5 14.5t63.5 28.5z" />
    <glyph glyph-name="Ecaron" unicode="&#x11a;" horiz-adv-x="563" 
d="M164 685h492l-40 -140h-337l-37 -129h311l-39 -136h-311l-40 -140h338l-40 -140h-493zM317 871l119 -37l171 39l-30 -103l-160 -54l-130 54z" />
    <glyph glyph-name="Ecircumflex" unicode="&#xca;" horiz-adv-x="563" 
d="M164 685h492l-40 -140h-337l-37 -129h311l-39 -136h-311l-40 -140h338l-40 -140h-493zM563 722l-119 37l-171 -39l30 103l160 54l130 -54z" />
    <glyph glyph-name="Edieresis" unicode="&#xcb;" horiz-adv-x="563" 
d="M164 685h492l-40 -140h-337l-37 -129h311l-39 -136h-311l-40 -140h338l-40 -140h-493zM269 728l37 129h133l-37 -129h-133zM438 728l37 129h133l-37 -129h-133z" />
    <glyph glyph-name="Edotaccent" unicode="&#x116;" horiz-adv-x="563" 
d="M164 685h492l-40 -140h-337l-37 -129h311l-39 -136h-311l-40 -140h338l-40 -140h-493zM351 729l36 128h140l-36 -128h-140z" />
    <glyph glyph-name="Egrave" unicode="&#xc8;" horiz-adv-x="563" 
d="M164 685h492l-40 -140h-337l-37 -129h311l-39 -136h-311l-40 -140h338l-40 -140h-493zM526 715l-215 55l36 125l214 -57z" />
    <glyph glyph-name="Emacron" unicode="&#x112;" horiz-adv-x="563" 
d="M164 685h492l-40 -140h-337l-37 -129h311l-39 -136h-311l-40 -140h338l-40 -140h-493zM289 743l35 123h272l-35 -123h-272z" />
    <glyph glyph-name="Eng" unicode="&#x14a;" horiz-adv-x="668" 
d="M555 11q-17 -57 -40 -96t-55 -61t-75 -28t-100 2l34 122q29 -4 47.5 1t29.5 25l-151 465l-126 -441h-151l196 685h164l143 -440l126 440h151l-193 -674v0z" />
    <glyph glyph-name="Eogonek" unicode="&#x118;" horiz-adv-x="572" 
d="M423 -165q-8 -5 -19 -9q-9 -4 -22 -6.5t-29 -2.5q-38 0 -58.5 17t-20.5 45q0 38 25.5 71t60.5 50h-391l196 685h492l-40 -140h-337l-37 -129h311l-39 -136h-311l-40 -140h338l-40 -140h-23q-36 -17 -56 -43.5t-20 -44.5q0 -24 31 -24q10 0 18.5 1t14.5 3q7 2 13 5
l-17 -62v0z" />
    <glyph glyph-name="Eth" unicode="&#xd0;" horiz-adv-x="701" 
d="M-21 0l80 278h-49l37 131h49l79 276h216q70 0 127.5 -21t99 -59.5t64.5 -92.5t23 -119q0 -77 -31 -148t-86 -125.5t-129 -87t-161 -32.5h-319zM311 142q55 0 99 20t74.5 53.5t46.5 76t16 87.5q0 77 -46.5 120.5t-122.5 43.5h-88l-38 -134h122l-37 -131h-123l-39 -136h136
z" />
    <glyph glyph-name="Gbreve" unicode="&#x11e;" horiz-adv-x="757" 
d="M769 384q-17 -101 -57.5 -176t-96 -124.5t-123 -73.5t-139.5 -24t-129.5 22.5t-98 62t-62 93.5t-21.5 117q0 75 30.5 149t86.5 133.5t135.5 96t177.5 36.5q57 0 104.5 -13t83.5 -35.5t60.5 -53.5t35.5 -68l-139 -82q-17 50 -58 78.5t-108 28.5q-56 0 -102 -23t-79 -59.5
t-51.5 -83t-18.5 -93.5q0 -74 45 -118.5t124 -44.5q61 0 111.5 30.5t79.5 89.5h-187l43 135h353v0zM656 769q-22 -19 -60 -34.5t-92 -15.5t-87 20t-45 43l28 94q20 -17 53.5 -30t78.5 -13q51 0 91.5 14.5t63.5 28.5z" />
    <glyph glyph-name="Gcircumflex" unicode="&#x11c;" horiz-adv-x="757" 
d="M769 384q-17 -101 -57.5 -176t-96 -124.5t-123 -73.5t-139.5 -24t-129.5 22.5t-98 62t-62 93.5t-21.5 117q0 75 30.5 149t86.5 133.5t135.5 96t177.5 36.5q57 0 104.5 -13t83.5 -35.5t60.5 -53.5t35.5 -68l-139 -82q-17 50 -58 78.5t-108 28.5q-56 0 -102 -23t-79 -59.5
t-51.5 -83t-18.5 -93.5q0 -74 45 -118.5t124 -44.5q61 0 111.5 30.5t79.5 89.5h-187l43 135h353v0zM644 722l-119 37l-171 -39l30 103l160 54l130 -54z" />
    <glyph glyph-name="Gcommaaccent" unicode="&#x122;" horiz-adv-x="757" 
d="M769 384q-17 -101 -57.5 -176t-96 -124.5t-123 -73.5t-139.5 -24t-129.5 22.5t-98 62t-62 93.5t-21.5 117q0 75 30.5 149t86.5 133.5t135.5 96t177.5 36.5q57 0 104.5 -13t83.5 -35.5t60.5 -53.5t35.5 -68l-139 -82q-17 50 -58 78.5t-108 28.5q-56 0 -102 -23t-79 -59.5
t-51.5 -83t-18.5 -93.5q0 -74 45 -118.5t124 -44.5q61 0 111.5 30.5t79.5 89.5h-187l43 135h353v0zM297 -218h-89l51 70h-32l31 107h128l-24 -83z" />
    <glyph glyph-name="commaaccent" unicode="&#xf6c3;" horiz-adv-x="485" 
d="M131 -219h-89l51 70h-32l31 107h128l-24 -83z" />
    <glyph glyph-name="Gdotaccent" unicode="&#x120;" horiz-adv-x="757" 
d="M769 384q-17 -101 -57.5 -176t-96 -124.5t-123 -73.5t-139.5 -24t-129.5 22.5t-98 62t-62 93.5t-21.5 117q0 75 30.5 149t86.5 133.5t135.5 96t177.5 36.5q57 0 104.5 -13t83.5 -35.5t60.5 -53.5t35.5 -68l-139 -82q-17 50 -58 78.5t-108 28.5q-56 0 -102 -23t-79 -59.5
t-51.5 -83t-18.5 -93.5q0 -74 45 -118.5t124 -44.5q61 0 111.5 30.5t79.5 89.5h-187l43 135h353v0zM432 729l36 128h140l-36 -128h-140z" />
    <glyph glyph-name="Hbar" unicode="&#x126;" horiz-adv-x="673" 
d="M521 410l22 78h-279l-22 -78h279zM124 0h-155l140 488h-47l37 131h47l19 66h155l-19 -66h279l19 66h155l-19 -66h47l-37 -131h-47l-140 -488h-155l77 268h-279z" />
    <glyph glyph-name="Hcircumflex" unicode="&#x124;" horiz-adv-x="673" 
d="M479 268h-279l-77 -268h-155l196 685h155l-78 -275h279l78 275h155l-196 -685h-155zM613 722l-119 37l-171 -39l30 103l160 54l130 -54z" />
    <glyph glyph-name="Iacute" unicode="&#xcd;" horiz-adv-x="237" 
d="M-32 0l196 685h155l-196 -685h-155zM141 719l35 123l246 57l-36 -126z" />
    <glyph glyph-name="Ibreve" unicode="&#x12c;" horiz-adv-x="237" 
d="M-32 0l196 685h155l-196 -685h-155zM409 769q-22 -19 -60 -34.5t-92 -15.5t-87 20t-45 43l28 94q20 -17 53.5 -30t78.5 -13q51 0 91.5 14.5t63.5 28.5z" />
    <glyph glyph-name="Icircumflex" unicode="&#xce;" horiz-adv-x="237" 
d="M-32 0l196 685h155l-196 -685h-155zM397 722l-119 37l-171 -39l30 103l160 54l130 -54z" />
    <glyph glyph-name="Idieresis" unicode="&#xcf;" horiz-adv-x="237" 
d="M-32 0l196 685h155l-196 -685h-155zM103 728l37 129h133l-37 -129h-133zM272 728l37 129h133l-37 -129h-133z" />
    <glyph glyph-name="Igrave" unicode="&#xcc;" horiz-adv-x="237" 
d="M-32 0l196 685h155l-196 -685h-155zM360 715l-215 55l36 125l214 -57z" />
    <glyph glyph-name="IJ" unicode="&#x132;" horiz-adv-x="804" 
d="M-32 0l196 685h155l-196 -685h-155zM410 245q-14 -59 10.5 -86.5t68.5 -27.5q42 0 72 28t44 77l129 449h154l-134 -470q-30 -107 -101 -167t-177 -60q-57 0 -102.5 16.5t-75.5 49t-41.5 80.5t-0.5 111h154z" />
    <glyph glyph-name="Imacron" unicode="&#x12a;" horiz-adv-x="237" 
d="M-32 0l196 685h155l-196 -685h-155zM123 743l35 123h272l-35 -123h-272z" />
    <glyph glyph-name="Iogonek" unicode="&#x12e;" horiz-adv-x="237" 
d="M81 -165q-8 -5 -19 -9q-9 -4 -22 -6.5t-29 -2.5q-38 0 -58.5 17t-20.5 45q0 38 25.5 71t60.5 50h-49l196 685h155l-196 -685h-27q-36 -17 -56 -43.5t-20 -44.5q0 -24 31 -24q10 0 18.5 1t14.5 3q7 2 13 5l-17 -62v0z" />
    <glyph glyph-name="Itilde" unicode="&#x128;" horiz-adv-x="237" 
d="M-32 0l196 685h155l-196 -685h-155zM184 751q-22 0 -43.5 -9t-34.5 -17l28 94q20 17 44 29t55 12q21 0 37.5 -5t31 -11t28.5 -11t32 -5q22 0 43.5 9t34.5 17l-28 -94q-20 -17 -44.5 -29t-55.5 -12q-21 0 -37.5 5t-30.5 11t-28 11t-32 5z" />
    <glyph glyph-name="Jcircumflex" unicode="&#x134;" horiz-adv-x="567" 
d="M173 245q-14 -59 10.5 -86.5t68.5 -27.5q42 0 72 28t44 77l129 449h154l-134 -470q-30 -107 -101 -167t-177 -60q-57 0 -102.5 16.5t-75.5 49t-41.5 80.5t-0.5 111h154zM729 722l-119 37l-171 -39l30 103l160 54l130 -54z" />
    <glyph glyph-name="Kcommaaccent" unicode="&#x136;" horiz-adv-x="619" 
d="M212 312l-89 -312h-155l196 685h155l-86 -300l300 300h201l-364 -342l180 -343h-178zM211 -219h-89l51 70h-32l31 107h128l-24 -83z" />
    <glyph glyph-name="Lacute" unicode="&#x139;" horiz-adv-x="535" 
d="M164 685h155l-155 -543h309l-41 -142h-464zM139 719l35 123l246 57l-36 -126z" />
    <glyph glyph-name="Lcaron" unicode="&#x13d;" horiz-adv-x="535" 
d="M551 563l-85 -119h-92l65 96h-38l42 145h143l-35 -122v0zM164 685h155l-155 -543h309l-41 -142h-464z" />
    <glyph glyph-name="quoteright" unicode="&#x2019;" horiz-adv-x="201" 
d="M176 444h-92l65 96h-38l42 145h143l-35 -122z" />
    <glyph glyph-name="Lcommaaccent" unicode="&#x13b;" horiz-adv-x="535" 
d="M164 685h155l-155 -543h309l-41 -142h-464zM169 -219h-89l51 70h-32l31 107h128l-24 -83z" />
    <glyph glyph-name="Ldot" unicode="&#x13f;" horiz-adv-x="535" 
d="M164 685h155l-155 -543h309l-41 -142h-464zM327 310l36 128h140l-36 -128h-140z" />
    <glyph glyph-name="Lslash" unicode="&#x141;" horiz-adv-x="545" 
d="M-21 0l82 287l-51 -24l31 107l51 24l83 291h155l-59 -206l89 42l-31 -108l-89 -42l-65 -229h309l-41 -142h-464z" />
    <glyph glyph-name="Nacute" unicode="&#x143;" horiz-adv-x="668" 
d="M245 441l-126 -441h-151l196 685h164l143 -440l126 440h151l-196 -685h-164zM356 719l35 123l246 57l-36 -126z" />
    <glyph glyph-name="Napostrophe" horiz-adv-x="668" 
d="M245 441l-126 -441h-151l196 685h164l143 -440l126 440h151l-196 -685h-164zM261 726h-89l51 70h-32l31 107h128l-24 -83z" />
    <glyph glyph-name="Ncaron" unicode="&#x147;" horiz-adv-x="668" 
d="M245 441l-126 -441h-151l196 685h164l143 -440l126 440h151l-196 -685h-164zM366 871l119 -37l171 39l-30 -103l-160 -54l-130 54z" />
    <glyph glyph-name="Ncommaaccent" unicode="&#x145;" horiz-adv-x="668" 
d="M245 441l-126 -441h-151l196 685h164l143 -440l126 440h151l-196 -685h-164zM222 -219h-89l51 70h-32l31 107h128l-24 -83z" />
    <glyph glyph-name="Ntilde" unicode="&#xd1;" horiz-adv-x="668" 
d="M245 441l-126 -441h-151l196 685h164l143 -440l126 440h151l-196 -685h-164zM399 751q-22 0 -43.5 -9t-34.5 -17l28 94q20 17 44 29t55 12q21 0 37.5 -5t31 -11t28.5 -11t32 -5q22 0 43.5 9t34.5 17l-28 -94q-20 -17 -44.5 -29t-55.5 -12q-21 0 -37.5 5t-30.5 11t-28 11
t-32 5z" />
    <glyph glyph-name="Oacute" unicode="&#xd3;" horiz-adv-x="763" 
d="M359 -15q-70 0 -127.5 23.5t-99 64.5t-64.5 96.5t-23 120.5q0 80 32.5 154t88 131t129.5 91t157 34q70 0 127.5 -23.5t99 -64.5t64.5 -96.5t23 -120.5q0 -80 -32.5 -154t-88 -131t-129.5 -91t-157 -34zM439 555q-48 0 -91 -21.5t-75.5 -57t-51.5 -81t-19 -93.5
q0 -36 12 -67.5t34.5 -55t54 -36.5t69.5 -13q48 0 91 21.5t75 57t51 81t19 93.5q0 36 -12 67.5t-34.5 55t-53.5 36.5t-69 13zM366 719l35 123l246 57l-36 -126z" />
    <glyph glyph-name="Obreve" unicode="&#x14e;" horiz-adv-x="763" 
d="M359 -15q-70 0 -127.5 23.5t-99 64.5t-64.5 96.5t-23 120.5q0 80 32.5 154t88 131t129.5 91t157 34q70 0 127.5 -23.5t99 -64.5t64.5 -96.5t23 -120.5q0 -80 -32.5 -154t-88 -131t-129.5 -91t-157 -34zM439 555q-48 0 -91 -21.5t-75.5 -57t-51.5 -81t-19 -93.5
q0 -36 12 -67.5t34.5 -55t54 -36.5t69.5 -13q48 0 91 21.5t75 57t51 81t19 93.5q0 36 -12 67.5t-34.5 55t-53.5 36.5t-69 13zM634 769q-22 -19 -60 -34.5t-92 -15.5t-87 20t-45 43l28 94q20 -17 53.5 -30t78.5 -13q51 0 91.5 14.5t63.5 28.5z" />
    <glyph glyph-name="Ocircumflex" unicode="&#xd4;" horiz-adv-x="763" 
d="M359 -15q-70 0 -127.5 23.5t-99 64.5t-64.5 96.5t-23 120.5q0 80 32.5 154t88 131t129.5 91t157 34q70 0 127.5 -23.5t99 -64.5t64.5 -96.5t23 -120.5q0 -80 -32.5 -154t-88 -131t-129.5 -91t-157 -34zM439 555q-48 0 -91 -21.5t-75.5 -57t-51.5 -81t-19 -93.5
q0 -36 12 -67.5t34.5 -55t54 -36.5t69.5 -13q48 0 91 21.5t75 57t51 81t19 93.5q0 36 -12 67.5t-34.5 55t-53.5 36.5t-69 13zM622 722l-119 37l-171 -39l30 103l160 54l130 -54z" />
    <glyph glyph-name="Odieresis" unicode="&#xd6;" horiz-adv-x="763" 
d="M359 -15q-70 0 -127.5 23.5t-99 64.5t-64.5 96.5t-23 120.5q0 80 32.5 154t88 131t129.5 91t157 34q70 0 127.5 -23.5t99 -64.5t64.5 -96.5t23 -120.5q0 -80 -32.5 -154t-88 -131t-129.5 -91t-157 -34zM439 555q-48 0 -91 -21.5t-75.5 -57t-51.5 -81t-19 -93.5
q0 -36 12 -67.5t34.5 -55t54 -36.5t69.5 -13q48 0 91 21.5t75 57t51 81t19 93.5q0 36 -12 67.5t-34.5 55t-53.5 36.5t-69 13zM328 728l37 129h133l-37 -129h-133zM497 728l37 129h133l-37 -129h-133z" />
    <glyph glyph-name="OE" unicode="&#x152;" horiz-adv-x="1025" 
d="M370 0q-70 0 -127.5 21t-99 59.5t-64.5 92.5t-23 119q0 77 31 148t86 125.5t129 87t161 32.5h655l-40 -140h-336l-37 -129h311l-39 -136h-311l-40 -140h338l-40 -140h-554zM471 142l115 401h-136q-55 0 -99 -20t-74.5 -53.5t-46.5 -76t-16 -87.5q0 -77 46.5 -120.5
t122.5 -43.5h88z" />
    <glyph glyph-name="Ograve" unicode="&#xd2;" horiz-adv-x="763" 
d="M359 -15q-70 0 -127.5 23.5t-99 64.5t-64.5 96.5t-23 120.5q0 80 32.5 154t88 131t129.5 91t157 34q70 0 127.5 -23.5t99 -64.5t64.5 -96.5t23 -120.5q0 -80 -32.5 -154t-88 -131t-129.5 -91t-157 -34zM439 555q-48 0 -91 -21.5t-75.5 -57t-51.5 -81t-19 -93.5
q0 -36 12 -67.5t34.5 -55t54 -36.5t69.5 -13q48 0 91 21.5t75 57t51 81t19 93.5q0 36 -12 67.5t-34.5 55t-53.5 36.5t-69 13zM585 715l-215 55l36 125l214 -57z" />
    <glyph glyph-name="Ohungarumlaut" unicode="&#x150;" horiz-adv-x="763" 
d="M359 -15q-70 0 -127.5 23.5t-99 64.5t-64.5 96.5t-23 120.5q0 80 32.5 154t88 131t129.5 91t157 34q70 0 127.5 -23.5t99 -64.5t64.5 -96.5t23 -120.5q0 -80 -32.5 -154t-88 -131t-129.5 -91t-157 -34zM439 555q-48 0 -91 -21.5t-75.5 -57t-51.5 -81t-19 -93.5
q0 -36 12 -67.5t34.5 -55t54 -36.5t69.5 -13q48 0 91 21.5t75 57t51 81t19 93.5q0 36 -12 67.5t-34.5 55t-53.5 36.5t-69 13zM320 730l90 147h136l-94 -147h-132zM489 730l94 147h136l-98 -147h-132z" />
    <glyph glyph-name="hungarumlaut" unicode="&#x2dd;" horiz-adv-x="394" 
d="M123 558l90 147h136l-94 -147h-132zM292 558l94 147h136l-98 -147h-132z" />
    <glyph glyph-name="Omacron" unicode="&#x14c;" horiz-adv-x="763" 
d="M359 -15q-70 0 -127.5 23.5t-99 64.5t-64.5 96.5t-23 120.5q0 80 32.5 154t88 131t129.5 91t157 34q70 0 127.5 -23.5t99 -64.5t64.5 -96.5t23 -120.5q0 -80 -32.5 -154t-88 -131t-129.5 -91t-157 -34zM439 555q-48 0 -91 -21.5t-75.5 -57t-51.5 -81t-19 -93.5
q0 -36 12 -67.5t34.5 -55t54 -36.5t69.5 -13q48 0 91 21.5t75 57t51 81t19 93.5q0 36 -12 67.5t-34.5 55t-53.5 36.5t-69 13zM348 743l35 123h272l-35 -123h-272z" />
    <glyph glyph-name="Oslash" unicode="&#xd8;" horiz-adv-x="764" 
d="M203 302q0 -47 22 -88l297 322q-38 19 -82 19q-48 0 -91 -21.5t-75.5 -57t-51.5 -81t-19 -93.5zM373 130q48 0 91 21.5t75 57t51 81t19 93.5t-21 87l-296 -322q17 -8 37.5 -13t43.5 -5zM360 -15q-51 0 -95 12t-80 35l-67 -72h-128l124 134q-32 39 -50 89t-18 107
q0 80 32.5 154t88 131t129.5 91t157 34q51 0 95 -12.5t81 -35.5l67 73h128l-124 -135q32 -39 49.5 -88.5t17.5 -106.5q0 -80 -32.5 -154t-88 -131t-129.5 -91t-157 -34z" />
    <glyph glyph-name="Otilde" unicode="&#xd5;" horiz-adv-x="763" 
d="M359 -15q-70 0 -127.5 23.5t-99 64.5t-64.5 96.5t-23 120.5q0 80 32.5 154t88 131t129.5 91t157 34q70 0 127.5 -23.5t99 -64.5t64.5 -96.5t23 -120.5q0 -80 -32.5 -154t-88 -131t-129.5 -91t-157 -34zM439 555q-48 0 -91 -21.5t-75.5 -57t-51.5 -81t-19 -93.5
q0 -36 12 -67.5t34.5 -55t54 -36.5t69.5 -13q48 0 91 21.5t75 57t51 81t19 93.5q0 36 -12 67.5t-34.5 55t-53.5 36.5t-69 13zM409 751q-22 0 -43.5 -9t-34.5 -17l28 94q20 17 44 29t55 12q21 0 37.5 -5t31 -11t28.5 -11t32 -5q22 0 43.5 9t34.5 17l-28 -94
q-20 -17 -44.5 -29t-55.5 -12q-21 0 -37.5 5t-30.5 11t-28 11t-32 5z" />
    <glyph glyph-name="Racute" unicode="&#x154;" horiz-adv-x="611" 
d="M331 360q65 0 101 30t36 83q0 29 -17 49.5t-55 20.5h-117l-53 -183h105zM192 239l-69 -239h-155l196 685h252q53 0 92.5 -15t65.5 -41t39 -61t13 -74q0 -47 -16.5 -92t-49 -81t-81 -60t-112.5 -29l148 -232h-183zM329 718l35 123l246 57l-36 -126z" />
    <glyph glyph-name="Rcaron" unicode="&#x158;" horiz-adv-x="611" 
d="M331 360q65 0 101 30t36 83q0 29 -17 49.5t-55 20.5h-117l-53 -183h105zM192 239l-69 -239h-155l196 685h252q53 0 92.5 -15t65.5 -41t39 -61t13 -74q0 -47 -16.5 -92t-49 -81t-81 -60t-112.5 -29l148 -232h-183zM339 870l119 -37l171 39l-30 -103l-160 -54l-130 54z" />
    <glyph glyph-name="Rcommaaccent" unicode="&#x156;" horiz-adv-x="611" 
d="M331 360q65 0 101 30t36 83q0 29 -17 49.5t-55 20.5h-117l-53 -183h105zM192 239l-69 -239h-155l196 685h252q53 0 92.5 -15t65.5 -41t39 -61t13 -74q0 -47 -16.5 -92t-49 -81t-81 -60t-112.5 -29l148 -232h-183zM202 -219h-89l51 70h-32l31 107h128l-24 -83z" />
    <glyph glyph-name="Sacute" unicode="&#x15a;" horiz-adv-x="588" 
d="M267 -13q-142 0 -206 61.5t-54 165.5h155q-3 -21 1.5 -39.5t18 -33t36.5 -22.5t58 -8q56 0 82 21.5t26 49.5q0 16 -9 29t-24 23.5t-35 19.5t-42 18q-86 34 -133 82t-47 122q0 50 19 91.5t54 71t84.5 46t110.5 16.5q65 0 112.5 -17t78 -47.5t44 -72t9.5 -90.5h-154
q7 48 -21.5 74.5t-83.5 26.5q-46 0 -71.5 -21t-25.5 -51q0 -17 9.5 -31t25.5 -25t37 -20.5t44 -18.5q36 -14 69 -30t59 -37.5t41.5 -50.5t15.5 -69q0 -44 -16.5 -86t-51 -75t-88 -53t-128.5 -20zM287 719l35 123l246 57l-36 -126z" />
    <glyph glyph-name="Scaron" unicode="&#x160;" horiz-adv-x="588" 
d="M267 -13q-142 0 -206 61.5t-54 165.5h155q-3 -21 1.5 -39.5t18 -33t36.5 -22.5t58 -8q56 0 82 21.5t26 49.5q0 16 -9 29t-24 23.5t-35 19.5t-42 18q-86 34 -133 82t-47 122q0 50 19 91.5t54 71t84.5 46t110.5 16.5q65 0 112.5 -17t78 -47.5t44 -72t9.5 -90.5h-154
q7 48 -21.5 74.5t-83.5 26.5q-46 0 -71.5 -21t-25.5 -51q0 -17 9.5 -31t25.5 -25t37 -20.5t44 -18.5q36 -14 69 -30t59 -37.5t41.5 -50.5t15.5 -69q0 -44 -16.5 -86t-51 -75t-88 -53t-128.5 -20zM297 871l119 -37l171 39l-30 -103l-160 -54l-130 54z" />
    <glyph glyph-name="Scedilla" unicode="&#x15e;" horiz-adv-x="588" 
d="M190 -217q-42 0 -64.5 26t-15.5 64h70q-2 -11 4 -18.5t17 -7.5t20 7t12 17q4 13 -2 21t-18 8h-73l66 90q-110 14 -159 72.5t-40 151.5h155q-3 -21 1.5 -39.5t18 -33t36.5 -22.5t58 -8q56 0 82 21.5t26 49.5q0 16 -9 29t-24 23.5t-35 19.5t-42 18q-86 34 -133 82t-47 122
q0 50 19 91.5t54 71t84.5 46t110.5 16.5q65 0 112.5 -17t78 -47.5t44 -72t9.5 -90.5h-154q7 48 -21.5 74.5t-83.5 26.5q-46 0 -71.5 -21t-25.5 -51q0 -17 9.5 -31t25.5 -25t37 -20.5t44 -18.5q36 -14 69 -30t59 -37.5t41.5 -50.5t15.5 -69q0 -44 -16.5 -86t-51 -75t-88 -53
t-128.5 -20h-4l-23 -29q38 -2 54 -26.5t9 -58.5q-8 -37 -38 -63.5t-75 -26.5z" />
    <glyph glyph-name="Scircumflex" unicode="&#x15c;" horiz-adv-x="588" 
d="M267 -13q-142 0 -206 61.5t-54 165.5h155q-3 -21 1.5 -39.5t18 -33t36.5 -22.5t58 -8q56 0 82 21.5t26 49.5q0 16 -9 29t-24 23.5t-35 19.5t-42 18q-86 34 -133 82t-47 122q0 50 19 91.5t54 71t84.5 46t110.5 16.5q65 0 112.5 -17t78 -47.5t44 -72t9.5 -90.5h-154
q7 48 -21.5 74.5t-83.5 26.5q-46 0 -71.5 -21t-25.5 -51q0 -17 9.5 -31t25.5 -25t37 -20.5t44 -18.5q36 -14 69 -30t59 -37.5t41.5 -50.5t15.5 -69q0 -44 -16.5 -86t-51 -75t-88 -53t-128.5 -20zM543 722l-119 37l-171 -39l30 103l160 54l130 -54z" />
    <glyph glyph-name="Scommaaccent" unicode="&#x218;" horiz-adv-x="588" 
d="M267 -13q-142 0 -206 61.5t-54 165.5h155q-3 -21 1.5 -39.5t18 -33t36.5 -22.5t58 -8q56 0 82 21.5t26 49.5q0 16 -9 29t-24 23.5t-35 19.5t-42 18q-86 34 -133 82t-47 122q0 50 19 91.5t54 71t84.5 46t110.5 16.5q65 0 112.5 -17t78 -47.5t44 -72t9.5 -90.5h-154
q7 48 -21.5 74.5t-83.5 26.5q-46 0 -71.5 -21t-25.5 -51q0 -17 9.5 -31t25.5 -25t37 -20.5t44 -18.5q36 -14 69 -30t59 -37.5t41.5 -50.5t15.5 -69q0 -44 -16.5 -86t-51 -75t-88 -53t-128.5 -20zM214 -219h-89l51 70h-32l31 107h128l-24 -83z" />
    <glyph glyph-name="Tbar" unicode="&#x166;" horiz-adv-x="584" 
d="M369 250l-72 -250h-155l72 250h-137l37 131h137l47 162h-199l40 142h552l-40 -142h-198l-47 -162h138l-37 -131h-138z" />
    <glyph glyph-name="Tcaron" unicode="&#x164;" horiz-adv-x="584" 
d="M141 0l156 543h-199l40 142h552l-40 -142h-198l-156 -543h-155zM324 871l119 -37l171 39l-30 -103l-160 -54l-130 54z" />
    <glyph glyph-name="Tcedilla" unicode="&#x162;" horiz-adv-x="584" 
d="M170 -217q-42 0 -64.5 26t-15.5 64h70q-2 -11 4 -18.5t17 -7.5t20 7t12 17q4 13 -2 21t-18 8h-73l73 100h-51l156 543h-199l40 142h552l-40 -142h-198l-156 -543h-44l-33 -42q38 -2 54 -26.5t9 -58.5q-8 -37 -38 -63.5t-75 -26.5z" />
    <glyph glyph-name="uni021A" unicode="&#x21a;" horiz-adv-x="584" 
d="M141 0l156 543h-199l40 142h552l-40 -142h-198l-156 -543h-155zM182 -219h-89l51 70h-32l31 107h128l-24 -83z" />
    <glyph glyph-name="Thorn" unicode="&#xde;" horiz-adv-x="596" 
d="M292 590h112q49 0 86 -16t62 -43.5t37.5 -64t12.5 -77.5q0 -59 -21.5 -112t-62 -93t-98 -64t-128.5 -24h-141l-28 -96h-155l196 685h156zM252 448l-61 -210h121q31 0 55.5 10t41.5 27.5t25.5 40.5t8.5 49q0 35 -22 59t-65 24h-104z" />
    <glyph glyph-name="Uacute" unicode="&#xda;" horiz-adv-x="655" 
d="M610 232q-32 -113 -110 -178.5t-196 -65.5q-79 0 -135.5 24t-89 67.5t-39 103t13.5 130.5l106 372h155l-106 -373q-23 -83 4 -131.5t103 -48.5q54 0 92.5 36.5t58.5 106.5l117 410h155zM332 719l35 123l246 57l-36 -126z" />
    <glyph glyph-name="Ubreve" unicode="&#x16c;" horiz-adv-x="655" 
d="M610 232q-32 -113 -110 -178.5t-196 -65.5q-79 0 -135.5 24t-89 67.5t-39 103t13.5 130.5l106 372h155l-106 -373q-23 -83 4 -131.5t103 -48.5q54 0 92.5 36.5t58.5 106.5l117 410h155zM600 769q-22 -19 -60 -34.5t-92 -15.5t-87 20t-45 43l28 94q20 -17 53.5 -30
t78.5 -13q51 0 91.5 14.5t63.5 28.5z" />
    <glyph glyph-name="Ucircumflex" unicode="&#xdb;" horiz-adv-x="655" 
d="M610 232q-32 -113 -110 -178.5t-196 -65.5q-79 0 -135.5 24t-89 67.5t-39 103t13.5 130.5l106 372h155l-106 -373q-23 -83 4 -131.5t103 -48.5q54 0 92.5 36.5t58.5 106.5l117 410h155zM588 722l-119 37l-171 -39l30 103l160 54l130 -54z" />
    <glyph glyph-name="Udieresis" unicode="&#xdc;" horiz-adv-x="655" 
d="M610 232q-32 -113 -110 -178.5t-196 -65.5q-79 0 -135.5 24t-89 67.5t-39 103t13.5 130.5l106 372h155l-106 -373q-23 -83 4 -131.5t103 -48.5q54 0 92.5 36.5t58.5 106.5l117 410h155zM294 728l37 129h133l-37 -129h-133zM463 728l37 129h133l-37 -129h-133z" />
    <glyph glyph-name="Ugrave" unicode="&#xd9;" horiz-adv-x="655" 
d="M610 232q-32 -113 -110 -178.5t-196 -65.5q-79 0 -135.5 24t-89 67.5t-39 103t13.5 130.5l106 372h155l-106 -373q-23 -83 4 -131.5t103 -48.5q54 0 92.5 36.5t58.5 106.5l117 410h155zM551 715l-215 55l36 125l214 -57z" />
    <glyph glyph-name="Uhungarumlaut" unicode="&#x170;" horiz-adv-x="655" 
d="M610 232q-32 -113 -110 -178.5t-196 -65.5q-79 0 -135.5 24t-89 67.5t-39 103t13.5 130.5l106 372h155l-106 -373q-23 -83 4 -131.5t103 -48.5q54 0 92.5 36.5t58.5 106.5l117 410h155zM286 730l90 147h136l-94 -147h-132zM455 730l94 147h136l-98 -147h-132z" />
    <glyph glyph-name="Umacron" unicode="&#x16a;" horiz-adv-x="655" 
d="M610 232q-32 -113 -110 -178.5t-196 -65.5q-79 0 -135.5 24t-89 67.5t-39 103t13.5 130.5l106 372h155l-106 -373q-23 -83 4 -131.5t103 -48.5q54 0 92.5 36.5t58.5 106.5l117 410h155zM314 743l35 123h272l-35 -123h-272z" />
    <glyph glyph-name="Uogonek" unicode="&#x172;" horiz-adv-x="654" 
d="M274 -183q-38 0 -58.5 17t-20.5 45q0 33 19.5 62.5t48.5 48.5q-68 6 -116 32.5t-74.5 69t-31.5 99t14 122.5l106 372h155l-106 -373q-23 -83 4 -131.5t103 -48.5q54 0 92.5 36.5t58.5 106.5l117 410h155l-129 -453q-30 -104 -98.5 -168t-171.5 -74q-27 -17 -42 -39.5
t-15 -38.5q0 -24 31 -24q10 0 18.5 1t14.5 3q7 2 13 5l-17 -62q-8 -5 -19 -9q-9 -4 -22 -6.5t-29 -2.5z" />
    <glyph glyph-name="Uring" unicode="&#x16e;" horiz-adv-x="655" 
d="M610 232q-32 -113 -110 -178.5t-196 -65.5q-79 0 -135.5 24t-89 67.5t-39 103t13.5 130.5l106 372h155l-106 -373q-23 -83 4 -131.5t103 -48.5q54 0 92.5 36.5t58.5 106.5l117 410h155zM370 811q0 22 9 43.5t25 38t38 26.5t47 10q38 0 63.5 -25t25.5 -63q0 -23 -9 -44.5
t-25 -38t-38 -26.5t-47 -10q-38 0 -63.5 25t-25.5 64zM510 832q0 15 -9 24t-23 9q-17 0 -28.5 -13t-11.5 -32q0 -15 9 -24t23 -9q18 0 29 14t11 31z" />
    <glyph glyph-name="Utilde" unicode="&#x168;" horiz-adv-x="655" 
d="M610 232q-32 -113 -110 -178.5t-196 -65.5q-79 0 -135.5 24t-89 67.5t-39 103t13.5 130.5l106 372h155l-106 -373q-23 -83 4 -131.5t103 -48.5q54 0 92.5 36.5t58.5 106.5l117 410h155zM375 751q-22 0 -43.5 -9t-34.5 -17l28 94q20 17 44 29t55 12q21 0 37.5 -5t31 -11
t28.5 -11t32 -5q22 0 43.5 9t34.5 17l-28 -94q-20 -17 -44.5 -29t-55.5 -12q-21 0 -37.5 5t-30.5 11t-28 11t-32 5z" />
    <glyph glyph-name="Wacute" unicode="&#x1e82;" horiz-adv-x="943" 
d="M521 422l-237 -422h-185l33 685h155l-38 -493l273 493h135l-8 -495l246 495h161l-358 -685h-184zM484 719l35 123l246 57l-36 -126z" />
    <glyph glyph-name="Wdieresis" unicode="&#x1e84;" horiz-adv-x="943" 
d="M521 422l-237 -422h-185l33 685h155l-38 -493l273 493h135l-8 -495l246 495h161l-358 -685h-184zM446 728l37 129h133l-37 -129h-133zM615 728l37 129h133l-37 -129h-133z" />
    <glyph glyph-name="Wgrave" unicode="&#x1e80;" horiz-adv-x="943" 
d="M521 422l-237 -422h-185l33 685h155l-38 -493l273 493h135l-8 -495l246 495h161l-358 -685h-184zM703 715l-215 55l36 125l214 -57z" />
    <glyph glyph-name="Wcircumflex" unicode="&#x174;" horiz-adv-x="943" 
d="M521 422l-237 -422h-185l33 685h155l-38 -493l273 493h135l-8 -495l246 495h161l-358 -685h-184zM740 722l-119 37l-171 -39l30 103l160 54l130 -54z" />
    <glyph glyph-name="Yacute" unicode="&#xdd;" horiz-adv-x="660" 
d="M248 255l-120 430h159l72 -288l234 288h177l-366 -429l-73 -256h-156zM342 719l35 123l246 57l-36 -126z" />
    <glyph glyph-name="Ycircumflex" unicode="&#x176;" horiz-adv-x="660" 
d="M248 255l-120 430h159l72 -288l234 288h177l-366 -429l-73 -256h-156zM598 722l-119 37l-171 -39l30 103l160 54l130 -54z" />
    <glyph glyph-name="Ydieresis" unicode="&#x178;" horiz-adv-x="660" 
d="M248 255l-120 430h159l72 -288l234 288h177l-366 -429l-73 -256h-156zM304 728l37 129h133l-37 -129h-133zM473 728l37 129h133l-37 -129h-133z" />
    <glyph glyph-name="Ygrave" unicode="&#x1ef2;" horiz-adv-x="660" 
d="M248 255l-120 430h159l72 -288l234 288h177l-366 -429l-73 -256h-156zM561 715l-215 55l36 125l214 -57z" />
    <glyph glyph-name="Zacute" unicode="&#x179;" horiz-adv-x="575" 
d="M191 139h322l-40 -139h-520l37 128l435 418h-315l39 139h515l-37 -130zM309 719l35 123l246 57l-36 -126z" />
    <glyph glyph-name="Zcaron" unicode="&#x17d;" horiz-adv-x="575" 
d="M191 139h322l-40 -139h-520l37 128l435 418h-315l39 139h515l-37 -130zM319 871l119 -37l171 39l-30 -103l-160 -54l-130 54z" />
    <glyph glyph-name="Zdotaccent" unicode="&#x17b;" horiz-adv-x="575" 
d="M191 139h322l-40 -139h-520l37 128l435 418h-315l39 139h515l-37 -130zM353 729l36 128h140l-36 -128h-140z" />
    <glyph glyph-name="a" unicode="a" horiz-adv-x="585" 
d="M418 275q0 24 -8.5 45t-23.5 37t-36.5 25t-47.5 9q-32 0 -60 -13.5t-49 -36t-33 -51.5t-12 -60q0 -53 32.5 -83.5t82.5 -30.5q31 0 59 13t49.5 35t34 51t12.5 60zM360 39q-26 -20 -59 -31.5t-72 -11.5q-46 0 -86 16t-69 44.5t-46 68.5t-17 89q0 62 25 117.5t67 97
t95.5 66t110.5 24.5q50 0 94 -20t69 -51l19 65h139l-147 -513h-134z" />
    <glyph glyph-name="b" unicode="b" horiz-adv-x="586" 
d="M275 -6q-50 0 -94 20t-69 51l-19 -65h-139l196 685h139l-56 -196q25 14 55.5 21.5t62.5 7.5q48 0 88.5 -16t70 -44.5t46.5 -69t17 -89.5q0 -62 -25 -117.5t-67 -97t-95.5 -66t-110.5 -24.5zM166 238q0 -24 8.5 -45t23.5 -37t36.5 -25t47.5 -9q32 0 60 13.5t49 36t33 51.5
t12 60q0 53 -32.5 83.5t-82.5 30.5q-31 0 -59 -13t-49.5 -35t-34 -51t-12.5 -60z" />
    <glyph glyph-name="c" unicode="c" horiz-adv-x="539" 
d="M251 -14q-53 0 -96.5 16.5t-75 46t-48.5 71.5t-17 93q0 63 24.5 119t66.5 98t98.5 66.5t121.5 24.5q81 0 135.5 -34.5t77.5 -97.5l-122 -67q-26 71 -110 71q-30 0 -57.5 -13t-48.5 -35t-33 -52.5t-12 -64.5q0 -57 34 -87t84 -30q47 0 78 24t53 53l94 -71
q-45 -62 -106.5 -96.5t-140.5 -34.5z" />
    <glyph glyph-name="d" unicode="d" horiz-adv-x="585" 
d="M418 275q0 24 -8.5 45t-23.5 37t-36.5 25t-47.5 9q-32 0 -60 -13.5t-49 -36t-33 -51.5t-12 -60q0 -53 32.5 -83.5t82.5 -30.5q31 0 59 13t49.5 35t34 51t12.5 60zM360 39q-26 -20 -59 -31.5t-73 -11.5q-46 0 -85.5 16t-69 44.5t-46 68.5t-16.5 89q0 62 25 117.5t67 97
t95.5 66t110.5 24.5q50 0 94 -20t69 -51l68 237h139l-196 -685h-134z" />
    <glyph glyph-name="e" unicode="e" horiz-adv-x="561" 
d="M493 102q-39 -50 -99.5 -82.5t-140.5 -32.5q-57 0 -102 17.5t-76 48.5t-47.5 73t-16.5 91q0 62 24 117.5t66 97.5t98 66.5t119 24.5q55 0 97 -17t69.5 -46t41.5 -67t14 -80q0 -20 -3 -47.5t-11 -52.5h-380q4 -51 37.5 -80t88.5 -29q46 0 77.5 20.5t53.5 46.5zM303 409
q-49 0 -82.5 -25.5t-52.5 -67.5h238q-1 18 -6.5 35t-17.5 29.5t-31.5 20.5t-47.5 8z" />
    <glyph glyph-name="f" unicode="f" horiz-adv-x="372" 
d="M424 513l-35 -124h-113l-112 -389h-139l112 389h-78l35 124h78l11 33q25 74 84 110t158 36h51l-33 -114h-43q-35 0 -57 -13.5t-30 -43.5l-2 -8h113z" />
    <glyph glyph-name="g" unicode="g" horiz-adv-x="578" 
d="M412 278q0 23 -8 43.5t-23 36t-36 24.5t-46 9q-30 0 -57.5 -13t-48.5 -35t-33 -50.5t-12 -59.5q0 -50 31 -80.5t81 -30.5q31 0 58.5 13t48.5 34.5t33 50t12 58.5zM176 -191q-81 0 -140 30t-83 95l115 68q13 -30 41 -51t79 -21q53 0 92.5 26t60.5 74q-49 -29 -114 -29
q-47 0 -86.5 16.5t-68 45.5t-45 69t-16.5 87q0 58 23 112t63 96t92.5 67t112.5 25q54 0 97.5 -20t66.5 -50l19 64h139l-138 -476q-16 -54 -45 -96.5t-69.5 -71.5t-90 -44.5t-105.5 -15.5z" />
    <glyph glyph-name="h" unicode="h" 
d="M93 0h-139l196 685h139l-63 -220q33 26 72 41.5t87 15.5q39 0 70.5 -15t50 -42.5t23.5 -65.5t-8 -84l-90 -315h-138l83 291q13 45 -7 74t-62 29q-50 0 -84 -31t-49 -83z" />
    <glyph glyph-name="i" unicode="i" horiz-adv-x="195" 
d="M114 557l36 128h139l-36 -128h-139zM-46 0l147 513h139l-147 -513h-139z" />
    <glyph glyph-name="j" unicode="j" horiz-adv-x="195" 
d="M114 557l36 128h139l-36 -128h-139zM240 513l-144 -502q-17 -57 -40 -96t-55 -61t-75 -28t-100 2l34 122q39 -5 63.5 11.5t36.5 58.5l141 493h139z" />
    <glyph glyph-name="k" unicode="k" horiz-adv-x="498" 
d="M158 224l-64 -224h-140l196 685h140l-110 -384l210 212h175l-269 -257l129 -256h-157z" />
    <glyph glyph-name="l" unicode="l" horiz-adv-x="196" 
d="M-46 0l196 685h140l-196 -685h-140z" />
    <glyph glyph-name="m" unicode="m" horiz-adv-x="836" 
d="M93 0h-139l147 513h137l-14 -50q32 26 69 42.5t82 16.5q43 0 75 -19.5t49 -54.5q32 31 76.5 52.5t101.5 21.5q44 0 77.5 -15t53 -42.5t24.5 -65.5t-8 -84l-90 -315h-138l83 291q13 45 -5.5 74t-56.5 29q-46 0 -77 -31t-46 -83l-80 -280h-138l83 291q13 45 -5.5 74
t-56.5 29q-46 0 -77 -31t-46 -83z" />
    <glyph glyph-name="n" unicode="n" 
d="M93 0h-139l147 513h137l-14 -51q32 27 72.5 43.5t88.5 16.5q39 0 70.5 -15t50 -42.5t23.5 -65.5t-8 -84l-90 -315h-138l83 291q13 45 -7 74t-62 29q-50 0 -84 -31t-49 -83z" />
    <glyph glyph-name="o" unicode="o" horiz-adv-x="577" 
d="M323 524q51 0 94.5 -16.5t75.5 -47t50.5 -72.5t18.5 -93q0 -57 -23 -112t-64 -98.5t-97.5 -70t-123.5 -26.5q-51 0 -94.5 16.5t-75.5 47t-50.5 72.5t-18.5 93q0 57 23 112t64 98.5t97.5 70t123.5 26.5zM424 283q0 51 -31 83t-80 32q-32 0 -61 -13.5t-51 -37t-35 -54
t-13 -64.5q0 -51 31 -83t80 -32q32 0 61 13.5t51 37t35 54t13 64.5z" />
    <glyph glyph-name="p" unicode="p" horiz-adv-x="585" 
d="M166 238q0 -24 8.5 -45t23.5 -37t36.5 -25t47.5 -9q32 0 60 13.5t49 36t33 51.5t12 60q0 53 -32.5 83.5t-82.5 30.5q-31 0 -59 -13t-49.5 -35t-34 -51t-12.5 -60zM275 -6q-50 0 -94 20t-69 51l-69 -241h-139l197 689h134l-11 -39q26 20 59 31.5t74 11.5q45 0 84.5 -16
t69 -44.5t46 -68.5t16.5 -89q0 -62 -25 -117.5t-67 -97t-95.5 -66t-110.5 -24.5z" />
    <glyph glyph-name="q" unicode="q" horiz-adv-x="585" 
d="M294 -176l57 200q-25 -14 -55.5 -21.5t-62.5 -7.5q-48 0 -88.5 16t-70 44.5t-46.5 69t-17 89.5q0 62 25 117.5t67 97t95.5 66t110.5 24.5q50 0 94 -20t69 -51l19 65h139l-197 -689h-139zM418 275q0 24 -8.5 45t-23.5 37t-36.5 25t-47.5 9q-32 0 -60 -13.5t-49 -36
t-33 -51.5t-12 -60q0 -53 32.5 -83.5t82.5 -30.5q31 0 59 13t49.5 35t34 51t12.5 60z" />
    <glyph glyph-name="r" unicode="r" horiz-adv-x="334" 
d="M347 380q-75 0 -120.5 -39.5t-65.5 -106.5l-67 -234h-140l147 513h139l-20 -71q20 21 46 39q22 14 52.5 26.5t68.5 12.5z" />
    <glyph glyph-name="s" unicode="s" horiz-adv-x="491" 
d="M133 161q-5 -38 19 -54.5t61 -16.5q40 0 59 15t19 33q0 19 -22 30.5t-67 22.5q-29 7 -57.5 17t-50.5 26.5t-35.5 40.5t-13.5 59q0 40 16.5 74t47 59t74 38.5t97.5 13.5q94 0 143.5 -44.5t39.5 -125.5h-138q5 30 -9.5 48t-55.5 18q-35 0 -53 -14.5t-18 -33.5
q0 -20 23 -32.5t77 -26.5q31 -8 58.5 -19.5t48 -27.5t32 -38t11.5 -51q0 -38 -15 -71t-45.5 -58t-76 -39t-105.5 -14q-53 0 -94 11.5t-67.5 33.5t-37.5 53.5t-5 72.5h140z" />
    <glyph glyph-name="t" unicode="t" horiz-adv-x="379" 
d="M213 188q-10 -34 3.5 -51.5t47.5 -17.5h52l-35 -119h-65q-49 0 -81.5 15.5t-49.5 42.5t-18.5 63.5t10.5 79.5l54 188h-72l35 124h72l38 132h139l-38 -132h123l-35 -124h-124z" />
    <glyph glyph-name="u" unicode="u" 
d="M308 51q-32 -27 -72.5 -43.5t-88.5 -16.5q-39 0 -70.5 15t-50 42.5t-23.5 65.5t8 84l90 315h138l-83 -291q-13 -45 7 -74t62 -29q50 0 84 31t49 83l81 280h139l-147 -513h-137z" />
    <glyph glyph-name="v" unicode="v" horiz-adv-x="535" 
d="M101 0l-17 513h144l-2 -382l216 382h155l-311 -513h-185z" />
    <glyph glyph-name="w" unicode="w" horiz-adv-x="766" 
d="M392 290l-151 -290h-176l18 513h137l-19 -344l182 344h138l-17 -357l185 357h139l-277 -513h-175z" />
    <glyph glyph-name="x" unicode="x" horiz-adv-x="522" 
d="M232 146l-124 -146h-172l247 269l-92 244h153l48 -138l120 138h171l-242 -260l95 -253h-153z" />
    <glyph glyph-name="y" unicode="y" horiz-adv-x="523" 
d="M588 513l-320 -505q-36 -57 -70 -95t-72 -59.5t-83 -27t-103 2.5l35 124q33 -5 55 -1.5t38 13t29 25t27 35.5l-41 488h148l12 -317l191 317h154z" />
    <glyph glyph-name="z" unicode="z" horiz-adv-x="470" 
d="M180 121h226l-35 -121h-421l31 108l307 282h-228l35 123h423l-31 -110z" />
    <glyph glyph-name="k.alt" horiz-adv-x="505" 
d="M229 214l-99 -88l-36 -126h-140l196 685h140l-107 -375l207 203h175l-218 -194l78 -319h-157z" />
    <glyph glyph-name="aacute" unicode="&#xe1;" horiz-adv-x="585" 
d="M418 275q0 24 -8.5 45t-23.5 37t-36.5 25t-47.5 9q-32 0 -60 -13.5t-49 -36t-33 -51.5t-12 -60q0 -53 32.5 -83.5t82.5 -30.5q31 0 59 13t49.5 35t34 51t12.5 60zM360 39q-26 -20 -59 -31.5t-72 -11.5q-46 0 -86 16t-69 44.5t-46 68.5t-17 89q0 62 25 117.5t67 97
t95.5 66t110.5 24.5q50 0 94 -20t69 -51l19 65h139l-147 -513h-134zM240 547l35 123l246 57l-36 -126z" />
    <glyph glyph-name="abreve" unicode="&#x103;" horiz-adv-x="585" 
d="M418 275q0 24 -8.5 45t-23.5 37t-36.5 25t-47.5 9q-32 0 -60 -13.5t-49 -36t-33 -51.5t-12 -60q0 -53 32.5 -83.5t82.5 -30.5q31 0 59 13t49.5 35t34 51t12.5 60zM360 39q-26 -20 -59 -31.5t-72 -11.5q-46 0 -86 16t-69 44.5t-46 68.5t-17 89q0 62 25 117.5t67 97
t95.5 66t110.5 24.5q50 0 94 -20t69 -51l19 65h139l-147 -513h-134zM508 597q-22 -19 -60 -34.5t-92 -15.5t-87 20t-45 43l28 94q20 -17 53.5 -30t78.5 -13q51 0 91.5 14.5t63.5 28.5z" />
    <glyph glyph-name="acircumflex" unicode="&#xe2;" horiz-adv-x="585" 
d="M418 275q0 24 -8.5 45t-23.5 37t-36.5 25t-47.5 9q-32 0 -60 -13.5t-49 -36t-33 -51.5t-12 -60q0 -53 32.5 -83.5t82.5 -30.5q31 0 59 13t49.5 35t34 51t12.5 60zM360 39q-26 -20 -59 -31.5t-72 -11.5q-46 0 -86 16t-69 44.5t-46 68.5t-17 89q0 62 25 117.5t67 97
t95.5 66t110.5 24.5q50 0 94 -20t69 -51l19 65h139l-147 -513h-134zM496 550l-119 37l-171 -39l30 103l160 54l130 -54z" />
    <glyph glyph-name="adieresis" unicode="&#xe4;" horiz-adv-x="585" 
d="M418 275q0 24 -8.5 45t-23.5 37t-36.5 25t-47.5 9q-32 0 -60 -13.5t-49 -36t-33 -51.5t-12 -60q0 -53 32.5 -83.5t82.5 -30.5q31 0 59 13t49.5 35t34 51t12.5 60zM360 39q-26 -20 -59 -31.5t-72 -11.5q-46 0 -86 16t-69 44.5t-46 68.5t-17 89q0 62 25 117.5t67 97
t95.5 66t110.5 24.5q50 0 94 -20t69 -51l19 65h139l-147 -513h-134zM202 556l37 129h133l-37 -129h-133zM371 556l37 129h133l-37 -129h-133z" />
    <glyph glyph-name="ae" unicode="&#xe6;" horiz-adv-x="971" 
d="M668 -13q-55 0 -98 16t-74 45l-13 -48h-134l11 39q-26 -20 -59 -31.5t-72 -11.5q-46 0 -86 16t-69 44.5t-46 68.5t-17 89q0 62 25 117.5t67 97t95.5 66t110.5 24.5q50 0 94 -20t69 -51l19 65h139l-7 -24q24 14 53.5 21.5t61.5 7.5q54 0 95 -16.5t68 -45t40.5 -65.5
t13.5 -78q0 -20 -3 -47.5t-11 -52.5h-380q4 -51 37.5 -80t88.5 -29q46 0 77.5 20.5t53.5 46.5l90 -69q-39 -50 -99.5 -82.5t-140.5 -32.5zM718 409q-49 0 -82.5 -25.5t-52.5 -67.5h238q-1 18 -6.5 35t-17.5 29.5t-31.5 20.5t-47.5 8zM418 275q0 24 -8.5 45t-23.5 37
t-36.5 25t-47.5 9q-32 0 -60 -13.5t-49 -36t-33 -51.5t-12 -60q0 -53 32.5 -83.5t82.5 -30.5q31 0 59 13t49.5 35t34 51t12.5 60z" />
    <glyph glyph-name="agrave" unicode="&#xe0;" horiz-adv-x="585" 
d="M418 275q0 24 -8.5 45t-23.5 37t-36.5 25t-47.5 9q-32 0 -60 -13.5t-49 -36t-33 -51.5t-12 -60q0 -53 32.5 -83.5t82.5 -30.5q31 0 59 13t49.5 35t34 51t12.5 60zM360 39q-26 -20 -59 -31.5t-72 -11.5q-46 0 -86 16t-69 44.5t-46 68.5t-17 89q0 62 25 117.5t67 97
t95.5 66t110.5 24.5q50 0 94 -20t69 -51l19 65h139l-147 -513h-134zM459 543l-215 55l36 125l214 -57z" />
    <glyph glyph-name="amacron" unicode="&#x101;" horiz-adv-x="585" 
d="M418 275q0 24 -8.5 45t-23.5 37t-36.5 25t-47.5 9q-32 0 -60 -13.5t-49 -36t-33 -51.5t-12 -60q0 -53 32.5 -83.5t82.5 -30.5q31 0 59 13t49.5 35t34 51t12.5 60zM360 39q-26 -20 -59 -31.5t-72 -11.5q-46 0 -86 16t-69 44.5t-46 68.5t-17 89q0 62 25 117.5t67 97
t95.5 66t110.5 24.5q50 0 94 -20t69 -51l19 65h139l-147 -513h-134zM222 571l35 123h272l-35 -123h-272z" />
    <glyph glyph-name="aogonek" unicode="&#x105;" horiz-adv-x="585" 
d="M419 275q0 24 -8.5 45t-23.5 37t-36.5 25t-47.5 9q-32 0 -60 -13.5t-49 -36t-33 -51.5t-12 -60q0 -53 32.5 -83.5t82.5 -30.5q31 0 59 13t49.5 35t34 51t12.5 60zM442 -165q-8 -5 -19 -9q-9 -4 -22 -6.5t-29 -2.5q-38 0 -58.5 17t-20.5 45q0 38 25.5 71t60.5 50h-29
l11 39q-26 -20 -59 -31.5t-72 -11.5q-46 0 -86 16t-69 44.5t-46 68.5t-17 89q0 62 25 117.5t67 97t95.5 66t110.5 24.5q50 0 94 -20t69 -51l19 65h139l-147 -513h-26q-36 -17 -56 -43.5t-20 -44.5q0 -24 31 -24q10 0 18.5 1t14.5 3q7 2 13 5z" />
    <glyph glyph-name="aring" unicode="&#xe5;" horiz-adv-x="585" 
d="M418 275q0 24 -8.5 45t-23.5 37t-36.5 25t-47.5 9q-32 0 -60 -13.5t-49 -36t-33 -51.5t-12 -60q0 -53 32.5 -83.5t82.5 -30.5q31 0 59 13t49.5 35t34 51t12.5 60zM360 39q-26 -20 -59 -31.5t-72 -11.5q-46 0 -86 16t-69 44.5t-46 68.5t-17 89q0 62 25 117.5t67 97
t95.5 66t110.5 24.5q50 0 94 -20t69 -51l19 65h139l-147 -513h-134zM278 639q0 22 9 43.5t25 38t38 26.5t47 10q38 0 63.5 -25t25.5 -63q0 -23 -9 -44.5t-25 -38t-38 -26.5t-47 -10q-38 0 -63.5 25t-25.5 64zM418 660q0 15 -9 24t-23 9q-17 0 -28.5 -13t-11.5 -32
q0 -15 9 -24t23 -9q18 0 29 14t11 31z" />
    <glyph glyph-name="atilde" unicode="&#xe3;" horiz-adv-x="585" 
d="M418 275q0 24 -8.5 45t-23.5 37t-36.5 25t-47.5 9q-32 0 -60 -13.5t-49 -36t-33 -51.5t-12 -60q0 -53 32.5 -83.5t82.5 -30.5q31 0 59 13t49.5 35t34 51t12.5 60zM360 39q-26 -20 -59 -31.5t-72 -11.5q-46 0 -86 16t-69 44.5t-46 68.5t-17 89q0 62 25 117.5t67 97
t95.5 66t110.5 24.5q50 0 94 -20t69 -51l19 65h139l-147 -513h-134zM283 579q-22 0 -43.5 -9t-34.5 -17l28 94q20 17 44 29t55 12q21 0 37.5 -5t31 -11t28.5 -11t32 -5q22 0 43.5 9t34.5 17l-28 -94q-20 -17 -44.5 -29t-55.5 -12q-21 0 -37.5 5t-30.5 11t-28 11t-32 5z" />
    <glyph glyph-name="cacute" unicode="&#x107;" horiz-adv-x="539" 
d="M251 -14q-53 0 -96.5 16.5t-75 46t-48.5 71.5t-17 93q0 63 24.5 119t66.5 98t98.5 66.5t121.5 24.5q81 0 135.5 -34.5t77.5 -97.5l-122 -67q-26 71 -110 71q-30 0 -57.5 -13t-48.5 -35t-33 -52.5t-12 -64.5q0 -57 34 -87t84 -30q47 0 78 24t53 53l94 -71
q-45 -62 -106.5 -96.5t-140.5 -34.5zM236 547l35 123l246 57l-36 -126z" />
    <glyph glyph-name="ccaron" unicode="&#x10d;" horiz-adv-x="539" 
d="M251 -14q-53 0 -96.5 16.5t-75 46t-48.5 71.5t-17 93q0 63 24.5 119t66.5 98t98.5 66.5t121.5 24.5q81 0 135.5 -34.5t77.5 -97.5l-122 -67q-26 71 -110 71q-30 0 -57.5 -13t-48.5 -35t-33 -52.5t-12 -64.5q0 -57 34 -87t84 -30q47 0 78 24t53 53l94 -71
q-45 -62 -106.5 -96.5t-140.5 -34.5zM246 699l119 -37l171 39l-30 -103l-160 -54l-130 54z" />
    <glyph glyph-name="ccedilla" unicode="&#xe7;" horiz-adv-x="539" 
d="M174 -217q-42 0 -64.5 26t-15.5 64h70q-2 -11 4 -18.5t17 -7.5t20 7t12 17q4 13 -2 21t-18 8h-73l67 92q-81 17 -129 75t-48 146q0 63 24.5 119t66.5 98t98.5 66.5t121.5 24.5q81 0 135.5 -34.5t77.5 -97.5l-122 -67q-26 71 -110 71q-30 0 -57.5 -13t-48.5 -35t-33 -52.5
t-12 -64.5q0 -57 34 -87t84 -30q47 0 78 24t53 53l94 -71q-45 -62 -106.5 -96.5t-140.5 -34.5h-5l-22 -28q38 -2 54 -26.5t9 -58.5q-8 -37 -38 -63.5t-75 -26.5z" />
    <glyph glyph-name="ccircumflex" unicode="&#x109;" horiz-adv-x="539" 
d="M251 -14q-53 0 -96.5 16.5t-75 46t-48.5 71.5t-17 93q0 63 24.5 119t66.5 98t98.5 66.5t121.5 24.5q81 0 135.5 -34.5t77.5 -97.5l-122 -67q-26 71 -110 71q-30 0 -57.5 -13t-48.5 -35t-33 -52.5t-12 -64.5q0 -57 34 -87t84 -30q47 0 78 24t53 53l94 -71
q-45 -62 -106.5 -96.5t-140.5 -34.5zM492 550l-119 37l-171 -39l30 103l160 54l130 -54z" />
    <glyph glyph-name="cdotaccent" unicode="&#x10b;" horiz-adv-x="539" 
d="M251 -14q-53 0 -96.5 16.5t-75 46t-48.5 71.5t-17 93q0 63 24.5 119t66.5 98t98.5 66.5t121.5 24.5q81 0 135.5 -34.5t77.5 -97.5l-122 -67q-26 71 -110 71q-30 0 -57.5 -13t-48.5 -35t-33 -52.5t-12 -64.5q0 -57 34 -87t84 -30q47 0 78 24t53 53l94 -71
q-45 -62 -106.5 -96.5t-140.5 -34.5zM280 557l36 128h140l-36 -128h-140z" />
    <glyph glyph-name="dcaron" unicode="&#x10f;" horiz-adv-x="790" 
d="M851 563l-85 -119h-92l65 96h-38l42 145h143l-35 -122v0zM418 275q0 24 -8.5 45t-23.5 37t-36.5 25t-47.5 9q-32 0 -60 -13.5t-49 -36t-33 -51.5t-12 -60q0 -53 32.5 -83.5t82.5 -30.5q31 0 59 13t49.5 35t34 51t12.5 60zM360 39q-26 -20 -59 -31.5t-73 -11.5
q-46 0 -85.5 16t-69 44.5t-46 68.5t-16.5 89q0 62 25 117.5t67 97t95.5 66t110.5 24.5q50 0 94 -20t69 -51l68 237h139l-196 -685h-134z" />
    <glyph glyph-name="dcroat" unicode="&#x111;" horiz-adv-x="582" 
d="M418 275q0 24 -8.5 45t-23.5 37t-36.5 25t-47.5 9q-32 0 -60 -13.5t-49 -36t-33 -51.5t-12 -60q0 -53 32.5 -83.5t82.5 -30.5q31 0 59 13t49.5 35t34 51t12.5 60zM360 39q-26 -20 -59 -31.5t-73 -11.5q-46 0 -85.5 16t-69 44.5t-46 68.5t-16.5 89q0 62 25 117.5t67 97
t95.5 66t110.5 24.5q50 0 94 -20t69 -51l25 89h-101l31 107h101l12 41h139l-12 -41h31l-31 -107h-30l-154 -537h-134z" />
    <glyph glyph-name="dotlessi" unicode="&#x131;" horiz-adv-x="195" 
d="M-46 0l147 513h139l-147 -513h-139z" />
    <glyph glyph-name="dotlessj" unicode="&#x237;" horiz-adv-x="195" 
d="M240 513l-144 -502q-17 -57 -40 -96t-55 -61t-75 -28t-100 2l34 122q39 -5 63.5 11.5t36.5 58.5l141 493h139z" />
    <glyph glyph-name="eacute" unicode="&#xe9;" horiz-adv-x="561" 
d="M493 102q-39 -50 -99.5 -82.5t-140.5 -32.5q-57 0 -102 17.5t-76 48.5t-47.5 73t-16.5 91q0 62 24 117.5t66 97.5t98 66.5t119 24.5q55 0 97 -17t69.5 -46t41.5 -67t14 -80q0 -20 -3 -47.5t-11 -52.5h-380q4 -51 37.5 -80t88.5 -29q46 0 77.5 20.5t53.5 46.5zM303 409
q-49 0 -82.5 -25.5t-52.5 -67.5h238q-1 18 -6.5 35t-17.5 29.5t-31.5 20.5t-47.5 8zM238 547l35 123l246 57l-36 -126z" />
    <glyph glyph-name="ebreve" unicode="&#x115;" horiz-adv-x="561" 
d="M493 102q-39 -50 -99.5 -82.5t-140.5 -32.5q-57 0 -102 17.5t-76 48.5t-47.5 73t-16.5 91q0 62 24 117.5t66 97.5t98 66.5t119 24.5q55 0 97 -17t69.5 -46t41.5 -67t14 -80q0 -20 -3 -47.5t-11 -52.5h-380q4 -51 37.5 -80t88.5 -29q46 0 77.5 20.5t53.5 46.5zM303 409
q-49 0 -82.5 -25.5t-52.5 -67.5h238q-1 18 -6.5 35t-17.5 29.5t-31.5 20.5t-47.5 8zM506 597q-22 -19 -60 -34.5t-92 -15.5t-87 20t-45 43l28 94q20 -17 53.5 -30t78.5 -13q51 0 91.5 14.5t63.5 28.5z" />
    <glyph glyph-name="ecaron" unicode="&#x11b;" horiz-adv-x="561" 
d="M493 102q-39 -50 -99.5 -82.5t-140.5 -32.5q-57 0 -102 17.5t-76 48.5t-47.5 73t-16.5 91q0 62 24 117.5t66 97.5t98 66.5t119 24.5q55 0 97 -17t69.5 -46t41.5 -67t14 -80q0 -20 -3 -47.5t-11 -52.5h-380q4 -51 37.5 -80t88.5 -29q46 0 77.5 20.5t53.5 46.5zM303 409
q-49 0 -82.5 -25.5t-52.5 -67.5h238q-1 18 -6.5 35t-17.5 29.5t-31.5 20.5t-47.5 8zM248 699l119 -37l171 39l-30 -103l-160 -54l-130 54z" />
    <glyph glyph-name="ecircumflex" unicode="&#xea;" horiz-adv-x="561" 
d="M493 102q-39 -50 -99.5 -82.5t-140.5 -32.5q-57 0 -102 17.5t-76 48.5t-47.5 73t-16.5 91q0 62 24 117.5t66 97.5t98 66.5t119 24.5q55 0 97 -17t69.5 -46t41.5 -67t14 -80q0 -20 -3 -47.5t-11 -52.5h-380q4 -51 37.5 -80t88.5 -29q46 0 77.5 20.5t53.5 46.5zM303 409
q-49 0 -82.5 -25.5t-52.5 -67.5h238q-1 18 -6.5 35t-17.5 29.5t-31.5 20.5t-47.5 8zM494 550l-119 37l-171 -39l30 103l160 54l130 -54z" />
    <glyph glyph-name="edieresis" unicode="&#xeb;" horiz-adv-x="561" 
d="M493 102q-39 -50 -99.5 -82.5t-140.5 -32.5q-57 0 -102 17.5t-76 48.5t-47.5 73t-16.5 91q0 62 24 117.5t66 97.5t98 66.5t119 24.5q55 0 97 -17t69.5 -46t41.5 -67t14 -80q0 -20 -3 -47.5t-11 -52.5h-380q4 -51 37.5 -80t88.5 -29q46 0 77.5 20.5t53.5 46.5zM303 409
q-49 0 -82.5 -25.5t-52.5 -67.5h238q-1 18 -6.5 35t-17.5 29.5t-31.5 20.5t-47.5 8zM200 556l37 129h133l-37 -129h-133zM369 556l37 129h133l-37 -129h-133z" />
    <glyph glyph-name="edotaccent" unicode="&#x117;" horiz-adv-x="561" 
d="M493 102q-39 -50 -99.5 -82.5t-140.5 -32.5q-57 0 -102 17.5t-76 48.5t-47.5 73t-16.5 91q0 62 24 117.5t66 97.5t98 66.5t119 24.5q55 0 97 -17t69.5 -46t41.5 -67t14 -80q0 -20 -3 -47.5t-11 -52.5h-380q4 -51 37.5 -80t88.5 -29q46 0 77.5 20.5t53.5 46.5zM303 409
q-49 0 -82.5 -25.5t-52.5 -67.5h238q-1 18 -6.5 35t-17.5 29.5t-31.5 20.5t-47.5 8zM282 557l36 128h140l-36 -128h-140z" />
    <glyph glyph-name="egrave" unicode="&#xe8;" horiz-adv-x="561" 
d="M493 102q-39 -50 -99.5 -82.5t-140.5 -32.5q-57 0 -102 17.5t-76 48.5t-47.5 73t-16.5 91q0 62 24 117.5t66 97.5t98 66.5t119 24.5q55 0 97 -17t69.5 -46t41.5 -67t14 -80q0 -20 -3 -47.5t-11 -52.5h-380q4 -51 37.5 -80t88.5 -29q46 0 77.5 20.5t53.5 46.5zM303 409
q-49 0 -82.5 -25.5t-52.5 -67.5h238q-1 18 -6.5 35t-17.5 29.5t-31.5 20.5t-47.5 8zM457 543l-215 55l36 125l214 -57z" />
    <glyph glyph-name="emacron" unicode="&#x113;" horiz-adv-x="561" 
d="M493 102q-39 -50 -99.5 -82.5t-140.5 -32.5q-57 0 -102 17.5t-76 48.5t-47.5 73t-16.5 91q0 62 24 117.5t66 97.5t98 66.5t119 24.5q55 0 97 -17t69.5 -46t41.5 -67t14 -80q0 -20 -3 -47.5t-11 -52.5h-380q4 -51 37.5 -80t88.5 -29q46 0 77.5 20.5t53.5 46.5zM303 409
q-49 0 -82.5 -25.5t-52.5 -67.5h238q-1 18 -6.5 35t-17.5 29.5t-31.5 20.5t-47.5 8zM220 571l35 123h272l-35 -123h-272z" />
    <glyph glyph-name="eng" unicode="&#x14b;" 
d="M434 11q-17 -57 -39.5 -96t-55 -61t-75 -28t-99.5 2l34 122q39 -5 63.5 11.5t36.5 58.5l77 271q13 45 -7 74t-62 29q-50 0 -84 -31t-49 -83l-81 -280h-139l147 513h137l-14 -51q32 27 72.5 43.5t88.5 16.5q39 0 70.5 -15t50 -42.5t23.5 -65.5t-8 -84l-87 -304v0z" />
    <glyph glyph-name="eogonek" unicode="&#x119;" horiz-adv-x="561" 
d="M220 -183q-38 0 -58.5 17t-20.5 45q0 33 19.5 62.5t48.5 48.5q-94 14 -145.5 76t-51.5 151q0 62 24 117.5t66 97.5t98 66.5t119 24.5q55 0 97 -17t69.5 -46t41.5 -67t14 -80q0 -20 -3 -47.5t-11 -52.5h-380q4 -51 37.5 -80t88.5 -29q46 0 77.5 20.5t53.5 46.5l90 -69
q-35 -45 -87.5 -76t-121.5 -38q-26 -17 -40.5 -39t-14.5 -37q0 -24 31 -24q10 0 18.5 1t14.5 3q7 2 13 5l-17 -62q-8 -5 -19 -9q-9 -4 -22 -6.5t-29 -2.5zM304 409q-49 0 -82.5 -25.5t-52.5 -67.5h238q-1 18 -6.5 35t-17.5 29.5t-31.5 20.5t-47.5 8z" />
    <glyph glyph-name="eth" unicode="&#xf0;" horiz-adv-x="578" 
d="M253 -12q-51 0 -94.5 16.5t-75.5 46t-50.5 70.5t-18.5 91q0 56 23 110t64 97t97.5 69t123.5 26q36 0 69 -11l-7 40l-79 -11l25 89l36 5l-12 59h136l9 -40l87 12l-25 -89l-45 -6l33 -158q13 -64 13 -108q0 -53 -22 -107.5t-62.5 -99t-97.5 -73t-127 -28.5zM263 114
q32 0 61 13t51 35.5t35 52.5t13 63q0 49 -31 79.5t-80 30.5q-32 0 -61 -13.5t-51 -36t-35 -52t-13 -62.5q0 -49 31 -79.5t80 -30.5z" />
    <glyph glyph-name="schwa" unicode="&#x259;" horiz-adv-x="561" 
d="M67 409q39 50 99.5 82.5t140.5 32.5q57 0 102 -17.5t76 -48.5t47.5 -73t16.5 -91q0 -62 -24 -117.5t-66 -97.5t-98 -66.5t-119 -24.5q-56 0 -97.5 17t-69 46t-41.5 67t-14 80q0 20 3 47.5t11 52.5h380q-4 51 -37.5 80t-88.5 29q-46 0 -77.5 -20.5t-53.5 -46.5zM257 102
q49 0 82.5 25.5t52.5 67.5h-238q1 -18 6.5 -35t17.5 -29.5t31.5 -20.5t47.5 -8z" />
    <glyph glyph-name="gbreve" unicode="&#x11f;" horiz-adv-x="578" 
d="M412 278q0 23 -8 43.5t-23 36t-36 24.5t-46 9q-30 0 -57.5 -13t-48.5 -35t-33 -50.5t-12 -59.5q0 -50 31 -80.5t81 -30.5q31 0 58.5 13t48.5 34.5t33 50t12 58.5zM176 -191q-81 0 -140 30t-83 95l115 68q13 -30 41 -51t79 -21q53 0 92.5 26t60.5 74q-49 -29 -114 -29
q-47 0 -86.5 16.5t-68 45.5t-45 69t-16.5 87q0 58 23 112t63 96t92.5 67t112.5 25q54 0 97.5 -20t66.5 -50l19 64h139l-138 -476q-16 -54 -45 -96.5t-69.5 -71.5t-90 -44.5t-105.5 -15.5zM498 597q-22 -19 -60 -34.5t-92 -15.5t-87 20t-45 43l28 94q20 -17 53.5 -30
t78.5 -13q51 0 91.5 14.5t63.5 28.5z" />
    <glyph glyph-name="gcircumflex" unicode="&#x11d;" horiz-adv-x="578" 
d="M412 278q0 23 -8 43.5t-23 36t-36 24.5t-46 9q-30 0 -57.5 -13t-48.5 -35t-33 -50.5t-12 -59.5q0 -50 31 -80.5t81 -30.5q31 0 58.5 13t48.5 34.5t33 50t12 58.5zM176 -191q-81 0 -140 30t-83 95l115 68q13 -30 41 -51t79 -21q53 0 92.5 26t60.5 74q-49 -29 -114 -29
q-47 0 -86.5 16.5t-68 45.5t-45 69t-16.5 87q0 58 23 112t63 96t92.5 67t112.5 25q54 0 97.5 -20t66.5 -50l19 64h139l-138 -476q-16 -54 -45 -96.5t-69.5 -71.5t-90 -44.5t-105.5 -15.5zM486 550l-119 37l-171 -39l30 103l160 54l130 -54z" />
    <glyph glyph-name="gcommaaccent" unicode="&#x123;" horiz-adv-x="578" 
d="M393 734h89l-51 -70h32l-31 -107h-128l24 83zM412 278q0 23 -8 43.5t-23 36t-36 24.5t-46 9q-30 0 -57.5 -13t-48.5 -35t-33 -50.5t-12 -59.5q0 -50 31 -80.5t81 -30.5q31 0 58.5 13t48.5 34.5t33 50t12 58.5zM176 -191q-81 0 -140 30t-83 95l115 68q13 -30 41 -51
t79 -21q53 0 92.5 26t60.5 74q-49 -29 -114 -29q-47 0 -86.5 16.5t-68 45.5t-45 69t-16.5 87q0 58 23 112t63 96t92.5 67t112.5 25q54 0 97.5 -20t66.5 -50l19 64h139l-138 -476q-16 -54 -45 -96.5t-69.5 -71.5t-90 -44.5t-105.5 -15.5z" />
    <glyph glyph-name="gdotaccent" unicode="&#x121;" horiz-adv-x="578" 
d="M412 278q0 23 -8 43.5t-23 36t-36 24.5t-46 9q-30 0 -57.5 -13t-48.5 -35t-33 -50.5t-12 -59.5q0 -50 31 -80.5t81 -30.5q31 0 58.5 13t48.5 34.5t33 50t12 58.5zM176 -191q-81 0 -140 30t-83 95l115 68q13 -30 41 -51t79 -21q53 0 92.5 26t60.5 74q-49 -29 -114 -29
q-47 0 -86.5 16.5t-68 45.5t-45 69t-16.5 87q0 58 23 112t63 96t92.5 67t112.5 25q54 0 97.5 -20t66.5 -50l19 64h139l-138 -476q-16 -54 -45 -96.5t-69.5 -71.5t-90 -44.5t-105.5 -15.5zM274 557l36 128h140l-36 -128h-140z" />
    <glyph glyph-name="germandbls" unicode="&#xdf;" horiz-adv-x="489" 
d="M92 0h-138l149 521q11 38 33 69t52 52.5t67 33.5t79 12t76.5 -11.5t59 -32.5t38.5 -51.5t14 -67.5q0 -54 -27 -101.5t-81 -73.5q19 -20 31 -48t12 -63q0 -50 -20 -93.5t-57 -75.5t-88.5 -51t-114.5 -19h-45l36 124h41q25 0 45.5 9t35 24.5t22.5 35.5t8 42q0 26 -14.5 44
t-43.5 18h-45l35 123h46q18 0 34 7t28 18.5t19 27t7 33.5q0 27 -18.5 43t-50.5 16q-30 0 -51.5 -18t-30.5 -49z" />
    <glyph glyph-name="hbar" unicode="&#x127;" 
d="M93 0h-139l154 537h-28l31 107h27l12 41h139l-12 -41h105l-31 -107h-104l-21 -72q33 26 72 41.5t87 15.5q39 0 70.5 -15t50 -42.5t23.5 -65.5t-8 -84l-90 -315h-138l83 291q13 45 -7 74t-62 29q-50 0 -84 -31t-49 -83z" />
    <glyph glyph-name="hcircumflex" unicode="&#x125;" 
d="M93 0h-139l196 685h139l-63 -220q33 26 72 41.5t87 15.5q39 0 70.5 -15t50 -42.5t23.5 -65.5t-8 -84l-90 -315h-138l83 291q13 45 -7 74t-62 29q-50 0 -84 -31t-49 -83zM381 722l-119 37l-171 -39l30 103l160 54l130 -54z" />
    <glyph glyph-name="iacute" unicode="&#xed;" horiz-adv-x="195" 
d="M-46 0l147 513h139l-147 -513h-139zM71 547l35 123l246 57l-36 -126z" />
    <glyph glyph-name="ibreve" unicode="&#x12d;" horiz-adv-x="195" 
d="M-46 0l147 513h139l-147 -513h-139zM339 597q-22 -19 -60 -34.5t-92 -15.5t-87 20t-45 43l28 94q20 -17 53.5 -30t78.5 -13q51 0 91.5 14.5t63.5 28.5z" />
    <glyph glyph-name="icircumflex" unicode="&#xee;" horiz-adv-x="195" 
d="M-46 0l147 513h139l-147 -513h-139zM327 550l-119 37l-171 -39l30 103l160 54l130 -54z" />
    <glyph glyph-name="idieresis" unicode="&#xef;" horiz-adv-x="195" 
d="M-46 0l147 513h139l-147 -513h-139zM33 556l37 129h133l-37 -129h-133zM202 556l37 129h133l-37 -129h-133z" />
    <glyph glyph-name="igrave" unicode="&#xec;" horiz-adv-x="195" 
d="M-46 0l147 513h139l-147 -513h-139zM290 543l-215 55l36 125l214 -57z" />
    <glyph glyph-name="ij" unicode="&#x133;" horiz-adv-x="390" 
d="M114 557l36 128h139l-36 -128h-139zM-46 0l147 513h139l-147 -513h-139zM309 557l36 128h139l-36 -128h-139zM435 513l-144 -502q-17 -57 -40 -96t-55 -61t-75 -28t-100 2l34 122q39 -5 63.5 11.5t36.5 58.5l141 493h139z" />
    <glyph glyph-name="imacron" unicode="&#x12b;" horiz-adv-x="195" 
d="M-46 0l147 513h139l-147 -513h-139zM53 571l35 123h272l-35 -123h-272z" />
    <glyph glyph-name="iogonek" unicode="&#x12f;" horiz-adv-x="196" 
d="M115 557l36 128h139l-36 -128h-139zM56 -165q-8 -5 -19 -9q-9 -4 -22 -6.5t-29 -2.5q-38 0 -58.5 17t-20.5 45q0 38 25.5 71t60.5 50h-38l147 513h139l-147 -513h-22q-36 -17 -56 -43.5t-20 -44.5q0 -24 31 -24q10 0 18.5 1t14.5 3q7 2 13 5z" />
    <glyph glyph-name="itilde" unicode="&#x129;" horiz-adv-x="195" 
d="M-46 0l147 513h139l-147 -513h-139zM114 579q-22 0 -43.5 -9t-34.5 -17l28 94q20 17 44 29t55 12q21 0 37.5 -5t31 -11t28.5 -11t32 -5q22 0 43.5 9t34.5 17l-28 -94q-20 -17 -44.5 -29t-55.5 -12q-21 0 -37.5 5t-30.5 11t-28 11t-32 5z" />
    <glyph glyph-name="jcircumflex" unicode="&#x135;" horiz-adv-x="195" 
d="M240 513l-144 -502q-17 -57 -40 -96t-55 -61t-75 -28t-100 2l34 122q39 -5 63.5 11.5t36.5 58.5l141 493h139zM326 550l-119 37l-171 -39l30 103l160 54l130 -54z" />
    <glyph glyph-name="kcommaaccent" unicode="&#x137;" horiz-adv-x="498" 
d="M158 224l-64 -224h-140l196 685h140l-110 -384l210 212h175l-269 -257l129 -256h-157zM145 -219h-89l51 70h-32l31 107h128l-24 -83z" />
    <glyph glyph-name="kgreenlandic" unicode="&#x138;" horiz-adv-x="498" 
d="M158 224l-64 -224h-140l147 513h140l-61 -212l210 212h175l-269 -257l129 -256h-157z" />
    <glyph glyph-name="lacute" unicode="&#x13a;" horiz-adv-x="196" 
d="M-46 0l196 685h140l-196 -685h-140zM120 719l35 123l246 57l-36 -126z" />
    <glyph glyph-name="lcaron" unicode="&#x13e;" horiz-adv-x="399" 
d="M461 563l-85 -119h-92l65 96h-38l42 145h143l-35 -122v0zM-46 0l196 685h140l-196 -685h-140z" />
    <glyph glyph-name="lcommaaccent" unicode="&#x13c;" horiz-adv-x="196" 
d="M-46 0l196 685h140l-196 -685h-140zM-12 -219h-89l51 70h-32l31 107h128l-24 -83z" />
    <glyph glyph-name="ldot" unicode="&#x140;" horiz-adv-x="380" 
d="M-46 0l196 685h140l-196 -685h-140zM217 258l36 128h140l-36 -128h-140z" />
    <glyph glyph-name="lslash" unicode="&#x142;" horiz-adv-x="197" 
d="M-45 0l82 287l-41 -20l29 102l41 20l85 296h140l-62 -216l46 22l-30 -103l-45 -22l-105 -366h-140z" />
    <glyph glyph-name="nacute" unicode="&#x144;" 
d="M93 0h-139l147 513h137l-14 -51q32 27 72.5 43.5t88.5 16.5q39 0 70.5 -15t50 -42.5t23.5 -65.5t-8 -84l-90 -315h-138l83 291q13 45 -7 74t-62 29q-50 0 -84 -31t-49 -83zM247 547l35 123l246 57l-36 -126z" />
    <glyph glyph-name="napostrophe" unicode="&#x149;" 
d="M93 0h-139l147 513h137l-14 -51q32 27 72.5 43.5t88.5 16.5q39 0 70.5 -15t50 -42.5t23.5 -65.5t-8 -84l-90 -315h-138l83 291q13 45 -7 74t-62 29q-50 0 -84 -31t-49 -83zM208 573h-89l51 70h-32l31 107h128l-24 -83z" />
    <glyph glyph-name="ncaron" unicode="&#x148;" 
d="M93 0h-139l147 513h137l-14 -51q32 27 72.5 43.5t88.5 16.5q39 0 70.5 -15t50 -42.5t23.5 -65.5t-8 -84l-90 -315h-138l83 291q13 45 -7 74t-62 29q-50 0 -84 -31t-49 -83zM257 699l119 -37l171 39l-30 -103l-160 -54l-130 54z" />
    <glyph glyph-name="ncommaaccent" unicode="&#x146;" 
d="M93 0h-139l147 513h137l-14 -51q32 27 72.5 43.5t88.5 16.5q39 0 70.5 -15t50 -42.5t23.5 -65.5t-8 -84l-90 -315h-138l83 291q13 45 -7 74t-62 29q-50 0 -84 -31t-49 -83zM160 -219h-89l51 70h-32l31 107h128l-24 -83z" />
    <glyph glyph-name="ntilde" unicode="&#xf1;" 
d="M93 0h-139l147 513h137l-14 -51q32 27 72.5 43.5t88.5 16.5q39 0 70.5 -15t50 -42.5t23.5 -65.5t-8 -84l-90 -315h-138l83 291q13 45 -7 74t-62 29q-50 0 -84 -31t-49 -83zM290 579q-22 0 -43.5 -9t-34.5 -17l28 94q20 17 44 29t55 12q21 0 37.5 -5t31 -11t28.5 -11
t32 -5q22 0 43.5 9t34.5 17l-28 -94q-20 -17 -44.5 -29t-55.5 -12q-21 0 -37.5 5t-30.5 11t-28 11t-32 5z" />
    <glyph glyph-name="oacute" unicode="&#xf3;" horiz-adv-x="577" 
d="M323 524q51 0 94.5 -16.5t75.5 -47t50.5 -72.5t18.5 -93q0 -57 -23 -112t-64 -98.5t-97.5 -70t-123.5 -26.5q-51 0 -94.5 16.5t-75.5 47t-50.5 72.5t-18.5 93q0 57 23 112t64 98.5t97.5 70t123.5 26.5zM424 283q0 51 -31 83t-80 32q-32 0 -61 -13.5t-51 -37t-35 -54
t-13 -64.5q0 -51 31 -83t80 -32q32 0 61 13.5t51 37t35 54t13 64.5zM243 547l35 123l246 57l-36 -126z" />
    <glyph glyph-name="obreve" unicode="&#x14f;" horiz-adv-x="577" 
d="M323 524q51 0 94.5 -16.5t75.5 -47t50.5 -72.5t18.5 -93q0 -57 -23 -112t-64 -98.5t-97.5 -70t-123.5 -26.5q-51 0 -94.5 16.5t-75.5 47t-50.5 72.5t-18.5 93q0 57 23 112t64 98.5t97.5 70t123.5 26.5zM424 283q0 51 -31 83t-80 32q-32 0 -61 -13.5t-51 -37t-35 -54
t-13 -64.5q0 -51 31 -83t80 -32q32 0 61 13.5t51 37t35 54t13 64.5zM511 597q-22 -19 -60 -34.5t-92 -15.5t-87 20t-45 43l28 94q20 -17 53.5 -30t78.5 -13q51 0 91.5 14.5t63.5 28.5z" />
    <glyph glyph-name="ocircumflex" unicode="&#xf4;" horiz-adv-x="577" 
d="M323 524q51 0 94.5 -16.5t75.5 -47t50.5 -72.5t18.5 -93q0 -57 -23 -112t-64 -98.5t-97.5 -70t-123.5 -26.5q-51 0 -94.5 16.5t-75.5 47t-50.5 72.5t-18.5 93q0 57 23 112t64 98.5t97.5 70t123.5 26.5zM424 283q0 51 -31 83t-80 32q-32 0 -61 -13.5t-51 -37t-35 -54
t-13 -64.5q0 -51 31 -83t80 -32q32 0 61 13.5t51 37t35 54t13 64.5zM499 550l-119 37l-171 -39l30 103l160 54l130 -54z" />
    <glyph glyph-name="odieresis" unicode="&#xf6;" horiz-adv-x="577" 
d="M323 524q51 0 94.5 -16.5t75.5 -47t50.5 -72.5t18.5 -93q0 -57 -23 -112t-64 -98.5t-97.5 -70t-123.5 -26.5q-51 0 -94.5 16.5t-75.5 47t-50.5 72.5t-18.5 93q0 57 23 112t64 98.5t97.5 70t123.5 26.5zM424 283q0 51 -31 83t-80 32q-32 0 -61 -13.5t-51 -37t-35 -54
t-13 -64.5q0 -51 31 -83t80 -32q32 0 61 13.5t51 37t35 54t13 64.5zM205 556l37 129h133l-37 -129h-133zM374 556l37 129h133l-37 -129h-133z" />
    <glyph glyph-name="oe" unicode="&#x153;" horiz-adv-x="963" 
d="M903 102q-39 -50 -99.5 -82.5t-140.5 -32.5q-67 0 -117 23.5t-81 64.5q-41 -39 -94.5 -63t-116.5 -24q-51 0 -94.5 16.5t-75.5 47t-50.5 72.5t-18.5 93q0 57 23 112t64 98.5t97.5 70t123.5 26.5q60 0 110 -23t82 -65q42 41 96.5 64t116.5 23q55 0 97 -17t69.5 -46
t41.5 -67t14 -80q0 -20 -3 -47.5t-11 -52.5h-380q4 -51 37.5 -80t88.5 -29q46 0 77.5 20.5t53.5 46.5zM713 409q-49 0 -82.5 -25.5t-52.5 -67.5h238q-1 18 -6.5 35t-17.5 29.5t-31.5 20.5t-47.5 8zM424 283q0 51 -31 83t-80 32q-32 0 -61 -13.5t-51 -37t-35 -54t-13 -64.5
q0 -51 31 -83t80 -32q32 0 61 13.5t51 37t35 54t13 64.5z" />
    <glyph glyph-name="ograve" unicode="&#xf2;" horiz-adv-x="577" 
d="M323 524q51 0 94.5 -16.5t75.5 -47t50.5 -72.5t18.5 -93q0 -57 -23 -112t-64 -98.5t-97.5 -70t-123.5 -26.5q-51 0 -94.5 16.5t-75.5 47t-50.5 72.5t-18.5 93q0 57 23 112t64 98.5t97.5 70t123.5 26.5zM424 283q0 51 -31 83t-80 32q-32 0 -61 -13.5t-51 -37t-35 -54
t-13 -64.5q0 -51 31 -83t80 -32q32 0 61 13.5t51 37t35 54t13 64.5zM462 543l-215 55l36 125l214 -57z" />
    <glyph glyph-name="ohungarumlaut" unicode="&#x151;" horiz-adv-x="577" 
d="M323 524q51 0 94.5 -16.5t75.5 -47t50.5 -72.5t18.5 -93q0 -57 -23 -112t-64 -98.5t-97.5 -70t-123.5 -26.5q-51 0 -94.5 16.5t-75.5 47t-50.5 72.5t-18.5 93q0 57 23 112t64 98.5t97.5 70t123.5 26.5zM424 283q0 51 -31 83t-80 32q-32 0 -61 -13.5t-51 -37t-35 -54
t-13 -64.5q0 -51 31 -83t80 -32q32 0 61 13.5t51 37t35 54t13 64.5zM197 558l90 147h136l-94 -147h-132zM366 558l94 147h136l-98 -147h-132z" />
    <glyph glyph-name="omacron" unicode="&#x14d;" horiz-adv-x="577" 
d="M323 524q51 0 94.5 -16.5t75.5 -47t50.5 -72.5t18.5 -93q0 -57 -23 -112t-64 -98.5t-97.5 -70t-123.5 -26.5q-51 0 -94.5 16.5t-75.5 47t-50.5 72.5t-18.5 93q0 57 23 112t64 98.5t97.5 70t123.5 26.5zM424 283q0 51 -31 83t-80 32q-32 0 -61 -13.5t-51 -37t-35 -54
t-13 -64.5q0 -51 31 -83t80 -32q32 0 61 13.5t51 37t35 54t13 64.5zM225 571l35 123h272l-35 -123h-272z" />
    <glyph glyph-name="oslash" unicode="&#xf8;" horiz-adv-x="577" 
d="M153 229q0 -28 9 -49l189 212q-18 6 -38 6q-32 0 -61 -13.5t-51 -37t-35 -54t-13 -64.5zM264 114q32 0 61 13.5t51 37t35 54t13 64.5q0 12 -2 23t-5 21l-186 -209q15 -4 33 -4zM254 -12q-63 0 -115 26l-48 -54h-124l99 111q-24 29 -37.5 65.5t-13.5 80.5q0 57 23 112
t64 98.5t97.5 70t123.5 26.5q66 0 120 -28l51 57h123l-103 -116q23 -29 35.5 -64.5t12.5 -77.5q0 -57 -23 -112t-64 -98.5t-97.5 -70t-123.5 -26.5z" />
    <glyph glyph-name="otilde" unicode="&#xf5;" horiz-adv-x="577" 
d="M323 524q51 0 94.5 -16.5t75.5 -47t50.5 -72.5t18.5 -93q0 -57 -23 -112t-64 -98.5t-97.5 -70t-123.5 -26.5q-51 0 -94.5 16.5t-75.5 47t-50.5 72.5t-18.5 93q0 57 23 112t64 98.5t97.5 70t123.5 26.5zM424 283q0 51 -31 83t-80 32q-32 0 -61 -13.5t-51 -37t-35 -54
t-13 -64.5q0 -51 31 -83t80 -32q32 0 61 13.5t51 37t35 54t13 64.5zM286 579q-22 0 -43.5 -9t-34.5 -17l28 94q20 17 44 29t55 12q21 0 37.5 -5t31 -11t28.5 -11t32 -5q22 0 43.5 9t34.5 17l-28 -94q-20 -17 -44.5 -29t-55.5 -12q-21 0 -37.5 5t-30.5 11t-28 11t-32 5z" />
    <glyph glyph-name="racute" unicode="&#x155;" horiz-adv-x="334" 
d="M347 380q-75 0 -120.5 -39.5t-65.5 -106.5l-67 -234h-140l147 513h139l-20 -71q20 21 46 39q22 14 52.5 26.5t68.5 12.5zM180 547l35 123l246 57l-36 -126z" />
    <glyph glyph-name="rcaron" unicode="&#x159;" horiz-adv-x="334" 
d="M347 380q-75 0 -120.5 -39.5t-65.5 -106.5l-67 -234h-140l147 513h139l-20 -71q20 21 46 39q22 14 52.5 26.5t68.5 12.5zM190 699l119 -37l171 39l-30 -103l-160 -54l-130 54z" />
    <glyph glyph-name="rcommaaccent" unicode="&#x157;" horiz-adv-x="334" 
d="M347 380q-75 0 -120.5 -39.5t-65.5 -106.5l-67 -234h-140l147 513h139l-20 -71q20 21 46 39q22 14 52.5 26.5t68.5 12.5zM-12 -219h-89l51 70h-32l31 107h128l-24 -83z" />
    <glyph glyph-name="sacute" unicode="&#x15b;" horiz-adv-x="491" 
d="M133 161q-5 -38 19 -54.5t61 -16.5q40 0 59 15t19 33q0 19 -22 30.5t-67 22.5q-29 7 -57.5 17t-50.5 26.5t-35.5 40.5t-13.5 59q0 40 16.5 74t47 59t74 38.5t97.5 13.5q94 0 143.5 -44.5t39.5 -125.5h-138q5 30 -9.5 48t-55.5 18q-35 0 -53 -14.5t-18 -33.5
q0 -20 23 -32.5t77 -26.5q31 -8 58.5 -19.5t48 -27.5t32 -38t11.5 -51q0 -38 -15 -71t-45.5 -58t-76 -39t-105.5 -14q-53 0 -94 11.5t-67.5 33.5t-37.5 53.5t-5 72.5h140zM199 547l35 123l246 57l-36 -126z" />
    <glyph glyph-name="scaron" unicode="&#x161;" horiz-adv-x="491" 
d="M133 161q-5 -38 19 -54.5t61 -16.5q40 0 59 15t19 33q0 19 -22 30.5t-67 22.5q-29 7 -57.5 17t-50.5 26.5t-35.5 40.5t-13.5 59q0 40 16.5 74t47 59t74 38.5t97.5 13.5q94 0 143.5 -44.5t39.5 -125.5h-138q5 30 -9.5 48t-55.5 18q-35 0 -53 -14.5t-18 -33.5
q0 -20 23 -32.5t77 -26.5q31 -8 58.5 -19.5t48 -27.5t32 -38t11.5 -51q0 -38 -15 -71t-45.5 -58t-76 -39t-105.5 -14q-53 0 -94 11.5t-67.5 33.5t-37.5 53.5t-5 72.5h140zM209 699l119 -37l171 39l-30 -103l-160 -54l-130 54z" />
    <glyph glyph-name="scedilla" unicode="&#x15f;" horiz-adv-x="491" 
d="M125 -217q-42 0 -64.5 26t-15.5 64h70q-2 -11 4 -18.5t17 -7.5t20 7t12 17q4 13 -2 21t-18 8h-73l69 93q-81 11 -121.5 54.5t-29.5 113.5h140q-5 -38 19 -54.5t61 -16.5q40 0 59 15t19 33q0 19 -22 30.5t-67 22.5q-29 7 -57.5 17t-50.5 26.5t-35.5 40.5t-13.5 59
q0 40 16.5 74t47 59t74 38.5t97.5 13.5q94 0 143.5 -44.5t39.5 -125.5h-138q5 30 -9.5 48t-55.5 18q-35 0 -53 -14.5t-18 -33.5q0 -20 23 -32.5t77 -26.5q31 -8 58.5 -19.5t48 -27.5t32 -38t11.5 -51q0 -38 -15 -71t-45 -58t-75 -39t-104 -14l-25 -32q38 -2 54 -26.5
t9 -58.5q-8 -37 -38 -63.5t-75 -26.5z" />
    <glyph glyph-name="scircumflex" unicode="&#x15d;" horiz-adv-x="491" 
d="M133 161q-5 -38 19 -54.5t61 -16.5q40 0 59 15t19 33q0 19 -22 30.5t-67 22.5q-29 7 -57.5 17t-50.5 26.5t-35.5 40.5t-13.5 59q0 40 16.5 74t47 59t74 38.5t97.5 13.5q94 0 143.5 -44.5t39.5 -125.5h-138q5 30 -9.5 48t-55.5 18q-35 0 -53 -14.5t-18 -33.5
q0 -20 23 -32.5t77 -26.5q31 -8 58.5 -19.5t48 -27.5t32 -38t11.5 -51q0 -38 -15 -71t-45.5 -58t-76 -39t-105.5 -14q-53 0 -94 11.5t-67.5 33.5t-37.5 53.5t-5 72.5h140zM455 550l-119 37l-171 -39l30 103l160 54l130 -54z" />
    <glyph glyph-name="scommaaccent" unicode="&#x219;" horiz-adv-x="491" 
d="M133 161q-5 -38 19 -54.5t61 -16.5q40 0 59 15t19 33q0 19 -22 30.5t-67 22.5q-29 7 -57.5 17t-50.5 26.5t-35.5 40.5t-13.5 59q0 40 16.5 74t47 59t74 38.5t97.5 13.5q94 0 143.5 -44.5t39.5 -125.5h-138q5 30 -9.5 48t-55.5 18q-35 0 -53 -14.5t-18 -33.5
q0 -20 23 -32.5t77 -26.5q31 -8 58.5 -19.5t48 -27.5t32 -38t11.5 -51q0 -38 -15 -71t-45.5 -58t-76 -39t-105.5 -14q-53 0 -94 11.5t-67.5 33.5t-37.5 53.5t-5 72.5h140zM149 -219h-89l51 70h-32l31 107h128l-24 -83z" />
    <glyph glyph-name="tbar" unicode="&#x167;" horiz-adv-x="379" 
d="M281 0h-65q-49 0 -81.5 15.5t-49.5 42.5t-18.5 63.5t10.5 79.5l4 15h-72l32 112h72l18 61h-72l35 124h72l38 132h139l-38 -132h123l-35 -124h-124l-17 -61h115l-32 -112h-114l-8 -28q-10 -34 3.5 -51.5t47.5 -17.5h52z" />
    <glyph glyph-name="tcaron" unicode="&#x165;" horiz-adv-x="379" 
d="M526 685l-85 -119h-92l65 96h-38l42 145h143l-35 -122v0zM213 188q-10 -34 3.5 -51.5t47.5 -17.5h52l-35 -119h-65q-49 0 -81.5 15.5t-49.5 42.5t-18.5 63.5t10.5 79.5l54 188h-72l35 124h72l38 132h139l-38 -132h123l-35 -124h-124z" />
    <glyph glyph-name="tcedilla" unicode="&#x163;" horiz-adv-x="379" 
d="M111 -217q-42 0 -64.5 26t-15.5 64h70q-2 -11 4 -18.5t17 -7.5t20 7t12 17q4 13 -2 21t-18 8h-73l80 109h11q-59 19 -76.5 71t2.5 121l54 188h-72l35 124h72l38 132h139l-38 -132h123l-35 -124h-124l-56 -201q-10 -34 3.5 -51.5t47.5 -17.5h52l-35 -119h-65h-11.5
t-10.5 1l-34 -43q38 -2 54 -26.5t9 -58.5q-8 -37 -38 -63.5t-75 -26.5z" />
    <glyph glyph-name="uni021B" unicode="&#x21b;" horiz-adv-x="379" 
d="M213 188q-10 -34 3.5 -51.5t47.5 -17.5h52l-35 -119h-65q-49 0 -81.5 15.5t-49.5 42.5t-18.5 63.5t10.5 79.5l54 188h-72l35 124h72l38 132h139l-38 -132h123l-35 -124h-124zM151 -219h-89l51 70h-32l31 107h128l-24 -83z" />
    <glyph glyph-name="thorn" unicode="&#xfe;" horiz-adv-x="585" 
d="M166 238q0 -24 8.5 -45t23.5 -37t36.5 -25t47.5 -9q32 0 60 13.5t49 36t33 51.5t12 60q0 53 -32.5 83.5t-82.5 30.5q-31 0 -59 -13t-49.5 -35t-34 -51t-12.5 -60zM275 -6q-50 0 -94 20t-69 51l-70 -242h-139l247 862h139l-56 -196q25 14 55.5 21.5t62.5 7.5
q48 0 88.5 -16t70 -44.5t46.5 -69t17 -89.5q0 -62 -25 -117.5t-67 -97t-95.5 -66t-110.5 -24.5z" />
    <glyph glyph-name="uacute" unicode="&#xfa;" 
d="M308 51q-32 -27 -72.5 -43.5t-88.5 -16.5q-39 0 -70.5 15t-50 42.5t-23.5 65.5t8 84l90 315h138l-83 -291q-13 -45 7 -74t62 -29q50 0 84 31t49 83l81 280h139l-147 -513h-137zM240 547l35 123l246 57l-36 -126z" />
    <glyph glyph-name="ubreve" unicode="&#x16d;" 
d="M308 51q-32 -27 -72.5 -43.5t-88.5 -16.5q-39 0 -70.5 15t-50 42.5t-23.5 65.5t8 84l90 315h138l-83 -291q-13 -45 7 -74t62 -29q50 0 84 31t49 83l81 280h139l-147 -513h-137zM508 597q-22 -19 -60 -34.5t-92 -15.5t-87 20t-45 43l28 94q20 -17 53.5 -30t78.5 -13
q51 0 91.5 14.5t63.5 28.5z" />
    <glyph glyph-name="ucircumflex" unicode="&#xfb;" 
d="M308 51q-32 -27 -72.5 -43.5t-88.5 -16.5q-39 0 -70.5 15t-50 42.5t-23.5 65.5t8 84l90 315h138l-83 -291q-13 -45 7 -74t62 -29q50 0 84 31t49 83l81 280h139l-147 -513h-137zM496 550l-119 37l-171 -39l30 103l160 54l130 -54z" />
    <glyph glyph-name="udieresis" unicode="&#xfc;" 
d="M308 51q-32 -27 -72.5 -43.5t-88.5 -16.5q-39 0 -70.5 15t-50 42.5t-23.5 65.5t8 84l90 315h138l-83 -291q-13 -45 7 -74t62 -29q50 0 84 31t49 83l81 280h139l-147 -513h-137zM202 556l37 129h133l-37 -129h-133zM371 556l37 129h133l-37 -129h-133z" />
    <glyph glyph-name="ugrave" unicode="&#xf9;" 
d="M308 51q-32 -27 -72.5 -43.5t-88.5 -16.5q-39 0 -70.5 15t-50 42.5t-23.5 65.5t8 84l90 315h138l-83 -291q-13 -45 7 -74t62 -29q50 0 84 31t49 83l81 280h139l-147 -513h-137zM459 543l-215 55l36 125l214 -57z" />
    <glyph glyph-name="uhungarumlaut" unicode="&#x171;" 
d="M308 51q-32 -27 -72.5 -43.5t-88.5 -16.5q-39 0 -70.5 15t-50 42.5t-23.5 65.5t8 84l90 315h138l-83 -291q-13 -45 7 -74t62 -29q50 0 84 31t49 83l81 280h139l-147 -513h-137zM194 558l90 147h136l-94 -147h-132zM363 558l94 147h136l-98 -147h-132z" />
    <glyph glyph-name="umacron" unicode="&#x16b;" 
d="M308 51q-32 -27 -72.5 -43.5t-88.5 -16.5q-39 0 -70.5 15t-50 42.5t-23.5 65.5t8 84l90 315h138l-83 -291q-13 -45 7 -74t62 -29q50 0 84 31t49 83l81 280h139l-147 -513h-137zM222 571l35 123h272l-35 -123h-272z" />
    <glyph glyph-name="uogonek" unicode="&#x173;" 
d="M390 -165q-8 -5 -19 -9q-9 -4 -22 -6.5t-29 -2.5q-38 0 -58.5 17t-20.5 45q0 38 25.5 71t60.5 50h-32l14 51q-32 -27 -72.5 -43.5t-88.5 -16.5q-39 0 -70.5 15t-50 42.5t-23.5 65.5t8 84l90 315h138l-83 -291q-13 -45 7 -74t62 -29q50 0 84 31t49 83l81 280h139
l-147 -513h-26q-36 -17 -56 -43.5t-20 -44.5q0 -24 31 -24q10 0 18.5 1t14.5 3q7 2 13 5l-17 -62v0z" />
    <glyph glyph-name="uring" unicode="&#x16f;" 
d="M308 51q-32 -27 -72.5 -43.5t-88.5 -16.5q-39 0 -70.5 15t-50 42.5t-23.5 65.5t8 84l90 315h138l-83 -291q-13 -45 7 -74t62 -29q50 0 84 31t49 83l81 280h139l-147 -513h-137zM278 639q0 22 9 43.5t25 38t38 26.5t47 10q38 0 63.5 -25t25.5 -63q0 -23 -9 -44.5t-25 -38
t-38 -26.5t-47 -10q-38 0 -63.5 25t-25.5 64zM418 660q0 15 -9 24t-23 9q-17 0 -28.5 -13t-11.5 -32q0 -15 9 -24t23 -9q18 0 29 14t11 31z" />
    <glyph glyph-name="utilde" unicode="&#x169;" 
d="M308 51q-32 -27 -72.5 -43.5t-88.5 -16.5q-39 0 -70.5 15t-50 42.5t-23.5 65.5t8 84l90 315h138l-83 -291q-13 -45 7 -74t62 -29q50 0 84 31t49 83l81 280h139l-147 -513h-137zM283 579q-22 0 -43.5 -9t-34.5 -17l28 94q20 17 44 29t55 12q21 0 37.5 -5t31 -11t28.5 -11
t32 -5q22 0 43.5 9t34.5 17l-28 -94q-20 -17 -44.5 -29t-55.5 -12q-21 0 -37.5 5t-30.5 11t-28 11t-32 5z" />
    <glyph glyph-name="wacute" unicode="&#x1e83;" horiz-adv-x="766" 
d="M392 290l-151 -290h-176l18 513h137l-19 -344l182 344h138l-17 -357l185 357h139l-277 -513h-175zM355 547l35 123l246 57l-36 -126z" />
    <glyph glyph-name="wdieresis" unicode="&#x1e85;" horiz-adv-x="766" 
d="M392 290l-151 -290h-176l18 513h137l-19 -344l182 344h138l-17 -357l185 357h139l-277 -513h-175zM317 556l37 129h133l-37 -129h-133zM486 556l37 129h133l-37 -129h-133z" />
    <glyph glyph-name="wgrave" unicode="&#x1e81;" horiz-adv-x="766" 
d="M392 290l-151 -290h-176l18 513h137l-19 -344l182 344h138l-17 -357l185 357h139l-277 -513h-175zM574 543l-215 55l36 125l214 -57z" />
    <glyph glyph-name="wcircumflex" unicode="&#x175;" horiz-adv-x="766" 
d="M392 290l-151 -290h-176l18 513h137l-19 -344l182 344h138l-17 -357l185 357h139l-277 -513h-175zM611 550l-119 37l-171 -39l30 103l160 54l130 -54z" />
    <glyph glyph-name="yacute" unicode="&#xfd;" horiz-adv-x="523" 
d="M588 513l-320 -505q-36 -57 -70 -95t-72 -59.5t-83 -27t-103 2.5l35 124q33 -5 55 -1.5t38 13t29 25t27 35.5l-41 488h148l12 -317l191 317h154zM234 547l35 123l246 57l-36 -126z" />
    <glyph glyph-name="ycircumflex" unicode="&#x177;" horiz-adv-x="523" 
d="M588 513l-320 -505q-36 -57 -70 -95t-72 -59.5t-83 -27t-103 2.5l35 124q33 -5 55 -1.5t38 13t29 25t27 35.5l-41 488h148l12 -317l191 317h154zM490 550l-119 37l-171 -39l30 103l160 54l130 -54z" />
    <glyph glyph-name="ydieresis" unicode="&#xff;" horiz-adv-x="523" 
d="M588 513l-320 -505q-36 -57 -70 -95t-72 -59.5t-83 -27t-103 2.5l35 124q33 -5 55 -1.5t38 13t29 25t27 35.5l-41 488h148l12 -317l191 317h154zM196 556l37 129h133l-37 -129h-133zM365 556l37 129h133l-37 -129h-133z" />
    <glyph glyph-name="ygrave" unicode="&#x1ef3;" horiz-adv-x="523" 
d="M588 513l-320 -505q-36 -57 -70 -95t-72 -59.5t-83 -27t-103 2.5l35 124q33 -5 55 -1.5t38 13t29 25t27 35.5l-41 488h148l12 -317l191 317h154zM453 543l-215 55l36 125l214 -57z" />
    <glyph glyph-name="zacute" unicode="&#x17a;" horiz-adv-x="470" 
d="M180 121h226l-35 -121h-421l31 108l307 282h-228l35 123h423l-31 -110zM207 547l35 123l246 57l-36 -126z" />
    <glyph glyph-name="zcaron" unicode="&#x17e;" horiz-adv-x="470" 
d="M180 121h226l-35 -121h-421l31 108l307 282h-228l35 123h423l-31 -110zM217 699l119 -37l171 39l-30 -103l-160 -54l-130 54z" />
    <glyph glyph-name="zdotaccent" unicode="&#x17c;" horiz-adv-x="470" 
d="M180 121h226l-35 -121h-421l31 108l307 282h-228l35 123h423l-31 -110zM251 557l36 128h140l-36 -128h-140z" />
    <glyph glyph-name="f_i" unicode="&#xfb01;" horiz-adv-x="567" 
d="M424 513l-35 -124h-113l-112 -389h-139l112 389h-78l35 124h78l11 33q25 74 84 110t158 36h51l-33 -114h-43q-35 0 -57 -13.5t-30 -43.5l-2 -8h113zM486 557l36 128h139l-36 -128h-139zM326 0l147 513h139l-147 -513h-139z" />
    <glyph glyph-name="f_l" unicode="&#xfb02;" horiz-adv-x="568" 
d="M424 513l-35 -124h-113l-112 -389h-139l112 389h-78l35 124h78l11 33q25 74 84 110t158 36h51l-33 -114h-43q-35 0 -57 -13.5t-30 -43.5l-2 -8h113zM326 0l196 685h140l-196 -685h-140z" />
    <glyph glyph-name="ordfeminine" unicode="&#xaa;" horiz-adv-x="380" 
d="M274 602q-32 0 -57.5 -22.5t-30.5 -57.5q-5 -33 13.5 -56t50.5 -23q33 0 58.5 23t30.5 56q5 35 -13.5 57.5t-51.5 22.5zM303 379q-32 -19 -73 -19q-30 0 -55 10t-44 28t-29.5 43t-10.5 56q0 39 16 74t42 61.5t60 42t70 15.5q30 0 56.5 -11.5t42.5 -29.5l11 37h93
l-93 -324h-91z" />
    <glyph glyph-name="ordmasculine" unicode="&#xba;" horiz-adv-x="367" 
d="M93 524q5 35 22.5 66t44 53.5t59 35.5t67.5 13q32 0 59.5 -11t47 -30t30.5 -45t11 -57q0 -6 -0.5 -12t-1.5 -13q-5 -36 -22.5 -66.5t-44 -53.5t-59 -36t-68.5 -13q-32 0 -59 11t-46.5 30t-30.5 45.5t-11 57.5q0 6 0.5 12t1.5 13zM340 536q0 29 -18.5 47.5t-47.5 18.5
q-32 0 -57.5 -22.5t-30.5 -57.5q-1 -5 -1 -13q0 -29 18 -47.5t47 -18.5q33 0 58.5 23t30.5 56q1 5 1 14z" />
    <glyph glyph-name="cedilla" unicode="&#xb8;" horiz-adv-x="394" 
d="M62 -217q-42 0 -64.5 26t-15.5 64h70q-2 -11 4 -18.5t17 -7.5t20 7t12 17q4 13 -2 21t-18 8h-73l80 109h60l-40 -51q38 -2 54 -26.5t9 -58.5q-8 -37 -38 -63.5t-75 -26.5z" />
    <glyph glyph-name="ogonek" unicode="&#x2db;" horiz-adv-x="394" 
d="M179 0q-36 -17 -56 -43.5t-20 -44.5q0 -24 31 -24q10 0 18.5 1t14.5 3q7 2 13 5l-17 -62q-8 -5 -19 -9q-9 -4 -22 -6.5t-29 -2.5q-38 0 -58.5 17t-20.5 45q0 22 9.5 43t24.5 38.5t35 30t41 18.5l48 13z" />
    <glyph glyph-name="zero" unicode="0" horiz-adv-x="572" 
d="M250 -12q-64 0 -112 22.5t-76.5 61t-36.5 89.5t9 108l61 211q13 47 39.5 86t62.5 67t80.5 43.5t93.5 15.5q57 0 104.5 -21t78 -58.5t40.5 -89.5t-8 -113l-61 -211q-14 -47 -40.5 -86t-62.5 -66.5t-80 -43t-92 -15.5zM261 122q47 0 79.5 26t46.5 72l61 209q8 28 4.5 51.5
t-16.5 40.5t-34 26.5t-48 9.5q-42 0 -75 -26t-46 -71l-60 -209q-8 -27 -4.5 -50.5t15.5 -41t31.5 -27.5t45.5 -10z" />
    <glyph glyph-name="one" unicode="1" horiz-adv-x="289" 
d="M31 0l156 545h-79l40 140h230l-196 -685h-151z" />
    <glyph glyph-name="two" unicode="2" horiz-adv-x="546" 
d="M-26 0l36 127l289 196q36 24 62 44.5t43 40t25 39t8 42.5q0 35 -26 52t-64 17q-46 0 -80 -22.5t-62 -56.5l-102 81q50 60 115.5 97.5t150.5 37.5q48 0 87.5 -12t68 -34.5t44 -55.5t15.5 -75v-1q0 -42 -12.5 -79.5t-40 -74t-70.5 -74t-104 -78.5l-124 -84h254l-36 -127
h-477z" />
    <glyph glyph-name="three" unicode="3" horiz-adv-x="564" 
d="M236 -11q-53 0 -94 13.5t-70.5 38.5t-48 59.5t-25.5 75.5l137 52q8 -54 35 -80.5t80 -26.5q30 0 54 11t41 29.5t26.5 42t9.5 49.5q0 48 -29.5 71.5t-70.5 23.5q-31 0 -61 -14l-38 96l189 123h-216l37 132h422l-37 -131l-160 -110q54 -23 82.5 -66.5t28.5 -101.5
q0 -57 -23 -109t-63 -91.5t-93 -63t-113 -23.5z" />
    <glyph glyph-name="four" unicode="4" horiz-adv-x="586" 
d="M558 263l-37 -129h-65l-38 -134h-147l38 134h-317l37 129l418 424h168l-122 -424h65zM408 481l-214 -218h152z" />
    <glyph glyph-name="five" unicode="5" horiz-adv-x="564" 
d="M250 -11q-54 0 -95.5 13.5t-72 38.5t-49 59.5t-25.5 75.5l137 52q8 -54 35 -81t79 -27q30 0 55 11.5t42.5 30.5t27 44t9.5 52q0 47 -28.5 71.5t-66.5 24.5q-41 0 -70 -18t-49 -44l-107 54l161 339h370l-42 -136h-263l-43 -92q20 7 43 11t47 4q39 0 74 -13t62 -37.5
t42.5 -60.5t15.5 -82q0 -58 -23 -110.5t-62.5 -92.5t-92 -63.5t-111.5 -23.5z" />
    <glyph glyph-name="six" unicode="6" horiz-adv-x="553" 
d="M246 -10q-51 0 -92.5 15t-71.5 42.5t-46.5 66t-16.5 86.5q0 62 26.5 121.5t75.5 114.5l221 249h168l-188 -209q5 1 10.5 1h10.5q35 0 69 -13t61 -38t43.5 -62t16.5 -84q0 -54 -22 -106t-60 -93t-91 -66t-114 -25zM258 118q28 0 52.5 12t42.5 31.5t28.5 45t10.5 52.5
q0 44 -27 71t-74 27q-26 0 -50 -11t-42.5 -30t-29.5 -44.5t-11 -54.5q0 -45 27.5 -72t72.5 -27z" />
    <glyph glyph-name="seven" unicode="7" horiz-adv-x="525" 
d="M9 0l408 546h-306l40 139h467l-39 -135l-398 -550h-172z" />
    <glyph glyph-name="eight" unicode="8" horiz-adv-x="556" 
d="M225 -10q-95 0 -150 48t-55 128q0 67 35 127t111 101q-24 40 -24 84q0 41 18 80t50.5 69t76.5 48.5t95 18.5q41 0 72.5 -11.5t53.5 -32t33 -48t11 -58.5q0 -51 -22 -94.5t-73 -80.5q27 -26 39 -55.5t12 -61.5q0 -53 -23.5 -100.5t-62.5 -83.5t-90.5 -57t-106.5 -21z
M334 431q20 0 36 8.5t27.5 21.5t18 29t6.5 31q0 27 -16 43t-45 16q-21 0 -37.5 -8t-28 -21t-17.5 -29t-6 -31q0 -29 17 -44.5t45 -15.5zM245 109q30 0 53 12t38.5 31t24 41t8.5 43q0 35 -22.5 57.5t-64.5 22.5q-29 0 -52 -12t-39 -30.5t-24 -40.5t-8 -43q0 -36 23.5 -58.5
t62.5 -22.5z" />
    <glyph glyph-name="nine" unicode="9" horiz-adv-x="553" 
d="M356 695q51 0 92.5 -15t71.5 -42.5t46.5 -66t16.5 -86.5q0 -62 -26.5 -121.5t-75.5 -114.5l-221 -249h-168l188 209q-5 -1 -10.5 -1h-10.5q-35 0 -69 13t-61 38t-43.5 62t-16.5 84q0 54 22 106t60 93t90.5 66t114.5 25zM344 567q-28 0 -52.5 -12t-42.5 -31.5t-28.5 -45
t-10.5 -52.5q0 -44 27 -71t74 -27q26 0 50 11t42.5 30t29.5 44.5t11 54.5q0 45 -27.5 72t-72.5 27z" />
    <glyph glyph-name="zero.slash" horiz-adv-x="572" 
d="M250 -12q-64 0 -112 22.5t-76.5 61t-36.5 89.5t9 108l61 211q13 47 39.5 86t62.5 67t80.5 43.5t93.5 15.5q57 0 104.5 -21t78 -58.5t40.5 -89.5t-8 -113l-61 -211q-14 -47 -40.5 -86t-62.5 -66.5t-80 -43t-92 -15.5zM173 251q-6 -20 -5.5 -37.5t5.5 -32.5l204 374
q-5 1 -11 1.5t-12 0.5q-42 0 -75 -26t-46 -71zM261 122q47 0 79.5 26t46.5 72l61 209q10 34 2 63l-200 -369q4 -1 11 -1z" />
    <glyph glyph-name="four.alt" horiz-adv-x="586" 
d="M271 0l38 134h-317l37 129l418 422h178l-421 -422h142l40 137h147l-40 -137h65l-37 -129h-65l-38 -134h-147z" />
    <glyph glyph-name="zero.dnom" horiz-adv-x="327" 
d="M108 -7q-35 0 -62.5 12t-44 33.5t-21.5 50t5 61.5l34 119q17 58 60 92t104 34q33 0 59.5 -11.5t44 -32t23 -49.5t-4.5 -64l-34 -119q-17 -58 -60 -92t-103 -34zM119 84q23 0 38.5 13t22.5 36l32 110q8 27 -5 44t-37 17q-22 0 -38 -13t-22 -35l-31 -110q-8 -27 4.5 -44.5
t35.5 -17.5z" />
    <glyph glyph-name="one.dnom" horiz-adv-x="172" 
d="M-16 0l87 303h-45l25 88h140l-112 -391h-95z" />
    <glyph glyph-name="two.dnom" horiz-adv-x="315" 
d="M-47 0l21 76l170 119q36 26 51 44t15 39q0 18 -13 26.5t-31 7.5q-24 0 -42.5 -12.5t-34.5 -32.5l-66 47q28 35 66 58.5t89 24.5q57 1 92 -26t35 -75q0 -22 -7 -42t-23 -41t-43 -44.5t-67 -50.5l-57 -39h142l-23 -79h-274z" />
    <glyph glyph-name="three.dnom" horiz-adv-x="325" 
d="M104 -7q-60 0 -94.5 28.5t-42.5 79.5l84 33q9 -58 62 -58q31 0 49 20.5t18 44.5q0 25 -15.5 37.5t-36.5 12.5q-20 0 -36 -8l-23 59l110 67h-125l23 82h245l-24 -85l-85 -57q60 -29 60 -94q0 -31 -13 -60.5t-35.5 -52t-53.5 -36t-67 -13.5z" />
    <glyph glyph-name="four.dnom" horiz-adv-x="340" 
d="M292 155l-23 -80h-37l-21 -75h-92l21 75h-178l23 80l234 237h105l-68 -237h36zM196 268l-110 -113h78z" />
    <glyph glyph-name="five.dnom" horiz-adv-x="325" 
d="M108 -7q-61 0 -95.5 30t-42.5 78l85 33q9 -58 61 -58q31 0 50 20.5t19 49.5q0 24 -14.5 37.5t-36.5 13.5q-20 0 -35 -9.5t-26 -23.5l-67 33l91 194h217l-25 -83h-150l-20 -46q11 3 22 5t23 2q48 0 80.5 -29t32.5 -82q0 -32 -13 -62t-35.5 -53t-53.5 -36.5t-67 -13.5z" />
    <glyph glyph-name="six.dnom" horiz-adv-x="316" 
d="M107 -6q-61 0 -95.5 34t-34.5 86q0 70 60 138l121 139h106l-106 -119h6q20 0 39.5 -7t34.5 -21.5t24.5 -35.5t9.5 -48q0 -31 -12.5 -60.5t-34 -53t-52 -38t-66.5 -14.5zM115 74q31 0 50.5 23t19.5 51q0 23 -14.5 37t-38.5 14q-26 0 -47 -21t-21 -52q0 -23 14 -37.5
t37 -14.5z" />
    <glyph glyph-name="seven.dnom" horiz-adv-x="304" 
d="M-31 0l231 305h-171l25 86h270l-25 -84l-221 -307h-109z" />
    <glyph glyph-name="eight.dnom" horiz-adv-x="322" 
d="M96 -6q-54 0 -85.5 28t-31.5 74q0 39 21 73t62 55q-13 22 -13 48q0 23 10 45.5t28 40t43.5 28t56.5 10.5q48 0 74 -25t26 -62q0 -26 -12.5 -51.5t-41.5 -48.5q29 -28 29 -66q0 -29 -13 -56t-35.5 -47.5t-53 -33t-64.5 -12.5zM160 247q21 0 34 15.5t13 32.5q0 14 -9 22
t-23 8q-21 0 -33.5 -14.5t-12.5 -31.5q0 -15 8.5 -23.5t22.5 -8.5zM110 68q15 0 27 6t20.5 16t13 21.5t4.5 23.5q0 19 -12.5 30t-32.5 11q-14 0 -26 -6t-20.5 -15.5t-13 -21t-4.5 -23.5q0 -20 12 -31t32 -11z" />
    <glyph glyph-name="nine.dnom" horiz-adv-x="316" 
d="M13 0l106 119h-6q-20 0 -39.5 7t-34.5 21.5t-24.5 35.5t-9.5 48q0 31 12.5 60.5t34 53t52 38t66.5 14.5q61 0 95.5 -34t34.5 -86q0 -71 -60 -138l-121 -139h-106zM162 317q-31 0 -50.5 -23t-19.5 -51q0 -23 14.5 -37t38.5 -14q26 0 47 21t21 52q0 23 -14 37.5t-37 14.5z
" />
    <glyph glyph-name="zero.sups" unicode="&#x2070;" horiz-adv-x="327" 
d="M194 287q-35 0 -62.5 12t-44 33.5t-21.5 50t5 61.5l34 119q17 58 60 92t104 34q33 0 59.5 -11.5t44 -32t23 -49.5t-4.5 -64l-34 -119q-17 -58 -60 -92t-103 -34zM205 378q23 0 38.5 13t22.5 36l32 110q8 27 -5 44t-37 17q-22 0 -38 -13t-22 -35l-31 -110
q-8 -27 4.5 -44.5t35.5 -17.5z" />
    <glyph glyph-name="onesuperior" unicode="&#xb9;" horiz-adv-x="172" 
d="M70 294l87 303h-45l25 88h140l-112 -391h-95z" />
    <glyph glyph-name="twosuperior" unicode="&#xb2;" horiz-adv-x="315" 
d="M39 294l21 76l170 119q36 26 51 44t15 39q0 18 -13 26.5t-31 7.5q-24 0 -42.5 -12.5t-34.5 -32.5l-66 47q28 35 66 58.5t89 24.5q57 1 92 -26t35 -75q0 -22 -7 -42t-23 -41t-43 -44.5t-67 -50.5l-57 -39h142l-23 -79h-274z" />
    <glyph glyph-name="threesuperior" unicode="&#xb3;" horiz-adv-x="325" 
d="M190 287q-60 0 -94.5 28.5t-42.5 79.5l84 33q9 -58 62 -58q31 0 49 20.5t18 44.5q0 25 -15.5 37.5t-36.5 12.5q-20 0 -36 -8l-23 59l110 67h-125l23 82h245l-24 -85l-85 -57q60 -29 60 -94q0 -31 -13 -60.5t-35.5 -52t-53.5 -36t-67 -13.5z" />
    <glyph glyph-name="four.sups" unicode="&#x2074;" horiz-adv-x="340" 
d="M378 449l-23 -80h-37l-21 -75h-92l21 75h-178l23 80l234 237h105l-68 -237h36zM282 562l-110 -113h78z" />
    <glyph glyph-name="five.sups" unicode="&#x2075;" horiz-adv-x="325" 
d="M194 287q-61 0 -95.5 30t-42.5 78l85 33q9 -58 61 -58q31 0 50 20.5t19 49.5q0 24 -14.5 37.5t-36.5 13.5q-20 0 -35 -9.5t-26 -23.5l-67 33l91 194h217l-25 -83h-150l-20 -46q11 3 22 5t23 2q48 0 80.5 -29t32.5 -82q0 -32 -13 -62t-35.5 -53t-53.5 -36.5t-67 -13.5z
" />
    <glyph glyph-name="six.sups" unicode="&#x2076;" horiz-adv-x="316" 
d="M193 288q-61 0 -95.5 34t-34.5 86q0 70 60 138l121 139h106l-106 -119h6q20 0 39.5 -7t34.5 -21.5t24.5 -35.5t9.5 -48q0 -31 -12.5 -60.5t-34 -53t-52 -38t-66.5 -14.5zM201 368q31 0 50.5 23t19.5 51q0 23 -14.5 37t-38.5 14q-26 0 -47 -21t-21 -52q0 -23 14 -37.5
t37 -14.5z" />
    <glyph glyph-name="seven.sups" unicode="&#x2077;" horiz-adv-x="304" 
d="M55 294l231 305h-171l25 86h270l-25 -84l-221 -307h-109z" />
    <glyph glyph-name="eight.sups" unicode="&#x2078;" horiz-adv-x="322" 
d="M182 288q-54 0 -85.5 28t-31.5 74q0 39 21 73t62 55q-13 22 -13 48q0 23 10 45.5t28 40t43.5 28t56.5 10.5q48 0 74 -25t26 -62q0 -26 -12.5 -51.5t-41.5 -48.5q29 -28 29 -66q0 -29 -13 -56t-35.5 -47.5t-53 -33t-64.5 -12.5zM246 541q21 0 34 15.5t13 32.5q0 14 -9 22
t-23 8q-21 0 -33.5 -14.5t-12.5 -31.5q0 -15 8.5 -23.5t22.5 -8.5zM196 362q15 0 27 6t20.5 16t13 21.5t4.5 23.5q0 19 -12.5 30t-32.5 11q-14 0 -26 -6t-20.5 -15.5t-13 -21t-4.5 -23.5q0 -20 12 -31t32 -11z" />
    <glyph glyph-name="nine.sups" unicode="&#x2079;" horiz-adv-x="316" 
d="M99 294l106 119h-6q-20 0 -39.5 7t-34.5 21.5t-24.5 35.5t-9.5 48q0 31 12.5 60.5t34 53t52 38t66.5 14.5q61 0 95.5 -34t34.5 -86q0 -71 -60 -138l-121 -139h-106zM248 611q-31 0 -50.5 -23t-19.5 -51q0 -23 14.5 -37t38.5 -14q26 0 47 21t21 52q0 23 -14 37.5t-37 14.5
z" />
    <glyph glyph-name="onequarter" unicode="&#xbc;" horiz-adv-x="712" 
d="M70 294l87 303h-45l25 88h140l-112 -391h-95zM651 155l-23 -80h-37l-21 -75h-92l21 75h-178l23 80l234 237h105l-68 -237h36zM555 268l-110 -113h78zM29 0l496 685h131l-496 -685h-131z" />
    <glyph glyph-name="fraction" unicode="&#x2044;" horiz-adv-x="22" 
d="M-266 0l496 685h131l-496 -685h-131z" />
    <glyph glyph-name="onehalf" unicode="&#xbd;" horiz-adv-x="725" 
d="M70 294l87 303h-45l25 88h140l-112 -391h-95zM356 0l21 76l170 119q36 26 51 44t15 39q0 18 -13 26.5t-31 7.5q-24 0 -42.5 -12.5t-34.5 -32.5l-66 47q28 35 66 58.5t89 24.5q57 1 92 -26t35 -75q0 -22 -7 -42t-23 -41t-43 -44.5t-67 -50.5l-57 -39h142l-23 -79h-274z
M29 0l496 685h131l-496 -685h-131z" />
    <glyph glyph-name="threequarters" unicode="&#xbe;" horiz-adv-x="829" 
d="M190 287q-60 0 -94.5 28.5t-42.5 79.5l84 33q9 -58 62 -58q31 0 49 20.5t18 44.5q0 25 -15.5 37.5t-36.5 12.5q-20 0 -36 -8l-23 59l110 67h-125l23 82h245l-24 -85l-85 -57q60 -29 60 -94q0 -31 -13 -60.5t-35.5 -52t-53.5 -36t-67 -13.5zM768 155l-23 -80h-37l-21 -75
h-92l21 75h-178l23 80l234 237h105l-68 -237h36zM672 268l-110 -113h78zM147 0l496 685h131l-496 -685h-131z" />
    <glyph glyph-name="uni2153" unicode="&#x2153;" horiz-adv-x="726" 
d="M70 294l87 303h-45l25 88h140l-112 -391h-95zM507 -7q-60 0 -94.5 28.5t-42.5 79.5l84 33q9 -58 62 -58q31 0 49 20.5t18 44.5q0 25 -15.5 37.5t-36.5 12.5q-20 0 -36 -8l-23 59l110 67h-125l23 82h245l-24 -85l-85 -57q60 -29 60 -94q0 -31 -13 -60.5t-35.5 -52
t-53.5 -36t-67 -13.5zM29 0l496 685h131l-496 -685h-131z" />
    <glyph glyph-name="uni2154" unicode="&#x2154;" horiz-adv-x="845" 
d="M39 294l21 76l170 119q36 26 51 44t15 39q0 18 -13 26.5t-31 7.5q-24 0 -42.5 -12.5t-34.5 -32.5l-66 47q28 35 66 58.5t89 24.5q57 1 92 -26t35 -75q0 -22 -7 -42t-23 -41t-43 -44.5t-67 -50.5l-57 -39h142l-23 -79h-274zM626 -7q-60 0 -94.5 28.5t-42.5 79.5l84 33
q9 -58 62 -58q31 0 49 20.5t18 44.5q0 25 -15.5 37.5t-36.5 12.5q-20 0 -36 -8l-23 59l110 67h-125l23 82h245l-24 -85l-85 -57q60 -29 60 -94q0 -31 -13 -60.5t-35.5 -52t-53.5 -36t-67 -13.5zM148 0l496 685h131l-496 -685h-131z" />
    <glyph glyph-name="percent" unicode="%" horiz-adv-x="825" 
d="M194 287q-35 0 -62.5 12t-44 33.5t-21.5 50t5 61.5l34 119q17 58 60 92t104 34q33 0 59.5 -11.5t44 -32t23 -49.5t-4.5 -64l-34 -119q-17 -58 -60 -92t-103 -34zM205 378q23 0 38.5 13t22.5 36l32 110q8 27 -5 44t-37 17q-22 0 -38 -13t-22 -35l-31 -110
q-8 -27 4.5 -44.5t35.5 -17.5zM605 -7q-35 0 -62.5 12t-44 33.5t-21.5 50t5 61.5l34 119q17 58 60 92t104 34q33 0 59.5 -11.5t44 -32t23 -49.5t-4.5 -64l-34 -119q-17 -58 -60 -92t-103 -34zM616 84q23 0 38.5 13t22.5 36l32 110q8 27 -5 44t-37 17q-22 0 -38 -13t-22 -35
l-31 -110q-8 -27 4.5 -44.5t35.5 -17.5zM124 0l496 685h131l-496 -685h-131z" />
    <glyph glyph-name="underscore" unicode="_" horiz-adv-x="492" 
d="M-124 -175l37 130h492l-37 -130h-492z" />
    <glyph glyph-name="hyphen" unicode="-" horiz-adv-x="352" 
d="M20 218l37 131h290l-37 -131h-290z" />
    <glyph glyph-name="figuredash" unicode="&#x2012;" horiz-adv-x="433" 
d="M7 221l38 130h397l-38 -130h-397z" />
    <glyph glyph-name="endash" unicode="&#x2013;" horiz-adv-x="433" 
d="M7 219l38 132h397l-38 -132h-397z" />
    <glyph glyph-name="emdash" unicode="&#x2014;" horiz-adv-x="819" 
d="M7 219l37 131h782l-37 -131h-782z" />
    <glyph glyph-name="space.em" horiz-adv-x="982" 
 />
    <glyph glyph-name="space.en" horiz-adv-x="492" 
 />
    <glyph glyph-name="space.thin" horiz-adv-x="2" 
 />
    <glyph glyph-name="space.half" horiz-adv-x="149" 
 />
    <glyph glyph-name="parenleft" unicode="(" horiz-adv-x="334" 
d="M402 634q-73 -68 -133.5 -163.5t-92.5 -205.5q-28 -96 -28 -183q0 -105 43 -189l-115 -64q-33 53 -49.5 118t-16.5 139q0 85 23 179q15 62 41.5 122.5t60.5 116.5t74.5 105t84.5 88z" />
    <glyph glyph-name="parenright" unicode=")" horiz-adv-x="334" 
d="M-65 -108q73 68 133.5 163.5t92.5 205.5q28 96 28 183q0 105 -43 189l115 64q33 -53 49.5 -118t16.5 -139q0 -85 -23 -179q-15 -62 -41.5 -122.5t-60.5 -116.5t-74.5 -105t-84.5 -88z" />
    <glyph glyph-name="bracketleft" unicode="[" horiz-adv-x="319" 
d="M260 560l-170 -592h114l-37 -128h-254l242 845h254l-35 -125h-114z" />
    <glyph glyph-name="bracketright" unicode="]" horiz-adv-x="319" 
d="M57 -35l170 592h-114l37 128h254l-242 -845h-254l35 125h114z" />
    <glyph glyph-name="braceleft" unicode="{" horiz-adv-x="346" 
d="M361 559q-39 0 -60 -22t-21 -52q0 -23 4.5 -41.5t4.5 -40.5q0 -27 -8.5 -49t-23 -39.5t-32 -30.5t-35.5 -21q13 -8 27 -23.5t14 -44.5q0 -30 -14 -56t-30.5 -49t-30.5 -44t-14 -42q0 -36 50 -36h39l-37 -127h-78q-59 0 -92 28.5t-33 77.5q0 39 14.5 67t32 51.5t32 46
t14.5 51.5q0 20 -13.5 33t-48.5 13h-6l31 110h11q26 0 45 8t31 20t17.5 26.5t5.5 28.5q0 13 -2.5 24.5t-6 23.5t-6 26t-2.5 32q0 32 14.5 64t40.5 57.5t62.5 41t81.5 15.5h98l-37 -127h-39z" />
    <glyph glyph-name="braceright" unicode="}" horiz-adv-x="346" 
d="M-15 -32q39 0 60 22t21 52q0 23 -4.5 41.5t-4.5 40.5q0 27 8.5 49t23 39.5t32 30.5t35.5 21q-13 8 -27 23.5t-14 44.5q0 30 14 56t30.5 49t30.5 44t14 42q0 36 -50 36h-39l37 127h78q59 0 92 -28.5t33 -77.5q0 -39 -14.5 -67t-32 -51.5t-32 -46t-14.5 -51.5
q0 -20 13.5 -33t48.5 -13h6l-31 -110h-11q-26 0 -45 -8t-31 -20t-17.5 -27t-5.5 -28q0 -14 2.5 -25.5t6 -23.5t6 -25.5t2.5 -31.5q0 -32 -14.5 -64t-40.5 -57.5t-62.5 -41t-81.5 -15.5h-98l37 127h39z" />
    <glyph glyph-name="quotesingle" unicode="'" horiz-adv-x="204" 
d="M95 444l53 241h150l-88 -241h-115z" />
    <glyph glyph-name="quotedbl" unicode="&#x22;" horiz-adv-x="372" 
d="M96 444l54 241h147l-88 -241h-113zM266 444l53 241h147l-88 -241h-112z" />
    <glyph glyph-name="quoteleft" unicode="&#x2018;" horiz-adv-x="201" 
d="M204 685h92l-65 -96h38l-42 -145h-143l35 122z" />
    <glyph glyph-name="comma" unicode="," horiz-adv-x="201" 
d="M21 -96h-92l65 96h-38l42 145h143l-35 -122z" />
    <glyph glyph-name="quotedblleft" unicode="&#x201c;" horiz-adv-x="367" 
d="M371 685h87l-64 -96h38l-41 -145h-139l35 122zM201 685h86l-65 -96h38l-41 -145h-138l35 122z" />
    <glyph glyph-name="quotedblright" unicode="&#x201d;" horiz-adv-x="363" 
d="M169 444h-87l64 96h-38l41 145h139l-35 -122zM339 444h-86l65 96h-38l41 145h138l-35 -122z" />
    <glyph glyph-name="quotesinglbase" unicode="&#x201a;" horiz-adv-x="201" 
d="M21 -96h-92l65 96h-38l42 145h143l-35 -122z" />
    <glyph glyph-name="quotedblbase" unicode="&#x201e;" horiz-adv-x="366" 
d="M14 -96h-87l64 96h-38l41 145h139l-35 -122zM184 -96h-86l65 96h-38l41 145h138l-35 -122z" />
    <glyph glyph-name="guilsinglleft" unicode="&#x2039;" horiz-adv-x="305" 
d="M230 62h-137l-68 224l197 228h155l-212 -243z" />
    <glyph glyph-name="guilsinglright" unicode="&#x203a;" horiz-adv-x="305" 
d="M92 514h137l68 -224l-197 -228h-155l212 243z" />
    <glyph glyph-name="guillemotleft" unicode="&#xab;" horiz-adv-x="525" 
d="M349 514l-195 -228l66 -224h-129l-68 234l186 218h140zM554 514l-203 -235l66 -217h-131l-67 222l197 230h138z" />
    <glyph glyph-name="guillemotright" unicode="&#xbb;" horiz-adv-x="494" 
d="M159 62l195 228l-66 224h129l68 -234l-186 -218h-140zM-46 62l203 235l-66 217h131l67 -222l-197 -230h-138z" />
    <glyph glyph-name="asterisk" unicode="*" horiz-adv-x="340" 
d="M392 646l22 -79l-81 -40l55 -38l-61 -71l-56 39l-23 -81h-88l23 82l-78 -40l-22 79l81 40l-53 39l59 70l56 -40l23 80h88l-23 -80z" />
    <glyph glyph-name="dagger" unicode="&#x2020;" horiz-adv-x="380" 
d="M422 459l-37 -128h-105l-136 -474h-137l136 474h-106l37 128h106l49 171h137l-49 -171h105z" />
    <glyph glyph-name="daggerdbl" unicode="&#x2021;" horiz-adv-x="380" 
d="M422 460l-37 -128h-105l-48 -169h105l-37 -128h-105l-51 -178h-137l51 178h-106l37 128h106l48 169h-106l37 128h106l49 170h137l-49 -170h105z" />
    <glyph glyph-name="period" unicode="." horiz-adv-x="201" 
d="M-46 0l42 145h144l-42 -145h-144z" />
    <glyph glyph-name="colon" unicode=":" horiz-adv-x="201" 
d="M-46 0l42 145h144l-42 -145h-144zM60 368l42 145h144l-42 -145h-144z" />
    <glyph glyph-name="semicolon" unicode=";" horiz-adv-x="201" 
d="M60 368l42 145h144l-42 -145h-144zM21 -96h-92l65 96h-38l42 145h143l-35 -122z" />
    <glyph glyph-name="ellipsis" unicode="&#x2026;" horiz-adv-x="603" 
d="M-46 0l42 145h144l-42 -145h-144zM155 0l42 145h144l-42 -145h-144zM356 0l42 145h144l-42 -145h-144z" />
    <glyph glyph-name="periodcentered" unicode="&#xb7;" horiz-adv-x="201" 
d="M14 211l42 145h144l-42 -145h-144z" />
    <glyph glyph-name="bullet" unicode="&#x2022;" horiz-adv-x="282" 
d="M163 398q24 0 43 -8.5t31.5 -23.5t18 -35.5t2.5 -44.5t-14.5 -44.5t-28.5 -35.5t-38.5 -23.5t-45.5 -8.5t-43 8.5t-31.5 23.5t-18 35.5t-2.5 44.5t14.5 44.5t28.5 35.5t38.5 23.5t45.5 8.5z" />
    <glyph glyph-name="exclam" unicode="!" horiz-adv-x="218" 
d="M156 181h-138l144 504h138zM-34 0l40 139h138l-40 -139h-138z" />
    <glyph glyph-name="exclamdown" unicode="&#xa1;" horiz-adv-x="218" 
d="M301 685l-40 -139h-138l40 139h138zM111 504h138l-144 -504h-138z" />
    <glyph glyph-name="question" unicode="?" horiz-adv-x="478" 
d="M73 491q10 46 33.5 83.5t57 63.5t75 40.5t87.5 14.5q47 0 84 -13.5t62.5 -38t39 -57.5t13.5 -72q0 -47 -17 -90t-48 -77.5t-74 -57t-95 -27.5l-23 -79h-138l53 185h31q89 0 132 35t43 90q0 36 -21.5 56.5t-57.5 20.5q-41 0 -66.5 -20t-38.5 -57h-132zM77 0l40 139h139
l-40 -139h-139z" />
    <glyph glyph-name="questiondown" unicode="&#xbf;" horiz-adv-x="478" 
d="M441 685l-40 -139h-139l40 139h139zM445 194q-10 -46 -33.5 -83.5t-57 -63.5t-75 -40.5t-87.5 -14.5q-47 0 -84 13.5t-62.5 38t-39 57.5t-13.5 72q0 47 17 90t48 77.5t74 57t95 27.5l23 79h138l-53 -185h-31q-89 0 -132 -35t-43 -90q0 -36 21.5 -56.5t57.5 -20.5
q41 0 66.5 20t38.5 57h132z" />
    <glyph glyph-name="slash" unicode="/" horiz-adv-x="348" 
d="M-64 0l372 685h154l-372 -685h-154z" />
    <glyph glyph-name="backslash" unicode="\" horiz-adv-x="368" 
d="M177 0l-80 685h139l80 -685h-139z" />
    <glyph glyph-name="bar" unicode="|" horiz-adv-x="195" 
d="M-87 -143l237 828h140l-237 -828h-140z" />
    <glyph glyph-name="brokenbar" unicode="&#xa6;" horiz-adv-x="195" 
d="M58 361l92 324h140l-92 -324h-140zM-87 -143l93 323h140l-93 -323h-140z" />
    <glyph glyph-name="at" unicode="@" horiz-adv-x="759" 
d="M349 -77q-71 0 -130 22.5t-101.5 63t-66.5 96.5t-24 122q0 75 30 148.5t84 131t128.5 93.5t164.5 36q70 0 128.5 -20.5t100.5 -57.5t65 -89t23 -115q0 -60 -17 -108.5t-46 -82t-67.5 -52t-82.5 -18.5q-29 0 -53.5 7.5t-43.5 33.5q-26 -22 -55 -31.5t-56 -9.5
q-32 0 -59 11t-47 31.5t-31.5 48t-11.5 60.5q0 42 16.5 80.5t45 68.5t66 48t79.5 18q35 0 61 -14t40 -33l10 37h113l-72 -246q-5 -15 2.5 -22t18.5 -7q19 0 38 13t34 37t24.5 57t9.5 72q0 45 -17 82.5t-48.5 64.5t-76 42t-98.5 15q-71 0 -128.5 -30t-98 -78t-62.5 -106.5
t-22 -115.5q0 -53 19 -94t51.5 -69.5t76 -43.5t93.5 -15q38 0 77 9t83 26l22 -75q-45 -20 -93 -31t-96 -11zM358 191q18 0 34.5 7.5t29.5 20.5t20.5 30t7.5 36q0 32 -20 51t-48 19q-18 0 -34 -8.5t-28.5 -22t-20 -30.5t-7.5 -35q0 -35 20 -51.5t46 -16.5z" />
    <glyph glyph-name="ampersand" unicode="&#x26;" horiz-adv-x="721" 
d="M311 492q0 -31 23 -71q68 16 92.5 41.5t24.5 57.5q0 26 -16.5 42t-43.5 16q-32 0 -56 -22t-24 -64zM279 114q44 0 94 22l-111 152q-53 -18 -72.5 -43.5t-19.5 -55.5q0 -33 26 -54t83 -21zM446 37q-43 -22 -90.5 -33.5t-100.5 -11.5q-52 0 -95 12t-73.5 34.5t-47.5 55.5
t-17 75q0 33 9.5 66t31 62.5t56 54t83.5 40.5q-21 49 -21 91q0 44 15.5 83t44.5 68t69.5 45.5t91.5 16.5q41 0 75 -11.5t58 -32.5t37 -49.5t13 -62.5q0 -72 -43 -127t-141 -88l82 -110q38 41 67.5 95t43.5 121h140q-26 -95 -70.5 -175t-106.5 -140l86 -116h-170z" />
    <glyph glyph-name="dollar" unicode="$" horiz-adv-x="581" 
d="M254 500q0 -20 10.5 -35t27.5 -27l36 131q-38 -5 -56 -24.5t-18 -44.5zM386 176q0 22 -12.5 36.5t-32.5 26.5l-36 -133q44 5 62.5 25t18.5 45zM144 -93l24 88q-84 20 -120.5 73.5t-31.5 127.5h151q-2 -50 37 -74l44 159q-32 15 -59.5 32t-47 39.5t-30.5 51t-11 65.5
q0 45 16.5 86t49.5 71.5t82.5 48.5t114.5 18l26 93h105l-30 -107q70 -22 107.5 -72.5t35.5 -122.5h-151q2 41 -29 63l-42 -153q32 -13 61.5 -28.5t52 -37t36 -50t13.5 -67.5q0 -46 -17.5 -87t-52.5 -72t-87 -49.5t-121 -18.5l-21 -77h-105z" />
    <glyph glyph-name="cent" unicode="&#xa2;" horiz-adv-x="576" 
d="M170 249q0 -38 14.5 -65t39.5 -43l82 287q-28 -6 -53 -22t-43.5 -40t-29 -54t-10.5 -63zM550 126q-48 -66 -113.5 -104t-149.5 -40l-21 -75h-109l25 88q-78 25 -123 87t-45 150q0 69 26 130t71 107t106 73.5t131 29.5l23 81h109l-27 -94q106 -32 141 -132l-135 -74
q-15 39 -48 60l-83 -291q41 7 69 31t49 52z" />
    <glyph glyph-name="sterling" unicode="&#xa3;" horiz-adv-x="572" 
d="M284 385h176l-39 -136h-176l-21 -75q23 -6 42.5 -14t38 -15.5t37.5 -13t42 -5.5t48 7t45 16q24 10 47 23l-39 -136q-21 -13 -47 -24q-22 -9 -52 -16.5t-66 -7.5q-37 0 -65 9t-52.5 19.5t-49.5 19.5t-55 9q-23 0 -48.5 -7.5t-45.5 -16.5q-25 -11 -47 -24l39 137
q10 6 23 13q11 5 26.5 12t35.5 12l22 78h-74l39 136h74l26 89q14 47 36.5 88t55 71t74.5 47.5t94 17.5q43 0 75.5 -10.5t56.5 -28.5t39.5 -43.5t26.5 -55.5l-131 -65q-11 27 -30 47t-57 20q-39 0 -63.5 -25.5t-36.5 -67.5z" />
    <glyph glyph-name="yen" unicode="&#xa5;" horiz-adv-x="560" 
d="M566 392l-33 -116h-173l-10 -36h173l-34 -117h-173l-35 -123h-151l35 123h-174l34 117h174l10 36h-174l33 116h128l-69 293h158l44 -238l182 238h165l-237 -293h127z" />
    <glyph glyph-name="Euro" unicode="&#x20ac;" horiz-adv-x="573" 
d="M520 112q-18 -26 -42.5 -48t-54.5 -38.5t-64.5 -26t-72.5 -9.5q-52 0 -91.5 17.5t-66 47.5t-38.5 69.5t-9 84.5h-78l32 113h73l12 42h-73l32 112h74l3 9q14 47 41 86t63 67t80 43.5t93 15.5q74 0 128.5 -32t80.5 -101l-133 -70q-12 35 -38 51.5t-55 16.5q-39 0 -71 -23
t-47 -63h142l-32 -112h-144l-12 -42h144l-32 -113h-139q2 -38 26.5 -61t59.5 -23q34 0 58.5 17t40.5 41l110 -71v0z" />
    <glyph glyph-name="numbersign" unicode="#" horiz-adv-x="582" 
d="M249 282h86l43 123h-85zM628 544l-40 -139h-77l-44 -123h86l-40 -139h-96l-52 -143h-131l51 143h-86l-52 -143h-131l52 143h-66l40 139h75l44 123h-84l40 139h94l50 141h132l-51 -141h86l50 141h132l-50 -141h68z" />
    <glyph glyph-name="florin" unicode="&#x192;" horiz-adv-x="372" 
d="M137 389h-78l35 124h78l11 33q25 74 84 110t158 36h51l-33 -114h-43q-35 0 -57 -13.5t-30 -43.5l-2 -8h113l-35 -124h-113l-109 -378q-17 -57 -40 -96t-55 -61t-75 -28t-100 2l34 122q39 -5 63.5 11.5t36.5 58.5z" />
    <glyph glyph-name="asciicircum" unicode="^" horiz-adv-x="433" 
d="M228 81l2 197l-110 -197h-151l250 403h127l19 -403h-137z" />
    <glyph glyph-name="asciitilde" unicode="~" horiz-adv-x="433" 
d="M278 198q-28 0 -49 7t-39 15t-36.5 15t-41.5 7q-27 0 -57.5 -11.5t-51.5 -24.5l35 121q26 20 59.5 37t74.5 17q28 0 49 -7t39.5 -15t37 -15t41.5 -7q27 0 57.5 11.5t51.5 24.5l-35 -121q-26 -20 -60 -37t-75 -17z" />
    <glyph glyph-name="copyright" unicode="&#xa9;" horiz-adv-x="616" 
d="M389 695q54 0 100.5 -18t80 -50t52.5 -77t19 -100q0 -64 -25 -125t-69 -108.5t-104 -76.5t-131 -29q-58 0 -105 19t-80 52t-51 77.5t-18 95.5q0 64 25 125t69.5 109t105 77t131.5 29zM561 439q0 39 -13 72.5t-36.5 57.5t-56.5 38t-74 14q-51 0 -95 -21.5t-76.5 -57.5
t-51.5 -82t-19 -95q0 -38 13 -70.5t36.5 -57t56.5 -38.5t73 -14q51 0 95 21.5t77 57.5t52 81.5t19 93.5zM336 248q-30 0 -55.5 9.5t-44.5 27.5t-30 43t-11 56q0 36 14 68.5t38 57t57 39t71 14.5q40 0 75 -19t51 -63l-85 -46q-4 13 -16.5 23t-31.5 10q-32 0 -52.5 -21.5
t-20.5 -50.5q0 -23 15.5 -39t39.5 -16q20 0 36 10t26 26l68 -54q-26 -34 -63.5 -54.5t-80.5 -20.5z" />
    <glyph glyph-name="registered" unicode="&#xae;" horiz-adv-x="616" 
d="M389 695q54 0 100.5 -18t80 -50t52.5 -77t19 -100q0 -64 -25 -125t-69 -108.5t-104 -76.5t-131 -29q-58 0 -105 19t-80 52t-51 77.5t-18 95.5q0 64 25 125t69.5 109t105 77t131.5 29zM561 439q0 39 -13 72.5t-36.5 57.5t-56.5 38t-74 14q-51 0 -95 -21.5t-76.5 -57.5
t-51.5 -82t-19 -95q0 -38 13 -70.5t36.5 -57t56.5 -38.5t73 -14q51 0 95 21.5t77 57.5t52 81.5t19 93.5zM461 452q-48 0 -72 -19t-34 -52l-34 -120h-96l81 284h95l-9 -34q17 17 43 27.5t53 10.5z" />
    <glyph glyph-name="trademark" unicode="&#x2122;" horiz-adv-x="886" 
d="M365 597l-31 -108h-83l-30 -107q-8 -29 1.5 -40.5t36.5 -11.5h30l-30 -103h-41q-83 0 -109 36t-5 109l33 117h-50l31 108h50l26 89h114l-26 -89h83zM518 568q5 6 15.5 12t23.5 11.5t27.5 8.5t27.5 3q30 0 51.5 -11t35.5 -31q20 15 50.5 28.5t71.5 13.5q68 0 95 -41.5
t7 -108.5l-65 -226h-116l60 210q8 25 0.5 40.5t-30.5 15.5q-25 0 -45 -16.5t-28 -45.5l-59 -204h-115l60 210q8 25 0.5 40.5t-29.5 15.5q-25 0 -46 -17t-29 -46l-58 -203h-115l106 370h112z" />
    <glyph glyph-name="degree" unicode="&#xb0;" horiz-adv-x="379" 
d="M438 545q0 -38 -15 -73.5t-41 -63.5t-62 -45t-79 -17q-33 0 -61 10.5t-48.5 29.5t-32.5 46t-12 60q0 37 14.5 73t41 64t62.5 45t79 17q33 0 61 -10.5t48.5 -29.5t32.5 -46t12 -60zM194 503q0 -27 16.5 -42t41.5 -15q34 0 56.5 26.5t22.5 60.5q0 27 -16.5 42t-41.5 15
q-34 0 -56.5 -26.5t-22.5 -60.5z" />
    <glyph glyph-name="section" unicode="&#xa7;" horiz-adv-x="480" 
d="M203 359q-23 -10 -33 -26t-10 -31q0 -17 12 -28t31.5 -19t43.5 -15.5t48 -16.5q21 5 33 20.5t12 32.5t-12.5 28.5t-32 20.5t-44 16.5t-48.5 17.5zM377 478q3 28 -13 44.5t-54 16.5q-33 0 -51.5 -12t-18.5 -32q0 -13 9.5 -22t24.5 -16.5t35 -13.5t41 -12q24 -8 46.5 -18.5
t40.5 -25.5t29 -35.5t11 -47.5q0 -94 -92 -139q15 -23 15 -52t-13 -59t-39 -54t-65 -39.5t-92 -15.5q-99 0 -151 43t-48 115h131q-2 -23 13.5 -40.5t59.5 -17.5q31 0 47 12.5t16 28.5q0 13 -10.5 22t-27.5 16t-38 13t-43 14q-21 8 -41 19t-35.5 26t-25 34.5t-9.5 46.5
q0 46 22 83t70 58q-16 24 -16 56q0 31 14 60t40.5 52t64.5 37t87 14q51 0 88.5 -12t62.5 -33.5t36 -51t9 -63.5z" />
    <glyph glyph-name="paragraph" unicode="&#xb6;" horiz-adv-x="492" 
d="M166 0l72 252q-77 14 -119.5 61t-42.5 117q0 17 3 37q7 47 29.5 87t56.5 69t76 45.5t88 16.5h119l-196 -685h-86zM302 0l196 685h87l-196 -685h-87z" />
    <glyph glyph-name="plus" unicode="+" horiz-adv-x="433" 
d="M441 350l-37 -131h-131l-41 -142h-133l41 142h-133l37 131h133l41 143h133l-41 -143h131z" />
    <glyph glyph-name="minus" unicode="&#x2212;" horiz-adv-x="433" 
d="M7 221l38 130h397l-38 -130h-397z" />
    <glyph glyph-name="plusminus" unicode="&#xb1;" horiz-adv-x="433" 
d="M462 421l-36 -126h-133l-41 -140h-130l41 140h-134l36 126h134l40 141h130l-40 -141h133zM-56 0l35 123h397l-35 -123h-397z" />
    <glyph glyph-name="divide" unicode="&#xf7;" horiz-adv-x="433" 
d="M180 374l38 131h140l-38 -131h-140zM7 219l37 131h397l-37 -131h-397zM92 65l37 131h140l-37 -131h-140z" />
    <glyph glyph-name="multiply" unicode="&#xd7;" horiz-adv-x="410" 
d="M192 178l-129 -106l-76 106l134 111l-68 107l125 94l65 -102l123 102l76 -104l-130 -108l64 -100l-123 -96z" />
    <glyph glyph-name="equal" unicode="=" horiz-adv-x="433" 
d="M33 309l39 138h397l-39 -138h-397zM-21 121l39 138h397l-39 -138h-397z" />
    <glyph glyph-name="less" unicode="&#x3c;" horiz-adv-x="433" 
d="M206 278l193 -77l-40 -137l-350 162l33 115l443 161l-41 -144z" />
    <glyph glyph-name="greater" unicode="&#x3e;" horiz-adv-x="433" 
d="M406 226l-444 -162l43 150l237 77l-192 80l38 131l351 -161z" />
    <glyph glyph-name="lessequal" unicode="&#x2264;" horiz-adv-x="433" 
d="M227 353l196 -68l-38 -131l-354 148l31 111l439 146l-39 -136zM-56 0l36 126h397l-36 -126h-397z" />
    <glyph glyph-name="greaterequal" unicode="&#x2265;" horiz-adv-x="433" 
d="M427 301l-439 -147l40 142l235 69l-195 69l36 125l355 -146zM-56 0l36 126h397l-36 -126h-397z" />
    <glyph glyph-name="approxequal" unicode="&#x2248;" horiz-adv-x="433" 
d="M441 347q-18 -16 -39 -28q-18 -11 -42 -19.5t-50 -8.5q-29 0 -51 6.5t-42 14t-39.5 14t-43.5 6.5q-18 0 -37 -5.5t-34 -12.5q-18 -8 -34 -18l32 112q18 15 40 27q18 11 42.5 19.5t51.5 8.5q28 0 50 -6.5t41.5 -14.5t39 -14.5t42.5 -6.5q18 0 36.5 5.5t33.5 12.5
q18 8 34 18zM387 159q-19 -16 -40 -28q-18 -11 -42.5 -19t-51.5 -8q-29 0 -51 6.5t-41.5 14.5t-38.5 14.5t-42 6.5q-19 0 -37.5 -6t-33.5 -13q-18 -8 -34 -18l32 111q18 16 39 28q18 11 41 19.5t49 8.5q29 0 51 -6.5t42 -14.5t40 -14.5t44 -6.5q18 0 37 5.5t34 12.5
q18 8 35 19z" />
    <glyph glyph-name="notequal" unicode="&#x2260;" horiz-adv-x="433" 
d="M469 447l-39 -138h-130l-27 -50h142l-39 -138h-178l-70 -129h-126l70 129h-93l39 138h129l28 50h-142l39 138h178l70 131h126l-71 -131h94z" />
    <glyph glyph-name="uniF8FF" unicode="&#xf8ff;" horiz-adv-x="5000" 
d="M3288 559h-123v122h123v-122zM4915 624q21 0 36 -15t15 -37t-15 -37t-36 -15t-36 15t-15 37t15 37t36 15zM4915 617q-18 0 -30.5 -13t-12.5 -32t12.5 -32t30.5 -13t30.5 13t12.5 32t-12.5 32t-30.5 13zM4907 590v-15h10q11 0 11 8q0 7 -9 7h-12zM4920 597q16 0 16 -14
q0 -11 -13 -13l14 -25h-9l-14 24h-7v-24h-8v52h21zM1803 402h-1803v109h1803v-109zM3288 0h-123v511h123v-511zM2242 399q-28 0 -54 -12t-45.5 -32t-31.5 -46.5t-12 -56.5t12 -56.5t31.5 -47t45.5 -32t54 -11.5q31 0 58 11.5t47.5 32t32.5 47t12 56.5t-12 56.5t-32.5 46.5
t-47.5 32t-58 12zM2829 399q-31 0 -57.5 -12t-46 -32t-30.5 -46.5t-11 -56.5t11 -56.5t30.5 -47t46 -32t57.5 -11.5q30 0 56.5 11.5t46.5 32t32 47t12 56.5t-12 56.5t-32 46.5t-46.5 32t-56.5 12zM3609 399q-30 0 -56.5 -12t-46.5 -32t-31.5 -46.5t-11.5 -56.5t11.5 -56.5
t31.5 -47t46.5 -32t56.5 -11.5t56.5 11.5t46 32t30.5 47t11 56.5t-11 56.5t-30.5 46.5t-46 32t-56.5 12zM4193 399q-30 0 -57 -12t-47 -32t-32 -46.5t-12 -56.5t12 -56.5t32 -47t47 -32t57 -11.5q28 0 53.5 11.5t44.5 32t30.5 47t11.5 56.5t-11.5 56.5t-30.5 46.5t-44.5 32
t-53.5 12zM1803 198h-1803v109h1803v-109zM4643 162q0 -12 4.5 -25.5t16 -24.5t31.5 -19t51 -8q44 0 64 17t20 37q0 24 -23 34.5t-57 16.5t-74.5 12t-74.5 21.5t-57 45t-23 83.5q0 34 14.5 64t42 52t66 35t86.5 13q96 0 153.5 -46.5t63.5 -121.5h-128q-1 10 -3.5 22.5
t-10.5 23t-24.5 17.5t-44.5 7q-35 0 -58 -10t-26 -36q0 -22 23.5 -33t58.5 -18t76 -15t76 -23.5t58.5 -44t23.5 -76.5q0 -46 -18 -78.5t-49.5 -53t-73.5 -30t-89 -9.5q-51 0 -92.5 13t-71 35.5t-46 54t-17.5 68.5h132zM1803 0h-1803v104h1803v-104zM3103 0h-127v36
q-34 -22 -71.5 -33.5t-79.5 -11.5q-54 0 -102 20t-84 55.5t-57 83t-21 102.5t21 103t57 84t84 56.5t102 20.5q42 0 79.5 -11.5t71.5 -33.5v210h127v-681zM3879 0h-126v36q-28 -22 -66.5 -33.5t-81.5 -11.5q-54 0 -102.5 20t-85 55.5t-57.5 83t-21 102.5t21 103t57.5 84
t85 56.5t102.5 20.5q43 0 81 -11.5t67 -33.5v210h126v-681zM2392 36q-32 -22 -70.5 -33.5t-83.5 -11.5q-53 0 -100 20t-82.5 55.5t-56.5 83t-21 102.5t21 103t56.5 84t82.5 56.5t100 20.5q86 0 154 -45v40h126v-511h-126v36zM4333 36q-31 -22 -68.5 -33.5t-76.5 -11.5
q-55 0 -103.5 20t-85 55.5t-57.5 83t-21 102.5t21 103t57.5 84t85 56.5t103.5 20.5q38 0 76 -11.5t69 -33.5v40h127v-511h-127v36z" />
    <glyph glyph-name="space.quarter" horiz-adv-x="100" 
 />
    <glyph glyph-name="nonbreakingspace" unicode="&#xa0;" horiz-adv-x="190" 
 />
    <glyph glyph-name="Idotaccent" unicode="&#x130;" horiz-adv-x="237" 
d="M-32 0l196 685h155l-196 -685h-155zM185 729l36 128h140l-36 -128h-140z" />
    <glyph glyph-name="afii10051" unicode="&#x402;" horiz-adv-x="810" 
d="M484 -64q-38 0 -70.5 9t-55.5 28l75 110q5 -7 18 -11.5t31 -4.5q23 0 42.5 9.5t33.5 25.5t22 37.5t8 45.5q0 42 -26 69t-74 27q-50 0 -87 -28t-56 -83l-49 -170h-155l156 543h-199l40 142h552l-40 -142h-198l-49 -171q58 44 133 44q46 0 84 -15.5t64.5 -44t41 -68
t14.5 -87.5q0 -52 -18 -100t-51 -84.5t-80.5 -58.5t-106.5 -22z" />
    <glyph glyph-name="afii10053" unicode="&#x404;" horiz-adv-x="706" 
d="M672 145q-51 -70 -131 -114.5t-182 -44.5q-73 0 -131.5 23t-99 63.5t-62.5 96.5t-22 122q0 86 31 160.5t86 129t130 86t163 31.5q50 0 95 -11.5t81.5 -33t63 -53.5t39.5 -74l-136 -78q-18 51 -54.5 79t-102.5 28q-76 0 -132 -38.5t-84 -103.5h274l-38 -142h-258
q8 -66 53 -103t115 -37q65 0 113.5 30t82.5 73z" />
    <glyph glyph-name="afii10054" unicode="&#x405;" horiz-adv-x="588" 
d="M267 -13q-142 0 -206 61.5t-54 165.5h155q-3 -21 1.5 -39.5t18 -33t36.5 -22.5t58 -8q56 0 82 21.5t26 49.5q0 16 -9 29t-24 23.5t-35 19.5t-42 18q-86 34 -133 82t-47 122q0 50 19 91.5t54 71t84.5 46t110.5 16.5q65 0 112.5 -17t78 -47.5t44 -72t9.5 -90.5h-154
q7 48 -21.5 74.5t-83.5 26.5q-46 0 -71.5 -21t-25.5 -51q0 -17 9.5 -31t25.5 -25t37 -20.5t44 -18.5q36 -14 69 -30t59 -37.5t41.5 -50.5t15.5 -69q0 -44 -16.5 -86t-51 -75t-88 -53t-128.5 -20z" />
    <glyph glyph-name="afii10055" unicode="&#x406;" horiz-adv-x="237" 
d="M-32 0l196 685h155l-196 -685h-155z" />
    <glyph glyph-name="afii10056" unicode="&#x407;" horiz-adv-x="237" 
d="M-32 0l196 685h155l-196 -685h-155zM103 728l37 129h133l-37 -129h-133zM272 728l37 129h133l-37 -129h-133z" />
    <glyph glyph-name="afii10057" unicode="&#x408;" horiz-adv-x="567" 
d="M173 245q-14 -59 10.5 -86.5t68.5 -27.5q42 0 72 28t44 77l129 449h154l-134 -470q-30 -107 -101 -167t-177 -60q-57 0 -102.5 16.5t-75.5 49t-41.5 80.5t-0.5 111h154z" />
    <glyph glyph-name="afii10058" unicode="&#x409;" horiz-adv-x="951" 
d="M426 0l-19 518l-312 -518h-162l426 685h186l12 -208h148q55 0 97 -15.5t70 -43.5t42.5 -67t14.5 -85q0 -50 -19 -97.5t-55 -85t-88.5 -60.5t-120.5 -23h-220zM683 332h-117l11 -190h75q33 0 56 10t37.5 25t21.5 34t7 37q0 39 -23 61.5t-68 22.5z" />
    <glyph glyph-name="afii10059" unicode="&#x40a;" horiz-adv-x="1019" 
d="M658 352l-60 -210h120q31 0 55.5 10t41 27t25.5 40t9 50q0 35 -22 59t-65 24h-104zM200 268l-77 -268h-155l196 685h155l-78 -275h279l78 275h155l-55 -191h112q49 0 86 -16t62 -43.5t37.5 -64t12.5 -77.5q0 -58 -21.5 -111t-62 -93.5t-98 -64.5t-128.5 -24h-296l77 268
h-279z" />
    <glyph glyph-name="afii10060" unicode="&#x40b;" horiz-adv-x="792" 
d="M346 173l4 14l-54 -187h-155l156 543h-199l40 142h552l-40 -142h-198l-51 -178q33 26 70 38t85 12t85.5 -20t60.5 -54.5t29 -81.5t-9 -100l-46 -158h-155l47 165q17 60 -5.5 90.5t-73.5 30.5q-54 0 -91 -30.5t-52 -83.5z" />
    <glyph glyph-name="afii10145" unicode="&#x40f;" horiz-adv-x="663" 
d="M184 0h-216l196 685h155l-156 -545h269l156 545h155l-196 -685h-216l-37 -131l-149 -5z" />
    <glyph glyph-name="afii10017" unicode="&#x410;" horiz-adv-x="676" 
d="M419 524l-164 -269h174zM434 118h-263l-72 -118h-166l432 685h191l39 -685h-156z" />
    <glyph glyph-name="afii10018" unicode="&#x411;" horiz-adv-x="589" 
d="M544 249q0 -46 -17 -90.5t-50 -80t-81.5 -57t-111.5 -21.5h-313l152 543l40 142h458l-40 -142h-306l-30 -109h100q47 0 84 -14.5t62.5 -40t39 -59t13.5 -71.5zM164 142h126q28 0 47 8t31 20t17 27.5t5 30.5q0 29 -19.5 46.5t-55.5 17.5h-108z" />
    <glyph glyph-name="afii10019" unicode="&#x412;" horiz-adv-x="613" 
d="M-32 0l196 685h273q45 0 77 -13.5t52 -35.5t29 -50t9 -57q0 -62 -34 -109.5t-96 -72.5q47 -23 67 -57t20 -73q0 -47 -18 -86.5t-53.5 -68.5t-87.5 -45.5t-120 -16.5h-314zM281 552l-39 -140h107q48 0 72.5 23t24.5 60q0 23 -13.5 40t-45.5 17h-106zM203 281l-42 -148h138
q51 0 80.5 21t29.5 62q0 26 -17 45.5t-54 19.5h-135z" />
    <glyph glyph-name="afii10020" unicode="&#x413;" horiz-adv-x="534" 
d="M279 543l-156 -543h-155l196 685h466l-40 -142h-311z" />
    <glyph glyph-name="afii10052" unicode="&#x403;" horiz-adv-x="534" 
d="M279 543l-156 -543h-155l196 685h466l-40 -142h-311zM307 714l35 123l246 57l-36 -126z" />
    <glyph glyph-name="afii10021" unicode="&#x414;" horiz-adv-x="739" 
d="M460 -136l39 136h-408l-38 -131l-147 -5l80 276h65l346 545h191l32 -545h65l-78 -271zM451 527l-238 -387h253z" />
    <glyph glyph-name="afii10022" unicode="&#x415;" horiz-adv-x="563" 
d="M164 685h492l-40 -140h-337l-37 -129h311l-39 -136h-311l-40 -140h338l-40 -140h-493z" />
    <glyph glyph-name="afii10023" unicode="&#x401;" horiz-adv-x="563" 
d="M164 685h492l-40 -140h-337l-37 -129h311l-39 -136h-311l-40 -140h338l-40 -140h-493zM269 728l37 129h133l-37 -129h-133zM438 728l37 129h133l-37 -129h-133z" />
    <glyph glyph-name="afii10024" unicode="&#x416;" horiz-adv-x="953" 
d="M335 0l82 311l-296 -311h-195l360 370l-130 315h160l120 -303l77 303h155l-79 -302l276 302h195l-336 -344l155 -341h-175l-134 313l-80 -313h-155z" />
    <glyph glyph-name="afii10025" unicode="&#x417;" horiz-adv-x="545" 
d="M251 -11q-98 0 -159.5 43.5t-85.5 125.5l132 63q6 -29 17 -47t26 -28.5t33 -14.5t38 -4q44 0 72 21.5t28 59.5q0 33 -21 51t-64 18h-79l39 138h76q43 0 67.5 21t24.5 56q0 29 -19.5 45.5t-51.5 16.5t-62 -13.5t-62 -52.5l-102 90q48 55 107 86t141 31q47 0 84 -14.5
t63 -38.5t39.5 -55.5t13.5 -65.5q0 -59 -26.5 -105t-72.5 -75q27 -24 41 -58t14 -63q0 -44 -15.5 -86t-47 -74t-78.5 -51.5t-110 -19.5z" />
    <glyph glyph-name="afii10026" unicode="&#x418;" horiz-adv-x="683" 
d="M414 0l123 433l-409 -433h-160l196 685h153l-122 -427l408 427h160l-196 -685h-153z" />
    <glyph glyph-name="afii10027" unicode="&#x419;" horiz-adv-x="683" 
d="M414 0l123 433l-409 -433h-160l196 685h153l-122 -427l408 427h160l-196 -685h-153zM482 724q-62 0 -102.5 15t-48.5 28l35 118q18 -20 50.5 -36t84.5 -16q49 0 87.5 16t66.5 36l-36 -120q-15 -15 -50.5 -28t-86.5 -13z" />
    <glyph glyph-name="afii10028" unicode="&#x41a;" horiz-adv-x="619" 
d="M212 312l-89 -312h-155l196 685h155l-86 -300l300 300h201l-364 -342l180 -343h-178z" />
    <glyph glyph-name="afii10061" unicode="&#x40c;" horiz-adv-x="619" 
d="M212 312l-89 -312h-155l196 685h155l-86 -300l300 300h201l-364 -342l180 -343h-178zM347 714l35 123l246 57l-36 -126z" />
    <glyph glyph-name="afii10029" unicode="&#x41b;" horiz-adv-x="667" 
d="M429 0l-14 520l-317 -520h-165l428 685h191l34 -685h-157z" />
    <glyph glyph-name="afii10030" unicode="&#x41c;" horiz-adv-x="844" 
d="M237 415l-118 -415h-151l196 685h182l64 -448l322 448h192l-196 -685h-148l117 409l-298 -409h-100z" />
    <glyph glyph-name="afii10031" unicode="&#x41d;" horiz-adv-x="673" 
d="M479 268h-279l-77 -268h-155l196 685h155l-78 -275h279l78 275h155l-196 -685h-155z" />
    <glyph glyph-name="afii10032" unicode="&#x41e;" horiz-adv-x="762" 
d="M359 -15q-70 0 -127.5 23.5t-99 64.5t-64.5 96.5t-23 120.5q0 80 32.5 154t88 131t129.5 91t157 34q70 0 127.5 -23.5t99 -64.5t64.5 -96.5t23 -120.5q0 -80 -32.5 -154t-88 -131t-129.5 -91t-157 -34zM439 555q-48 0 -91 -21.5t-75.5 -57t-51.5 -81t-19 -93.5
q0 -36 12 -67.5t34.5 -55t54 -36.5t69.5 -13q48 0 91 21.5t75 57t51 81t19 93.5q0 36 -12 67.5t-34.5 55t-53.5 36.5t-69 13z" />
    <glyph glyph-name="afii10033" unicode="&#x41f;" horiz-adv-x="663" 
d="M279 545l-156 -545h-155l196 685h579l-196 -685h-155l156 545h-269z" />
    <glyph glyph-name="afii10034" unicode="&#x420;" horiz-adv-x="596" 
d="M178 191l-55 -191h-155l196 685h267q49 0 86 -16t62 -43.5t37.5 -64t12.5 -77.5q0 -58 -21.5 -111t-62 -93.5t-98 -64.5t-128.5 -24h-141zM279 543l-61 -210h121q31 0 55.5 10t41 27t25.5 40t9 50q0 35 -22 59t-65 24h-104z" />
    <glyph glyph-name="afii10035" unicode="&#x421;" horiz-adv-x="706" 
d="M463 698q47 0 90.5 -11.5t79 -33t61.5 -53.5t39 -74l-137 -81q-17 51 -53.5 80.5t-102.5 29.5q-52 0 -95.5 -22t-75 -58.5t-49 -83.5t-17.5 -96q0 -78 45.5 -121t120.5 -43q65 0 114 30t83 73l106 -89q-51 -71 -133.5 -115t-186.5 -44q-72 0 -129 22t-96.5 61t-61 93
t-21.5 119q0 84 33.5 159.5t90.5 133t133 91t162 33.5z" />
    <glyph glyph-name="afii10036" unicode="&#x422;" horiz-adv-x="584" 
d="M141 0l156 543h-199l40 142h552l-40 -142h-198l-156 -543h-155z" />
    <glyph glyph-name="afii10037" unicode="&#x423;" horiz-adv-x="659" 
d="M261 0h-172l167 220l-105 465h160l59 -311l214 311h174z" />
    <glyph glyph-name="afii10062" unicode="&#x40e;" horiz-adv-x="659" 
d="M261 0h-172l167 220l-105 465h160l59 -311l214 311h174zM462 724q-62 0 -102.5 15t-48.5 28l35 118q18 -20 50.5 -36t84.5 -16q49 0 87.5 16t66.5 36l-36 -120q-15 -15 -50.5 -28t-86.5 -13z" />
    <glyph glyph-name="afii10038" unicode="&#x424;" horiz-adv-x="790" 
d="M200 322q0 -45 28 -75t76 -36l76 264h-12q-38 0 -69 -12t-53 -33t-34 -49t-12 -59zM639 363q0 45 -28 75t-76 36l-76 -264h17q41 0 71.5 14t51 36t30.5 49.5t10 53.5zM452 66h-34l-22 -76h-155l23 80q-49 7 -88.5 27.5t-68 51.5t-44 71t-15.5 87q0 66 26.5 123t72.5 99
t109 66t136 24h29l22 76h155l-23 -80q48 -7 88 -27.5t68.5 -51.5t44 -71.5t15.5 -86.5q0 -63 -25.5 -119.5t-70.5 -99.5t-107 -68t-136 -25z" />
    <glyph glyph-name="afii10039" unicode="&#x425;" horiz-adv-x="640" 
d="M323 221l-198 -221h-188l326 353l-129 332h164l76 -218l190 218h184l-315 -347l133 -338h-163z" />
    <glyph glyph-name="afii10040" unicode="&#x426;" horiz-adv-x="736" 
d="M457 -136l39 136h-528l196 685h155l-156 -545h264l156 545h155l-156 -545h100l-78 -271z" />
    <glyph glyph-name="afii10041" unicode="&#x427;" horiz-adv-x="619" 
d="M503 0h-155l84 293q-35 -26 -73.5 -38.5t-87.5 -12.5q-51 0 -90.5 20t-63.5 54.5t-30.5 81t8.5 100.5l52 187h155l-52 -188q-17 -60 6.5 -90.5t77.5 -30.5q57 0 98 30.5t56 83.5l-3 -11l59 206h155z" />
    <glyph glyph-name="afii10042" unicode="&#x428;" horiz-adv-x="947" 
d="M-32 0l196 685h155l-156 -545h199l156 545h155l-156 -545h199l156 545h155l-196 -685h-863z" />
    <glyph glyph-name="afii10043" unicode="&#x429;" horiz-adv-x="1034" 
d="M746 -136l39 136h-817l196 685h155l-156 -545h199l156 545h155l-156 -545h199l156 545h155l-156 -545h100l-78 -271z" />
    <glyph glyph-name="afii10044" unicode="&#x42a;" horiz-adv-x="727" 
d="M414 0h-307l156 545h-165l40 140h320l-59 -208h79q52 0 92.5 -15.5t68 -43.5t41.5 -65.5t14 -80.5q0 -54 -20 -103t-56.5 -86.5t-88.5 -60t-115 -22.5zM303 142h114q32 0 55 9.5t38 25t22 34.5t7 39q0 37 -23 59.5t-68 22.5h-91z" />
    <glyph glyph-name="afii10045" unicode="&#x42b;" horiz-adv-x="819" 
d="M268 477h79q52 0 92.5 -15.5t68 -43.5t41.5 -65.5t14 -80.5q0 -54 -20 -103t-56.5 -86.5t-88.5 -60t-115 -22.5h-307l196 685h155zM172 142h114q32 0 55 9.5t38 25t22 34.5t7 39q0 37 -23 59.5t-68 22.5h-91zM548 0l196 685h155l-196 -685h-155z" />
    <glyph glyph-name="afii10046" unicode="&#x42c;" horiz-adv-x="587" 
d="M268 477h79q52 0 92.5 -15.5t68 -43.5t41.5 -65.5t14 -80.5q0 -54 -20 -103t-56.5 -86.5t-88.5 -60t-115 -22.5h-307l196 685h155zM172 142h114q32 0 55 9.5t38 25t22 34.5t7 39q0 37 -23 59.5t-68 22.5h-91z" />
    <glyph glyph-name="afii10047" unicode="&#x42d;" horiz-adv-x="706" 
d="M306 -14q-50 0 -95.5 11.5t-83 33t-65 53.5t-40.5 74l136 78q18 -51 54.5 -79t102.5 -28q75 0 130.5 38t83.5 101h-273l38 142h259q-7 68 -52.5 105.5t-115.5 37.5q-65 0 -113.5 -30t-82.5 -73l-106 89q51 70 131 114.5t182 44.5q73 0 131.5 -23t99 -63.5t62.5 -96.5
t22 -122q0 -86 -31 -160.5t-85.5 -129t-128.5 -86t-160 -31.5z" />
    <glyph glyph-name="afii10048" unicode="&#x42e;" horiz-adv-x="985" 
d="M591 -15q-65 0 -119 21.5t-93.5 59.5t-63 89.5t-27.5 112.5h-88l-77 -268h-155l196 685h155l-78 -275h65q19 61 56 114t86.5 92t109.5 61.5t126 22.5q67 0 123 -23.5t96.5 -64.5t62.5 -96.5t22 -120.5q0 -80 -31.5 -154t-86 -131t-126.5 -91t-153 -34zM671 555
q-46 0 -87.5 -20.5t-72.5 -55.5t-49 -81t-18 -96q0 -38 11.5 -70t32.5 -54.5t50.5 -35t65.5 -12.5q46 0 87 20.5t72 55.5t49 81t18 96q0 38 -11.5 70t-32.5 54.5t-50 35t-65 12.5z" />
    <glyph glyph-name="afii10049" unicode="&#x42f;" horiz-adv-x="647" 
d="M507 543h-124q-32 0 -53.5 -10t-35.5 -25.5t-20 -34t-6 -35.5q0 -35 24.5 -56.5t69.5 -21.5h93zM419 233l-266 -233h-197l290 244q-65 21 -98 67.5t-33 112.5q0 50 18.5 97t54.5 83.5t88 58.5t119 22h307l-196 -685h-154z" />
    <glyph glyph-name="afii10050" unicode="&#x490;" horiz-adv-x="538" 
d="M123 0h-155l196 685h324l37 129l147 5l-78 -276h-315z" />
    <glyph glyph-name="afii10065" unicode="&#x430;" horiz-adv-x="585" 
d="M418 275q0 24 -8.5 45t-23.5 37t-36.5 25t-47.5 9q-32 0 -60 -13.5t-49 -36t-33 -51.5t-12 -60q0 -53 32.5 -83.5t82.5 -30.5q31 0 59 13t49.5 35t34 51t12.5 60zM360 39q-26 -20 -59 -31.5t-72 -11.5q-46 0 -86 16t-69 44.5t-46 68.5t-17 89q0 62 25 117.5t67 97
t95.5 66t110.5 24.5q50 0 94 -20t69 -51l19 65h139l-147 -513h-134z" />
    <glyph glyph-name="afii10066" unicode="&#x431;" horiz-adv-x="561" 
d="M251 -12q-67 0 -116.5 24.5t-78.5 68.5t-35 105t14 134l23 84q18 64 42 115t60.5 86.5t90 56t131.5 24.5l74 4q51 3 83 6.5t58 10.5l-41 -120q-24 -8 -58.5 -12t-82.5 -7l-50 -3q-34 -2 -59 -9t-44 -20t-33 -32.5t-25 -46.5q24 14 53 21.5t62 7.5q52 0 93.5 -16.5t70 -45
t44 -67t15.5 -81.5q0 -53 -21 -105t-59.5 -92.5t-92 -65.5t-118.5 -25zM297 367q-27 0 -51 -9.5t-43.5 -26.5t-32 -40.5t-16.5 -51.5q-4 -27 2 -50t20 -40.5t35 -27t47 -9.5q27 0 51.5 9.5t44.5 27t33 41t17 51.5q4 27 -2.5 50t-20.5 40t-35.5 26.5t-48.5 9.5z" />
    <glyph glyph-name="afii10067" unicode="&#x432;" horiz-adv-x="462" 
d="M210 0h-256l148 513h199q39 0 66.5 -9.5t45 -25t26 -37t8.5 -45.5q0 -43 -23 -78t-61 -56q50 -30 50 -90q0 -35 -13.5 -66t-39 -54.5t-63.5 -37.5t-87 -14zM274 403h-70l-25 -88h79q28 0 41 16.5t13 36.5q0 14 -9 24.5t-29 10.5zM233 205h-86l-27 -95h100q16 0 27 5.5
t18 13.5t10.5 17.5t3.5 18.5q0 17 -11.5 28.5t-34.5 11.5z" />
    <glyph glyph-name="afii10068" unicode="&#x433;" horiz-adv-x="486" 
d="M298 161h140q-21 -79 -88 -125t-168 -46q-98 0 -147 37t-49 102q0 66 48 108.5t145 65.5q79 18 110 37t31 40q0 16 -13.5 25.5t-39.5 9.5q-32 0 -53 -17.5t-33 -48.5h-138q25 81 86 125.5t159 44.5q81 0 126.5 -37.5t45.5 -102.5q0 -77 -52.5 -119t-140.5 -61
q-39 -9 -65.5 -17t-42.5 -16.5t-22.5 -18t-6.5 -20.5q0 -15 14.5 -26t48.5 -11q37 0 66.5 16.5t38.5 54.5z" />
    <glyph glyph-name="afii10100" unicode="&#x453;" horiz-adv-x="485" 
d="M298 161h140q-21 -79 -88 -125t-168 -46q-98 0 -147 37t-49 102q0 66 48 108.5t145 65.5q79 18 110 37t31 40q0 16 -13.5 25.5t-39.5 9.5q-32 0 -53 -17.5t-33 -48.5h-138q25 81 86 125.5t159 44.5q81 0 126.5 -37.5t45.5 -102.5q0 -77 -52.5 -119t-140.5 -61
q-39 -9 -65.5 -17t-42.5 -16.5t-22.5 -18t-6.5 -20.5q0 -15 14.5 -26t48.5 -11q37 0 66.5 16.5t38.5 54.5zM190 547l35 123l246 57l-36 -126z" />
    <glyph glyph-name="afii10069" unicode="&#x434;" horiz-adv-x="575" 
d="M253 -12q-51 0 -94.5 16.5t-75.5 46t-50.5 70.5t-18.5 91q0 56 23 110t63.5 97t95.5 69t120 26l-156 171h160l150 -172q45 -52 68.5 -102.5t23.5 -114.5q0 -53 -22 -107.5t-62.5 -99t-97.5 -73t-127 -28.5zM263 114q32 0 61 13t51 35.5t35 52.5t13 63q0 49 -31 79.5
t-80 30.5q-32 0 -61 -13.5t-51 -36t-35 -52t-13 -62.5q0 -49 31 -79.5t80 -30.5z" />
    <glyph glyph-name="afii10070" unicode="&#x435;" horiz-adv-x="561" 
d="M493 102q-39 -50 -99.5 -82.5t-140.5 -32.5q-57 0 -102 17.5t-76 48.5t-47.5 73t-16.5 91q0 62 24 117.5t66 97.5t98 66.5t119 24.5q55 0 97 -17t69.5 -46t41.5 -67t14 -80q0 -20 -3 -47.5t-11 -52.5h-380q4 -51 37.5 -80t88.5 -29q46 0 77.5 20.5t53.5 46.5zM303 409
q-49 0 -82.5 -25.5t-52.5 -67.5h238q-1 18 -6.5 35t-17.5 29.5t-31.5 20.5t-47.5 8z" />
    <glyph glyph-name="afii10071" unicode="&#x451;" horiz-adv-x="561" 
d="M493 102q-39 -50 -99.5 -82.5t-140.5 -32.5q-57 0 -102 17.5t-76 48.5t-47.5 73t-16.5 91q0 62 24 117.5t66 97.5t98 66.5t119 24.5q55 0 97 -17t69.5 -46t41.5 -67t14 -80q0 -20 -3 -47.5t-11 -52.5h-380q4 -51 37.5 -80t88.5 -29q46 0 77.5 20.5t53.5 46.5zM303 409
q-49 0 -82.5 -25.5t-52.5 -67.5h238q-1 18 -6.5 35t-17.5 29.5t-31.5 20.5t-47.5 8zM200 556l37 129h133l-37 -129h-133zM369 556l37 129h133l-37 -129h-133z" />
    <glyph glyph-name="afii10072" unicode="&#x436;" horiz-adv-x="823" 
d="M278 0l66 228l-240 -228h-178l304 286l-106 227h147l95 -208l59 208h140l-61 -211l210 211h175l-269 -257l129 -256h-157l-110 225l-64 -225h-140z" />
    <glyph glyph-name="afii10073" unicode="&#x437;" horiz-adv-x="458" 
d="M188 -12q-76 0 -126 31.5t-74 91.5l116 58q19 -63 90 -63q32 0 51.5 17.5t19.5 40.5q0 34 -43 34h-77l33 117h55q31 0 46.5 13.5t15.5 33.5q0 21 -13 31t-33 10q-28 0 -52.5 -15t-46.5 -38l-81 73q38 44 85.5 72.5t113.5 28.5q39 0 70.5 -11t53 -30.5t33.5 -46.5t12 -59
q0 -36 -20 -68.5t-57 -53.5q21 -15 33.5 -38t12.5 -52q0 -36 -15.5 -68t-44 -56t-69 -38.5t-89.5 -14.5z" />
    <glyph glyph-name="afii10074" unicode="&#x438;" 
d="M308 51q-32 -27 -72.5 -43.5t-88.5 -16.5q-39 0 -70.5 15t-50 42.5t-23.5 65.5t8 84l90 315h138l-83 -291q-13 -45 7 -74t62 -29q50 0 84 31t49 83l81 280h139l-147 -513h-137z" />
    <glyph glyph-name="afii10075" unicode="&#x439;" 
d="M308 51q-32 -27 -72.5 -43.5t-88.5 -16.5q-39 0 -70.5 15t-50 42.5t-23.5 65.5t8 84l90 315h138l-83 -291q-13 -45 7 -74t62 -29q50 0 84 31t49 83l81 280h139l-147 -513h-137zM363 562q-62 0 -102.5 15t-48.5 28l35 118q18 -20 50.5 -36t84.5 -16q49 0 87.5 16t66.5 36
l-36 -120q-15 -15 -50.5 -28t-86.5 -13z" />
    <glyph glyph-name="afii10076" unicode="&#x43a;" horiz-adv-x="499" 
d="M268 0l-110 224l-64 -224h-140l147 513h140l-61 -212l210 212h175l-269 -257l129 -256h-157z" />
    <glyph glyph-name="afii10109" unicode="&#x45c;" horiz-adv-x="499" 
d="M268 0l-110 224l-64 -224h-140l147 513h140l-61 -212l210 212h175l-269 -257l129 -256h-157zM249 547l35 123l246 57l-36 -126z" />
    <glyph glyph-name="afii10077" unicode="&#x43b;" horiz-adv-x="523" 
d="M300 0l1 369l-215 -369h-155l311 513h185l17 -513h-144z" />
    <glyph glyph-name="afii10078" unicode="&#x43c;" horiz-adv-x="680" 
d="M218 0l-48 291l-83 -291h-133l147 513h169l49 -293l214 293h192l-147 -513h-139l85 300l-216 -300h-90z" />
    <glyph glyph-name="afii10079" unicode="&#x43d;" horiz-adv-x="523" 
d="M282 0l56 197h-189l-56 -197h-139l147 513h139l-55 -192h189l55 192h139l-147 -513h-139z" />
    <glyph glyph-name="afii10080" unicode="&#x43e;" horiz-adv-x="576" 
d="M323 524q51 0 94.5 -16.5t75.5 -47t50.5 -72.5t18.5 -93q0 -57 -23 -112t-64 -98.5t-97.5 -70t-123.5 -26.5q-51 0 -94.5 16.5t-75.5 47t-50.5 72.5t-18.5 93q0 57 23 112t64 98.5t97.5 70t123.5 26.5zM424 283q0 51 -31 83t-80 32q-32 0 -61 -13.5t-51 -37t-35 -54
t-13 -64.5q0 -51 31 -83t80 -32q32 0 61 13.5t51 37t35 54t13 64.5z" />
    <glyph glyph-name="afii10081" unicode="&#x43f;" 
d="M93 0h-139l147 513h137l-14 -51q32 27 72.5 43.5t88.5 16.5q39 0 70.5 -15t50 -42.5t23.5 -65.5t-8 -84l-90 -315h-138l83 291q13 45 -7 74t-62 29q-50 0 -84 -31t-49 -83z" />
    <glyph glyph-name="afii10082" unicode="&#x440;" horiz-adv-x="586" 
d="M166 238q0 -24 8.5 -45t23.5 -37t36.5 -25t47.5 -9q32 0 60 13.5t49 36t33 51.5t12 60q0 53 -32.5 83.5t-82.5 30.5q-31 0 -59 -13t-49.5 -35t-34 -51t-12.5 -60zM275 -6q-50 0 -94 20t-69 51l-69 -241h-139l197 689h134l-11 -39q26 20 59 31.5t74 11.5q45 0 84.5 -16
t69 -44.5t46 -68.5t16.5 -89q0 -62 -25 -117.5t-67 -97t-95.5 -66t-110.5 -24.5z" />
    <glyph glyph-name="afii10083" unicode="&#x441;" horiz-adv-x="539" 
d="M251 -14q-53 0 -96.5 16.5t-75 46t-48.5 71.5t-17 93q0 63 24.5 119t66.5 98t98.5 66.5t121.5 24.5q81 0 135.5 -34.5t77.5 -97.5l-122 -67q-26 71 -110 71q-30 0 -57.5 -13t-48.5 -35t-33 -52.5t-12 -64.5q0 -57 34 -87t84 -30q47 0 78 24t53 53l94 -71
q-45 -62 -106.5 -96.5t-140.5 -34.5z" />
    <glyph glyph-name="afii10084" unicode="&#x442;" horiz-adv-x="836" 
d="M93 0h-139l147 513h137l-14 -50q32 26 69 42.5t82 16.5q43 0 75 -19.5t49 -54.5q32 31 76.5 52.5t101.5 21.5q44 0 77.5 -15t53 -42.5t24.5 -65.5t-8 -84l-90 -315h-138l83 291q13 45 -5.5 74t-56.5 29q-46 0 -77 -31t-46 -83l-80 -280h-138l83 291q13 45 -5.5 74
t-56.5 29q-46 0 -77 -31t-46 -83z" />
    <glyph glyph-name="afii10085" unicode="&#x443;" horiz-adv-x="522" 
d="M588 513l-320 -505q-36 -57 -70 -95t-72 -59.5t-83 -27t-103 2.5l35 124q33 -5 55 -1.5t38 13t29 25t27 35.5l-41 488h148l12 -317l191 317h154z" />
    <glyph glyph-name="afii10110" unicode="&#x45e;" horiz-adv-x="522" 
d="M588 513l-320 -505q-36 -57 -70 -95t-72 -59.5t-83 -27t-103 2.5l35 124q33 -5 55 -1.5t38 13t29 25t27 35.5l-41 488h148l12 -317l191 317h154zM362 562q-62 0 -102.5 15t-48.5 28l35 118q18 -20 50.5 -36t84.5 -16q49 0 87.5 16t66.5 36l-36 -120q-15 -15 -50.5 -28
t-86.5 -13z" />
    <glyph glyph-name="afii10086" unicode="&#x444;" horiz-adv-x="689" 
d="M152 -167l48 164q-42 7 -76 27t-58 49.5t-37.5 66t-13.5 78.5q0 63 24.5 117.5t67 95t99 64t119.5 23.5h25l46 158h138l-47 -162q42 -8 76.5 -27.5t58.5 -49t37 -66t13 -78.5q0 -61 -23.5 -115.5t-65.5 -95.5t-98.5 -65t-122.5 -24h-26l-46 -160h-138zM149 228
q0 -43 24 -72t62 -37l80 276h-8q-32 0 -60.5 -13t-50 -36t-34.5 -53.5t-13 -64.5zM380 116q32 0 60.5 13t50.5 36t34.5 53t12.5 65q1 43 -23.5 72t-62.5 37l-80 -276h8z" />
    <glyph glyph-name="afii10087" unicode="&#x445;" horiz-adv-x="522" 
d="M232 146l-124 -146h-172l247 269l-92 244h153l48 -138l120 138h171l-242 -260l95 -253h-153z" />
    <glyph glyph-name="afii10088" unicode="&#x446;" horiz-adv-x="611" 
d="M344 -136l39 136h-89l14 51q-32 -27 -72.5 -43.5t-88.5 -16.5q-39 0 -70.5 15t-50 42.5t-23.5 65.5t8 84l90 315h138l-83 -291q-13 -45 7 -74t62 -29q50 0 84 31t49 83l81 280h139l-111 -389h90l-72 -255z" />
    <glyph glyph-name="afii10089" unicode="&#x447;" horiz-adv-x="503" 
d="M401 0h-139l63 223q-30 -25 -64.5 -38.5t-75.5 -13.5q-39 0 -69.5 16.5t-48 46t-21 70.5t10.5 91l34 118h138l-32 -111q-13 -45 2 -74t57 -29q50 0 79 31t44 83l30 100h139z" />
    <glyph glyph-name="afii10090" unicode="&#x448;" horiz-adv-x="824" 
d="M649 233l81 280h139l-147 -513h-137l14 50q-31 -26 -67 -42.5t-81 -16.5q-42 0 -73 19.5t-48 54.5q-32 -31 -75.5 -52.5t-99.5 -21.5q-43 0 -76 15t-52.5 42.5t-24 65.5t8.5 84l90 315h138l-83 -291q-6 -22 -4.5 -41t10 -32.5t22 -21.5t31.5 -8q45 0 75 31t45 83l80 280
h138l-83 -291q-6 -22 -4.5 -41t10 -32.5t22 -21.5t31.5 -8q45 0 75 31t45 83z" />
    <glyph glyph-name="afii10091" unicode="&#x449;" horiz-adv-x="903" 
d="M635 -136l39 136h-89l14 50q-31 -26 -67 -42.5t-81 -16.5q-42 0 -73 19.5t-48 54.5q-32 -31 -75.5 -52.5t-99.5 -21.5q-43 0 -76 15t-52.5 42.5t-24 65.5t8.5 84l90 315h138l-83 -291q-6 -22 -4.5 -41t10 -32.5t22 -21.5t31.5 -8q45 0 75 31t45 83l80 280h138l-83 -291
q-6 -22 -4.5 -41t10 -32.5t22 -21.5t31.5 -8q45 0 75 31t45 83l81 280h139l-111 -389h90l-72 -255z" />
    <glyph glyph-name="afii10092" unicode="&#x44a;" horiz-adv-x="579" 
d="M316 0h-260l112 389h-120l36 124h258l-42 -145h76q34 0 62.5 -11t49.5 -31.5t33 -49.5t12 -64q0 -41 -16.5 -79.5t-45.5 -68t-69 -47t-86 -17.5zM342 243h-78l-35 -120h94q19 0 33 7t23 17.5t13 23t4 23.5q0 22 -14 35.5t-40 13.5z" />
    <glyph glyph-name="afii10093" unicode="&#x44b;" horiz-adv-x="673" 
d="M571 0h-139l147 513h139zM240 243h-78l-35 -120h94q19 0 33 7t23 17.5t13 23t4 23.5q0 22 -14 35.5t-40 13.5zM-46 0l148 513h138l-42 -145h76q34 0 62.5 -11t49.5 -31.5t33 -49.5t12 -64q0 -41 -16.5 -79.5t-45.5 -68t-69 -47t-86 -17.5h-260z" />
    <glyph glyph-name="afii10094" unicode="&#x44c;" horiz-adv-x="462" 
d="M240 243h-78l-35 -120h94q19 0 33 7t23 17.5t13 23t4 23.5q0 22 -14 35.5t-40 13.5zM-46 0l148 513h138l-42 -145h76q34 0 62.5 -11t49.5 -31.5t33 -49.5t12 -64q0 -41 -16.5 -79.5t-45.5 -68t-69 -47t-86 -17.5h-260z" />
    <glyph glyph-name="afii10095" unicode="&#x44d;" horiz-adv-x="553" 
d="M224 -14q-87 0 -144.5 34.5t-80.5 97.5l121 66q13 -34 42.5 -52t71.5 -18t79 22.5t55 60.5h-191l36 124h164q-12 37 -41.5 56t-65.5 19q-46 0 -78.5 -20t-58.5 -57l-95 72q45 63 107 96.5t141 33.5q53 0 96.5 -17t75 -48t48.5 -74t17 -95q0 -63 -23.5 -117.5t-64 -95.5
t-95 -64.5t-116.5 -23.5z" />
    <glyph glyph-name="afii10096" unicode="&#x44e;" horiz-adv-x="758" 
d="M444 -13q-48 0 -88.5 15t-70.5 42.5t-48 66.5t-21 86h-67l-56 -197h-139l147 513h139l-55 -192h49q15 42 41.5 78.5t62.5 64t80 43.5t95 16t93 -16.5t72 -47t47 -72.5t17 -93q0 -57 -21.5 -112t-60.5 -98.5t-94 -70t-122 -26.5zM458 112q31 0 58 14t46.5 37.5t30.5 53.5
t11 63q0 54 -29.5 85.5t-76.5 31.5q-29 0 -55.5 -13.5t-46.5 -36.5t-31.5 -53.5t-11.5 -64.5q0 -54 29.5 -85.5t75.5 -31.5z" />
    <glyph glyph-name="afii10097" unicode="&#x44f;" horiz-adv-x="472" 
d="M229 284h87l31 106h-98q-34 0 -52 -18t-18 -41q0 -24 13.5 -35.5t36.5 -11.5zM234 0l51 176l-192 -176h-164l210 187q-42 14 -67.5 48.5t-25.5 85.5q0 38 16 72.5t44 61t66 42.5t83 16h263l-148 -513h-136z" />
    <glyph glyph-name="afii10099" unicode="&#x452;" horiz-adv-x="532" 
d="M300 20l77 271q13 45 -7 74t-62 29q-50 0 -84 -31t-49 -83l-81 -280h-139l154 537h-28l31 107h27l12 41h139l-12 -41h105l-31 -107h-104l-21 -72q33 26 72 41.5t87 15.5q39 0 70.5 -15t50 -42.5t23.5 -65.5t-8 -84l-87 -304q-17 -57 -40 -96t-55 -61t-75 -28t-100 2
l34 122q40 -5 64.5 11.5t36.5 58.5z" />
    <glyph glyph-name="afii10101" unicode="&#x454;" horiz-adv-x="539" 
d="M499 116q-45 -63 -107 -96.5t-141 -33.5q-53 0 -96.5 17t-75 48t-48.5 74t-17 95q0 63 23.5 117.5t64 95.5t95 64.5t116.5 23.5q87 0 144.5 -34.5t80.5 -97.5l-121 -66q-13 34 -42.5 52t-71.5 18q-40 0 -75.5 -20.5t-54.5 -55.5h188l-36 -124h-167q11 -40 41 -61t68 -21
q46 0 78.5 20t58.5 57z" />
    <glyph glyph-name="afii10102" unicode="&#x455;" horiz-adv-x="490" 
d="M133 161q-5 -38 19 -54.5t61 -16.5q40 0 59 15t19 33q0 19 -22 30.5t-67 22.5q-29 7 -57.5 17t-50.5 26.5t-35.5 40.5t-13.5 59q0 40 16.5 74t47 59t74 38.5t97.5 13.5q94 0 143.5 -44.5t39.5 -125.5h-138q5 30 -9.5 48t-55.5 18q-35 0 -53 -14.5t-18 -33.5
q0 -20 23 -32.5t77 -26.5q31 -8 58.5 -19.5t48 -27.5t32 -38t11.5 -51q0 -38 -15 -71t-45.5 -58t-76 -39t-105.5 -14q-53 0 -94 11.5t-67.5 33.5t-37.5 53.5t-5 72.5h140z" />
    <glyph glyph-name="afii10103" unicode="&#x456;" horiz-adv-x="195" 
d="M114 557l36 128h139l-36 -128h-139zM-46 0l147 513h139l-147 -513h-139z" />
    <glyph glyph-name="afii10104" unicode="&#x457;" horiz-adv-x="195" 
d="M-46 0l147 513h139l-147 -513h-139zM33 556l37 129h133l-37 -129h-133zM202 556l37 129h133l-37 -129h-133z" />
    <glyph glyph-name="afii10105" unicode="&#x458;" horiz-adv-x="195" 
d="M114 557l36 128h139l-36 -128h-139zM240 513l-144 -502q-17 -57 -40 -96t-55 -61t-75 -28t-100 2l34 122q39 -5 63.5 11.5t36.5 58.5l141 493h139z" />
    <glyph glyph-name="afii10106" unicode="&#x459;" horiz-adv-x="743" 
d="M298 0l-2 372l-215 -372h-148l312 513h182l5 -151h119q34 0 63 -11t50.5 -31t34 -48.5t12.5 -62.5q0 -40 -15.5 -77.5t-44 -67t-69.5 -47t-91 -17.5h-193zM522 237h-86l3 -114h67q31 0 50 19.5t19 43.5q0 25 -15 38t-38 13z" />
    <glyph glyph-name="afii10107" unicode="&#x45a;" horiz-adv-x="797" 
d="M569 237h-80l-33 -114h97q31 0 50 19.5t19 43.5q0 25 -15 38t-38 13zM149 197l-56 -197h-139l147 513h139l-55 -192h189l55 192h139l-43 -151h71q34 0 63.5 -11t51.5 -31t34.5 -48.5t12.5 -62.5q0 -40 -15.5 -77.5t-44 -67t-69.5 -47t-91 -17.5h-256l56 197h-189z" />
    <glyph glyph-name="afii10108" unicode="&#x45b;" 
d="M94 0h-139l154 537h-28l31 107h27l12 41h139l-12 -41h105l-31 -107h-104l-21 -72q33 26 72 41.5t87 15.5q39 0 70.5 -15t50 -42.5t23.5 -65.5t-8 -84l-90 -315h-138l83 291q13 45 -7 74t-62 29q-50 0 -84 -31t-49 -83z" />
    <glyph glyph-name="afii10193" unicode="&#x45f;" horiz-adv-x="532" 
d="M222 -131l-139 -5q2 35 12 67.5t26 61.5q-34 4 -60 21t-41.5 44t-18.5 62.5t9 77.5l90 315h138l-83 -291q-13 -45 7 -74t62 -29q50 0 84 31t49 83l81 280h139l-147 -513h-137l14 51h-1q-38 -32 -60.5 -79t-23.5 -103z" />
    <glyph glyph-name="afii10098" unicode="&#x491;" horiz-adv-x="406" 
d="M423 389h-219l-111 -389h-139l147 513h228l39 136l132 5z" />
    <glyph glyph-name="afii10067.bgr" horiz-adv-x="499" 
d="M217 -14q-58 0 -102 20t-70.5 55.5t-33.5 85t10 108.5l72 256q12 42 33.5 76t51.5 58.5t67 38t79 13.5q46 0 81.5 -13.5t60 -36.5t37 -53.5t12.5 -64.5q0 -55 -27.5 -102t-77.5 -73q56 -47 56 -130q0 -41 -17.5 -83t-49.5 -76.5t-78 -56.5t-104 -22zM227 498l-22 -78h71
q28 0 47.5 8t31.5 21t17.5 28t5.5 30q0 30 -17.5 47t-46.5 17t-53 -19t-34 -54zM222 111q25 0 45 9t34 24.5t21.5 35.5t7.5 42q0 30 -18 53.5t-52 23.5h-89l-20 -71q-14 -52 6.5 -84.5t64.5 -32.5z" />
    <glyph glyph-name="afii10068.bgr" horiz-adv-x="485" 
d="M298 161h140q-21 -79 -88 -125t-168 -46q-98 0 -147 37t-49 102q0 66 48 108.5t145 65.5q79 18 110 37t31 40q0 16 -13.5 25.5t-39.5 9.5q-32 0 -53 -17.5t-33 -48.5h-138q25 81 86 125.5t159 44.5q81 0 126.5 -37.5t45.5 -102.5q0 -77 -52.5 -119t-140.5 -61
q-39 -9 -65.5 -17t-42.5 -16.5t-22.5 -18t-6.5 -20.5q0 -15 14.5 -26t48.5 -11q37 0 66.5 16.5t38.5 54.5z" />
    <glyph glyph-name="afii10069.bgr" horiz-adv-x="577" 
d="M412 278q0 23 -8 43.5t-23 36t-36 24.5t-46 9q-30 0 -57.5 -13t-48.5 -35t-33 -50.5t-12 -59.5q0 -50 31 -80.5t81 -30.5q31 0 58.5 13t48.5 34.5t33 50t12 58.5zM176 -191q-81 0 -140 30t-83 95l115 68q13 -30 41 -51t79 -21q53 0 92.5 26t60.5 74q-49 -29 -114 -29
q-47 0 -86.5 16.5t-68 45.5t-45 69t-16.5 87q0 58 23 112t63 96t92.5 67t112.5 25q54 0 97.5 -20t66.5 -50l19 64h139l-138 -476q-16 -54 -45 -96.5t-69.5 -71.5t-90 -44.5t-105.5 -15.5z" />
    <glyph glyph-name="afii10072.bgr" horiz-adv-x="823" 
d="M278 0l66 228l-240 -228h-178l304 286l-106 227h147l95 -208l107 380h140l-109 -383l210 211h175l-269 -257l129 -256h-157l-110 225l-64 -225h-140z" />
    <glyph glyph-name="afii10073.bgr" horiz-adv-x="455" 
d="M122 -188q-75 0 -131 30t-79 90l115 68q12 -29 36.5 -48t68.5 -19q30 0 52.5 8.5t36.5 23.5t21 34t7 40q0 34 -19 59t-61 25h-64l36 123h59q47 0 75.5 24t28.5 61q0 29 -17.5 47.5t-52.5 18.5q-36 0 -60 -14t-43 -37l-90 69q34 45 90 75.5t128 30.5q43 0 77.5 -14
t57.5 -38t35.5 -55t12.5 -64q0 -54 -30.5 -101.5t-82.5 -75.5q26 -24 41 -56.5t15 -70.5q0 -42 -16 -84t-48.5 -75t-82 -54t-116.5 -21z" />
    <glyph glyph-name="afii10074.bgr" 
d="M308 51q-32 -27 -72.5 -43.5t-88.5 -16.5q-39 0 -70.5 15t-50 42.5t-23.5 65.5t8 84l90 315h138l-83 -291q-13 -45 7 -74t62 -29q50 0 84 31t49 83l81 280h139l-147 -513h-137z" />
    <glyph glyph-name="afii10075.bgr" 
d="M308 51q-32 -27 -72.5 -43.5t-88.5 -16.5q-39 0 -70.5 15t-50 42.5t-23.5 65.5t8 84l90 315h138l-83 -291q-13 -45 7 -74t62 -29q50 0 84 31t49 83l81 280h139l-147 -513h-137zM362 562q-62 0 -102.5 15t-48.5 28l35 118q18 -20 50.5 -36t84.5 -16q49 0 87.5 16t66.5 36
l-36 -120q-15 -15 -50.5 -28t-86.5 -13z" />
    <glyph glyph-name="afii10076.bgr" horiz-adv-x="499" 
d="M158 224l-64 -224h-140l196 685h140l-110 -384l210 212h175l-269 -257l129 -256h-157z" />
    <glyph glyph-name="afii10077.bgr" horiz-adv-x="523" 
d="M300 0l1 369l-215 -369h-155l311 513h185l17 -513h-144z" />
    <glyph glyph-name="afii10079.bgr" horiz-adv-x="546" 
d="M282 0l56 197h-189l-56 -197h-139l147 513h139l-55 -192h189l55 192h139l-147 -513h-139z" />
    <glyph glyph-name="afii10081.bgr" 
d="M93 0h-139l147 513h137l-14 -51q32 27 72.5 43.5t88.5 16.5q39 0 70.5 -15t50 -42.5t23.5 -65.5t-8 -84l-90 -315h-138l83 291q13 45 -7 74t-62 29q-50 0 -84 -31t-49 -83z" />
    <glyph glyph-name="afii10084.bgr" horiz-adv-x="836" 
d="M93 0h-139l147 513h137l-14 -50q32 26 69 42.5t82 16.5q43 0 75 -19.5t49 -54.5q32 31 76.5 52.5t101.5 21.5q44 0 77.5 -15t53 -42.5t24.5 -65.5t-8 -84l-90 -315h-138l83 291q13 45 -5.5 74t-56.5 29q-46 0 -77 -31t-46 -83l-80 -280h-138l83 291q13 45 -5.5 74
t-56.5 29q-46 0 -77 -31t-46 -83z" />
    <glyph glyph-name="afii10088.bgr" horiz-adv-x="611" 
d="M344 -136l39 136h-89l14 51q-32 -27 -72.5 -43.5t-88.5 -16.5q-39 0 -70.5 15t-50 42.5t-23.5 65.5t8 84l90 315h138l-83 -291q-13 -45 7 -74t62 -29q50 0 84 31t49 83l81 280h139l-111 -389h90l-72 -255z" />
    <glyph glyph-name="afii10089.bgr" horiz-adv-x="503" 
d="M401 0h-139l63 223q-30 -25 -64.5 -38.5t-75.5 -13.5q-39 0 -69.5 16.5t-48 46t-21 70.5t10.5 91l34 118h138l-32 -111q-13 -45 2 -74t57 -29q50 0 79 31t44 83l30 100h139z" />
    <glyph glyph-name="afii10090.bgr" horiz-adv-x="824" 
d="M649 233l81 280h139l-147 -513h-137l14 50q-31 -26 -67 -42.5t-81 -16.5q-42 0 -73 19.5t-48 54.5q-32 -31 -75.5 -52.5t-99.5 -21.5q-43 0 -76 15t-52.5 42.5t-24 65.5t8.5 84l90 315h138l-83 -291q-6 -22 -4.5 -41t10 -32.5t22 -21.5t31.5 -8q45 0 75 31t45 83l80 280
h138l-83 -291q-6 -22 -4.5 -41t10 -32.5t22 -21.5t31.5 -8q45 0 75 31t45 83z" />
    <glyph glyph-name="afii10091.bgr" horiz-adv-x="902" 
d="M635 -136l39 136h-89l14 50q-31 -26 -67 -42.5t-81 -16.5q-42 0 -73 19.5t-48 54.5q-32 -31 -75.5 -52.5t-99.5 -21.5q-43 0 -76 15t-52.5 42.5t-24 65.5t8.5 84l90 315h138l-83 -291q-6 -22 -4.5 -41t10 -32.5t22 -21.5t31.5 -8q45 0 75 31t45 83l80 280h138l-83 -291
q-6 -22 -4.5 -41t10 -32.5t22 -21.5t31.5 -8q45 0 75 31t45 83l81 280h139l-111 -389h90l-72 -255z" />
    <glyph glyph-name="afii10092.bgr" horiz-adv-x="573" 
d="M313 -11q-46 0 -85 15t-64 44t-33.5 70t6.5 94l51 177h-140l36 124h275l-37 -129h43q40 0 73 -12.5t56.5 -34.5t36 -53.5t12.5 -68.5q0 -43 -16.5 -84t-46.5 -72.5t-72.5 -50.5t-94.5 -19zM323 113q20 0 35 7.5t25 19.5t15 26t5 27q0 29 -17 47t-50 18h-50l-19 -67
q-10 -35 6.5 -56.5t49.5 -21.5z" />
    <glyph glyph-name="afii10094.bgr" horiz-adv-x="457" 
d="M197 -11q-46 0 -85 15t-64 44t-33.5 70t6.5 94l86 301h136l-37 -129h43q40 0 73 -12.5t56.5 -34.5t36 -53.5t12.5 -68.5q0 -43 -16.5 -84t-46.5 -72.5t-72.5 -50.5t-94.5 -19zM207 113q20 0 35 7.5t25 19.5t15 26t5 27q0 29 -17 47t-50 18h-50l-19 -67q-10 -35 6.5 -56.5
t49.5 -21.5z" />
    <glyph glyph-name="afii10096.bgr" horiz-adv-x="757" 
d="M444 -13q-48 0 -88.5 15t-70.5 42.5t-48 66.5t-21 86h-67l-56 -197h-139l196 685h139l-104 -364h49q15 42 41.5 78.5t62.5 64t80 43.5t95 16t93 -16.5t72 -47t47 -72.5t17 -93q0 -57 -21.5 -112t-60.5 -98.5t-94 -70t-122 -26.5zM604 282q0 51 -26 83t-75 32
q-32 0 -59.5 -13t-47.5 -36t-31.5 -53.5t-11.5 -66.5q0 -51 26 -83t75 -32q32 0 59.5 13t47.5 36t31.5 53.5t11.5 66.5z" />
    <glyph glyph-name="afii10066.locl" horiz-adv-x="560" 
d="M244 -12q-50 0 -92.5 15.5t-74 43.5t-49.5 67.5t-18 86.5q0 72 38 134.5t104 98.5q-16 15 -25.5 36.5t-9.5 48.5q0 33 13.5 63.5t40.5 53t67 36t92 13.5h91q66 0 109.5 1t70.5 7l-36 -122q-17 -4 -33 -6.5t-36 -3.5t-46 -1h-61h-106q-22 0 -31.5 -11t-9.5 -23
q0 -24 32 -30l36 -4q109 -12 170 -69.5t61 -148.5q0 -53 -22.5 -104t-62 -91.5t-94 -65.5t-118.5 -25zM406 263q0 48 -30.5 77.5t-78.5 29.5q-30 0 -57.5 -12.5t-48.5 -34.5t-33.5 -50.5t-12.5 -60.5q0 -48 30.5 -77.5t78.5 -29.5q30 0 57.5 12.5t48.5 34.5t33.5 50.5
t12.5 60.5z" />
    <glyph glyph-name="afii10068.locl" horiz-adv-x="195" 
d="M-46 0l147 513h139l-147 -513h-139zM53 571l35 123h272l-35 -123h-272z" />
    <glyph glyph-name="afii10069.locl" horiz-adv-x="577" 
d="M412 278q0 23 -8 43.5t-23 36t-36 24.5t-46 9q-30 0 -57.5 -13t-48.5 -35t-33 -50.5t-12 -59.5q0 -50 31 -80.5t81 -30.5q31 0 58.5 13t48.5 34.5t33 50t12 58.5zM176 -191q-81 0 -140 30t-83 95l115 68q13 -30 41 -51t79 -21q53 0 92.5 26t60.5 74q-49 -29 -114 -29
q-47 0 -86.5 16.5t-68 45.5t-45 69t-16.5 87q0 58 23 112t63 96t92.5 67t112.5 25q54 0 97.5 -20t66.5 -50l19 64h139l-138 -476q-16 -54 -45 -96.5t-69.5 -71.5t-90 -44.5t-105.5 -15.5z" />
    <glyph glyph-name="afii10081.locl" 
d="M533 571h-352l35 123h352zM308 51q-32 -27 -72.5 -43.5t-88.5 -16.5q-39 0 -70.5 15t-50 42.5t-23.5 65.5t8 84l90 315h138l-83 -291q-13 -45 7 -74t62 -29q50 0 84 31t49 83l81 280h139l-147 -513h-137z" />
    <glyph glyph-name="afii10084.locl" horiz-adv-x="824" 
d="M803 571h-622l35 123h622zM649 233l81 280h139l-147 -513h-137l14 50q-31 -26 -67 -42.5t-81 -16.5q-42 0 -73 19.5t-48 54.5q-32 -31 -75.5 -52.5t-99.5 -21.5q-43 0 -76 15t-52.5 42.5t-24 65.5t8.5 84l90 315h138l-83 -291q-6 -22 -4.5 -41t10 -32.5t22 -21.5t31.5 -8
q45 0 75 31t45 83l80 280h138l-83 -291q-6 -22 -4.5 -41t10 -32.5t22 -21.5t31.5 -8q45 0 75 31t45 83z" />
    <glyph glyph-name="afii61352" unicode="&#x2116;" horiz-adv-x="1100" 
d="M751 470q0 45 18.5 85t49.5 70.5t71.5 48t84.5 17.5q36 0 67 -12.5t53.5 -34.5t35.5 -52t13 -65q0 -45 -19 -85t-50 -70t-72 -47.5t-84 -17.5q-36 0 -67 12t-53.5 34t-35 51.5t-12.5 65.5zM1017 506q0 27 -17.5 44.5t-42.5 17.5q-17 0 -31.5 -7t-25 -18.5t-16.5 -26.5
t-6 -30q0 -26 17 -43.5t42 -17.5q17 0 32 7.5t25.5 19.5t16.5 26t6 28zM668 162l33 117h377l-33 -117h-377zM388 0l-143 441l-126 -441h-151l196 685h164l143 -440l126 440h151l-196 -685h-164z" />
    <glyph glyph-name="uni20BD" unicode="&#x20bd;" horiz-adv-x="663" 
d="M358 543l-49 -170h109q60 0 93 31t33 76q0 27 -20.5 45t-61.5 18h-104zM465 80h-240l-23 -80h-155l23 80h-96l36 114h93l10 37h-92l37 114h88l97 340h267q48 0 84 -14.5t60.5 -39t36.5 -57.5t12 -70q0 -54 -21.5 -103t-61 -87t-96 -60.5t-126.5 -22.5h-130l-10 -37h243z
" />
    <glyph glyph-name="uni20B8" unicode="&#x20b8;" horiz-adv-x="578" 
d="M644 569h-537l32 116h537zM287 0h-155l112 382h-189l40 142h542l-40 -142h-198z" />
    <glyph glyph-name="uni20B4" unicode="&#x20b4;" horiz-adv-x="581" 
d="M351 464q30 0 49.5 6t31 15t16 20t4.5 21q0 20 -15 33t-51 13q-45 0 -66.5 -16.5t-29.5 -46.5h-157q11 38 31.5 71.5t53 59t78.5 40.5t107 15q101 0 153.5 -38t52.5 -98q0 -16 -5 -31t-12.5 -27.5t-17 -22t-17.5 -14.5h63l-32 -110h-539l32 110h270zM65 214h-58l33 110
h539l-33 -110h-275q-30 0 -49.5 -6t-31 -15t-16 -20t-4.5 -21q0 -20 17 -33t59 -13q49 0 73.5 16.5t32.5 46.5h157q-11 -38 -32.5 -71.5t-55 -59t-81.5 -40.5t-111 -15q-104 0 -160 36t-56 97q0 27 15 55.5t37 42.5z" />
    <glyph glyph-name="NULL" horiz-adv-x="0" 
 />
    <glyph glyph-name="NULL" horiz-adv-x="0" 
 />
    <glyph glyph-name="nonmarkingreturn" unicode="&#xd;" horiz-adv-x="235" 
 />
    <glyph glyph-name="cyr_breve.uc" horiz-adv-x="394" 
d="M304 724q-62 0 -102.5 15t-48.5 28l35 118q18 -20 50.5 -36t84.5 -16q49 0 87.5 16t66.5 36l-36 -120q-15 -15 -50.5 -28t-86.5 -13z" />
    <glyph glyph-name="cyr_breve" horiz-adv-x="394" 
d="M304 562q-62 0 -102.5 15t-48.5 28l35 118q18 -20 50.5 -36t84.5 -16q49 0 87.5 16t66.5 36l-36 -120q-15 -15 -50.5 -28t-86.5 -13z" />
    </font>
</defs>
</svg>
