<?xml version="1.0" standalone="no"?>
<!DOCTYPE svg PUBLIC "-//W3C//DTD SVG 1.1//EN" "http://www.w3.org/Graphics/SVG/1.1/DTD/svg11.dtd" >
<svg>
<metadata>
Created by FontForge 20131121 at Fri May 29 12:18:47 2015

Copyright (c) 2014 adidas. All rights reserved.
</metadata>
<defs>
<font id="adineuePROCyr-LightItalicWeb" horiz-adv-x="483" >
  <font-face 
    font-family="adineue PRO Cyr Light Italic Web"
    font-weight="300"
    font-style="italic"
    font-stretch="normal"
    units-per-em="1000"
    panose-1="2 0 0 0 0 0 0 0 0 0"
    ascent="750"
    descent="-250"
    x-height="500"
    cap-height="685"
    bbox="-224 -209 4968 915"
    underline-thickness="50"
    underline-position="-50"
    slope="-16"
    unicode-range="U+000D-FB02"
  />
<missing-glyph horiz-adv-x="413" 
 />
    <glyph glyph-name=".notdef" horiz-adv-x="413" 
 />
    <glyph glyph-name="space" unicode=" " horiz-adv-x="198" 
 />
    <glyph glyph-name="A" unicode="A" horiz-adv-x="607" 
d="M410 618l-259 -387h298zM454 181h-336l-121 -181h-58l461 685h53l71 -685h-52z" />
    <glyph glyph-name="B" unicode="B" horiz-adv-x="550" 
d="M-22 0l196 685h228q38 0 66.5 -12t47 -32.5t27.5 -47t9 -55.5q0 -26 -7.5 -54t-23.5 -53t-41.5 -46t-60.5 -34q49 -19 70 -54.5t21 -77.5q0 -50 -21 -90t-55.5 -69t-80.5 -44.5t-95 -15.5h-280zM213 636l-75 -262h172q46 0 81.5 12.5t59.5 34.5t36 50t12 60q0 21 -6.5 40
t-19 33.5t-32.5 23t-47 8.5h-181zM124 325l-79 -276h219q45 0 80.5 13t60.5 36t38.5 54t13.5 66q0 21 -6.5 40.5t-19.5 34t-33.5 23.5t-48.5 9h-225z" />
    <glyph glyph-name="C" unicode="C" horiz-adv-x="693" 
d="M468 693q53 0 94.5 -13t73 -35.5t53 -54t34.5 -67.5l-50 -25q-26 71 -76 108t-134 37q-75 0 -141 -31.5t-115 -83.5t-77.5 -117.5t-28.5 -133.5q0 -51 16.5 -94t48 -74.5t77 -49.5t104.5 -18q80 0 145 32.5t119 94.5l38 -33q-56 -64 -130.5 -104t-171.5 -40
q-70 0 -125.5 21.5t-94 59t-59 89.5t-20.5 113q0 79 32.5 154.5t89 134.5t133 94.5t165.5 35.5z" />
    <glyph glyph-name="D" unicode="D" horiz-adv-x="628" 
d="M-22 0l196 685h191q61 0 110.5 -23t84 -62t53 -91t18.5 -110q0 -89 -35.5 -162.5t-96.5 -126t-141 -81.5t-169 -29h-211zM190 49q85 0 156 27t122.5 73.5t80.5 110t29 136.5q0 49 -15 92.5t-43 76.5t-68.5 52t-91.5 19h-147l-168 -587h145z" />
    <glyph glyph-name="E" unicode="E" horiz-adv-x="491" 
d="M174 685h404l-14 -49h-351l-76 -265h326l-14 -49h-326l-78 -273h370l-14 -49h-423z" />
    <glyph glyph-name="F" unicode="F" horiz-adv-x="476" 
d="M120 310l-89 -310h-53l196 685h399l-14 -49h-346l-79 -277h321l-14 -49h-321z" />
    <glyph glyph-name="G" unicode="G" horiz-adv-x="726" 
d="M723 341q-16 -92 -53.5 -158.5t-88.5 -109t-110.5 -62.5t-119.5 -20q-67 0 -122 21.5t-94.5 60.5t-61.5 92.5t-22 118.5q0 77 30 150.5t83 130.5t127 92t163 35q46 0 88 -11t77 -31.5t61.5 -49.5t43.5 -66l-47 -27q-30 63 -91.5 98.5t-140.5 35.5q-71 0 -133 -29.5
t-108.5 -78.5t-73 -113t-26.5 -133q0 -53 17 -98t49 -78t78.5 -51.5t105.5 -18.5q51 0 99 16t88 47.5t70.5 78.5t48.5 110h-259l14 48h308v0z" />
    <glyph glyph-name="H" unicode="H" horiz-adv-x="598" 
d="M514 317h-392l-91 -317h-53l196 685h53l-91 -319h392l91 319h53l-196 -685h-53z" />
    <glyph glyph-name="I" unicode="I" horiz-adv-x="153" 
d="M-22 0l196 685h53l-196 -685h-53z" />
    <glyph glyph-name="J" unicode="J" 
d="M61 216q-17 -87 15.5 -131t107.5 -44q69 0 118 48.5t73 133.5l133 462h53l-138 -479q-30 -105 -94.5 -160t-147.5 -55q-50 0 -86.5 16.5t-59 46t-29.5 71t2 91.5h53z" />
    <glyph glyph-name="K" unicode="K" horiz-adv-x="524" 
d="M126 331l-95 -331h-53l196 685h53l-92 -322l414 322h77l-445 -342l264 -343h-65z" />
    <glyph glyph-name="L" unicode="L" horiz-adv-x="476" 
d="M174 685h53l-182 -636h346l-14 -49h-399z" />
    <glyph glyph-name="M" unicode="M" horiz-adv-x="732" 
d="M199 589l-169 -589h-52l196 685h60l85 -600l427 600h60l-196 -685h-50l162 567l-409 -567h-30z" />
    <glyph glyph-name="N" unicode="N" horiz-adv-x="592" 
d="M204 606l-174 -606h-52l196 685h54l213 -605l173 605h52l-196 -685h-54z" />
    <glyph glyph-name="O" unicode="O" horiz-adv-x="745" 
d="M447 694q66 0 120.5 -22t94.5 -61.5t62 -94t22 -118.5q0 -78 -30.5 -151.5t-84 -130.5t-126 -91.5t-155.5 -34.5q-66 0 -120.5 22t-94.5 61.5t-62 94t-22 118.5q0 78 30.5 151.5t84 130.5t126 91.5t155.5 34.5zM442 643q-70 0 -131.5 -30t-107.5 -79.5t-72.5 -113
t-26.5 -131.5q0 -54 18.5 -99.5t51.5 -78.5t79 -51.5t101 -18.5q70 0 132 30t108 79.5t72.5 113t26.5 131.5q0 54 -18.5 99.5t-51.5 78.5t-79.5 51.5t-101.5 18.5z" />
    <glyph glyph-name="P" unicode="P" horiz-adv-x="556" 
d="M100 240l-69 -240h-53l196 685h199q47 0 83.5 -14t62 -39t39 -59.5t13.5 -74.5q0 -54 -21 -101.5t-59.5 -82t-92 -54.5t-118.5 -20h-180zM213 636l-99 -347h168q54 0 98 16.5t74.5 45t47.5 66.5t17 80q0 60 -39.5 99.5t-118.5 39.5h-148z" />
    <glyph glyph-name="Q" unicode="Q" horiz-adv-x="745" 
d="M534 39q-42 -23 -87.5 -36t-96.5 -13q-66 0 -120.5 22t-94.5 61.5t-62 94t-22 118.5q0 78 30.5 151.5t84 130.5t126 91.5t155.5 34.5q66 0 120.5 -22t94.5 -61.5t62 -94t22 -118.5q0 -48 -12 -94.5t-33.5 -89t-52.5 -79.5t-69 -66l55 -91l-58 -9zM354 41q42 0 80.5 10.5
t73.5 30.5l-121 199l57 9l108 -178q32 25 58 57t44.5 68.5t28.5 76.5t10 81q0 54 -18.5 99.5t-51.5 78.5t-79.5 51.5t-101.5 18.5q-70 0 -131.5 -30t-107.5 -79.5t-72.5 -113t-26.5 -131.5q0 -54 18.5 -99.5t51.5 -78.5t79 -51.5t101 -18.5z" />
    <glyph glyph-name="R" unicode="R" horiz-adv-x="512" 
d="M213 636l-91 -318h147q58 0 103 14t75.5 39t46.5 59.5t16 76.5q0 26 -8 49.5t-25.5 41t-43.5 28t-62 10.5h-158zM109 272l-78 -272h-53l196 685h209q43 0 76.5 -13.5t56.5 -37.5t35 -56t12 -69q0 -51 -20 -94.5t-57 -75.5t-89.5 -50t-116.5 -18h-100l258 -271h-71z" />
    <glyph glyph-name="S" unicode="S" horiz-adv-x="568" 
d="M256 -10q-55 0 -101 11.5t-78.5 37.5t-50 67t-16.5 101h53q-1 -48 12.5 -80t39 -51.5t62 -28t80.5 -8.5q48 0 85 11.5t62 32.5t37.5 49.5t12.5 62.5q0 30 -13 51.5t-34.5 37t-49.5 27t-57 22.5q-32 12 -63 26t-55 34t-39 47t-15 65q0 42 17 77t48 60t74 38.5t94 13.5
q108 0 163 -52.5t53 -145.5h-54q0 33 -9 60.5t-29.5 47t-52.5 30.5t-77 11q-81 0 -127.5 -37t-46.5 -97q0 -28 12.5 -48.5t33 -36t47.5 -27t57 -22.5q33 -12 65 -26.5t57 -35t40 -49t15 -67.5q0 -42 -15.5 -80t-47 -66.5t-79 -45.5t-110.5 -17z" />
    <glyph glyph-name="T" unicode="T" horiz-adv-x="521" 
d="M162 0l182 636h-218l14 49h489l-14 -49h-218l-182 -636h-53z" />
    <glyph glyph-name="U" unicode="U" horiz-adv-x="617" 
d="M562 229q-16 -57 -43.5 -101t-64 -75t-81 -47t-93.5 -16q-66 0 -115.5 22.5t-78 64t-34.5 98.5t14 126l110 384h53l-111 -387q-17 -60 -13.5 -107.5t25 -81t60.5 -51.5t92 -18q82 0 142 52t88 149l127 444h53z" />
    <glyph glyph-name="V" unicode="V" horiz-adv-x="587" 
d="M195 0l-59 685h53l52 -616l402 616h58l-452 -685h-54z" />
    <glyph glyph-name="W" unicode="W" horiz-adv-x="878" 
d="M542 604l-345 -604h-57l4 685h53l-9 -607l347 607h55l-4 -612l341 612h55l-385 -685h-57z" />
    <glyph glyph-name="X" unicode="X" horiz-adv-x="615" 
d="M327 311l-309 -311h-67l355 357l-140 328h57l123 -292l285 292h67l-329 -340l154 -345h-57z" />
    <glyph glyph-name="Y" unicode="Y" horiz-adv-x="574" 
d="M276 307l-132 378h55l112 -332l299 332h66l-348 -380l-87 -305h-53z" />
    <glyph glyph-name="Z" unicode="Z" horiz-adv-x="571" 
d="M31 49h466l-14 -49h-538l14 48l611 588h-424l14 49h495l-13 -48z" />
    <glyph glyph-name="A.left" horiz-adv-x="554" 
d="M554 613l-349 -382h240zM431 181h-272l-166 -181h-65l630 685h70l-196 -685h-53z" />
    <glyph glyph-name="A.right" horiz-adv-x="544" 
d="M207 619l-111 -388h243zM356 181h-274l-52 -181h-52l196 685h62l236 -685h-55z" />
    <glyph glyph-name="M.left" horiz-adv-x="888" 
d="M498 587l-506 -587h-64l591 685h58l-165 -576l492 576h58l-196 -685h-53l169 589l-502 -589h-51z" />
    <glyph glyph-name="M.right" horiz-adv-x="879" 
d="M202 603l-173 -603h-51l196 685h56l160 -586l162 586h56l199 -685h-55l-172 601l-168 -601h-47z" />
    <glyph glyph-name="V.left" horiz-adv-x="544" 
d="M124 685h54l211 -618l177 618h52l-196 -685h-62z" />
    <glyph glyph-name="V.right" horiz-adv-x="554" 
d="M-22 0l196 685h53l-174 -610l559 610h66l-630 -685h-70z" />
    <glyph glyph-name="W.left" horiz-adv-x="879" 
d="M541 586l-162 -586h-56l-199 685h55l172 -601l168 601h47l163 -603l173 603h51l-196 -685h-56z" />
    <glyph glyph-name="W.right" horiz-adv-x="888" 
d="M528 576l-492 -576h-58l196 685h52l-170 -590l504 590h51l-168 -586l504 586h65l-591 -685h-58z" />
    <glyph glyph-name="Aacute" unicode="&#xc1;" horiz-adv-x="607" 
d="M410 618l-259 -387h298zM454 181h-336l-121 -181h-58l461 685h53l71 -685h-52zM356 775l13 45l206 64l-14 -50z" />
    <glyph glyph-name="acute" unicode="&#xb4;" horiz-adv-x="394" 
d="M205 590l13 45l206 64l-14 -50z" />
    <glyph glyph-name="Abreve" unicode="&#x102;" horiz-adv-x="607" 
d="M410 618l-259 -387h298zM454 181h-336l-121 -181h-58l461 685h53l71 -685h-52zM596 819q-26 -26 -62 -40.5t-79 -14.5q-24 0 -43.5 6t-33.5 15.5t-24 21t-15 22.5l11 41q7 -10 17 -20.5t24.5 -19.5t32 -14.5t39.5 -5.5q38 0 76 16.5t71 43.5z" />
    <glyph glyph-name="breve" unicode="&#x2d8;" horiz-adv-x="394" 
d="M437 634q-26 -26 -62 -40.5t-79 -14.5q-24 0 -43.5 6t-33.5 15.5t-24 21t-15 22.5l11 41q7 -10 17 -20.5t24.5 -19.5t32 -14.5t39.5 -5.5q38 0 76 16.5t71 43.5z" />
    <glyph glyph-name="Acircumflex" unicode="&#xc2;" horiz-adv-x="607" 
d="M410 618l-259 -387h298zM454 181h-336l-121 -181h-58l461 685h53l71 -685h-52zM484 880l100 -82l-13 -46l-97 75l-153 -79l16 54z" />
    <glyph glyph-name="circumflex" unicode="&#x2c6;" horiz-adv-x="394" 
d="M325 695l100 -82l-13 -46l-97 75l-153 -79l16 54z" />
    <glyph glyph-name="Adieresis" unicode="&#xc4;" horiz-adv-x="607" 
d="M410 618l-259 -387h298zM454 181h-336l-121 -181h-58l461 685h53l71 -685h-52zM512 818l14 52h48l-14 -52h-48zM372 818l14 52h48l-14 -52h-48z" />
    <glyph glyph-name="dieresis" unicode="&#xa8;" horiz-adv-x="394" 
d="M353 633l14 52h48l-14 -52h-48zM213 633l14 52h48l-14 -52h-48z" />
    <glyph glyph-name="AE" unicode="&#xc6;" horiz-adv-x="825" 
d="M410 618l-259 -387h298zM454 181h-336l-121 -181h-58l461 685h512l-14 -49h-440l28 -265h311l-14 -49h-292l28 -273h230l-14 -49h-263z" />
    <glyph glyph-name="Agrave" unicode="&#xc0;" horiz-adv-x="607" 
d="M410 618l-259 -387h298zM454 181h-336l-121 -181h-58l461 685h53l71 -685h-52zM545 775l-171 59l14 50l170 -64z" />
    <glyph glyph-name="grave" unicode="`" horiz-adv-x="394" 
d="M383 590l-171 59l14 50l170 -64z" />
    <glyph glyph-name="Amacron" unicode="&#x100;" horiz-adv-x="607" 
d="M410 618l-259 -387h298zM454 181h-336l-121 -181h-58l461 685h53l71 -685h-52zM337 802l13 44h248l-13 -44h-248z" />
    <glyph glyph-name="macron" unicode="&#xaf;" horiz-adv-x="394" 
d="M178 617l13 44h248l-13 -44h-248z" />
    <glyph glyph-name="Aogonek" unicode="&#x104;" horiz-adv-x="607" 
d="M411 618l-259 -387h298zM486 -157q-13 -8 -31 -13.5t-42 -5.5q-35 0 -55 16t-20 48q0 38 34.5 72.5t98.5 55.5l-16 165h-336l-121 -181h-58l461 685h53l71 -685h-31q-24 -8 -43 -20t-32 -25.5t-20 -27t-7 -25.5q0 -35 40 -35q18 0 36 4.5t29 11.5z" />
    <glyph glyph-name="Aring" unicode="&#xc5;" horiz-adv-x="607" 
d="M410 618l-259 -387h298zM454 181h-336l-121 -181h-58l461 685h53l71 -685h-52zM382 817q0 18 7 36t20 31.5t31 22t40 8.5q33 0 54 -20t21 -52q0 -18 -7.5 -36t-20.5 -32t-31 -22.5t-40 -8.5q-33 0 -53.5 20.5t-20.5 52.5zM517 838q0 18 -11.5 29.5t-30.5 11.5
q-25 0 -40.5 -18.5t-15.5 -38.5q0 -18 11.5 -30t30.5 -12q25 0 40.5 18.5t15.5 39.5z" />
    <glyph glyph-name="ring" unicode="&#x2da;" horiz-adv-x="394" 
d="M223 632q0 18 7 36t20 31.5t31 22t40 8.5q33 0 54 -20t21 -52q0 -18 -7.5 -36t-20.5 -32t-31 -22.5t-40 -8.5q-33 0 -53.5 20.5t-20.5 52.5zM358 653q0 18 -11.5 29.5t-30.5 11.5q-25 0 -40.5 -18.5t-15.5 -38.5q0 -18 11.5 -30t30.5 -12q25 0 40.5 18.5t15.5 39.5z" />
    <glyph glyph-name="Atilde" unicode="&#xc3;" horiz-adv-x="607" 
d="M410 618l-259 -387h298zM454 181h-336l-121 -181h-58l461 685h53l71 -685h-52zM328 814q20 20 40 27.5t43 7.5q20 0 34.5 -6t27 -12.5t25.5 -12.5t30 -6q19 0 41.5 7.5t40.5 25.5l-13 -45q-38 -36 -84 -36q-20 0 -34.5 6t-27 13t-25.5 13t-29 6q-43 0 -82 -33z" />
    <glyph glyph-name="tilde" unicode="&#x2dc;" horiz-adv-x="394" 
d="M169 629q20 20 40 27.5t43 7.5q20 0 34.5 -6t27 -12.5t25.5 -12.5t30 -6q19 0 41.5 7.5t40.5 25.5l-13 -45q-38 -36 -84 -36q-20 0 -34.5 6t-27 13t-25.5 13t-29 6q-43 0 -82 -33z" />
    <glyph glyph-name="Cacute" unicode="&#x106;" horiz-adv-x="693" 
d="M468 693q53 0 94.5 -13t73 -35.5t53 -54t34.5 -67.5l-50 -25q-26 71 -76 108t-134 37q-75 0 -141 -31.5t-115 -83.5t-77.5 -117.5t-28.5 -133.5q0 -51 16.5 -94t48 -74.5t77 -49.5t104.5 -18q80 0 145 32.5t119 94.5l38 -33q-56 -64 -130.5 -104t-171.5 -40
q-70 0 -125.5 21.5t-94 59t-59 89.5t-20.5 113q0 79 32.5 154.5t89 134.5t133 94.5t165.5 35.5zM403 775l13 45l206 64l-14 -50z" />
    <glyph glyph-name="Ccaron" unicode="&#x10c;" horiz-adv-x="693" 
d="M468 693q53 0 94.5 -13t73 -35.5t53 -54t34.5 -67.5l-50 -25q-26 71 -76 108t-134 37q-75 0 -141 -31.5t-115 -83.5t-77.5 -117.5t-28.5 -133.5q0 -51 16.5 -94t48 -74.5t77 -49.5t104.5 -18q80 0 145 32.5t119 94.5l38 -33q-56 -64 -130.5 -104t-171.5 -40
q-70 0 -125.5 21.5t-94 59t-59 89.5t-20.5 113q0 79 32.5 154.5t89 134.5t133 94.5t165.5 35.5zM491 744l-100 82l13 46l97 -75l153 79l-16 -54z" />
    <glyph glyph-name="caron" unicode="&#x2c7;" horiz-adv-x="394" 
d="M285 559l-100 82l13 46l97 -75l153 79l-16 -54z" />
    <glyph glyph-name="Ccedilla" unicode="&#xc7;" horiz-adv-x="693" 
d="M290 -209q-38 0 -61.5 20t-21.5 58h44q1 -20 12 -29t28 -9q20 0 33.5 13.5t13.5 32.5q0 16 -11 25.5t-28 9.5h-60l67 81q-61 6 -109 29.5t-81 60.5t-50.5 85.5t-17.5 105.5q0 79 32.5 154.5t89 134.5t133 94.5t165.5 35.5q53 0 94.5 -13t73 -35.5t53 -54t34.5 -67.5
l-50 -25q-26 71 -76 108t-134 37q-75 0 -141 -31.5t-115 -83.5t-77.5 -117.5t-28.5 -133.5q0 -51 16.5 -94t48 -74.5t77 -49.5t104.5 -18q80 0 145 32.5t119 94.5l38 -33q-56 -64 -130.5 -104t-168.5 -40l-32 -40q29 -3 46.5 -21t17.5 -50q0 -17 -6.5 -33t-18.5 -28.5
t-29 -20t-38 -7.5z" />
    <glyph glyph-name="Ccircumflex" unicode="&#x108;" horiz-adv-x="693" 
d="M468 693q53 0 94.5 -13t73 -35.5t53 -54t34.5 -67.5l-50 -25q-26 71 -76 108t-134 37q-75 0 -141 -31.5t-115 -83.5t-77.5 -117.5t-28.5 -133.5q0 -51 16.5 -94t48 -74.5t77 -49.5t104.5 -18q80 0 145 32.5t119 94.5l38 -33q-56 -64 -130.5 -104t-171.5 -40
q-70 0 -125.5 21.5t-94 59t-59 89.5t-20.5 113q0 79 32.5 154.5t89 134.5t133 94.5t165.5 35.5zM531 880l100 -82l-13 -46l-97 75l-153 -79l16 54z" />
    <glyph glyph-name="Cdotaccent" unicode="&#x10a;" horiz-adv-x="693" 
d="M468 693q53 0 94.5 -13t73 -35.5t53 -54t34.5 -67.5l-50 -25q-26 71 -76 108t-134 37q-75 0 -141 -31.5t-115 -83.5t-77.5 -117.5t-28.5 -133.5q0 -51 16.5 -94t48 -74.5t77 -49.5t104.5 -18q80 0 145 32.5t119 94.5l38 -33q-56 -64 -130.5 -104t-171.5 -40
q-70 0 -125.5 21.5t-94 59t-59 89.5t-20.5 113q0 79 32.5 154.5t89 134.5t133 94.5t165.5 35.5zM489 818l14 52h48l-14 -52h-48z" />
    <glyph glyph-name="dotaccent" unicode="&#x2d9;" horiz-adv-x="394" 
d="M283 633l14 52h48l-14 -52h-48z" />
    <glyph glyph-name="Dcaron" unicode="&#x10e;" horiz-adv-x="628" 
d="M-22 0l196 685h191q61 0 110.5 -23t84 -62t53 -91t18.5 -110q0 -89 -35.5 -162.5t-96.5 -126t-141 -81.5t-169 -29h-211zM190 49q85 0 156 27t122.5 73.5t80.5 110t29 136.5q0 49 -15 92.5t-43 76.5t-68.5 52t-91.5 19h-147l-168 -587h145zM462 742l-100 82l13 46l97 -75
l153 79l-16 -54z" />
    <glyph glyph-name="Dcroat" unicode="&#x110;" horiz-adv-x="634" 
d="M-21 0l90 313h-55l13 46h55l93 326h191q61 0 110.5 -23t84 -62t53 -91t18.5 -110q0 -89 -35.5 -162.5t-96.5 -126t-141 -81.5t-169 -29h-211zM191 49q85 0 156 27t122.5 73.5t80.5 110t29 136.5q0 49 -15 92.5t-43 76.5t-68.5 52t-91.5 19h-147l-79 -277h166l-13 -46
h-166l-76 -264h145z" />
    <glyph glyph-name="Eacute" unicode="&#xc9;" horiz-adv-x="491" 
d="M174 685h404l-14 -49h-351l-76 -265h326l-14 -49h-326l-78 -273h370l-14 -49h-423zM316 775l13 45l206 64l-14 -50z" />
    <glyph glyph-name="Ebreve" unicode="&#x114;" horiz-adv-x="491" 
d="M174 685h404l-14 -49h-351l-76 -265h326l-14 -49h-326l-78 -273h370l-14 -49h-423zM556 819q-26 -26 -62 -40.5t-79 -14.5q-24 0 -43.5 6t-33.5 15.5t-24 21t-15 22.5l11 41q7 -10 17 -20.5t24.5 -19.5t32 -14.5t39.5 -5.5q38 0 76 16.5t71 43.5z" />
    <glyph glyph-name="Ecaron" unicode="&#x11a;" horiz-adv-x="491" 
d="M174 685h404l-14 -49h-351l-76 -265h326l-14 -49h-326l-78 -273h370l-14 -49h-423zM404 744l-100 82l13 46l97 -75l153 79l-16 -54z" />
    <glyph glyph-name="Ecircumflex" unicode="&#xca;" horiz-adv-x="491" 
d="M174 685h404l-14 -49h-351l-76 -265h326l-14 -49h-326l-78 -273h370l-14 -49h-423zM444 880l100 -82l-13 -46l-97 75l-153 -79l16 54z" />
    <glyph glyph-name="Edieresis" unicode="&#xcb;" horiz-adv-x="491" 
d="M174 685h404l-14 -49h-351l-76 -265h326l-14 -49h-326l-78 -273h370l-14 -49h-423zM472 818l14 52h48l-14 -52h-48zM332 818l14 52h48l-14 -52h-48z" />
    <glyph glyph-name="Edotaccent" unicode="&#x116;" horiz-adv-x="491" 
d="M174 685h404l-14 -49h-351l-76 -265h326l-14 -49h-326l-78 -273h370l-14 -49h-423zM402 818l14 52h48l-14 -52h-48z" />
    <glyph glyph-name="Egrave" unicode="&#xc8;" horiz-adv-x="491" 
d="M174 685h404l-14 -49h-351l-76 -265h326l-14 -49h-326l-78 -273h370l-14 -49h-423zM505 775l-171 59l14 50l170 -64z" />
    <glyph glyph-name="Emacron" unicode="&#x112;" horiz-adv-x="491" 
d="M174 685h404l-14 -49h-351l-76 -265h326l-14 -49h-326l-78 -273h370l-14 -49h-423zM297 802l13 44h248l-13 -44h-248z" />
    <glyph glyph-name="Eng" unicode="&#x14a;" horiz-adv-x="592" 
d="M459 -37q-12 -42 -32 -69t-44 -42t-49.5 -19t-48.5 -1l13 46q15 -2 31.5 0.5t31.5 13t28 30t22 50.5l7 23l-214 611l-174 -606h-52l196 685h54l213 -605l173 605h52l-207 -722v0z" />
    <glyph glyph-name="Eogonek" unicode="&#x118;" horiz-adv-x="491" 
d="M362 -157q-13 -8 -31 -13.5t-42 -5.5q-35 0 -55 16t-20 48q0 31 24 60.5t69 51.5h-328l196 685h404l-14 -49h-351l-76 -265h326l-14 -49h-326l-78 -273h370l-14 -49h-32q-24 -8 -43 -20t-32 -25.5t-20 -27t-7 -25.5q0 -35 40 -35q18 0 36 4.5t29 11.5l-11 -40v0z" />
    <glyph glyph-name="Eth" unicode="&#xd0;" horiz-adv-x="634" 
d="M-21 0l90 313h-55l13 46h55l93 326h191q61 0 110.5 -23t84 -62t53 -91t18.5 -110q0 -89 -35.5 -162.5t-96.5 -126t-141 -81.5t-169 -29h-211zM191 49q85 0 156 27t122.5 73.5t80.5 110t29 136.5q0 49 -15 92.5t-43 76.5t-68.5 52t-91.5 19h-147l-79 -277h166l-13 -46
h-166l-76 -264h145z" />
    <glyph glyph-name="Gbreve" unicode="&#x11e;" horiz-adv-x="726" 
d="M723 341q-16 -92 -53.5 -158.5t-88.5 -109t-110.5 -62.5t-119.5 -20q-67 0 -122 21.5t-94.5 60.5t-61.5 92.5t-22 118.5q0 77 30 150.5t83 130.5t127 92t163 35q46 0 88 -11t77 -31.5t61.5 -49.5t43.5 -66l-47 -27q-30 63 -91.5 98.5t-140.5 35.5q-71 0 -133 -29.5
t-108.5 -78.5t-73 -113t-26.5 -133q0 -53 17 -98t49 -78t78.5 -51.5t105.5 -18.5q51 0 99 16t88 47.5t70.5 78.5t48.5 110h-259l14 48h308v0zM646 819q-26 -26 -62 -40.5t-79 -14.5q-24 0 -43.5 6t-33.5 15.5t-24 21t-15 22.5l11 41q7 -10 17 -20.5t24.5 -19.5t32 -14.5
t39.5 -5.5q38 0 76 16.5t71 43.5z" />
    <glyph glyph-name="Gcircumflex" unicode="&#x11c;" horiz-adv-x="726" 
d="M723 341q-16 -92 -53.5 -158.5t-88.5 -109t-110.5 -62.5t-119.5 -20q-67 0 -122 21.5t-94.5 60.5t-61.5 92.5t-22 118.5q0 77 30 150.5t83 130.5t127 92t163 35q46 0 88 -11t77 -31.5t61.5 -49.5t43.5 -66l-47 -27q-30 63 -91.5 98.5t-140.5 35.5q-71 0 -133 -29.5
t-108.5 -78.5t-73 -113t-26.5 -133q0 -53 17 -98t49 -78t78.5 -51.5t105.5 -18.5q51 0 99 16t88 47.5t70.5 78.5t48.5 110h-259l14 48h308v0zM534 880l100 -82l-13 -46l-97 75l-153 -79l16 54z" />
    <glyph glyph-name="Gcommaaccent" unicode="&#x122;" horiz-adv-x="726" 
d="M723 341q-16 -92 -53.5 -158.5t-88.5 -109t-110.5 -62.5t-119.5 -20q-67 0 -122 21.5t-94.5 60.5t-61.5 92.5t-22 118.5q0 77 30 150.5t83 130.5t127 92t163 35q46 0 88 -11t77 -31.5t61.5 -49.5t43.5 -66l-47 -27q-30 63 -91.5 98.5t-140.5 35.5q-71 0 -133 -29.5
t-108.5 -78.5t-73 -113t-26.5 -133q0 -53 17 -98t49 -78t78.5 -51.5t105.5 -18.5q51 0 99 16t88 47.5t70.5 78.5t48.5 110h-259l14 48h308v0zM282 -192h-27l37 72h-21l17 58h50l-16 -54z" />
    <glyph glyph-name="commaaccent" unicode="&#xf6c3;" horiz-adv-x="390" 
d="M74 -193h-27l37 72h-21l17 58h50l-16 -54z" />
    <glyph glyph-name="Gdotaccent" unicode="&#x120;" horiz-adv-x="726" 
d="M723 341q-16 -92 -53.5 -158.5t-88.5 -109t-110.5 -62.5t-119.5 -20q-67 0 -122 21.5t-94.5 60.5t-61.5 92.5t-22 118.5q0 77 30 150.5t83 130.5t127 92t163 35q46 0 88 -11t77 -31.5t61.5 -49.5t43.5 -66l-47 -27q-30 63 -91.5 98.5t-140.5 35.5q-71 0 -133 -29.5
t-108.5 -78.5t-73 -113t-26.5 -133q0 -53 17 -98t49 -78t78.5 -51.5t105.5 -18.5q51 0 99 16t88 47.5t70.5 78.5t48.5 110h-259l14 48h308v0zM492 818l14 52h48l-14 -52h-48z" />
    <glyph glyph-name="Hbar" unicode="&#x126;" horiz-adv-x="609" 
d="M528 366l43 152h-392l-43 -152h392zM31 0h-53l148 518h-59l13 46h59l35 121h53l-35 -121h392l35 121h53l-35 -121h60l-13 -46h-60l-148 -518h-53l91 317h-392z" />
    <glyph glyph-name="Hcircumflex" unicode="&#x124;" horiz-adv-x="598" 
d="M514 317h-392l-91 -317h-53l196 685h53l-91 -319h392l91 319h53l-196 -685h-53zM480 880l100 -82l-13 -46l-97 75l-153 -79l16 54z" />
    <glyph glyph-name="Iacute" unicode="&#xcd;" horiz-adv-x="153" 
d="M-22 0l196 685h53l-196 -685h-53zM131 775l13 45l206 64l-14 -50z" />
    <glyph glyph-name="Ibreve" unicode="&#x12c;" horiz-adv-x="153" 
d="M-22 0l196 685h53l-196 -685h-53zM371 819q-26 -26 -62 -40.5t-79 -14.5q-24 0 -43.5 6t-33.5 15.5t-24 21t-15 22.5l11 41q7 -10 17 -20.5t24.5 -19.5t32 -14.5t39.5 -5.5q38 0 76 16.5t71 43.5z" />
    <glyph glyph-name="Icircumflex" unicode="&#xce;" horiz-adv-x="153" 
d="M-22 0l196 685h53l-196 -685h-53zM259 880l100 -82l-13 -46l-97 75l-153 -79l16 54z" />
    <glyph glyph-name="Idieresis" unicode="&#xcf;" horiz-adv-x="153" 
d="M-22 0l196 685h53l-196 -685h-53zM287 818l14 52h48l-14 -52h-48zM147 818l14 52h48l-14 -52h-48z" />
    <glyph glyph-name="Igrave" unicode="&#xcc;" horiz-adv-x="153" 
d="M-22 0l196 685h53l-196 -685h-53zM320 775l-171 59l14 50l170 -64z" />
    <glyph glyph-name="IJ" unicode="&#x132;" horiz-adv-x="636" 
d="M-22 0l196 685h53l-196 -685h-53zM214 216q-17 -87 15.5 -131t107.5 -44q69 0 118 48.5t73 133.5l133 462h53l-138 -479q-30 -105 -94.5 -160t-147.5 -55q-50 0 -86.5 16.5t-59 46t-29.5 71t2 91.5h53z" />
    <glyph glyph-name="Imacron" unicode="&#x12a;" horiz-adv-x="153" 
d="M-22 0l196 685h53l-196 -685h-53zM112 802l13 44h248l-13 -44h-248z" />
    <glyph glyph-name="Iogonek" unicode="&#x12e;" horiz-adv-x="164" 
d="M22 -157q-13 -8 -31 -13.5t-42 -5.5q-35 0 -55 16t-20 48q0 33 27.5 64.5t79.5 53.5l194 679h53l-196 -685h-2q-24 -8 -43 -20t-32 -25.5t-20 -27t-7 -25.5q0 -35 40 -35q18 0 36 4.5t29 11.5l-11 -40v0z" />
    <glyph glyph-name="Itilde" unicode="&#x128;" horiz-adv-x="153" 
d="M-22 0l196 685h53l-196 -685h-53zM103 814q20 20 40 27.5t43 7.5q20 0 34.5 -6t27 -12.5t25.5 -12.5t30 -6q19 0 41.5 7.5t40.5 25.5l-13 -45q-38 -36 -84 -36q-20 0 -34.5 6t-27 13t-25.5 13t-29 6q-43 0 -82 -33z" />
    <glyph glyph-name="Jcircumflex" unicode="&#x134;" 
d="M61 216q-17 -87 15.5 -131t107.5 -44q69 0 118 48.5t73 133.5l133 462h53l-138 -479q-30 -105 -94.5 -160t-147.5 -55q-50 0 -86.5 16.5t-59 46t-29.5 71t2 91.5h53zM591 880l100 -82l-13 -46l-97 75l-153 -79l16 54z" />
    <glyph glyph-name="Kcommaaccent" unicode="&#x136;" horiz-adv-x="524" 
d="M126 331l-95 -331h-53l196 685h53l-92 -322l414 322h77l-445 -342l264 -343h-65zM151 -193h-27l37 72h-21l17 58h50l-16 -54z" />
    <glyph glyph-name="Lacute" unicode="&#x139;" horiz-adv-x="476" 
d="M174 685h53l-182 -636h346l-14 -49h-399zM129 775l13 45l206 64l-14 -50z" />
    <glyph glyph-name="Lcaron" unicode="&#x13d;" horiz-adv-x="476" 
d="M454 631l-41 -76h-27l38 72h-21l17 58h50l-16 -54v0zM174 685h53l-182 -636h346l-14 -49h-399z" />
    <glyph glyph-name="quoteright" unicode="&#x2019;" horiz-adv-x="130" 
d="M158 555h-27l38 72h-21l17 58h50l-16 -54z" />
    <glyph glyph-name="Lcommaaccent" unicode="&#x13b;" horiz-adv-x="476" 
d="M174 685h53l-182 -636h346l-14 -49h-399zM131 -193h-27l37 72h-21l17 58h50l-16 -54z" />
    <glyph glyph-name="Ldot" unicode="&#x13f;" horiz-adv-x="476" 
d="M174 685h53l-182 -636h346l-14 -49h-399zM313 327l14 52h48l-14 -52h-48z" />
    <glyph glyph-name="Lslash" unicode="&#x141;" horiz-adv-x="482" 
d="M-21 0l91 317l-70 -33l15 50l69 33l91 318h53l-83 -289l183 86l-14 -50l-183 -86l-85 -297h346l-14 -49h-399z" />
    <glyph glyph-name="Nacute" unicode="&#x143;" horiz-adv-x="592" 
d="M204 606l-174 -606h-52l196 685h54l213 -605l173 605h52l-196 -685h-54zM350 775l13 45l206 64l-14 -50z" />
    <glyph glyph-name="Napostrophe" horiz-adv-x="592" 
d="M204 606l-174 -606h-52l196 685h54l213 -605l173 605h52l-196 -685h-54zM215 738h-27l37 72h-21l17 58h50l-16 -54z" />
    <glyph glyph-name="Ncaron" unicode="&#x147;" horiz-adv-x="592" 
d="M204 606l-174 -606h-52l196 685h54l213 -605l173 605h52l-196 -685h-54zM438 744l-100 82l13 46l97 -75l153 79l-16 -54z" />
    <glyph glyph-name="Ncommaaccent" unicode="&#x145;" horiz-adv-x="592" 
d="M204 606l-174 -606h-52l196 685h54l213 -605l173 605h52l-196 -685h-54zM176 -193h-27l37 72h-21l17 58h50l-16 -54z" />
    <glyph glyph-name="Ntilde" unicode="&#xd1;" horiz-adv-x="592" 
d="M204 606l-174 -606h-52l196 685h54l213 -605l173 605h52l-196 -685h-54zM322 814q20 20 40 27.5t43 7.5q20 0 34.5 -6t27 -12.5t25.5 -12.5t30 -6q19 0 41.5 7.5t40.5 25.5l-13 -45q-38 -36 -84 -36q-20 0 -34.5 6t-27 13t-25.5 13t-29 6q-43 0 -82 -33z" />
    <glyph glyph-name="Oacute" unicode="&#xd3;" horiz-adv-x="745" 
d="M447 694q66 0 120.5 -22t94.5 -61.5t62 -94t22 -118.5q0 -78 -30.5 -151.5t-84 -130.5t-126 -91.5t-155.5 -34.5q-66 0 -120.5 22t-94.5 61.5t-62 94t-22 118.5q0 78 30.5 151.5t84 130.5t126 91.5t155.5 34.5zM442 643q-70 0 -131.5 -30t-107.5 -79.5t-72.5 -113
t-26.5 -131.5q0 -54 18.5 -99.5t51.5 -78.5t79 -51.5t101 -18.5q70 0 132 30t108 79.5t72.5 113t26.5 131.5q0 54 -18.5 99.5t-51.5 78.5t-79.5 51.5t-101.5 18.5zM403 775l13 45l206 64l-14 -50z" />
    <glyph glyph-name="Obreve" unicode="&#x14e;" horiz-adv-x="745" 
d="M447 694q66 0 120.5 -22t94.5 -61.5t62 -94t22 -118.5q0 -78 -30.5 -151.5t-84 -130.5t-126 -91.5t-155.5 -34.5q-66 0 -120.5 22t-94.5 61.5t-62 94t-22 118.5q0 78 30.5 151.5t84 130.5t126 91.5t155.5 34.5zM442 643q-70 0 -131.5 -30t-107.5 -79.5t-72.5 -113
t-26.5 -131.5q0 -54 18.5 -99.5t51.5 -78.5t79 -51.5t101 -18.5q70 0 132 30t108 79.5t72.5 113t26.5 131.5q0 54 -18.5 99.5t-51.5 78.5t-79.5 51.5t-101.5 18.5zM643 819q-26 -26 -62 -40.5t-79 -14.5q-24 0 -43.5 6t-33.5 15.5t-24 21t-15 22.5l11 41q7 -10 17 -20.5
t24.5 -19.5t32 -14.5t39.5 -5.5q38 0 76 16.5t71 43.5z" />
    <glyph glyph-name="Ocircumflex" unicode="&#xd4;" horiz-adv-x="745" 
d="M447 694q66 0 120.5 -22t94.5 -61.5t62 -94t22 -118.5q0 -78 -30.5 -151.5t-84 -130.5t-126 -91.5t-155.5 -34.5q-66 0 -120.5 22t-94.5 61.5t-62 94t-22 118.5q0 78 30.5 151.5t84 130.5t126 91.5t155.5 34.5zM442 643q-70 0 -131.5 -30t-107.5 -79.5t-72.5 -113
t-26.5 -131.5q0 -54 18.5 -99.5t51.5 -78.5t79 -51.5t101 -18.5q70 0 132 30t108 79.5t72.5 113t26.5 131.5q0 54 -18.5 99.5t-51.5 78.5t-79.5 51.5t-101.5 18.5zM531 880l100 -82l-13 -46l-97 75l-153 -79l16 54z" />
    <glyph glyph-name="Odieresis" unicode="&#xd6;" horiz-adv-x="745" 
d="M447 694q66 0 120.5 -22t94.5 -61.5t62 -94t22 -118.5q0 -78 -30.5 -151.5t-84 -130.5t-126 -91.5t-155.5 -34.5q-66 0 -120.5 22t-94.5 61.5t-62 94t-22 118.5q0 78 30.5 151.5t84 130.5t126 91.5t155.5 34.5zM442 643q-70 0 -131.5 -30t-107.5 -79.5t-72.5 -113
t-26.5 -131.5q0 -54 18.5 -99.5t51.5 -78.5t79 -51.5t101 -18.5q70 0 132 30t108 79.5t72.5 113t26.5 131.5q0 54 -18.5 99.5t-51.5 78.5t-79.5 51.5t-101.5 18.5zM559 818l14 52h48l-14 -52h-48zM419 818l14 52h48l-14 -52h-48z" />
    <glyph glyph-name="OE" unicode="&#x152;" horiz-adv-x="969" 
d="M318 0q-62 0 -111 22.5t-83.5 61.5t-53 91t-18.5 111q0 89 35.5 162.5t96.5 126t141 81.5t169 29h562l-14 -49h-351l-76 -265h326l-14 -49h-326l-78 -273h370l-14 -49h-561zM493 636q-85 0 -156 -27t-122.5 -73.5t-80.5 -110t-29 -136.5q0 -49 15 -92.5t43 -76.5
t68.5 -52t91.5 -19h147l168 587h-145z" />
    <glyph glyph-name="Ograve" unicode="&#xd2;" horiz-adv-x="745" 
d="M447 694q66 0 120.5 -22t94.5 -61.5t62 -94t22 -118.5q0 -78 -30.5 -151.5t-84 -130.5t-126 -91.5t-155.5 -34.5q-66 0 -120.5 22t-94.5 61.5t-62 94t-22 118.5q0 78 30.5 151.5t84 130.5t126 91.5t155.5 34.5zM442 643q-70 0 -131.5 -30t-107.5 -79.5t-72.5 -113
t-26.5 -131.5q0 -54 18.5 -99.5t51.5 -78.5t79 -51.5t101 -18.5q70 0 132 30t108 79.5t72.5 113t26.5 131.5q0 54 -18.5 99.5t-51.5 78.5t-79.5 51.5t-101.5 18.5zM592 775l-171 59l14 50l170 -64z" />
    <glyph glyph-name="Ohungarumlaut" unicode="&#x150;" horiz-adv-x="745" 
d="M447 694q66 0 120.5 -22t94.5 -61.5t62 -94t22 -118.5q0 -78 -30.5 -151.5t-84 -130.5t-126 -91.5t-155.5 -34.5q-66 0 -120.5 22t-94.5 61.5t-62 94t-22 118.5q0 78 30.5 151.5t84 130.5t126 91.5t155.5 34.5zM442 643q-70 0 -131.5 -30t-107.5 -79.5t-72.5 -113
t-26.5 -131.5q0 -54 18.5 -99.5t51.5 -78.5t79 -51.5t101 -18.5q70 0 132 30t108 79.5t72.5 113t26.5 131.5q0 54 -18.5 99.5t-51.5 78.5t-79.5 51.5t-101.5 18.5zM512 743l95 147h47l-99 -147h-43zM412 743l88 147h49l-92 -147h-45z" />
    <glyph glyph-name="hungarumlaut" unicode="&#x2dd;" horiz-adv-x="394" 
d="M338 558l95 147h47l-99 -147h-43zM238 558l88 147h49l-92 -147h-45z" />
    <glyph glyph-name="Omacron" unicode="&#x14c;" horiz-adv-x="745" 
d="M447 694q66 0 120.5 -22t94.5 -61.5t62 -94t22 -118.5q0 -78 -30.5 -151.5t-84 -130.5t-126 -91.5t-155.5 -34.5q-66 0 -120.5 22t-94.5 61.5t-62 94t-22 118.5q0 78 30.5 151.5t84 130.5t126 91.5t155.5 34.5zM442 643q-70 0 -131.5 -30t-107.5 -79.5t-72.5 -113
t-26.5 -131.5q0 -54 18.5 -99.5t51.5 -78.5t79 -51.5t101 -18.5q70 0 132 30t108 79.5t72.5 113t26.5 131.5q0 54 -18.5 99.5t-51.5 78.5t-79.5 51.5t-101.5 18.5zM384 802l13 44h248l-13 -44h-248z" />
    <glyph glyph-name="Oslash" unicode="&#xd8;" horiz-adv-x="745" 
d="M105 289q0 -51 16.5 -94.5t46.5 -75.5l441 467q-32 27 -74 42t-92 15q-70 0 -131.5 -30t-107.5 -79.5t-72.5 -113t-26.5 -131.5zM355 41q70 0 132 30t108 79.5t72.5 113t26.5 131.5q0 46 -13.5 85.5t-38.5 71.5l-439 -465q31 -22 69 -34t83 -12zM351 -10q-54 0 -101 15
t-84 43l-84 -88h-64l113 119q-38 40 -58.5 92t-20.5 115q0 78 30.5 151.5t84 130.5t126 91.5t155.5 34.5q60 0 110 -18t88 -50l93 98h66l-125 -132q32 -38 49.5 -87.5t17.5 -106.5q0 -78 -30.5 -151.5t-84 -130.5t-126 -91.5t-155.5 -34.5z" />
    <glyph glyph-name="Otilde" unicode="&#xd5;" horiz-adv-x="745" 
d="M447 694q66 0 120.5 -22t94.5 -61.5t62 -94t22 -118.5q0 -78 -30.5 -151.5t-84 -130.5t-126 -91.5t-155.5 -34.5q-66 0 -120.5 22t-94.5 61.5t-62 94t-22 118.5q0 78 30.5 151.5t84 130.5t126 91.5t155.5 34.5zM442 643q-70 0 -131.5 -30t-107.5 -79.5t-72.5 -113
t-26.5 -131.5q0 -54 18.5 -99.5t51.5 -78.5t79 -51.5t101 -18.5q70 0 132 30t108 79.5t72.5 113t26.5 131.5q0 54 -18.5 99.5t-51.5 78.5t-79.5 51.5t-101.5 18.5zM375 814q20 20 40 27.5t43 7.5q20 0 34.5 -6t27 -12.5t25.5 -12.5t30 -6q19 0 41.5 7.5t40.5 25.5l-13 -45
q-38 -36 -84 -36q-20 0 -34.5 6t-27 13t-25.5 13t-29 6q-43 0 -82 -33z" />
    <glyph glyph-name="Racute" unicode="&#x154;" horiz-adv-x="512" 
d="M213 636l-91 -318h147q58 0 103 14t75.5 39t46.5 59.5t16 76.5q0 26 -8 49.5t-25.5 41t-43.5 28t-62 10.5h-158zM109 272l-78 -272h-53l196 685h209q43 0 76.5 -13.5t56.5 -37.5t35 -56t12 -69q0 -51 -20 -94.5t-57 -75.5t-89.5 -50t-116.5 -18h-100l258 -271h-71z
M336 775l13 45l206 64l-14 -50z" />
    <glyph glyph-name="Rcaron" unicode="&#x158;" horiz-adv-x="512" 
d="M213 636l-91 -318h147q58 0 103 14t75.5 39t46.5 59.5t16 76.5q0 26 -8 49.5t-25.5 41t-43.5 28t-62 10.5h-158zM109 272l-78 -272h-53l196 685h209q43 0 76.5 -13.5t56.5 -37.5t35 -56t12 -69q0 -51 -20 -94.5t-57 -75.5t-89.5 -50t-116.5 -18h-100l258 -271h-71z
M424 744l-100 82l13 46l97 -75l153 79l-16 -54z" />
    <glyph glyph-name="Rcommaaccent" unicode="&#x156;" horiz-adv-x="512" 
d="M213 636l-91 -318h147q58 0 103 14t75.5 39t46.5 59.5t16 76.5q0 26 -8 49.5t-25.5 41t-43.5 28t-62 10.5h-158zM109 272l-78 -272h-53l196 685h209q43 0 76.5 -13.5t56.5 -37.5t35 -56t12 -69q0 -51 -20 -94.5t-57 -75.5t-89.5 -50t-116.5 -18h-100l258 -271h-71z
M170 -188h-27l37 72h-21l17 58h50l-16 -54z" />
    <glyph glyph-name="Sacute" unicode="&#x15a;" horiz-adv-x="568" 
d="M256 -10q-55 0 -101 11.5t-78.5 37.5t-50 67t-16.5 101h53q-1 -48 12.5 -80t39 -51.5t62 -28t80.5 -8.5q48 0 85 11.5t62 32.5t37.5 49.5t12.5 62.5q0 30 -13 51.5t-34.5 37t-49.5 27t-57 22.5q-32 12 -63 26t-55 34t-39 47t-15 65q0 42 17 77t48 60t74 38.5t94 13.5
q108 0 163 -52.5t53 -145.5h-54q0 33 -9 60.5t-29.5 47t-52.5 30.5t-77 11q-81 0 -127.5 -37t-46.5 -97q0 -28 12.5 -48.5t33 -36t47.5 -27t57 -22.5q33 -12 65 -26.5t57 -35t40 -49t15 -67.5q0 -42 -15.5 -80t-47 -66.5t-79 -45.5t-110.5 -17zM324 775l13 45l206 64
l-14 -50z" />
    <glyph glyph-name="Scaron" unicode="&#x160;" horiz-adv-x="568" 
d="M256 -10q-55 0 -101 11.5t-78.5 37.5t-50 67t-16.5 101h53q-1 -48 12.5 -80t39 -51.5t62 -28t80.5 -8.5q48 0 85 11.5t62 32.5t37.5 49.5t12.5 62.5q0 30 -13 51.5t-34.5 37t-49.5 27t-57 22.5q-32 12 -63 26t-55 34t-39 47t-15 65q0 42 17 77t48 60t74 38.5t94 13.5
q108 0 163 -52.5t53 -145.5h-54q0 33 -9 60.5t-29.5 47t-52.5 30.5t-77 11q-81 0 -127.5 -37t-46.5 -97q0 -28 12.5 -48.5t33 -36t47.5 -27t57 -22.5q33 -12 65 -26.5t57 -35t40 -49t15 -67.5q0 -42 -15.5 -80t-47 -66.5t-79 -45.5t-110.5 -17zM412 744l-100 82l13 46
l97 -75l153 79l-16 -54z" />
    <glyph glyph-name="Scedilla" unicode="&#x15e;" horiz-adv-x="568" 
d="M174 -209q-38 0 -61.5 20t-21.5 58h44q1 -20 12 -29t28 -9q20 0 33.5 13.5t13.5 32.5q0 16 -11 25.5t-28 9.5h-60l68 82q-42 6 -75.5 21t-57.5 41t-36.5 63.5t-11.5 87.5h53q-1 -48 12.5 -80t39 -51.5t62 -28t80.5 -8.5q48 0 85 11.5t62 32.5t37.5 49.5t12.5 62.5
q0 30 -13 51.5t-34.5 37t-49.5 27t-57 22.5q-32 12 -63 26t-55 34t-39 47t-15 65q0 42 17 77t48 60t74 38.5t94 13.5q108 0 163 -52.5t53 -145.5h-54q0 33 -9 60.5t-29.5 47t-52.5 30.5t-77 11q-81 0 -127.5 -37t-46.5 -97q0 -28 12.5 -48.5t33 -36t47.5 -27t57 -22.5
q33 -12 65 -26.5t57 -35t40 -49t15 -67.5q0 -42 -15.5 -80t-47 -66.5t-79 -45.5t-110.5 -17h-22l-32 -39q29 -3 46.5 -21t17.5 -50q0 -17 -6.5 -33t-18.5 -28.5t-29 -20t-38 -7.5z" />
    <glyph glyph-name="Scircumflex" unicode="&#x15c;" horiz-adv-x="568" 
d="M256 -10q-55 0 -101 11.5t-78.5 37.5t-50 67t-16.5 101h53q-1 -48 12.5 -80t39 -51.5t62 -28t80.5 -8.5q48 0 85 11.5t62 32.5t37.5 49.5t12.5 62.5q0 30 -13 51.5t-34.5 37t-49.5 27t-57 22.5q-32 12 -63 26t-55 34t-39 47t-15 65q0 42 17 77t48 60t74 38.5t94 13.5
q108 0 163 -52.5t53 -145.5h-54q0 33 -9 60.5t-29.5 47t-52.5 30.5t-77 11q-81 0 -127.5 -37t-46.5 -97q0 -28 12.5 -48.5t33 -36t47.5 -27t57 -22.5q33 -12 65 -26.5t57 -35t40 -49t15 -67.5q0 -42 -15.5 -80t-47 -66.5t-79 -45.5t-110.5 -17zM452 880l100 -82l-13 -46
l-97 75l-153 -79l16 54z" />
    <glyph glyph-name="Scommaaccent" unicode="&#x218;" horiz-adv-x="568" 
d="M256 -10q-55 0 -101 11.5t-78.5 37.5t-50 67t-16.5 101h53q-1 -48 12.5 -80t39 -51.5t62 -28t80.5 -8.5q48 0 85 11.5t62 32.5t37.5 49.5t12.5 62.5q0 30 -13 51.5t-34.5 37t-49.5 27t-57 22.5q-32 12 -63 26t-55 34t-39 47t-15 65q0 42 17 77t48 60t74 38.5t94 13.5
q108 0 163 -52.5t53 -145.5h-54q0 33 -9 60.5t-29.5 47t-52.5 30.5t-77 11q-81 0 -127.5 -37t-46.5 -97q0 -28 12.5 -48.5t33 -36t47.5 -27t57 -22.5q33 -12 65 -26.5t57 -35t40 -49t15 -67.5q0 -42 -15.5 -80t-47 -66.5t-79 -45.5t-110.5 -17zM168 -193h-27l37 72h-21
l17 58h50l-16 -54z" />
    <glyph glyph-name="Tbar" unicode="&#x166;" horiz-adv-x="521" 
d="M307 318l-91 -318h-53l91 318h-164l13 46h164l78 272h-218l14 49h489l-14 -49h-218l-78 -272h164l-13 -46h-164z" />
    <glyph glyph-name="Tcaron" unicode="&#x164;" horiz-adv-x="521" 
d="M162 0l182 636h-218l14 49h489l-14 -49h-218l-182 -636h-53zM402 744l-100 82l13 46l97 -75l153 79l-16 -54z" />
    <glyph glyph-name="Tcedilla" unicode="&#x162;" horiz-adv-x="521" 
d="M142 -209q-38 0 -61.5 20t-21.5 58h44q1 -20 12 -29t28 -9q20 0 33.5 13.5t13.5 32.5q0 16 -11 25.5t-28 9.5h-60l73 88h-1l182 636h-218l14 49h489l-14 -49h-218l-182 -636h-6l-40 -49q29 -3 46.5 -21t17.5 -50q0 -17 -6.5 -33t-18.5 -28.5t-29 -20t-38 -7.5z" />
    <glyph glyph-name="uni021A" unicode="&#x21a;" horiz-adv-x="521" 
d="M162 0l182 636h-218l14 49h489l-14 -49h-218l-182 -636h-53zM133 -193h-27l37 72h-21l17 58h50l-16 -54z" />
    <glyph glyph-name="Thorn" unicode="&#xde;" horiz-adv-x="556" 
d="M66 119l-35 -119h-53l196 685h53l-34 -121h146q47 0 83.5 -14t62 -39t39 -59.5t13.5 -74.5q0 -54 -21 -101.5t-59.5 -82t-92 -54.5t-118.5 -20h-180zM179 515l-99 -347h168q54 0 98 16.5t74.5 45t47.5 66.5t17 80q0 60 -39.5 99.5t-118.5 39.5h-148z" />
    <glyph glyph-name="Uacute" unicode="&#xda;" horiz-adv-x="617" 
d="M562 229q-16 -57 -43.5 -101t-64 -75t-81 -47t-93.5 -16q-66 0 -115.5 22.5t-78 64t-34.5 98.5t14 126l110 384h53l-111 -387q-17 -60 -13.5 -107.5t25 -81t60.5 -51.5t92 -18q82 0 142 52t88 149l127 444h53zM362 775l13 45l206 64l-14 -50z" />
    <glyph glyph-name="Ubreve" unicode="&#x16c;" horiz-adv-x="617" 
d="M562 229q-16 -57 -43.5 -101t-64 -75t-81 -47t-93.5 -16q-66 0 -115.5 22.5t-78 64t-34.5 98.5t14 126l110 384h53l-111 -387q-17 -60 -13.5 -107.5t25 -81t60.5 -51.5t92 -18q82 0 142 52t88 149l127 444h53zM602 819q-26 -26 -62 -40.5t-79 -14.5q-24 0 -43.5 6
t-33.5 15.5t-24 21t-15 22.5l11 41q7 -10 17 -20.5t24.5 -19.5t32 -14.5t39.5 -5.5q38 0 76 16.5t71 43.5z" />
    <glyph glyph-name="Ucircumflex" unicode="&#xdb;" horiz-adv-x="617" 
d="M562 229q-16 -57 -43.5 -101t-64 -75t-81 -47t-93.5 -16q-66 0 -115.5 22.5t-78 64t-34.5 98.5t14 126l110 384h53l-111 -387q-17 -60 -13.5 -107.5t25 -81t60.5 -51.5t92 -18q82 0 142 52t88 149l127 444h53zM490 880l100 -82l-13 -46l-97 75l-153 -79l16 54z" />
    <glyph glyph-name="Udieresis" unicode="&#xdc;" horiz-adv-x="617" 
d="M562 229q-16 -57 -43.5 -101t-64 -75t-81 -47t-93.5 -16q-66 0 -115.5 22.5t-78 64t-34.5 98.5t14 126l110 384h53l-111 -387q-17 -60 -13.5 -107.5t25 -81t60.5 -51.5t92 -18q82 0 142 52t88 149l127 444h53zM518 818l14 52h48l-14 -52h-48zM378 818l14 52h48l-14 -52
h-48z" />
    <glyph glyph-name="Ugrave" unicode="&#xd9;" horiz-adv-x="617" 
d="M562 229q-16 -57 -43.5 -101t-64 -75t-81 -47t-93.5 -16q-66 0 -115.5 22.5t-78 64t-34.5 98.5t14 126l110 384h53l-111 -387q-17 -60 -13.5 -107.5t25 -81t60.5 -51.5t92 -18q82 0 142 52t88 149l127 444h53zM551 775l-171 59l14 50l170 -64z" />
    <glyph glyph-name="Uhungarumlaut" unicode="&#x170;" horiz-adv-x="617" 
d="M562 229q-16 -57 -43.5 -101t-64 -75t-81 -47t-93.5 -16q-66 0 -115.5 22.5t-78 64t-34.5 98.5t14 126l110 384h53l-111 -387q-17 -60 -13.5 -107.5t25 -81t60.5 -51.5t92 -18q82 0 142 52t88 149l127 444h53zM471 743l95 147h47l-99 -147h-43zM371 743l88 147h49
l-92 -147h-45z" />
    <glyph glyph-name="Umacron" unicode="&#x16a;" horiz-adv-x="617" 
d="M562 229q-16 -57 -43.5 -101t-64 -75t-81 -47t-93.5 -16q-66 0 -115.5 22.5t-78 64t-34.5 98.5t14 126l110 384h53l-111 -387q-17 -60 -13.5 -107.5t25 -81t60.5 -51.5t92 -18q82 0 142 52t88 149l127 444h53zM343 802l13 44h248l-13 -44h-248z" />
    <glyph glyph-name="Uogonek" unicode="&#x172;" horiz-adv-x="617" 
d="M274 -176q-35 0 -55 16t-20 48q0 28 19 54.5t56 47.5q-65 1 -112.5 24.5t-75 64.5t-33.5 97.5t14 124.5l110 384h53l-111 -387q-17 -60 -13.5 -107.5t25 -81t60.5 -51.5t92 -18q82 0 142 52t88 149l127 444h53l-130 -456q-26 -92 -81 -151t-129 -79q-24 -8 -42.5 -20
t-31 -25t-19.5 -26.5t-7 -25.5q0 -35 40 -35q18 0 36 4.5t29 11.5l-11 -40q-13 -8 -31 -13.5t-42 -5.5z" />
    <glyph glyph-name="Uring" unicode="&#x16e;" horiz-adv-x="617" 
d="M562 229q-16 -57 -43.5 -101t-64 -75t-81 -47t-93.5 -16q-66 0 -115.5 22.5t-78 64t-34.5 98.5t14 126l110 384h53l-111 -387q-17 -60 -13.5 -107.5t25 -81t60.5 -51.5t92 -18q82 0 142 52t88 149l127 444h53zM388 817q0 18 7 36t20 31.5t31 22t40 8.5q33 0 54 -20
t21 -52q0 -18 -7.5 -36t-20.5 -32t-31 -22.5t-40 -8.5q-33 0 -53.5 20.5t-20.5 52.5zM523 838q0 18 -11.5 29.5t-30.5 11.5q-25 0 -40.5 -18.5t-15.5 -38.5q0 -18 11.5 -30t30.5 -12q25 0 40.5 18.5t15.5 39.5z" />
    <glyph glyph-name="Utilde" unicode="&#x168;" horiz-adv-x="617" 
d="M562 229q-16 -57 -43.5 -101t-64 -75t-81 -47t-93.5 -16q-66 0 -115.5 22.5t-78 64t-34.5 98.5t14 126l110 384h53l-111 -387q-17 -60 -13.5 -107.5t25 -81t60.5 -51.5t92 -18q82 0 142 52t88 149l127 444h53zM334 814q20 20 40 27.5t43 7.5q20 0 34.5 -6t27 -12.5
t25.5 -12.5t30 -6q19 0 41.5 7.5t40.5 25.5l-13 -45q-38 -36 -84 -36q-20 0 -34.5 6t-27 13t-25.5 13t-29 6q-43 0 -82 -33z" />
    <glyph glyph-name="Wacute" unicode="&#x1e82;" horiz-adv-x="878" 
d="M542 604l-345 -604h-57l4 685h53l-9 -607l347 607h55l-4 -612l341 612h55l-385 -685h-57zM491 775l13 45l206 64l-14 -50z" />
    <glyph glyph-name="Wdieresis" unicode="&#x1e84;" horiz-adv-x="878" 
d="M542 604l-345 -604h-57l4 685h53l-9 -607l347 607h55l-4 -612l341 612h55l-385 -685h-57zM647 818l14 52h48l-14 -52h-48zM507 818l14 52h48l-14 -52h-48z" />
    <glyph glyph-name="Wgrave" unicode="&#x1e80;" horiz-adv-x="878" 
d="M542 604l-345 -604h-57l4 685h53l-9 -607l347 607h55l-4 -612l341 612h55l-385 -685h-57zM680 775l-171 59l14 50l170 -64z" />
    <glyph glyph-name="Wcircumflex" unicode="&#x174;" horiz-adv-x="878" 
d="M542 604l-345 -604h-57l4 685h53l-9 -607l347 607h55l-4 -612l341 612h55l-385 -685h-57zM619 880l100 -82l-13 -46l-97 75l-153 -79l16 54z" />
    <glyph glyph-name="Yacute" unicode="&#xdd;" horiz-adv-x="574" 
d="M276 307l-132 378h55l112 -332l299 332h66l-348 -380l-87 -305h-53zM337 775l13 45l206 64l-14 -50z" />
    <glyph glyph-name="Ycircumflex" unicode="&#x176;" horiz-adv-x="574" 
d="M276 307l-132 378h55l112 -332l299 332h66l-348 -380l-87 -305h-53zM465 880l100 -82l-13 -46l-97 75l-153 -79l16 54z" />
    <glyph glyph-name="Ydieresis" unicode="&#x178;" horiz-adv-x="574" 
d="M276 307l-132 378h55l112 -332l299 332h66l-348 -380l-87 -305h-53zM493 818l14 52h48l-14 -52h-48zM353 818l14 52h48l-14 -52h-48z" />
    <glyph glyph-name="Ygrave" unicode="&#x1ef2;" horiz-adv-x="574" 
d="M276 307l-132 378h55l112 -332l299 332h66l-348 -380l-87 -305h-53zM526 775l-171 59l14 50l170 -64z" />
    <glyph glyph-name="Zacute" unicode="&#x179;" horiz-adv-x="571" 
d="M31 49h466l-14 -49h-538l14 48l611 588h-424l14 49h495l-13 -48zM338 775l13 45l206 64l-14 -50z" />
    <glyph glyph-name="Zcaron" unicode="&#x17d;" horiz-adv-x="571" 
d="M31 49h466l-14 -49h-538l14 48l611 588h-424l14 49h495l-13 -48zM426 744l-100 82l13 46l97 -75l153 79l-16 -54z" />
    <glyph glyph-name="Zdotaccent" unicode="&#x17b;" horiz-adv-x="571" 
d="M31 49h466l-14 -49h-538l14 48l611 588h-424l14 49h495l-13 -48zM424 818l14 52h48l-14 -52h-48z" />
    <glyph glyph-name="a" unicode="a" horiz-adv-x="569" 
d="M484 287q0 38 -13 70t-36 55t-55.5 36t-71.5 13q-51 0 -95 -22t-76.5 -57t-50.5 -80t-18 -91q0 -36 12.5 -67.5t36 -54.5t56 -36t72.5 -13q51 0 94.5 21.5t76 56t50.5 79t18 90.5zM430 74q-36 -36 -84 -58.5t-105 -22.5q-50 0 -91 16.5t-70 45.5t-44.5 68.5t-15.5 85.5
q0 54 21.5 107.5t60 96t92 69t116.5 26.5q42 0 76 -11t59.5 -29.5t43 -43t26.5 -51.5l36 127h49l-142 -500h-49z" />
    <glyph glyph-name="b" unicode="b" horiz-adv-x="569" 
d="M259 -8q-42 0 -76 11t-59.5 29.5t-43 43t-26.5 51.5l-36 -127h-49l196 685h49l-74 -257q36 35 83.5 57t104.5 22q50 0 91 -16.5t70 -45.5t44.5 -68.5t15.5 -85.5q0 -54 -21.5 -107.5t-60 -96t-92 -69t-116.5 -26.5zM85 213q0 -38 13 -70t36 -55t55.5 -36t71.5 -13
q51 0 95 22t76.5 57t50.5 80t18 91q0 36 -12.5 67.5t-36 54.5t-56 36t-72.5 13q-51 0 -94.5 -21.5t-76 -56t-50.5 -79t-18 -90.5z" />
    <glyph glyph-name="c" unicode="c" horiz-adv-x="519" 
d="M247 -8q-53 0 -94.5 15.5t-70.5 43.5t-44.5 67.5t-15.5 86.5q0 60 22.5 115t62.5 96.5t94.5 66.5t119.5 25q74 0 126.5 -33t73.5 -93l-45 -24q-21 55 -61.5 78.5t-103.5 23.5q-52 0 -96 -21t-76.5 -55.5t-50.5 -80t-18 -94.5q0 -75 47 -122.5t134 -47.5q57 0 100.5 22.5
t78.5 62.5l35 -31q-41 -46 -94 -73.5t-124 -27.5z" />
    <glyph glyph-name="d" unicode="d" horiz-adv-x="569" 
d="M484 287q0 38 -13 70t-36 55t-55.5 36t-71.5 13q-51 0 -95 -22t-76.5 -57t-50.5 -80t-18 -91q0 -36 12.5 -67.5t36 -54.5t56 -36t72.5 -13q51 0 94.5 21.5t76 56t50.5 79t18 90.5zM430 74q-36 -36 -84 -58.5t-105 -22.5q-50 0 -91 16.5t-70 45.5t-44.5 68.5t-15.5 85.5
q0 54 21.5 107.5t60 96t92 69t116.5 26.5q42 0 76 -11t59.5 -29.5t43 -43t26.5 -51.5l89 312h49l-195 -685h-49z" />
    <glyph glyph-name="e" unicode="e" horiz-adv-x="550" 
d="M473 89q-44 -45 -97.5 -69.5t-119.5 -24.5q-54 0 -98 16t-74.5 44.5t-47 67.5t-16.5 85q0 55 21.5 108t60.5 95t93 68t118 26q49 0 89 -16t68.5 -44.5t44 -66.5t15.5 -81q0 -33 -9 -64h-452q-1 -6 -1 -12.5v-12.5q0 -40 15 -71t41.5 -52t62 -32t77.5 -11q56 0 98 21
t77 57zM312 458q-41 0 -78.5 -13.5t-68 -37.5t-53.5 -57t-34 -72h403v12q0 37 -11.5 68t-33.5 53t-53.5 34.5t-70.5 12.5z" />
    <glyph glyph-name="f" unicode="f" horiz-adv-x="289" 
d="M339 500l-12 -44h-126l-131 -456h-48l131 456h-73l12 44h73l10 33q12 43 31 72t43 47t52 25.5t58 7.5h32l-13 -47h-31q-46 0 -76.5 -24t-47.5 -81l-10 -33h126z" />
    <glyph glyph-name="g" unicode="g" horiz-adv-x="563" 
d="M477 288q0 37 -12.5 69t-35.5 55t-55.5 36t-71.5 13q-51 0 -94 -21.5t-74.5 -56t-49.5 -79t-18 -89.5q0 -36 12.5 -67.5t35.5 -54.5t55 -36t72 -13q47 0 90 20t75.5 53.5t51.5 77.5t19 93zM176 -187q-79 0 -131 34t-72 93l44 23q23 -57 64 -79.5t98 -22.5q42 0 79.5 13.5
t68 37.5t53 58t34.5 75l10 32q-36 -36 -83.5 -58t-103.5 -22q-50 0 -90.5 16.5t-69 45t-44 67.5t-15.5 85q0 55 21.5 108t59.5 95t91 68t115 26q81 0 133 -39t71 -96l36 127h49l-131 -461q-15 -53 -42.5 -95t-65 -71t-83 -44.5t-96.5 -15.5z" />
    <glyph glyph-name="h" unicode="h" 
d="M17 0h-49l196 685h49l-73 -254q30 35 73 56t99 21q42 0 75.5 -15t53.5 -42t25 -65.5t-8 -84.5l-87 -301h-49l86 297q23 77 -6 120.5t-100 43.5q-73 0 -126.5 -47t-76.5 -128z" />
    <glyph glyph-name="i" unicode="i" horiz-adv-x="129" 
d="M149 632l15 53h49l-15 -53h-49zM-32 0l143 500h49l-143 -500h-49z" />
    <glyph glyph-name="j" unicode="j" horiz-adv-x="129" 
d="M149 632l15 53h49l-15 -53h-49zM160 500l-154 -537q-12 -42 -32 -69t-44 -42t-49.5 -19t-48.5 -1l13 46q15 -2 31.5 0.5t32 12.5t28.5 29t22 50l152 530h49z" />
    <glyph glyph-name="k" unicode="k" horiz-adv-x="432" 
d="M86 240l-69 -240h-49l196 685h49l-121 -423l281 238h68l-299 -249l196 -251h-60z" />
    <glyph glyph-name="l" unicode="l" horiz-adv-x="129" 
d="M-32 0l196 685h49l-196 -685h-49z" />
    <glyph glyph-name="m" unicode="m" horiz-adv-x="793" 
d="M17 0h-49l143 500h49l-19 -68q29 34 69 55t94 21q53 0 90 -28.5t47 -79.5q29 45 79.5 76.5t113.5 31.5q39 0 69.5 -15t49 -42.5t23 -65.5t-8.5 -84l-86 -301h-49l85 297q23 76 -4.5 120t-90.5 44q-66 0 -116 -44t-72 -121l-85 -296h-49l85 297q11 38 9.5 68.5t-14 51.5
t-35 32.5t-53.5 11.5q-70 0 -120 -47t-73 -128z" />
    <glyph glyph-name="n" unicode="n" 
d="M17 0h-49l143 500h49l-20 -69q30 35 73 56t99 21q42 0 75.5 -15t53.5 -42t25 -65.5t-8 -84.5l-87 -301h-49l86 297q23 77 -6 120.5t-100 43.5q-75 0 -127.5 -47t-75.5 -128z" />
    <glyph glyph-name="o" unicode="o" horiz-adv-x="556" 
d="M311 508q51 0 92 -16.5t70 -45.5t44.5 -68.5t15.5 -85.5q0 -57 -22 -111t-61 -96t-92.5 -67t-114.5 -25q-50 0 -91 16.5t-70 45.5t-44.5 68.5t-15.5 85.5q0 57 22.5 111t61.5 96t91.5 67t113.5 25zM308 461q-50 0 -93.5 -21.5t-75.5 -56.5t-50.5 -79.5t-18.5 -90.5
q0 -37 12.5 -68.5t36 -55t56 -36.5t72.5 -13q51 0 94.5 21.5t75.5 56.5t50 79.5t18 90.5q0 37 -12.5 68.5t-35.5 54.5t-56 36.5t-73 13.5z" />
    <glyph glyph-name="p" unicode="p" horiz-adv-x="569" 
d="M84 214q0 -38 13 -70t36 -55t55.5 -36t71.5 -13q51 0 95 22t76.5 57t50.5 80t18 91q0 36 -12.5 67.5t-36 54.5t-56 36t-72.5 13q-51 0 -94.5 -21.5t-76 -56t-50.5 -79t-18 -90.5zM258 -7q-42 0 -76 11t-59.5 29.5t-43 43t-26.5 51.5l-86 -302h-49l192 674h49l-21 -73
q36 36 84 58.5t105 22.5q50 0 91 -16.5t70 -45.5t44.5 -68.5t15.5 -85.5q0 -54 -21.5 -107.5t-60 -96t-92 -69t-116.5 -26.5z" />
    <glyph glyph-name="q" unicode="q" horiz-adv-x="569" 
d="M358 -174l72 248q-36 -36 -84 -58.5t-105 -22.5q-50 0 -91 16.5t-70 45.5t-44.5 68.5t-15.5 85.5q0 54 21.5 107.5t60 96t92 69t116.5 26.5q42 0 76 -11t59.5 -29.5t43 -43t26.5 -51.5l36 127h49l-193 -674h-49zM484 287q0 38 -13 70t-36 55t-55.5 36t-71.5 13
q-51 0 -95 -22t-76.5 -57t-50.5 -80t-18 -91q0 -36 12.5 -67.5t36 -54.5t56 -36t72.5 -13q51 0 94.5 21.5t76 56t50.5 79t18 90.5z" />
    <glyph glyph-name="r" unicode="r" horiz-adv-x="278" 
d="M-32 0l143 500h49l-24 -88q11 13 28.5 29.5t41.5 31.5t54 25t67 10l-16 -54q-36 0 -69.5 -13t-62.5 -37t-50.5 -57.5t-33.5 -74.5l-78 -272h-49z" />
    <glyph glyph-name="s" unicode="s" horiz-adv-x="442" 
d="M51 152q0 -65 38.5 -92t106.5 -27q67 0 103 31.5t36 74.5q0 21 -10.5 36t-27.5 25.5t-39 18.5t-45 16q-62 20 -96.5 49.5t-34.5 77.5q0 30 12 56.5t34.5 47t54.5 32t73 11.5q36 0 68.5 -9.5t56.5 -28t37.5 -46.5t12.5 -65h-49q0 46 -33 75t-99 29q-58 0 -88 -28t-30 -68
q0 -20 9 -33.5t24 -24t34.5 -18t40.5 -14.5q31 -10 57.5 -21.5t46 -27t30.5 -35t11 -46.5q0 -32 -13 -61t-38 -50.5t-61 -34t-82 -12.5q-93 0 -142 42t-47 120h49z" />
    <glyph glyph-name="t" unicode="t" horiz-adv-x="304" 
d="M114 152q-9 -32 -6 -52t13.5 -32t26.5 -16.5t33 -4.5h37l-13 -47h-38q-26 0 -49.5 9t-38.5 28.5t-19 51.5t10 79l83 288h-73l12 44h73l42 145h48l-42 -145h136l-12 -44h-136z" />
    <glyph glyph-name="u" unicode="u" 
d="M342 69q-30 -35 -73 -56t-99 -21q-42 0 -75.5 15t-53.5 42t-25.5 65t8.5 85l87 301h49l-86 -297q-23 -77 6 -120.5t100 -43.5q75 0 127.5 47t75.5 128l82 286h49l-143 -500h-49z" />
    <glyph glyph-name="v" unicode="v" horiz-adv-x="467" 
d="M130 0l-42 500h50l36 -447l292 447h57l-331 -500h-62z" />
    <glyph glyph-name="w" unicode="w" horiz-adv-x="736" 
d="M420 435l-268 -435h-62l2 500h52l-7 -439l271 439h61l5 -441l259 441h55l-299 -500h-63z" />
    <glyph glyph-name="x" unicode="x" horiz-adv-x="472" 
d="M230 221l-223 -221h-66l267 263l-106 237h55l89 -206l204 206h66l-247 -247l112 -253h-54z" />
    <glyph glyph-name="y" unicode="y" horiz-adv-x="466" 
d="M520 500l-321 -490q-35 -54 -67.5 -91.5t-65.5 -59.5t-68 -29t-77 1l13 46q33 -5 60 0.5t51.5 23t48.5 46.5t53 71l-57 482h52l48 -423l274 423h56z" />
    <glyph glyph-name="z" unicode="z" horiz-adv-x="464" 
d="M38 44h336l-13 -44h-403l13 44l440 412h-309l12 44h375l-12 -44z" />
    <glyph glyph-name="k.alt" horiz-adv-x="432" 
d="M189 272l-124 -103l-48 -169h-49l196 685h49l-127 -445l307 260h68l-229 -192l106 -308h-60z" />
    <glyph glyph-name="aacute" unicode="&#xe1;" horiz-adv-x="569" 
d="M484 287q0 38 -13 70t-36 55t-55.5 36t-71.5 13q-51 0 -95 -22t-76.5 -57t-50.5 -80t-18 -91q0 -36 12.5 -67.5t36 -54.5t56 -36t72.5 -13q51 0 94.5 21.5t76 56t50.5 79t18 90.5zM430 74q-36 -36 -84 -58.5t-105 -22.5q-50 0 -91 16.5t-70 45.5t-44.5 68.5t-15.5 85.5
q0 54 21.5 107.5t60 96t92 69t116.5 26.5q42 0 76 -11t59.5 -29.5t43 -43t26.5 -51.5l36 127h49l-142 -500h-49zM258 590l13 45l206 64l-14 -50z" />
    <glyph glyph-name="abreve" unicode="&#x103;" horiz-adv-x="569" 
d="M484 287q0 38 -13 70t-36 55t-55.5 36t-71.5 13q-51 0 -95 -22t-76.5 -57t-50.5 -80t-18 -91q0 -36 12.5 -67.5t36 -54.5t56 -36t72.5 -13q51 0 94.5 21.5t76 56t50.5 79t18 90.5zM430 74q-36 -36 -84 -58.5t-105 -22.5q-50 0 -91 16.5t-70 45.5t-44.5 68.5t-15.5 85.5
q0 54 21.5 107.5t60 96t92 69t116.5 26.5q42 0 76 -11t59.5 -29.5t43 -43t26.5 -51.5l36 127h49l-142 -500h-49zM498 634q-26 -26 -62 -40.5t-79 -14.5q-24 0 -43.5 6t-33.5 15.5t-24 21t-15 22.5l11 41q7 -10 17 -20.5t24.5 -19.5t32 -14.5t39.5 -5.5q38 0 76 16.5t71 43.5
z" />
    <glyph glyph-name="acircumflex" unicode="&#xe2;" horiz-adv-x="569" 
d="M484 287q0 38 -13 70t-36 55t-55.5 36t-71.5 13q-51 0 -95 -22t-76.5 -57t-50.5 -80t-18 -91q0 -36 12.5 -67.5t36 -54.5t56 -36t72.5 -13q51 0 94.5 21.5t76 56t50.5 79t18 90.5zM430 74q-36 -36 -84 -58.5t-105 -22.5q-50 0 -91 16.5t-70 45.5t-44.5 68.5t-15.5 85.5
q0 54 21.5 107.5t60 96t92 69t116.5 26.5q42 0 76 -11t59.5 -29.5t43 -43t26.5 -51.5l36 127h49l-142 -500h-49zM386 695l100 -82l-13 -46l-97 75l-153 -79l16 54z" />
    <glyph glyph-name="adieresis" unicode="&#xe4;" horiz-adv-x="569" 
d="M484 287q0 38 -13 70t-36 55t-55.5 36t-71.5 13q-51 0 -95 -22t-76.5 -57t-50.5 -80t-18 -91q0 -36 12.5 -67.5t36 -54.5t56 -36t72.5 -13q51 0 94.5 21.5t76 56t50.5 79t18 90.5zM430 74q-36 -36 -84 -58.5t-105 -22.5q-50 0 -91 16.5t-70 45.5t-44.5 68.5t-15.5 85.5
q0 54 21.5 107.5t60 96t92 69t116.5 26.5q42 0 76 -11t59.5 -29.5t43 -43t26.5 -51.5l36 127h49l-142 -500h-49zM414 633l14 52h48l-14 -52h-48zM274 633l14 52h48l-14 -52h-48z" />
    <glyph glyph-name="ae" unicode="&#xe6;" horiz-adv-x="1003" 
d="M484 287q0 38 -13 70t-36 55t-55.5 36t-71.5 13q-51 0 -95 -22t-76.5 -57t-50.5 -80t-18 -91q0 -36 12.5 -67.5t36 -54.5t56 -36t72.5 -13q51 0 94.5 21.5t76 56t50.5 79t18 90.5zM772 459q-41 0 -78 -13.5t-68 -38t-53.5 -57.5t-33.5 -72h399v12q0 37 -11.5 68.5
t-33 53.5t-52 34.5t-69.5 12.5zM430 74q-36 -36 -84 -58.5t-105 -22.5q-50 0 -91 16.5t-70 45.5t-44.5 68.5t-15.5 85.5q0 54 21.5 107.5t60 96t92 69t116.5 26.5q42 0 76 -11t59.5 -29.5t43 -43t26.5 -51.5l36 127h49l-20 -72q38 35 86.5 56t106.5 21q49 0 89 -16
t68.5 -44.5t44 -66.5t15.5 -81q0 -33 -9 -64h-451q-1 -6 -1 -12.5v-12.5q0 -40 15 -71t41 -52t61.5 -32t77.5 -11q56 0 98 21t77 57l34 -31q-44 -45 -97.5 -69.5t-119.5 -24.5q-85 0 -141.5 36.5t-79.5 97.5l-37 -129h-49z" />
    <glyph glyph-name="agrave" unicode="&#xe0;" horiz-adv-x="569" 
d="M484 287q0 38 -13 70t-36 55t-55.5 36t-71.5 13q-51 0 -95 -22t-76.5 -57t-50.5 -80t-18 -91q0 -36 12.5 -67.5t36 -54.5t56 -36t72.5 -13q51 0 94.5 21.5t76 56t50.5 79t18 90.5zM430 74q-36 -36 -84 -58.5t-105 -22.5q-50 0 -91 16.5t-70 45.5t-44.5 68.5t-15.5 85.5
q0 54 21.5 107.5t60 96t92 69t116.5 26.5q42 0 76 -11t59.5 -29.5t43 -43t26.5 -51.5l36 127h49l-142 -500h-49zM447 590l-171 59l14 50l170 -64z" />
    <glyph glyph-name="amacron" unicode="&#x101;" horiz-adv-x="569" 
d="M484 287q0 38 -13 70t-36 55t-55.5 36t-71.5 13q-51 0 -95 -22t-76.5 -57t-50.5 -80t-18 -91q0 -36 12.5 -67.5t36 -54.5t56 -36t72.5 -13q51 0 94.5 21.5t76 56t50.5 79t18 90.5zM430 74q-36 -36 -84 -58.5t-105 -22.5q-50 0 -91 16.5t-70 45.5t-44.5 68.5t-15.5 85.5
q0 54 21.5 107.5t60 96t92 69t116.5 26.5q42 0 76 -11t59.5 -29.5t43 -43t26.5 -51.5l36 127h49l-142 -500h-49zM239 617l13 44h248l-13 -44h-248z" />
    <glyph glyph-name="aogonek" unicode="&#x105;" horiz-adv-x="569" 
d="M426 -157q-12 -7 -28.5 -13t-39.5 -6q-32 0 -51 16t-19 48q0 39 32.5 76.5t95.5 57.5l15 52q-36 -36 -84 -58.5t-105 -22.5q-50 0 -91 16.5t-70 45.5t-44.5 68.5t-15.5 85.5q0 54 21.5 107.5t60 96t92 69t116.5 26.5q42 0 76 -11t59.5 -29.5t43 -43t26.5 -51.5l36 127h49
l-142 -500h-25q-22 -8 -39 -19.5t-29 -25t-18 -27.5t-6 -26q0 -35 35 -35q17 0 33.5 4.5t26.5 11.5zM485 287q0 38 -13 70t-36 55t-55.5 36t-71.5 13q-51 0 -95 -22t-76.5 -57t-50.5 -80t-18 -91q0 -36 12.5 -67.5t36 -54.5t56 -36t72.5 -13q51 0 94.5 21.5t76 56t50.5 79
t18 90.5z" />
    <glyph glyph-name="aring" unicode="&#xe5;" horiz-adv-x="569" 
d="M484 287q0 38 -13 70t-36 55t-55.5 36t-71.5 13q-51 0 -95 -22t-76.5 -57t-50.5 -80t-18 -91q0 -36 12.5 -67.5t36 -54.5t56 -36t72.5 -13q51 0 94.5 21.5t76 56t50.5 79t18 90.5zM430 74q-36 -36 -84 -58.5t-105 -22.5q-50 0 -91 16.5t-70 45.5t-44.5 68.5t-15.5 85.5
q0 54 21.5 107.5t60 96t92 69t116.5 26.5q42 0 76 -11t59.5 -29.5t43 -43t26.5 -51.5l36 127h49l-142 -500h-49zM284 632q0 18 7 36t20 31.5t31 22t40 8.5q33 0 54 -20t21 -52q0 -18 -7.5 -36t-20.5 -32t-31 -22.5t-40 -8.5q-33 0 -53.5 20.5t-20.5 52.5zM419 653
q0 18 -11.5 29.5t-30.5 11.5q-25 0 -40.5 -18.5t-15.5 -38.5q0 -18 11.5 -30t30.5 -12q25 0 40.5 18.5t15.5 39.5z" />
    <glyph glyph-name="atilde" unicode="&#xe3;" horiz-adv-x="569" 
d="M484 287q0 38 -13 70t-36 55t-55.5 36t-71.5 13q-51 0 -95 -22t-76.5 -57t-50.5 -80t-18 -91q0 -36 12.5 -67.5t36 -54.5t56 -36t72.5 -13q51 0 94.5 21.5t76 56t50.5 79t18 90.5zM430 74q-36 -36 -84 -58.5t-105 -22.5q-50 0 -91 16.5t-70 45.5t-44.5 68.5t-15.5 85.5
q0 54 21.5 107.5t60 96t92 69t116.5 26.5q42 0 76 -11t59.5 -29.5t43 -43t26.5 -51.5l36 127h49l-142 -500h-49zM230 629q20 20 40 27.5t43 7.5q20 0 34.5 -6t27 -12.5t25.5 -12.5t30 -6q19 0 41.5 7.5t40.5 25.5l-13 -45q-38 -36 -84 -36q-20 0 -34.5 6t-27 13t-25.5 13
t-29 6q-43 0 -82 -33z" />
    <glyph glyph-name="cacute" unicode="&#x107;" horiz-adv-x="519" 
d="M247 -8q-53 0 -94.5 15.5t-70.5 43.5t-44.5 67.5t-15.5 86.5q0 60 22.5 115t62.5 96.5t94.5 66.5t119.5 25q74 0 126.5 -33t73.5 -93l-45 -24q-21 55 -61.5 78.5t-103.5 23.5q-52 0 -96 -21t-76.5 -55.5t-50.5 -80t-18 -94.5q0 -75 47 -122.5t134 -47.5q57 0 100.5 22.5
t78.5 62.5l35 -31q-41 -46 -94 -73.5t-124 -27.5zM267 590l13 45l206 64l-14 -50z" />
    <glyph glyph-name="ccaron" unicode="&#x10d;" horiz-adv-x="519" 
d="M247 -8q-53 0 -94.5 15.5t-70.5 43.5t-44.5 67.5t-15.5 86.5q0 60 22.5 115t62.5 96.5t94.5 66.5t119.5 25q74 0 126.5 -33t73.5 -93l-45 -24q-21 55 -61.5 78.5t-103.5 23.5q-52 0 -96 -21t-76.5 -55.5t-50.5 -80t-18 -94.5q0 -75 47 -122.5t134 -47.5q57 0 100.5 22.5
t78.5 62.5l35 -31q-41 -46 -94 -73.5t-124 -27.5zM355 559l-100 82l13 46l97 -75l153 79l-16 -54z" />
    <glyph glyph-name="ccedilla" unicode="&#xe7;" horiz-adv-x="519" 
d="M193 -209q-38 0 -61.5 20t-21.5 58h44q1 -20 12 -29t28 -9q20 0 33.5 13.5t13.5 32.5q0 16 -11 25.5t-28 9.5h-60l68 82q-89 11 -138.5 68t-49.5 143q0 60 22.5 115t62.5 96.5t94.5 66.5t119.5 25q74 0 126.5 -33t73.5 -93l-45 -24q-21 55 -61.5 78.5t-103.5 23.5
q-52 0 -96 -21t-76.5 -55.5t-50.5 -80t-18 -94.5q0 -75 47 -122.5t134 -47.5q57 0 100.5 22.5t78.5 62.5l35 -31q-40 -45 -91 -72t-120 -29l-33 -41q29 -3 46.5 -21t17.5 -50q0 -17 -6.5 -33t-18.5 -28.5t-29 -20t-38 -7.5z" />
    <glyph glyph-name="ccircumflex" unicode="&#x109;" horiz-adv-x="519" 
d="M247 -8q-53 0 -94.5 15.5t-70.5 43.5t-44.5 67.5t-15.5 86.5q0 60 22.5 115t62.5 96.5t94.5 66.5t119.5 25q74 0 126.5 -33t73.5 -93l-45 -24q-21 55 -61.5 78.5t-103.5 23.5q-52 0 -96 -21t-76.5 -55.5t-50.5 -80t-18 -94.5q0 -75 47 -122.5t134 -47.5q57 0 100.5 22.5
t78.5 62.5l35 -31q-41 -46 -94 -73.5t-124 -27.5zM395 695l100 -82l-13 -46l-97 75l-153 -79l16 54z" />
    <glyph glyph-name="cdotaccent" unicode="&#x10b;" horiz-adv-x="519" 
d="M247 -8q-53 0 -94.5 15.5t-70.5 43.5t-44.5 67.5t-15.5 86.5q0 60 22.5 115t62.5 96.5t94.5 66.5t119.5 25q74 0 126.5 -33t73.5 -93l-45 -24q-21 55 -61.5 78.5t-103.5 23.5q-52 0 -96 -21t-76.5 -55.5t-50.5 -80t-18 -94.5q0 -75 47 -122.5t134 -47.5q57 0 100.5 22.5
t78.5 62.5l35 -31q-41 -46 -94 -73.5t-124 -27.5zM353 633l14 52h48l-14 -52h-48z" />
    <glyph glyph-name="dcaron" unicode="&#x10f;" horiz-adv-x="664" 
d="M754 631l-41 -76h-27l38 72h-21l17 58h50l-16 -54v0zM484 287q0 38 -13 70t-36 55t-55.5 36t-71.5 13q-51 0 -95 -22t-76.5 -57t-50.5 -80t-18 -91q0 -36 12.5 -67.5t36 -54.5t56 -36t72.5 -13q51 0 94.5 21.5t76 56t50.5 79t18 90.5zM430 74q-36 -36 -84 -58.5
t-105 -22.5q-50 0 -91 16.5t-70 45.5t-44.5 68.5t-15.5 85.5q0 54 21.5 107.5t60 96t92 69t116.5 26.5q42 0 76 -11t59.5 -29.5t43 -43t26.5 -51.5l89 312h49l-195 -685h-49z" />
    <glyph glyph-name="dcroat" unicode="&#x111;" horiz-adv-x="569" 
d="M484 287q0 38 -13 70t-36 55t-55.5 36t-71.5 13q-51 0 -95 -22t-76.5 -57t-50.5 -80t-18 -91q0 -36 12.5 -67.5t36 -54.5t56 -36t72.5 -13q51 0 94.5 21.5t76 56t50.5 79t18 90.5zM430 74q-36 -36 -84 -58.5t-105 -22.5q-50 0 -91 16.5t-70 45.5t-44.5 68.5t-15.5 85.5
q0 54 21.5 107.5t60 96t92 69t116.5 26.5q42 0 76 -11t59.5 -29.5t43 -43t26.5 -51.5l52 181h-166l13 46h166l24 85h49l-24 -85h51l-13 -46h-51l-158 -554h-49z" />
    <glyph glyph-name="dotlessi" unicode="&#x131;" horiz-adv-x="129" 
d="M-32 0l143 500h49l-143 -500h-49z" />
    <glyph glyph-name="dotlessj" unicode="&#x237;" horiz-adv-x="129" 
d="M160 500l-154 -537q-12 -42 -32 -69t-44 -42t-49.5 -19t-48.5 -1l13 46q15 -2 31.5 0.5t32 12.5t28.5 29t22 50l152 530h49z" />
    <glyph glyph-name="eacute" unicode="&#xe9;" horiz-adv-x="550" 
d="M473 89q-44 -45 -97.5 -69.5t-119.5 -24.5q-54 0 -98 16t-74.5 44.5t-47 67.5t-16.5 85q0 55 21.5 108t60.5 95t93 68t118 26q49 0 89 -16t68.5 -44.5t44 -66.5t15.5 -81q0 -33 -9 -64h-452q-1 -6 -1 -12.5v-12.5q0 -40 15 -71t41.5 -52t62 -32t77.5 -11q56 0 98 21
t77 57zM312 458q-41 0 -78.5 -13.5t-68 -37.5t-53.5 -57t-34 -72h403v12q0 37 -11.5 68t-33.5 53t-53.5 34.5t-70.5 12.5zM264 590l13 45l206 64l-14 -50z" />
    <glyph glyph-name="ebreve" unicode="&#x115;" horiz-adv-x="550" 
d="M473 89q-44 -45 -97.5 -69.5t-119.5 -24.5q-54 0 -98 16t-74.5 44.5t-47 67.5t-16.5 85q0 55 21.5 108t60.5 95t93 68t118 26q49 0 89 -16t68.5 -44.5t44 -66.5t15.5 -81q0 -33 -9 -64h-452q-1 -6 -1 -12.5v-12.5q0 -40 15 -71t41.5 -52t62 -32t77.5 -11q56 0 98 21
t77 57zM312 458q-41 0 -78.5 -13.5t-68 -37.5t-53.5 -57t-34 -72h403v12q0 37 -11.5 68t-33.5 53t-53.5 34.5t-70.5 12.5zM504 634q-26 -26 -62 -40.5t-79 -14.5q-24 0 -43.5 6t-33.5 15.5t-24 21t-15 22.5l11 41q7 -10 17 -20.5t24.5 -19.5t32 -14.5t39.5 -5.5
q38 0 76 16.5t71 43.5z" />
    <glyph glyph-name="ecaron" unicode="&#x11b;" horiz-adv-x="550" 
d="M473 89q-44 -45 -97.5 -69.5t-119.5 -24.5q-54 0 -98 16t-74.5 44.5t-47 67.5t-16.5 85q0 55 21.5 108t60.5 95t93 68t118 26q49 0 89 -16t68.5 -44.5t44 -66.5t15.5 -81q0 -33 -9 -64h-452q-1 -6 -1 -12.5v-12.5q0 -40 15 -71t41.5 -52t62 -32t77.5 -11q56 0 98 21
t77 57zM312 458q-41 0 -78.5 -13.5t-68 -37.5t-53.5 -57t-34 -72h403v12q0 37 -11.5 68t-33.5 53t-53.5 34.5t-70.5 12.5zM352 559l-100 82l13 46l97 -75l153 79l-16 -54z" />
    <glyph glyph-name="ecircumflex" unicode="&#xea;" horiz-adv-x="550" 
d="M473 89q-44 -45 -97.5 -69.5t-119.5 -24.5q-54 0 -98 16t-74.5 44.5t-47 67.5t-16.5 85q0 55 21.5 108t60.5 95t93 68t118 26q49 0 89 -16t68.5 -44.5t44 -66.5t15.5 -81q0 -33 -9 -64h-452q-1 -6 -1 -12.5v-12.5q0 -40 15 -71t41.5 -52t62 -32t77.5 -11q56 0 98 21
t77 57zM312 458q-41 0 -78.5 -13.5t-68 -37.5t-53.5 -57t-34 -72h403v12q0 37 -11.5 68t-33.5 53t-53.5 34.5t-70.5 12.5zM392 695l100 -82l-13 -46l-97 75l-153 -79l16 54z" />
    <glyph glyph-name="edieresis" unicode="&#xeb;" horiz-adv-x="550" 
d="M473 89q-44 -45 -97.5 -69.5t-119.5 -24.5q-54 0 -98 16t-74.5 44.5t-47 67.5t-16.5 85q0 55 21.5 108t60.5 95t93 68t118 26q49 0 89 -16t68.5 -44.5t44 -66.5t15.5 -81q0 -33 -9 -64h-452q-1 -6 -1 -12.5v-12.5q0 -40 15 -71t41.5 -52t62 -32t77.5 -11q56 0 98 21
t77 57zM312 458q-41 0 -78.5 -13.5t-68 -37.5t-53.5 -57t-34 -72h403v12q0 37 -11.5 68t-33.5 53t-53.5 34.5t-70.5 12.5zM420 633l14 52h48l-14 -52h-48zM280 633l14 52h48l-14 -52h-48z" />
    <glyph glyph-name="edotaccent" unicode="&#x117;" horiz-adv-x="550" 
d="M473 89q-44 -45 -97.5 -69.5t-119.5 -24.5q-54 0 -98 16t-74.5 44.5t-47 67.5t-16.5 85q0 55 21.5 108t60.5 95t93 68t118 26q49 0 89 -16t68.5 -44.5t44 -66.5t15.5 -81q0 -33 -9 -64h-452q-1 -6 -1 -12.5v-12.5q0 -40 15 -71t41.5 -52t62 -32t77.5 -11q56 0 98 21
t77 57zM312 458q-41 0 -78.5 -13.5t-68 -37.5t-53.5 -57t-34 -72h403v12q0 37 -11.5 68t-33.5 53t-53.5 34.5t-70.5 12.5zM350 633l14 52h48l-14 -52h-48z" />
    <glyph glyph-name="egrave" unicode="&#xe8;" horiz-adv-x="550" 
d="M473 89q-44 -45 -97.5 -69.5t-119.5 -24.5q-54 0 -98 16t-74.5 44.5t-47 67.5t-16.5 85q0 55 21.5 108t60.5 95t93 68t118 26q49 0 89 -16t68.5 -44.5t44 -66.5t15.5 -81q0 -33 -9 -64h-452q-1 -6 -1 -12.5v-12.5q0 -40 15 -71t41.5 -52t62 -32t77.5 -11q56 0 98 21
t77 57zM312 458q-41 0 -78.5 -13.5t-68 -37.5t-53.5 -57t-34 -72h403v12q0 37 -11.5 68t-33.5 53t-53.5 34.5t-70.5 12.5zM453 590l-171 59l14 50l170 -64z" />
    <glyph glyph-name="emacron" unicode="&#x113;" horiz-adv-x="550" 
d="M473 89q-44 -45 -97.5 -69.5t-119.5 -24.5q-54 0 -98 16t-74.5 44.5t-47 67.5t-16.5 85q0 55 21.5 108t60.5 95t93 68t118 26q49 0 89 -16t68.5 -44.5t44 -66.5t15.5 -81q0 -33 -9 -64h-452q-1 -6 -1 -12.5v-12.5q0 -40 15 -71t41.5 -52t62 -32t77.5 -11q56 0 98 21
t77 57zM312 458q-41 0 -78.5 -13.5t-68 -37.5t-53.5 -57t-34 -72h403v12q0 37 -11.5 68t-33.5 53t-53.5 34.5t-70.5 12.5zM245 617l13 44h248l-13 -44h-248z" />
    <glyph glyph-name="eng" unicode="&#x14b;" 
d="M361 -37q-12 -42 -32 -69t-44 -42t-49.5 -19t-48.5 -1l13 46q15 -2 31.5 0.5t31.5 12.5t28.5 29t22.5 50l94 327q22 77 -6.5 120.5t-99.5 43.5q-75 0 -127.5 -47t-75.5 -128l-82 -286h-49l143 500h49l-20 -69q30 35 73 56t99 21q42 0 75.5 -15t53.5 -42t25 -65.5
t-8 -84.5l-97 -338v0z" />
    <glyph glyph-name="eogonek" unicode="&#x119;" horiz-adv-x="550" 
d="M229 -176q-35 0 -55 16t-20 48q0 29 21.5 57.5t63.5 50.5q-51 3 -91 19.5t-68.5 44.5t-43.5 66t-15 82q0 55 21.5 108t60.5 95t93 68t118 26q49 0 89 -16t68.5 -44.5t44 -66.5t15.5 -81q0 -33 -9 -64h-452q-1 -6 -1 -12.5v-12.5q0 -40 15 -71t41.5 -52t62 -32t77.5 -11
q56 0 98 21t77 57l34 -31q-35 -35 -76 -58.5t-91 -31.5q-23 -8 -41.5 -20t-31.5 -25t-19.5 -26.5t-6.5 -25.5q0 -35 40 -35q18 0 36 4.5t29 11.5l-11 -40q-13 -8 -31 -13.5t-42 -5.5zM313 458q-41 0 -78.5 -13.5t-68 -37.5t-53.5 -57t-34 -72h403v12q0 37 -11.5 68t-33.5 53
t-53.5 34.5t-70.5 12.5z" />
    <glyph glyph-name="eth" unicode="&#xf0;" horiz-adv-x="556" 
d="M243 -7q-50 0 -91 16.5t-70 45.5t-44.5 68.5t-15.5 85.5q0 57 22.5 111t61.5 96t91.5 67t113.5 25q84 0 140 -45l-36 110l-112 -24l13 43l87 19l-23 74h51l20 -63l125 27l-12 -43l-101 -22l55 -171q8 -23 13 -48t5 -52q0 -64 -22 -122t-61 -102t-92.5 -70t-117.5 -26z
M308 461q-50 0 -93.5 -21.5t-75.5 -56.5t-50.5 -79.5t-18.5 -90.5q0 -37 12.5 -68.5t36 -55t56 -36.5t72.5 -13q51 0 94.5 21.5t75.5 57t50.5 80t18.5 91.5q0 37 -12 68t-35 54t-56 36t-75 13z" />
    <glyph glyph-name="schwa" unicode="&#x259;" horiz-adv-x="550" 
d="M76 412q44 45 97.5 69.5t119.5 24.5q54 0 98 -16t74.5 -44.5t47 -67.5t16.5 -85q0 -55 -21.5 -108t-60.5 -95t-93 -68t-118 -26q-49 0 -89 16t-68.5 44.5t-44 66t-15.5 81.5q0 32 9 64h452q1 6 1 12.5v12.5q0 40 -15 71t-41.5 52t-62 32t-77.5 11q-56 0 -98 -21t-77 -57z
M237 43q41 0 78.5 13.5t68 37.5t53.5 57t34 72h-403v-12q0 -37 11.5 -68t33.5 -53t53.5 -34.5t70.5 -12.5z" />
    <glyph glyph-name="gbreve" unicode="&#x11f;" horiz-adv-x="563" 
d="M477 288q0 37 -12.5 69t-35.5 55t-55.5 36t-71.5 13q-51 0 -94 -21.5t-74.5 -56t-49.5 -79t-18 -89.5q0 -36 12.5 -67.5t35.5 -54.5t55 -36t72 -13q47 0 90 20t75.5 53.5t51.5 77.5t19 93zM176 -187q-79 0 -131 34t-72 93l44 23q23 -57 64 -79.5t98 -22.5q42 0 79.5 13.5
t68 37.5t53 58t34.5 75l10 32q-36 -36 -83.5 -58t-103.5 -22q-50 0 -90.5 16.5t-69 45t-44 67.5t-15.5 85q0 55 21.5 108t59.5 95t91 68t115 26q81 0 133 -39t71 -96l36 127h49l-131 -461q-15 -53 -42.5 -95t-65 -71t-83 -44.5t-96.5 -15.5zM495 634q-26 -26 -62 -40.5
t-79 -14.5q-24 0 -43.5 6t-33.5 15.5t-24 21t-15 22.5l11 41q7 -10 17 -20.5t24.5 -19.5t32 -14.5t39.5 -5.5q38 0 76 16.5t71 43.5z" />
    <glyph glyph-name="gcircumflex" unicode="&#x11d;" horiz-adv-x="563" 
d="M477 288q0 37 -12.5 69t-35.5 55t-55.5 36t-71.5 13q-51 0 -94 -21.5t-74.5 -56t-49.5 -79t-18 -89.5q0 -36 12.5 -67.5t35.5 -54.5t55 -36t72 -13q47 0 90 20t75.5 53.5t51.5 77.5t19 93zM176 -187q-79 0 -131 34t-72 93l44 23q23 -57 64 -79.5t98 -22.5q42 0 79.5 13.5
t68 37.5t53 58t34.5 75l10 32q-36 -36 -83.5 -58t-103.5 -22q-50 0 -90.5 16.5t-69 45t-44 67.5t-15.5 85q0 55 21.5 108t59.5 95t91 68t115 26q81 0 133 -39t71 -96l36 127h49l-131 -461q-15 -53 -42.5 -95t-65 -71t-83 -44.5t-96.5 -15.5zM383 695l100 -82l-13 -46l-97 75
l-153 -79l16 54z" />
    <glyph glyph-name="gcommaaccent" unicode="&#x123;" horiz-adv-x="563" 
d="M393 763h27l-37 -72h21l-17 -58h-50l16 54zM477 288q0 37 -12.5 69t-35.5 55t-55.5 36t-71.5 13q-51 0 -94 -21.5t-74.5 -56t-49.5 -79t-18 -89.5q0 -36 12.5 -67.5t35.5 -54.5t55 -36t72 -13q47 0 90 20t75.5 53.5t51.5 77.5t19 93zM176 -187q-79 0 -131 34t-72 93
l44 23q23 -57 64 -79.5t98 -22.5q42 0 79.5 13.5t68 37.5t53 58t34.5 75l10 32q-36 -36 -83.5 -58t-103.5 -22q-50 0 -90.5 16.5t-69 45t-44 67.5t-15.5 85q0 55 21.5 108t59.5 95t91 68t115 26q81 0 133 -39t71 -96l36 127h49l-131 -461q-15 -53 -42.5 -95t-65 -71
t-83 -44.5t-96.5 -15.5z" />
    <glyph glyph-name="gdotaccent" unicode="&#x121;" horiz-adv-x="563" 
d="M477 288q0 37 -12.5 69t-35.5 55t-55.5 36t-71.5 13q-51 0 -94 -21.5t-74.5 -56t-49.5 -79t-18 -89.5q0 -36 12.5 -67.5t35.5 -54.5t55 -36t72 -13q47 0 90 20t75.5 53.5t51.5 77.5t19 93zM176 -187q-79 0 -131 34t-72 93l44 23q23 -57 64 -79.5t98 -22.5q42 0 79.5 13.5
t68 37.5t53 58t34.5 75l10 32q-36 -36 -83.5 -58t-103.5 -22q-50 0 -90.5 16.5t-69 45t-44 67.5t-15.5 85q0 55 21.5 108t59.5 95t91 68t115 26q81 0 133 -39t71 -96l36 127h49l-131 -461q-15 -53 -42.5 -95t-65 -71t-83 -44.5t-96.5 -15.5zM341 633l14 52h48l-14 -52h-48z
" />
    <glyph glyph-name="germandbls" unicode="&#xdf;" horiz-adv-x="456" 
d="M17 0h-49l149 527q11 39 31 68.5t46 50t57 30.5t64 10t60.5 -11t48 -30t32 -46t11.5 -58q0 -33 -10.5 -62t-28 -52t-41 -40.5t-49.5 -29.5q37 -22 58.5 -56.5t21.5 -81.5q0 -46 -18.5 -86t-52.5 -69.5t-81 -46.5t-105 -17h-54l13 44h53q39 0 74.5 11.5t62.5 34t43 54.5
t16 73q0 50 -30 84.5t-83 34.5h-52l13 47h35q35 0 65.5 12.5t53.5 33.5t36 49t13 58q0 47 -32.5 76t-78.5 29q-47 0 -87 -29t-58 -92z" />
    <glyph glyph-name="hbar" unicode="&#x127;" 
d="M17 0h-49l159 554h-39l13 46h39l24 85h49l-24 -85h179l-13 -46h-179l-36 -123q30 35 73 56t99 21q42 0 75.5 -15t53.5 -42t25 -65.5t-8 -84.5l-87 -301h-49l86 297q23 77 -6 120.5t-100 43.5q-73 0 -126.5 -47t-76.5 -128z" />
    <glyph glyph-name="hcircumflex" unicode="&#x125;" 
d="M17 0h-49l196 685h49l-73 -254q30 35 73 56t99 21q42 0 75.5 -15t53.5 -42t25 -65.5t-8 -84.5l-87 -301h-49l86 297q23 77 -6 120.5t-100 43.5q-73 0 -126.5 -47t-76.5 -128zM249 880l100 -82l-13 -46l-97 75l-153 -79l16 54z" />
    <glyph glyph-name="iacute" unicode="&#xed;" horiz-adv-x="129" 
d="M-32 0l143 500h49l-143 -500h-49zM67 590l13 45l206 64l-14 -50z" />
    <glyph glyph-name="ibreve" unicode="&#x12d;" horiz-adv-x="129" 
d="M-32 0l143 500h49l-143 -500h-49zM307 634q-26 -26 -62 -40.5t-79 -14.5q-24 0 -43.5 6t-33.5 15.5t-24 21t-15 22.5l11 41q7 -10 17 -20.5t24.5 -19.5t32 -14.5t39.5 -5.5q38 0 76 16.5t71 43.5z" />
    <glyph glyph-name="icircumflex" unicode="&#xee;" horiz-adv-x="129" 
d="M-32 0l143 500h49l-143 -500h-49zM195 695l100 -82l-13 -46l-97 75l-153 -79l16 54z" />
    <glyph glyph-name="idieresis" unicode="&#xef;" horiz-adv-x="129" 
d="M-32 0l143 500h49l-143 -500h-49zM223 633l14 52h48l-14 -52h-48zM83 633l14 52h48l-14 -52h-48z" />
    <glyph glyph-name="igrave" unicode="&#xec;" horiz-adv-x="129" 
d="M-32 0l143 500h49l-143 -500h-49zM256 590l-171 59l14 50l170 -64z" />
    <glyph glyph-name="ij" unicode="&#x133;" horiz-adv-x="258" 
d="M149 632l15 53h49l-15 -53h-49zM-32 0l143 500h49l-143 -500h-49zM278 632l15 53h49l-15 -53h-49zM289 500l-154 -537q-12 -42 -32 -69t-44 -42t-49.5 -19t-48.5 -1l13 46q15 -2 31.5 0.5t32 12.5t28.5 29t22 50l152 530h49z" />
    <glyph glyph-name="imacron" unicode="&#x12b;" horiz-adv-x="129" 
d="M-32 0l143 500h49l-143 -500h-49zM48 617l13 44h248l-13 -44h-248z" />
    <glyph glyph-name="iogonek" unicode="&#x12f;" horiz-adv-x="129" 
d="M150 632l15 53h49l-15 -53h-49zM5 -157q-13 -8 -31 -13.5t-42 -5.5q-35 0 -55 16t-20 48q0 35 29.5 67t85.5 54l140 491h49l-143 -500h-5q-24 -8 -43 -20t-32 -25.5t-20 -27t-7 -25.5q0 -35 40 -35q18 0 36 4.5t29 11.5z" />
    <glyph glyph-name="itilde" unicode="&#x129;" horiz-adv-x="129" 
d="M-32 0l143 500h49l-143 -500h-49zM39 629q20 20 40 27.5t43 7.5q20 0 34.5 -6t27 -12.5t25.5 -12.5t30 -6q19 0 41.5 7.5t40.5 25.5l-13 -45q-38 -36 -84 -36q-20 0 -34.5 6t-27 13t-25.5 13t-29 6q-43 0 -82 -33z" />
    <glyph glyph-name="jcircumflex" unicode="&#x135;" horiz-adv-x="129" 
d="M195 695l100 -82l-13 -46l-97 75l-153 -79l16 54zM160 500l-154 -537q-12 -42 -32 -69t-44 -42t-49.5 -19t-48.5 -1l13 46q15 -2 31.5 0.5t32 12.5t28.5 29t22 50l152 530h49z" />
    <glyph glyph-name="kcommaaccent" unicode="&#x137;" horiz-adv-x="432" 
d="M86 240l-69 -240h-49l196 685h49l-121 -423l281 238h68l-299 -249l196 -251h-60zM91 -193h-27l37 72h-21l17 58h50l-16 -54z" />
    <glyph glyph-name="kgreenlandic" unicode="&#x138;" horiz-adv-x="432" 
d="M86 240l-69 -240h-49l143 500h49l-68 -238l281 238h68l-299 -249l196 -251h-60z" />
    <glyph glyph-name="lacute" unicode="&#x13a;" horiz-adv-x="129" 
d="M-32 0l196 685h49l-196 -685h-49zM119 775l13 45l206 64l-14 -50z" />
    <glyph glyph-name="lcaron" unicode="&#x13e;" horiz-adv-x="234" 
d="M314 631l-41 -76h-27l38 72h-21l17 58h50l-16 -54v0zM-32 0l196 685h49l-196 -685h-49z" />
    <glyph glyph-name="lcommaaccent" unicode="&#x13c;" horiz-adv-x="129" 
d="M-32 0l196 685h49l-196 -685h-49zM-55 -193h-27l37 72h-21l17 58h50l-16 -54z" />
    <glyph glyph-name="ldot" unicode="&#x140;" horiz-adv-x="204" 
d="M-32 0l196 685h49l-196 -685h-49zM145 264l14 52h48l-14 -52h-48z" />
    <glyph glyph-name="lslash" unicode="&#x142;" horiz-adv-x="129" 
d="M129 390l-112 -390h-49l102 355l-42 -25l14 50l42 25l80 280h49l-70 -245l42 25l-14 -50z" />
    <glyph glyph-name="nacute" unicode="&#x144;" 
d="M17 0h-49l143 500h49l-20 -69q30 35 73 56t99 21q42 0 75.5 -15t53.5 -42t25 -65.5t-8 -84.5l-87 -301h-49l86 297q23 77 -6 120.5t-100 43.5q-75 0 -127.5 -47t-75.5 -128zM248 590l13 45l206 64l-14 -50z" />
    <glyph glyph-name="napostrophe" unicode="&#x149;" 
d="M17 0h-49l143 500h49l-20 -69q30 35 73 56t99 21q42 0 75.5 -15t53.5 -42t25 -65.5t-8 -84.5l-87 -301h-49l86 297q23 77 -6 120.5t-100 43.5q-75 0 -127.5 -47t-75.5 -128zM171 620h-27l37 72h-21l17 58h50l-16 -54z" />
    <glyph glyph-name="ncaron" unicode="&#x148;" 
d="M17 0h-49l143 500h49l-20 -69q30 35 73 56t99 21q42 0 75.5 -15t53.5 -42t25 -65.5t-8 -84.5l-87 -301h-49l86 297q23 77 -6 120.5t-100 43.5q-75 0 -127.5 -47t-75.5 -128zM336 559l-100 82l13 46l97 -75l153 79l-16 -54z" />
    <glyph glyph-name="ncommaaccent" unicode="&#x146;" 
d="M17 0h-49l143 500h49l-20 -69q30 35 73 56t99 21q42 0 75.5 -15t53.5 -42t25 -65.5t-8 -84.5l-87 -301h-49l86 297q23 77 -6 120.5t-100 43.5q-75 0 -127.5 -47t-75.5 -128zM125 -193h-27l37 72h-21l17 58h50l-16 -54z" />
    <glyph glyph-name="ntilde" unicode="&#xf1;" 
d="M17 0h-49l143 500h49l-20 -69q30 35 73 56t99 21q42 0 75.5 -15t53.5 -42t25 -65.5t-8 -84.5l-87 -301h-49l86 297q23 77 -6 120.5t-100 43.5q-75 0 -127.5 -47t-75.5 -128zM220 629q20 20 40 27.5t43 7.5q20 0 34.5 -6t27 -12.5t25.5 -12.5t30 -6q19 0 41.5 7.5
t40.5 25.5l-13 -45q-38 -36 -84 -36q-20 0 -34.5 6t-27 13t-25.5 13t-29 6q-43 0 -82 -33z" />
    <glyph glyph-name="oacute" unicode="&#xf3;" horiz-adv-x="556" 
d="M311 508q51 0 92 -16.5t70 -45.5t44.5 -68.5t15.5 -85.5q0 -57 -22 -111t-61 -96t-92.5 -67t-114.5 -25q-50 0 -91 16.5t-70 45.5t-44.5 68.5t-15.5 85.5q0 57 22.5 111t61.5 96t91.5 67t113.5 25zM308 461q-50 0 -93.5 -21.5t-75.5 -56.5t-50.5 -79.5t-18.5 -90.5
q0 -37 12.5 -68.5t36 -55t56 -36.5t72.5 -13q51 0 94.5 21.5t75.5 56.5t50 79.5t18 90.5q0 37 -12.5 68.5t-35.5 54.5t-56 36.5t-73 13.5zM265 590l13 45l206 64l-14 -50z" />
    <glyph glyph-name="obreve" unicode="&#x14f;" horiz-adv-x="556" 
d="M311 508q51 0 92 -16.5t70 -45.5t44.5 -68.5t15.5 -85.5q0 -57 -22 -111t-61 -96t-92.5 -67t-114.5 -25q-50 0 -91 16.5t-70 45.5t-44.5 68.5t-15.5 85.5q0 57 22.5 111t61.5 96t91.5 67t113.5 25zM308 461q-50 0 -93.5 -21.5t-75.5 -56.5t-50.5 -79.5t-18.5 -90.5
q0 -37 12.5 -68.5t36 -55t56 -36.5t72.5 -13q51 0 94.5 21.5t75.5 56.5t50 79.5t18 90.5q0 37 -12.5 68.5t-35.5 54.5t-56 36.5t-73 13.5zM505 634q-26 -26 -62 -40.5t-79 -14.5q-24 0 -43.5 6t-33.5 15.5t-24 21t-15 22.5l11 41q7 -10 17 -20.5t24.5 -19.5t32 -14.5
t39.5 -5.5q38 0 76 16.5t71 43.5z" />
    <glyph glyph-name="ocircumflex" unicode="&#xf4;" horiz-adv-x="556" 
d="M311 508q51 0 92 -16.5t70 -45.5t44.5 -68.5t15.5 -85.5q0 -57 -22 -111t-61 -96t-92.5 -67t-114.5 -25q-50 0 -91 16.5t-70 45.5t-44.5 68.5t-15.5 85.5q0 57 22.5 111t61.5 96t91.5 67t113.5 25zM308 461q-50 0 -93.5 -21.5t-75.5 -56.5t-50.5 -79.5t-18.5 -90.5
q0 -37 12.5 -68.5t36 -55t56 -36.5t72.5 -13q51 0 94.5 21.5t75.5 56.5t50 79.5t18 90.5q0 37 -12.5 68.5t-35.5 54.5t-56 36.5t-73 13.5zM393 695l100 -82l-13 -46l-97 75l-153 -79l16 54z" />
    <glyph glyph-name="odieresis" unicode="&#xf6;" horiz-adv-x="556" 
d="M311 508q51 0 92 -16.5t70 -45.5t44.5 -68.5t15.5 -85.5q0 -57 -22 -111t-61 -96t-92.5 -67t-114.5 -25q-50 0 -91 16.5t-70 45.5t-44.5 68.5t-15.5 85.5q0 57 22.5 111t61.5 96t91.5 67t113.5 25zM308 461q-50 0 -93.5 -21.5t-75.5 -56.5t-50.5 -79.5t-18.5 -90.5
q0 -37 12.5 -68.5t36 -55t56 -36.5t72.5 -13q51 0 94.5 21.5t75.5 56.5t50 79.5t18 90.5q0 37 -12.5 68.5t-35.5 54.5t-56 36.5t-73 13.5zM421 633l14 52h48l-14 -52h-48zM281 633l14 52h48l-14 -52h-48z" />
    <glyph glyph-name="oe" unicode="&#x153;" horiz-adv-x="1006" 
d="M308 461q-50 0 -93.5 -21.5t-75.5 -56.5t-50.5 -79.5t-18.5 -90.5q0 -37 12.5 -68.5t36 -55t56 -36.5t72.5 -13q51 0 94.5 21.5t75.5 56.5t50 79.5t18 90.5q0 37 -12.5 68.5t-35.5 54.5t-56 36.5t-73 13.5zM772 458q-41 0 -78.5 -13.5t-68 -37.5t-53.5 -57t-34 -72h403
v12q0 37 -11.5 68t-33.5 53t-53.5 34.5t-70.5 12.5zM716 -5q-88 0 -146.5 39.5t-79.5 105.5q-38 -64 -102.5 -105.5t-144.5 -41.5q-50 0 -91 16.5t-70 45.5t-44.5 68.5t-15.5 85.5q0 57 22.5 111t61.5 96t91.5 67t113.5 25q82 0 137.5 -41.5t74.5 -107.5q19 31 45 58
t57.5 46.5t69 30.5t78.5 11q49 0 89 -16t68.5 -44.5t44 -66.5t15.5 -81q0 -33 -9 -64h-452q-1 -6 -1 -12.5v-12.5q0 -40 15 -71t41.5 -52t62 -32t77.5 -11q56 0 98 21t77 57l34 -31q-44 -45 -97.5 -69.5t-119.5 -24.5z" />
    <glyph glyph-name="ograve" unicode="&#xf2;" horiz-adv-x="556" 
d="M311 508q51 0 92 -16.5t70 -45.5t44.5 -68.5t15.5 -85.5q0 -57 -22 -111t-61 -96t-92.5 -67t-114.5 -25q-50 0 -91 16.5t-70 45.5t-44.5 68.5t-15.5 85.5q0 57 22.5 111t61.5 96t91.5 67t113.5 25zM308 461q-50 0 -93.5 -21.5t-75.5 -56.5t-50.5 -79.5t-18.5 -90.5
q0 -37 12.5 -68.5t36 -55t56 -36.5t72.5 -13q51 0 94.5 21.5t75.5 56.5t50 79.5t18 90.5q0 37 -12.5 68.5t-35.5 54.5t-56 36.5t-73 13.5zM454 590l-171 59l14 50l170 -64z" />
    <glyph glyph-name="ohungarumlaut" unicode="&#x151;" horiz-adv-x="556" 
d="M311 508q51 0 92 -16.5t70 -45.5t44.5 -68.5t15.5 -85.5q0 -57 -22 -111t-61 -96t-92.5 -67t-114.5 -25q-50 0 -91 16.5t-70 45.5t-44.5 68.5t-15.5 85.5q0 57 22.5 111t61.5 96t91.5 67t113.5 25zM308 461q-50 0 -93.5 -21.5t-75.5 -56.5t-50.5 -79.5t-18.5 -90.5
q0 -37 12.5 -68.5t36 -55t56 -36.5t72.5 -13q51 0 94.5 21.5t75.5 56.5t50 79.5t18 90.5q0 37 -12.5 68.5t-35.5 54.5t-56 36.5t-73 13.5zM374 558l95 147h47l-99 -147h-43zM274 558l88 147h49l-92 -147h-45z" />
    <glyph glyph-name="omacron" unicode="&#x14d;" horiz-adv-x="556" 
d="M311 508q51 0 92 -16.5t70 -45.5t44.5 -68.5t15.5 -85.5q0 -57 -22 -111t-61 -96t-92.5 -67t-114.5 -25q-50 0 -91 16.5t-70 45.5t-44.5 68.5t-15.5 85.5q0 57 22.5 111t61.5 96t91.5 67t113.5 25zM308 461q-50 0 -93.5 -21.5t-75.5 -56.5t-50.5 -79.5t-18.5 -90.5
q0 -37 12.5 -68.5t36 -55t56 -36.5t72.5 -13q51 0 94.5 21.5t75.5 56.5t50 79.5t18 90.5q0 37 -12.5 68.5t-35.5 54.5t-56 36.5t-73 13.5zM246 617l13 44h248l-13 -44h-248z" />
    <glyph glyph-name="oslash" unicode="&#xf8;" horiz-adv-x="556" 
d="M70 213q0 -69 42 -116l309 329q-23 17 -51 26t-62 9q-50 0 -93.5 -21.5t-75.5 -56.5t-50.5 -79.5t-18.5 -90.5zM247 40q51 0 94.5 21.5t75.5 56.5t50 79.5t18 90.5q0 62 -33 106l-306 -326q42 -28 101 -28zM243 -7q-39 0 -72.5 10t-59.5 28l-67 -71h-61l94 100
q-26 29 -40.5 67t-14.5 82q0 57 22.5 111t61.5 96t91.5 67t113.5 25q44 0 80 -12t64 -34l74 79h61l-103 -110q46 -57 46 -139q0 -57 -22 -111t-61 -96t-92.5 -67t-114.5 -25z" />
    <glyph glyph-name="otilde" unicode="&#xf5;" horiz-adv-x="556" 
d="M311 508q51 0 92 -16.5t70 -45.5t44.5 -68.5t15.5 -85.5q0 -57 -22 -111t-61 -96t-92.5 -67t-114.5 -25q-50 0 -91 16.5t-70 45.5t-44.5 68.5t-15.5 85.5q0 57 22.5 111t61.5 96t91.5 67t113.5 25zM308 461q-50 0 -93.5 -21.5t-75.5 -56.5t-50.5 -79.5t-18.5 -90.5
q0 -37 12.5 -68.5t36 -55t56 -36.5t72.5 -13q51 0 94.5 21.5t75.5 56.5t50 79.5t18 90.5q0 37 -12.5 68.5t-35.5 54.5t-56 36.5t-73 13.5zM237 629q20 20 40 27.5t43 7.5q20 0 34.5 -6t27 -12.5t25.5 -12.5t30 -6q19 0 41.5 7.5t40.5 25.5l-13 -45q-38 -36 -84 -36
q-20 0 -34.5 6t-27 13t-25.5 13t-29 6q-43 0 -82 -33z" />
    <glyph glyph-name="racute" unicode="&#x155;" horiz-adv-x="278" 
d="M-32 0l143 500h49l-24 -88q11 13 28.5 29.5t41.5 31.5t54 25t67 10l-16 -54q-36 0 -69.5 -13t-62.5 -37t-50.5 -57.5t-33.5 -74.5l-78 -272h-49zM149 590l13 45l206 64l-14 -50z" />
    <glyph glyph-name="rcaron" unicode="&#x159;" horiz-adv-x="278" 
d="M-32 0l143 500h49l-24 -88q11 13 28.5 29.5t41.5 31.5t54 25t67 10l-16 -54q-36 0 -69.5 -13t-62.5 -37t-50.5 -57.5t-33.5 -74.5l-78 -272h-49zM237 559l-100 82l13 46l97 -75l153 79l-16 -54z" />
    <glyph glyph-name="rcommaaccent" unicode="&#x157;" horiz-adv-x="278" 
d="M-32 0l143 500h49l-24 -88q11 13 28.5 29.5t41.5 31.5t54 25t67 10l-16 -54q-36 0 -69.5 -13t-62.5 -37t-50.5 -57.5t-33.5 -74.5l-78 -272h-49zM-57 -193h-27l37 72h-21l17 58h50l-16 -54z" />
    <glyph glyph-name="sacute" unicode="&#x15b;" horiz-adv-x="442" 
d="M51 152q0 -65 38.5 -92t106.5 -27q67 0 103 31.5t36 74.5q0 21 -10.5 36t-27.5 25.5t-39 18.5t-45 16q-62 20 -96.5 49.5t-34.5 77.5q0 30 12 56.5t34.5 47t54.5 32t73 11.5q36 0 68.5 -9.5t56.5 -28t37.5 -46.5t12.5 -65h-49q0 46 -33 75t-99 29q-58 0 -88 -28t-30 -68
q0 -20 9 -33.5t24 -24t34.5 -18t40.5 -14.5q31 -10 57.5 -21.5t46 -27t30.5 -35t11 -46.5q0 -32 -13 -61t-38 -50.5t-61 -34t-82 -12.5q-93 0 -142 42t-47 120h49zM209 590l13 45l206 64l-14 -50z" />
    <glyph glyph-name="scaron" unicode="&#x161;" horiz-adv-x="442" 
d="M51 152q0 -65 38.5 -92t106.5 -27q67 0 103 31.5t36 74.5q0 21 -10.5 36t-27.5 25.5t-39 18.5t-45 16q-62 20 -96.5 49.5t-34.5 77.5q0 30 12 56.5t34.5 47t54.5 32t73 11.5q36 0 68.5 -9.5t56.5 -28t37.5 -46.5t12.5 -65h-49q0 46 -33 75t-99 29q-58 0 -88 -28t-30 -68
q0 -20 9 -33.5t24 -24t34.5 -18t40.5 -14.5q31 -10 57.5 -21.5t46 -27t30.5 -35t11 -46.5q0 -32 -13 -61t-38 -50.5t-61 -34t-82 -12.5q-93 0 -142 42t-47 120h49zM297 559l-100 82l13 46l97 -75l153 79l-16 -54z" />
    <glyph glyph-name="scedilla" unicode="&#x15f;" horiz-adv-x="442" 
d="M125 -209q-38 0 -61.5 20t-21.5 58h44q1 -20 12 -29t28 -9q20 0 33.5 13.5t13.5 32.5q0 16 -11 25.5t-28 9.5h-60l67 82q-69 11 -105 51.5t-34 106.5h49q0 -65 38.5 -92t106.5 -27q67 0 103 31.5t36 74.5q0 21 -10.5 36t-27.5 25.5t-39 18.5t-45 16q-62 20 -96.5 49.5
t-34.5 77.5q0 30 12 56.5t34.5 47t54.5 32t73 11.5q36 0 68.5 -9.5t56.5 -28t37.5 -46.5t12.5 -65h-49q0 46 -33 75t-99 29q-58 0 -88 -28t-30 -68q0 -20 9 -33.5t24 -24t34.5 -18t40.5 -14.5q31 -10 57.5 -21.5t46 -27t30.5 -35t11 -46.5q0 -32 -13 -61t-38 -50.5t-61 -34
t-82 -12.5h-6l-32 -39q29 -3 46.5 -21t17.5 -50q0 -17 -6.5 -33t-18.5 -28.5t-29 -20t-38 -7.5z" />
    <glyph glyph-name="scircumflex" unicode="&#x15d;" horiz-adv-x="442" 
d="M51 152q0 -65 38.5 -92t106.5 -27q67 0 103 31.5t36 74.5q0 21 -10.5 36t-27.5 25.5t-39 18.5t-45 16q-62 20 -96.5 49.5t-34.5 77.5q0 30 12 56.5t34.5 47t54.5 32t73 11.5q36 0 68.5 -9.5t56.5 -28t37.5 -46.5t12.5 -65h-49q0 46 -33 75t-99 29q-58 0 -88 -28t-30 -68
q0 -20 9 -33.5t24 -24t34.5 -18t40.5 -14.5q31 -10 57.5 -21.5t46 -27t30.5 -35t11 -46.5q0 -32 -13 -61t-38 -50.5t-61 -34t-82 -12.5q-93 0 -142 42t-47 120h49zM337 695l100 -82l-13 -46l-97 75l-153 -79l16 54z" />
    <glyph glyph-name="scommaaccent" unicode="&#x219;" horiz-adv-x="442" 
d="M51 152q0 -65 38.5 -92t106.5 -27q67 0 103 31.5t36 74.5q0 21 -10.5 36t-27.5 25.5t-39 18.5t-45 16q-62 20 -96.5 49.5t-34.5 77.5q0 30 12 56.5t34.5 47t54.5 32t73 11.5q36 0 68.5 -9.5t56.5 -28t37.5 -46.5t12.5 -65h-49q0 46 -33 75t-99 29q-58 0 -88 -28t-30 -68
q0 -20 9 -33.5t24 -24t34.5 -18t40.5 -14.5q31 -10 57.5 -21.5t46 -27t30.5 -35t11 -46.5q0 -32 -13 -61t-38 -50.5t-61 -34t-82 -12.5q-93 0 -142 42t-47 120h49zM119 -193h-27l37 72h-21l17 58h50l-16 -54z" />
    <glyph glyph-name="tbar" unicode="&#x167;" horiz-adv-x="304" 
d="M205 0h-38q-26 0 -49.5 9t-38.5 28.5t-19 51.5t10 79l28 96h-73l13 46h73l42 146h-73l12 44h73l42 145h48l-42 -145h136l-12 -44h-136l-42 -146h136l-13 -46h-136l-32 -112q-9 -32 -6 -52t13.5 -32t26.5 -16.5t33 -4.5h37z" />
    <glyph glyph-name="tcaron" unicode="&#x165;" horiz-adv-x="304" 
d="M372 647l-41 -76h-27l38 72h-21l17 58h50l-16 -54v0zM114 152q-9 -32 -6 -52t13.5 -32t26.5 -16.5t33 -4.5h37l-13 -47h-38q-26 0 -49.5 9t-38.5 28.5t-19 51.5t10 79l83 288h-73l12 44h73l42 145h48l-42 -145h136l-12 -44h-136z" />
    <glyph glyph-name="tcedilla" unicode="&#x163;" horiz-adv-x="304" 
d="M93 -209q-38 0 -61.5 20t-21.5 58h44q1 -20 12 -29t28 -9q20 0 33.5 13.5t13.5 32.5q0 16 -11 25.5t-28 9.5h-60l79 96q-18 6 -31.5 18.5t-21 32t-7.5 46.5t10 63l83 288h-73l12 44h73l42 145h48l-42 -145h136l-12 -44h-136l-87 -304q-9 -32 -6 -52t13.5 -32t26.5 -16.5
t33 -4.5h37l-13 -47h-38h-7l-40 -49q29 -3 46.5 -21t17.5 -50q0 -17 -6.5 -33t-18.5 -28.5t-29 -20t-38 -7.5z" />
    <glyph glyph-name="uni021B" unicode="&#x21b;" horiz-adv-x="304" 
d="M114 152q-9 -32 -6 -52t13.5 -32t26.5 -16.5t33 -4.5h37l-13 -47h-38q-26 0 -49.5 9t-38.5 28.5t-19 51.5t10 79l83 288h-73l12 44h73l42 145h48l-42 -145h136l-12 -44h-136zM67 -193h-27l37 72h-21l17 58h50l-16 -54z" />
    <glyph glyph-name="thorn" unicode="&#xfe;" horiz-adv-x="569" 
d="M84 214q0 -38 13 -70t36 -55t55.5 -36t71.5 -13q51 0 95 22t76.5 57t50.5 80t18 91q0 36 -12.5 67.5t-36 54.5t-56 36t-72.5 13q-51 0 -94.5 -21.5t-76 -56t-50.5 -79t-18 -90.5zM258 -7q-42 0 -76 11t-59.5 29.5t-43 43t-26.5 51.5l-86 -302h-49l245 859h49l-75 -258
q37 36 85 58.5t105 22.5q50 0 91 -16.5t70 -45.5t44.5 -68.5t15.5 -85.5q0 -54 -21.5 -107.5t-60 -96t-92 -69t-116.5 -26.5z" />
    <glyph glyph-name="uacute" unicode="&#xfa;" 
d="M342 69q-30 -35 -73 -56t-99 -21q-42 0 -75.5 15t-53.5 42t-25.5 65t8.5 85l87 301h49l-86 -297q-23 -77 6 -120.5t100 -43.5q75 0 127.5 47t75.5 128l82 286h49l-143 -500h-49zM241 590l13 45l206 64l-14 -50z" />
    <glyph glyph-name="ubreve" unicode="&#x16d;" 
d="M342 69q-30 -35 -73 -56t-99 -21q-42 0 -75.5 15t-53.5 42t-25.5 65t8.5 85l87 301h49l-86 -297q-23 -77 6 -120.5t100 -43.5q75 0 127.5 47t75.5 128l82 286h49l-143 -500h-49zM481 634q-26 -26 -62 -40.5t-79 -14.5q-24 0 -43.5 6t-33.5 15.5t-24 21t-15 22.5l11 41
q7 -10 17 -20.5t24.5 -19.5t32 -14.5t39.5 -5.5q38 0 76 16.5t71 43.5z" />
    <glyph glyph-name="ucircumflex" unicode="&#xfb;" 
d="M342 69q-30 -35 -73 -56t-99 -21q-42 0 -75.5 15t-53.5 42t-25.5 65t8.5 85l87 301h49l-86 -297q-23 -77 6 -120.5t100 -43.5q75 0 127.5 47t75.5 128l82 286h49l-143 -500h-49zM369 695l100 -82l-13 -46l-97 75l-153 -79l16 54z" />
    <glyph glyph-name="udieresis" unicode="&#xfc;" 
d="M342 69q-30 -35 -73 -56t-99 -21q-42 0 -75.5 15t-53.5 42t-25.5 65t8.5 85l87 301h49l-86 -297q-23 -77 6 -120.5t100 -43.5q75 0 127.5 47t75.5 128l82 286h49l-143 -500h-49zM397 633l14 52h48l-14 -52h-48zM257 633l14 52h48l-14 -52h-48z" />
    <glyph glyph-name="ugrave" unicode="&#xf9;" 
d="M342 69q-30 -35 -73 -56t-99 -21q-42 0 -75.5 15t-53.5 42t-25.5 65t8.5 85l87 301h49l-86 -297q-23 -77 6 -120.5t100 -43.5q75 0 127.5 47t75.5 128l82 286h49l-143 -500h-49zM430 590l-171 59l14 50l170 -64z" />
    <glyph glyph-name="uhungarumlaut" unicode="&#x171;" 
d="M342 69q-30 -35 -73 -56t-99 -21q-42 0 -75.5 15t-53.5 42t-25.5 65t8.5 85l87 301h49l-86 -297q-23 -77 6 -120.5t100 -43.5q75 0 127.5 47t75.5 128l82 286h49l-143 -500h-49zM350 558l95 147h47l-99 -147h-43zM250 558l88 147h49l-92 -147h-45z" />
    <glyph glyph-name="umacron" unicode="&#x16b;" 
d="M342 69q-30 -35 -73 -56t-99 -21q-42 0 -75.5 15t-53.5 42t-25.5 65t8.5 85l87 301h49l-86 -297q-23 -77 6 -120.5t100 -43.5q75 0 127.5 47t75.5 128l82 286h49l-143 -500h-49zM222 617l13 44h248l-13 -44h-248z" />
    <glyph glyph-name="uogonek" unicode="&#x173;" 
d="M338 -157q-12 -7 -28.5 -13t-39.5 -6q-32 0 -51 16t-19 48q0 39 33 77t96 58l14 46q-30 -35 -73 -56t-99 -21q-42 0 -75.5 15t-53.5 42t-25.5 65t8.5 85l87 301h49l-86 -297q-23 -77 6 -120.5t100 -43.5q75 0 127.5 47t75.5 128l82 286h49l-143 -500h-26
q-22 -8 -39 -19.5t-29 -25t-18 -27.5t-6 -26q0 -35 35 -35q17 0 33.5 4.5t26.5 11.5l-11 -40v0z" />
    <glyph glyph-name="uring" unicode="&#x16f;" 
d="M342 69q-30 -35 -73 -56t-99 -21q-42 0 -75.5 15t-53.5 42t-25.5 65t8.5 85l87 301h49l-86 -297q-23 -77 6 -120.5t100 -43.5q75 0 127.5 47t75.5 128l82 286h49l-143 -500h-49zM267 632q0 18 7 36t20 31.5t31 22t40 8.5q33 0 54 -20t21 -52q0 -18 -7.5 -36t-20.5 -32
t-31 -22.5t-40 -8.5q-33 0 -53.5 20.5t-20.5 52.5zM402 653q0 18 -11.5 29.5t-30.5 11.5q-25 0 -40.5 -18.5t-15.5 -38.5q0 -18 11.5 -30t30.5 -12q25 0 40.5 18.5t15.5 39.5z" />
    <glyph glyph-name="utilde" unicode="&#x169;" 
d="M342 69q-30 -35 -73 -56t-99 -21q-42 0 -75.5 15t-53.5 42t-25.5 65t8.5 85l87 301h49l-86 -297q-23 -77 6 -120.5t100 -43.5q75 0 127.5 47t75.5 128l82 286h49l-143 -500h-49zM213 629q20 20 40 27.5t43 7.5q20 0 34.5 -6t27 -12.5t25.5 -12.5t30 -6q19 0 41.5 7.5
t40.5 25.5l-13 -45q-38 -36 -84 -36q-20 0 -34.5 6t-27 13t-25.5 13t-29 6q-43 0 -82 -33z" />
    <glyph glyph-name="wacute" unicode="&#x1e83;" horiz-adv-x="736" 
d="M420 435l-268 -435h-62l2 500h52l-7 -439l271 439h61l5 -441l259 441h55l-299 -500h-63zM368 590l13 45l206 64l-14 -50z" />
    <glyph glyph-name="wdieresis" unicode="&#x1e85;" horiz-adv-x="736" 
d="M420 435l-268 -435h-62l2 500h52l-7 -439l271 439h61l5 -441l259 441h55l-299 -500h-63zM524 633l14 52h48l-14 -52h-48zM384 633l14 52h48l-14 -52h-48z" />
    <glyph glyph-name="wgrave" unicode="&#x1e81;" horiz-adv-x="736" 
d="M420 435l-268 -435h-62l2 500h52l-7 -439l271 439h61l5 -441l259 441h55l-299 -500h-63zM557 590l-171 59l14 50l170 -64z" />
    <glyph glyph-name="wcircumflex" unicode="&#x175;" horiz-adv-x="736" 
d="M420 435l-268 -435h-62l2 500h52l-7 -439l271 439h61l5 -441l259 441h55l-299 -500h-63zM496 695l100 -82l-13 -46l-97 75l-153 -79l16 54z" />
    <glyph glyph-name="yacute" unicode="&#xfd;" horiz-adv-x="466" 
d="M520 500l-321 -490q-35 -54 -67.5 -91.5t-65.5 -59.5t-68 -29t-77 1l13 46q33 -5 60 0.5t51.5 23t48.5 46.5t53 71l-57 482h52l48 -423l274 423h56zM234 590l13 45l206 64l-14 -50z" />
    <glyph glyph-name="ycircumflex" unicode="&#x177;" horiz-adv-x="466" 
d="M520 500l-321 -490q-35 -54 -67.5 -91.5t-65.5 -59.5t-68 -29t-77 1l13 46q33 -5 60 0.5t51.5 23t48.5 46.5t53 71l-57 482h52l48 -423l274 423h56zM362 695l100 -82l-13 -46l-97 75l-153 -79l16 54z" />
    <glyph glyph-name="ydieresis" unicode="&#xff;" horiz-adv-x="466" 
d="M520 500l-321 -490q-35 -54 -67.5 -91.5t-65.5 -59.5t-68 -29t-77 1l13 46q33 -5 60 0.5t51.5 23t48.5 46.5t53 71l-57 482h52l48 -423l274 423h56zM390 633l14 52h48l-14 -52h-48zM250 633l14 52h48l-14 -52h-48z" />
    <glyph glyph-name="ygrave" unicode="&#x1ef3;" horiz-adv-x="466" 
d="M520 500l-321 -490q-35 -54 -67.5 -91.5t-65.5 -59.5t-68 -29t-77 1l13 46q33 -5 60 0.5t51.5 23t48.5 46.5t53 71l-57 482h52l48 -423l274 423h56zM423 590l-171 59l14 50l170 -64z" />
    <glyph glyph-name="zacute" unicode="&#x17a;" horiz-adv-x="464" 
d="M38 44h336l-13 -44h-403l13 44l440 412h-309l12 44h375l-12 -44zM232 590l13 45l206 64l-14 -50z" />
    <glyph glyph-name="zcaron" unicode="&#x17e;" horiz-adv-x="464" 
d="M38 44h336l-13 -44h-403l13 44l440 412h-309l12 44h375l-12 -44zM320 559l-100 82l13 46l97 -75l153 79l-16 -54z" />
    <glyph glyph-name="zdotaccent" unicode="&#x17c;" horiz-adv-x="464" 
d="M38 44h336l-13 -44h-403l13 44l440 412h-309l12 44h375l-12 -44zM318 633l14 52h48l-14 -52h-48z" />
    <glyph glyph-name="f_i" unicode="&#xfb01;" horiz-adv-x="418" 
d="M339 500l-12 -44h-126l-131 -456h-48l131 456h-73l12 44h73l10 33q12 43 31 72t43 47t52 25.5t58 7.5h32l-13 -47h-31q-46 0 -76.5 -24t-47.5 -81l-10 -33h126zM438 632l15 53h49l-15 -53h-49zM257 0l143 500h49l-143 -500h-49z" />
    <glyph glyph-name="f_l" unicode="&#xfb02;" horiz-adv-x="418" 
d="M339 500l-12 -44h-126l-131 -456h-48l131 456h-73l12 44h73l10 33q12 43 31 72t43 47t52 25.5t58 7.5h32l-13 -47h-31q-46 0 -76.5 -24t-47.5 -81l-10 -33h126zM257 0l196 685h49l-196 -685h-49z" />
    <glyph glyph-name="ordfeminine" unicode="&#xaa;" horiz-adv-x="392" 
d="M394 543q0 45 -27.5 74t-74.5 29q-28 0 -52.5 -11.5t-43 -31t-29.5 -45.5t-11 -55q0 -45 27.5 -73t72.5 -28q30 0 55.5 12t44 31.5t28.5 45t10 52.5zM355 396q-22 -18 -48.5 -28.5t-57.5 -10.5q-33 0 -59 11t-45 29.5t-29 44t-10 55.5q0 35 14 69.5t38.5 62t59 44.5
t75.5 17q49 0 80 -20.5t46 -50.5l18 66h49l-92 -323h-49z" />
    <glyph glyph-name="ordmasculine" unicode="&#xba;" horiz-adv-x="394" 
d="M106 497q0 40 15.5 75.5t42 61.5t61.5 41.5t73 15.5q32 0 59 -10.5t46.5 -29.5t30 -45t10.5 -57q0 -39 -15.5 -74.5t-42.5 -61.5t-62 -41.5t-74 -15.5q-32 0 -58 10.5t-45.5 29.5t-30 45t-10.5 56zM394 543q0 45 -27.5 74t-74.5 29q-28 0 -52.5 -11t-43 -30.5
t-29.5 -45.5t-11 -56q0 -45 27.5 -73t72.5 -28q28 0 53.5 11t44 29.5t29.5 44.5t11 56z" />
    <glyph glyph-name="cedilla" unicode="&#xb8;" horiz-adv-x="394" 
d="M171 -120q0 -17 -6.5 -33t-18.5 -28.5t-29 -20t-38 -7.5q-38 0 -61.5 20t-21.5 58h44q1 -20 12 -29t28 -9q20 0 33.5 13.5t13.5 32.5q0 16 -11 25.5t-28 9.5h-60l80 97h46l-47 -58q29 -3 46.5 -21t17.5 -50z" />
    <glyph glyph-name="ogonek" unicode="&#x2db;" horiz-adv-x="394" 
d="M175 0q-24 -8 -43 -20t-32 -25.5t-20 -27t-7 -25.5q0 -35 40 -35q18 0 36 4.5t29 11.5l-11 -40q-13 -8 -31 -13.5t-42 -5.5q-35 0 -55 16t-20 48q0 40 39.5 77t113.5 57z" />
    <glyph glyph-name="zero" unicode="0" horiz-adv-x="532" 
d="M226 -9q-54 0 -95.5 21.5t-67 57.5t-32.5 84t8 102l68 236q13 45 37.5 81.5t57.5 63t72.5 41t81.5 14.5q52 0 94 -20t68 -55.5t34 -84t-8 -104.5l-67 -235q-13 -45 -38.5 -82.5t-58.5 -64t-72.5 -41t-81.5 -14.5zM233 39q33 0 63.5 11.5t56 32.5t45 51t30.5 66l67 235
q12 42 7 80t-24.5 66.5t-51.5 45.5t-75 17q-33 0 -63.5 -11.5t-56 -32.5t-45 -50.5t-29.5 -65.5l-67 -235q-12 -44 -7 -82t24.5 -66.5t51.5 -45t74 -16.5z" />
    <glyph glyph-name="one" unicode="1" horiz-adv-x="207" 
d="M41 0l183 638h-80l13 47h130l-196 -685h-50z" />
    <glyph glyph-name="two" unicode="2" horiz-adv-x="500" 
d="M-38 0l13 46l329 253q79 61 127 114.5t48 110.5q0 54 -36.5 87t-99.5 33q-34 -2 -61.5 -10t-50.5 -23t-42.5 -36t-37.5 -47l-39 23q41 62 101 102t136 40q39 0 72.5 -11t57.5 -32.5t38 -52t14 -69.5q0 -36 -14.5 -69.5t-41 -65.5t-63 -64t-80.5 -66l-282 -217h358
l-13 -46h-433z" />
    <glyph glyph-name="three" unicode="3" horiz-adv-x="511" 
d="M216 -6q-47 0 -83.5 12.5t-64 34.5t-45.5 52.5t-28 66.5l45 18q9 -30 22.5 -55t34.5 -43t50.5 -27.5t70.5 -9.5q49 0 87 20t64 52t39.5 71.5t13.5 78.5q0 65 -40.5 98t-104.5 33q-31 0 -52 -7t-34 -15l-16 32l314 234h-318l14 45h387l-13 -46l-258 -197q44 -2 76.5 -16.5
t54 -38t32 -54.5t10.5 -67q0 -51 -19 -100t-53 -87.5t-81.5 -61.5t-104.5 -23z" />
    <glyph glyph-name="four" unicode="4" horiz-adv-x="515" 
d="M478 211l-14 -48h-89l-47 -163h-50l47 163h-324l14 48l460 476h50l-136 -476h89zM451 603l-377 -392h265z" />
    <glyph glyph-name="five" unicode="5" horiz-adv-x="511" 
d="M215 -7q-49 0 -86 13t-63.5 35.5t-44 52.5t-27.5 65l45 18q10 -32 24.5 -57t35.5 -42.5t50 -26.5t68 -9q48 0 86 20t64.5 51.5t40 71t13.5 78.5q0 32 -11 56.5t-30 41.5t-44.5 25.5t-55.5 8.5q-57 0 -97 -20.5t-69 -49.5l-43 24l163 336h328l-14 -49h-287l-115 -235
q34 22 68 32t68 10q87 0 139 -47.5t52 -130.5q0 -50 -18 -98.5t-52 -87t-81.5 -62.5t-106.5 -24z" />
    <glyph glyph-name="six" unicode="6" horiz-adv-x="533" 
d="M229 -10q-46 0 -84 15.5t-65.5 43t-42.5 65t-15 80.5q0 54 22.5 105.5t68.5 99.5l276 286h64l-226 -228q22 6 39 8t32 2q45 0 81 -15.5t62 -42.5t40 -64t14 -80q0 -51 -19.5 -100.5t-54.5 -88.5t-84 -62.5t-108 -23.5zM233 38q46 0 84.5 19.5t66.5 51t44 72t16 82.5
q0 34 -11 62.5t-32 49t-50.5 32t-66.5 11.5q-44 0 -82.5 -19t-67 -50t-45 -71t-16.5 -83q0 -34 11 -63t32 -50t50.5 -32.5t66.5 -11.5z" />
    <glyph glyph-name="seven" unicode="7" horiz-adv-x="459" 
d="M32 0l460 637h-359l14 48h415l-13 -46l-460 -639h-57z" />
    <glyph glyph-name="eight" unicode="8" horiz-adv-x="496" 
d="M195 -10q-37 0 -70 11.5t-58 32.5t-39.5 52t-14.5 70q0 34 11.5 69t34.5 66t57.5 57t79.5 43q-26 22 -38 48t-12 54q0 37 17 72.5t45.5 63.5t67 45t82.5 17q32 0 59 -10.5t46.5 -28.5t30.5 -42.5t11 -52.5q0 -23 -7 -48t-22.5 -49.5t-40.5 -47t-62 -39.5q41 -26 59.5 -62
t18.5 -76q0 -51 -22.5 -95.5t-58.5 -78t-82 -52.5t-93 -19zM300 402q32 0 60 12.5t48.5 33.5t32 47.5t11.5 53.5q0 22 -8.5 40t-22.5 30.5t-32.5 19t-39.5 6.5q-30 0 -57 -12.5t-48 -33t-33.5 -47t-12.5 -54.5q0 -42 28.5 -69t73.5 -27zM201 38q41 0 77 16.5t62.5 43.5
t42 62t15.5 71q0 26 -9.5 49t-27.5 40t-42.5 27t-54.5 10q-42 0 -78 -17t-63 -45t-42 -62.5t-15 -69.5q0 -30 10.5 -53.5t29 -39t43 -24t52.5 -8.5z" />
    <glyph glyph-name="nine" unicode="9" horiz-adv-x="533" 
d="M350 695q46 0 84 -15.5t65.5 -43t42.5 -65t15 -80.5q0 -54 -22.5 -105.5t-68.5 -99.5l-276 -286h-64l226 228q-22 -6 -39 -8t-32 -2q-45 0 -81 15.5t-62 42.5t-40 64t-14 80q0 51 19.5 100.5t54.5 88.5t84 62.5t108 23.5zM346 647q-46 0 -84.5 -19.5t-66.5 -51t-44 -72
t-16 -82.5q0 -34 11 -62.5t32 -49t50.5 -32t66.5 -11.5q44 0 82.5 19t67 50t45 71t16.5 83q0 34 -11 63t-32 50t-50.5 32.5t-66.5 11.5z" />
    <glyph glyph-name="zero.slash" horiz-adv-x="532" 
d="M226 -9q-54 0 -95.5 21.5t-67 57.5t-32.5 84t8 102l68 236q13 45 37.5 81.5t57.5 63t72.5 41t81.5 14.5q52 0 94 -20t68 -55.5t34 -84t-8 -104.5l-67 -235q-13 -45 -38.5 -82.5t-58.5 -64t-72.5 -41t-81.5 -14.5zM90 249q-11 -41 -8 -76.5t20 -63.5l353 499
q-41 36 -104 36q-33 0 -63.5 -11.5t-56 -32.5t-45 -50.5t-29.5 -65.5zM233 39q33 0 63.5 11.5t56 32.5t45 51t30.5 66l67 235q11 40 7.5 75t-19.5 64l-353 -499q41 -36 103 -36z" />
    <glyph glyph-name="four.alt" horiz-adv-x="515" 
d="M78 211h261l63 220h50l-63 -220h89l-14 -48h-89l-47 -163h-50l47 163h-324l14 48l460 476h60z" />
    <glyph glyph-name="zero.dnom" horiz-adv-x="298" 
d="M91 -6q-31 0 -54 11.5t-37.5 31t-18 45t4.5 54.5l38 130q14 50 54 81t90 31q30 0 53.5 -11t38 -30t18.5 -45t-4 -55l-38 -131q-7 -25 -21.5 -45.5t-33.5 -35.5t-42 -23t-48 -8zM96 37q33 0 60 20.5t37 55.5l37 129q12 41 -8 67.5t-58 26.5q-33 0 -60 -21t-37 -56
l-38 -128q-11 -40 8.5 -67t58.5 -27z" />
    <glyph glyph-name="one.dnom" horiz-adv-x="127" 
d="M-12 0l95 331h-44l12 42h89l-107 -373h-45z" />
    <glyph glyph-name="two.dnom" horiz-adv-x="281" 
d="M-53 0l12 40l170 126q44 32 68 60t24 57q0 23 -18 38t-48 15q-35 -1 -57 -16t-40 -40l-33 21q24 34 57.5 55.5t79.5 21.5q48 0 76.5 -25t28.5 -67q0 -23 -9.5 -42.5t-25.5 -38t-37 -36t-45 -35.5l-128 -95h181l-11 -39h-245z" />
    <glyph glyph-name="three.dnom" horiz-adv-x="288" 
d="M91 -4q-54 0 -84 27.5t-40 65.5l40 16q8 -30 27 -49.5t58 -19.5q24 0 42.5 8.5t31 23t19.5 32.5t7 38q0 37 -22.5 53t-48.5 16q-14 0 -26 -3t-19 -8l-11 31l146 106h-152l11 40h216l-10 -39l-126 -92q42 -5 63.5 -33.5t21.5 -66.5q0 -30 -11 -56.5t-30.5 -46.5
t-45.5 -31.5t-57 -11.5z" />
    <glyph glyph-name="four.dnom" horiz-adv-x="293" 
d="M242 124l-12 -41h-42l-24 -83h-44l24 83h-178l12 41l243 250h50l-72 -250h43zM208 311l-179 -187h126z" />
    <glyph glyph-name="five.dnom" horiz-adv-x="288" 
d="M90 -4q-51 0 -81.5 26.5t-41.5 67.5l41 16q17 -68 85 -68q23 0 41.5 9t31.5 24t20 34t7 39q0 32 -20.5 48.5t-51.5 16.5q-28 0 -47 -11.5t-32 -24.5l-34 19l88 181h185l-12 -41h-152l-48 -101q26 17 62 17q47 0 76.5 -26.5t29.5 -74.5q0 -27 -10 -53.5t-28.5 -48.5
t-46 -35.5t-62.5 -13.5z" />
    <glyph glyph-name="six.dnom" horiz-adv-x="295" 
d="M94 -5q-51 0 -83 31t-32 80q0 31 13.5 62t37.5 56l140 149h54l-117 -119q11 2 17 2.5t12 0.5q45 0 76.5 -29.5t31.5 -79.5q0 -28 -11 -55.5t-31 -49t-47.5 -35t-60.5 -13.5zM99 35q22 0 40.5 9.5t32 24.5t21 34.5t7.5 39.5q0 32 -21 53.5t-56 21.5q-21 0 -39.5 -9
t-32.5 -24t-22 -34.5t-8 -40.5q0 -32 21.5 -53.5t56.5 -21.5z" />
    <glyph glyph-name="seven.dnom" horiz-adv-x="262" 
d="M-20 0l242 331h-186l12 42h235l-11 -40l-243 -333h-49z" />
    <glyph glyph-name="eight.dnom" horiz-adv-x="281" 
d="M77 -5q-42 0 -72.5 23.5t-30.5 68.5q0 35 21.5 70t69.5 56q-10 11 -14.5 24.5t-4.5 27.5q0 21 9.5 41.5t26 36t38 25t45.5 9.5q38 0 62 -21.5t24 -54.5q0 -26 -14.5 -52.5t-49.5 -46.5q19 -15 27 -33t8 -38q0 -27 -11.5 -51.5t-31.5 -43t-46 -30t-56 -11.5zM136 224
q30 0 51 21.5t21 49.5q0 22 -14.5 33.5t-34.5 11.5q-29 0 -50 -21.5t-21 -49.5q0 -20 13.5 -32.5t34.5 -12.5zM83 33q19 0 36.5 8t31 21t21 30t7.5 35q0 27 -18.5 43.5t-47.5 16.5q-20 0 -37.5 -8t-30 -21t-20 -30t-7.5 -35q0 -29 19 -44.5t46 -15.5z" />
    <glyph glyph-name="nine.dnom" horiz-adv-x="295" 
d="M31 0l116 119q-20 -3 -28 -3q-46 0 -77 29.5t-31 79.5q0 28 11 55.5t31 49t47 35t60 13.5q51 0 83.5 -31t32.5 -80q0 -31 -14 -62t-37 -56l-140 -149h-54zM156 338q-22 0 -40.5 -9.5t-32 -24.5t-21.5 -34.5t-8 -39.5q0 -32 21 -53.5t56 -21.5q21 0 39.5 9t32.5 24
t22 34.5t8 40.5q0 32 -21.5 53.5t-55.5 21.5z" />
    <glyph glyph-name="zero.sups" unicode="&#x2070;" horiz-adv-x="298" 
d="M177 306q-31 0 -54 11.5t-37.5 31t-18 45t4.5 54.5l38 130q14 50 54 81t90 31q30 0 53.5 -11t38 -30t18.5 -45t-4 -55l-38 -131q-7 -25 -21.5 -45.5t-33.5 -35.5t-42 -23t-48 -8zM182 349q33 0 60 20.5t37 55.5l37 129q12 41 -8 67.5t-58 26.5q-33 0 -60 -21t-37 -56
l-38 -128q-11 -40 8.5 -67t58.5 -27z" />
    <glyph glyph-name="onesuperior" unicode="&#xb9;" horiz-adv-x="127" 
d="M74 312l95 331h-44l12 42h89l-107 -373h-45z" />
    <glyph glyph-name="twosuperior" unicode="&#xb2;" horiz-adv-x="281" 
d="M33 312l12 40l170 126q44 32 68 60t24 57q0 23 -18 38t-48 15q-35 -1 -57 -16t-40 -40l-33 21q24 34 57.5 55.5t79.5 21.5q48 0 76.5 -25t28.5 -67q0 -23 -9.5 -42.5t-25.5 -38t-37 -36t-45 -35.5l-128 -95h181l-11 -39h-245z" />
    <glyph glyph-name="threesuperior" unicode="&#xb3;" horiz-adv-x="288" 
d="M177 308q-54 0 -84 27.5t-40 65.5l40 16q8 -30 27 -49.5t58 -19.5q24 0 42.5 8.5t31 23t19.5 32.5t7 38q0 37 -22.5 53t-48.5 16q-14 0 -26 -3t-19 -8l-11 31l146 106h-152l11 40h216l-10 -39l-126 -92q42 -5 63.5 -33.5t21.5 -66.5q0 -30 -11 -56.5t-30.5 -46.5
t-45.5 -31.5t-57 -11.5z" />
    <glyph glyph-name="four.sups" unicode="&#x2074;" horiz-adv-x="293" 
d="M328 436l-12 -41h-42l-24 -83h-44l24 83h-178l12 41l243 250h50l-72 -250h43zM294 623l-179 -187h126z" />
    <glyph glyph-name="five.sups" unicode="&#x2075;" horiz-adv-x="288" 
d="M176 308q-51 0 -81.5 26.5t-41.5 67.5l41 16q17 -68 85 -68q23 0 41.5 9t31.5 24t20 34t7 39q0 32 -20.5 48.5t-51.5 16.5q-28 0 -47 -11.5t-32 -24.5l-34 19l88 181h185l-12 -41h-152l-48 -101q26 17 62 17q47 0 76.5 -26.5t29.5 -74.5q0 -27 -10 -53.5t-28.5 -48.5
t-46 -35.5t-62.5 -13.5z" />
    <glyph glyph-name="six.sups" unicode="&#x2076;" horiz-adv-x="295" 
d="M180 307q-51 0 -83 31t-32 80q0 31 13.5 62t37.5 56l140 149h54l-117 -119q11 2 17 2.5t12 0.5q45 0 76.5 -29.5t31.5 -79.5q0 -28 -11 -55.5t-31 -49t-47.5 -35t-60.5 -13.5zM185 347q22 0 40.5 9.5t32 24.5t21 34.5t7.5 39.5q0 32 -21 53.5t-56 21.5q-21 0 -39.5 -9
t-32.5 -24t-22 -34.5t-8 -40.5q0 -32 21.5 -53.5t56.5 -21.5z" />
    <glyph glyph-name="seven.sups" unicode="&#x2077;" horiz-adv-x="262" 
d="M66 312l242 331h-186l12 42h235l-11 -40l-243 -333h-49z" />
    <glyph glyph-name="eight.sups" unicode="&#x2078;" horiz-adv-x="281" 
d="M163 307q-42 0 -72.5 23.5t-30.5 68.5q0 35 21.5 70t69.5 56q-10 11 -14.5 24.5t-4.5 27.5q0 21 9.5 41.5t26 36t38 25t45.5 9.5q38 0 62 -21.5t24 -54.5q0 -26 -14.5 -52.5t-49.5 -46.5q19 -15 27 -33t8 -38q0 -27 -11.5 -51.5t-31.5 -43t-46 -30t-56 -11.5zM222 536
q30 0 51 21.5t21 49.5q0 22 -14.5 33.5t-34.5 11.5q-29 0 -50 -21.5t-21 -49.5q0 -20 13.5 -32.5t34.5 -12.5zM169 345q19 0 36.5 8t31 21t21 30t7.5 35q0 27 -18.5 43.5t-47.5 16.5q-20 0 -37.5 -8t-30 -21t-20 -30t-7.5 -35q0 -29 19 -44.5t46 -15.5z" />
    <glyph glyph-name="nine.sups" unicode="&#x2079;" horiz-adv-x="295" 
d="M117 312l116 119q-20 -3 -28 -3q-46 0 -77 29.5t-31 79.5q0 28 11 55.5t31 49t47 35t60 13.5q51 0 83.5 -31t32.5 -80q0 -31 -14 -62t-37 -56l-140 -149h-54zM242 650q-22 0 -40.5 -9.5t-32 -24.5t-21.5 -34.5t-8 -39.5q0 -32 21 -53.5t56 -21.5q21 0 39.5 9t32.5 24
t22 34.5t8 40.5q0 32 -21.5 53.5t-55.5 21.5z" />
    <glyph glyph-name="onequarter" unicode="&#xbc;" horiz-adv-x="590" 
d="M74 312l95 331h-44l12 42h89l-107 -373h-45zM513 124l-12 -41h-42l-24 -83h-44l24 83h-178l12 41l243 250h50l-72 -250h43zM479 311l-179 -187h126zM3 0l493 685h52l-493 -685h-52z" />
    <glyph glyph-name="fraction" unicode="&#x2044;" horiz-adv-x="22" 
d="M-224 0l493 685h52l-493 -685h-52z" />
    <glyph glyph-name="onehalf" unicode="&#xbd;" horiz-adv-x="626" 
d="M74 312l95 331h-44l12 42h89l-107 -373h-45zM267 0l12 40l170 126q44 32 68 60t24 57q0 23 -18 38t-48 15q-35 -1 -57 -16t-40 -40l-33 21q24 34 57.5 55.5t79.5 21.5q48 0 76.5 -25t28.5 -67q0 -23 -9.5 -42.5t-25.5 -38t-37 -36t-45 -35.5l-128 -95h181l-11 -39h-245z
M3 0l493 685h52l-493 -685h-52z" />
    <glyph glyph-name="threequarters" unicode="&#xbe;" horiz-adv-x="732" 
d="M177 308q-54 0 -84 27.5t-40 65.5l40 16q8 -30 27 -49.5t58 -19.5q24 0 42.5 8.5t31 23t19.5 32.5t7 38q0 37 -22.5 53t-48.5 16q-14 0 -26 -3t-19 -8l-11 31l146 106h-152l11 40h216l-10 -39l-126 -92q42 -5 63.5 -33.5t21.5 -66.5q0 -30 -11 -56.5t-30.5 -46.5
t-45.5 -31.5t-57 -11.5zM655 124l-12 -41h-42l-24 -83h-44l24 83h-178l12 41l243 250h50l-72 -250h43zM621 311l-179 -187h126zM145 0l493 685h52l-493 -685h-52z" />
    <glyph glyph-name="uni2153" unicode="&#x2153;" horiz-adv-x="661" 
d="M74 312l95 331h-44l12 42h89l-107 -373h-45zM435 -4q-54 0 -84 27.5t-40 65.5l40 16q8 -30 27 -49.5t58 -19.5q24 0 42.5 8.5t31 23t19.5 32.5t7 38q0 37 -22.5 53t-48.5 16q-14 0 -26 -3t-19 -8l-11 31l146 106h-152l11 40h216l-10 -39l-126 -92q42 -5 63.5 -33.5
t21.5 -66.5q0 -30 -11 -56.5t-30.5 -46.5t-45.5 -31.5t-57 -11.5zM3 0l493 685h52l-493 -685h-52z" />
    <glyph glyph-name="uni2154" unicode="&#x2154;" horiz-adv-x="818" 
d="M33 312l12 40l170 126q44 32 68 60t24 57q0 23 -18 38t-48 15q-35 -1 -57 -16t-40 -40l-33 21q24 34 57.5 55.5t79.5 21.5q48 0 76.5 -25t28.5 -67q0 -23 -9.5 -42.5t-25.5 -38t-37 -36t-45 -35.5l-128 -95h181l-11 -39h-245zM592 -4q-54 0 -84 27.5t-40 65.5l40 16
q8 -30 27 -49.5t58 -19.5q24 0 42.5 8.5t31 23t19.5 32.5t7 38q0 37 -22.5 53t-48.5 16q-14 0 -26 -3t-19 -8l-11 31l146 106h-152l11 40h216l-10 -39l-126 -92q42 -5 63.5 -33.5t21.5 -66.5q0 -30 -11 -56.5t-30.5 -46.5t-45.5 -31.5t-57 -11.5zM160 0l493 685h52
l-493 -685h-52z" />
    <glyph glyph-name="percent" unicode="%" horiz-adv-x="763" 
d="M560 -6q-31 0 -54 11.5t-37.5 31t-18 45t4.5 54.5l38 130q14 50 54 81t90 31q30 0 53.5 -11t38 -30t18.5 -45t-4 -55l-38 -131q-7 -25 -21.5 -45.5t-33.5 -35.5t-42 -23t-48 -8zM565 37q33 0 60 20.5t37 55.5l37 129q12 41 -8 67.5t-58 26.5q-33 0 -60 -21t-37 -56
l-38 -128q-11 -40 8.5 -67t58.5 -27zM177 306q-31 0 -54 11.5t-37.5 31t-18 45t4.5 54.5l38 130q14 50 54 81t90 31q30 0 53.5 -11t38 -30t18.5 -45t-4 -55l-38 -131q-7 -25 -21.5 -45.5t-33.5 -35.5t-42 -23t-48 -8zM182 349q33 0 60 20.5t37 55.5l37 129q12 41 -8 67.5
t-58 26.5q-33 0 -60 -21t-37 -56l-38 -128q-11 -40 8.5 -67t58.5 -27zM134 0l493 685h52l-493 -685h-52z" />
    <glyph glyph-name="underscore" unicode="_" horiz-adv-x="492" 
d="M-108 -126l13 46h492l-13 -46h-492z" />
    <glyph glyph-name="hyphen" unicode="-" horiz-adv-x="344" 
d="M43 263l14 46h264l-14 -46h-264z" />
    <glyph glyph-name="figuredash" unicode="&#x2012;" horiz-adv-x="433" 
d="M33 263l14 46h373l-14 -46h-373z" />
    <glyph glyph-name="endash" unicode="&#x2013;" horiz-adv-x="433" 
d="M33 263l14 46h373l-14 -46h-373z" />
    <glyph glyph-name="emdash" unicode="&#x2014;" horiz-adv-x="811" 
d="M33 263l14 46h750l-14 -46h-750z" />
    <glyph glyph-name="space.em" horiz-adv-x="982" 
 />
    <glyph glyph-name="space.en" horiz-adv-x="492" 
 />
    <glyph glyph-name="space.thin" horiz-adv-x="2" 
 />
    <glyph glyph-name="space.half" horiz-adv-x="149" 
 />
    <glyph glyph-name="parenleft" unicode="(" horiz-adv-x="241" 
d="M326 668q-45 -39 -83.5 -86.5t-70 -99.5t-55 -107.5t-39.5 -109.5q-15 -51 -23 -102.5t-8 -101.5q0 -57 11.5 -107.5t35.5 -92.5l-37 -25q-28 46 -42 104.5t-14 124.5q0 95 29 200q17 62 43.5 122t60.5 115.5t74.5 104t85.5 87.5z" />
    <glyph glyph-name="parenright" unicode=")" horiz-adv-x="241" 
d="M-77 -138q45 39 83.5 86.5t70 99.5t55 107.5t39.5 109.5q15 51 23 102.5t8 101.5q0 57 -11.5 107.5t-35.5 92.5l37 25q28 -46 42 -104.5t14 -124.5q0 -95 -29 -200q-17 -62 -43.5 -122t-60.5 -115.5t-74.5 -104t-85.5 -87.5z" />
    <glyph glyph-name="bracketleft" unicode="[" horiz-adv-x="223" 
d="M204 639l-216 -753h109l-13 -46h-157l242 845h157l-13 -46h-109z" />
    <glyph glyph-name="bracketright" unicode="]" horiz-adv-x="223" 
d="M25 -114l216 753h-109l13 46h157l-242 -845h-157l13 46h109z" />
    <glyph glyph-name="braceleft" unicode="{" horiz-adv-x="263" 
d="M324 643q-39 0 -68.5 -11.5t-49 -32t-29.5 -48t-10 -58.5t7 -58t7 -57q0 -42 -18 -71t-46 -44q11 -7 16.5 -18.5t5.5 -25.5q0 -32 -20.5 -64.5t-45 -65.5t-45 -67.5t-20.5 -71.5q0 -67 98 -67h30l-12 -42h-30q-66 0 -100 26.5t-34 74.5q0 41 21 79.5t45.5 73t45.5 64.5
t21 56q0 29 -44 29h-21l11 37h21q41 0 57 24.5t16 55.5t-7 62t-7 67q0 44 15.5 80t43 62t65.5 40t84 14h40l-13 -43h-30z" />
    <glyph glyph-name="braceright" unicode="}" horiz-adv-x="263" 
d="M-54 -116q39 0 68.5 11.5t49 32t29.5 47.5t10 59q0 31 -7 58t-7 57q0 42 18 71t46 44q-11 7 -16.5 18.5t-5.5 25.5q0 32 20.5 64.5t45 65.5t45 67.5t20.5 71.5q0 67 -98 67h-30l12 42h30q66 0 100 -26.5t34 -74.5q0 -41 -21 -79.5t-45.5 -73t-45.5 -65t-21 -55.5
q0 -29 44 -29h21l-11 -37h-21q-41 0 -57 -24.5t-16 -55.5t7 -62t7 -67q0 -44 -15.5 -80t-43 -62t-65.5 -40t-84 -14h-40l13 43h30z" />
    <glyph glyph-name="quotesingle" unicode="'" horiz-adv-x="130" 
d="M133 552l31 133h50l-45 -133h-36z" />
    <glyph glyph-name="quotedbl" unicode="&#x22;" horiz-adv-x="217" 
d="M220 552l31 133h50l-45 -133h-36zM133 552l31 133h50l-45 -133h-36z" />
    <glyph glyph-name="quoteleft" unicode="&#x2018;" horiz-adv-x="130" 
d="M183 685h27l-37 -72h21l-17 -58h-50l16 54z" />
    <glyph glyph-name="comma" unicode="," horiz-adv-x="130" 
d="M-22 -72h-27l38 72h-21l17 58h50l-16 -54z" />
    <glyph glyph-name="quotedblleft" unicode="&#x201c;" horiz-adv-x="217" 
d="M183 685h27l-37 -72h21l-17 -58h-50l16 54zM270 685h27l-37 -72h21l-17 -58h-50l16 54z" />
    <glyph glyph-name="quotedblright" unicode="&#x201d;" horiz-adv-x="217" 
d="M158 555h-27l38 72h-21l17 58h50l-16 -54zM245 555h-27l38 72h-21l17 58h50l-16 -54z" />
    <glyph glyph-name="quotesinglbase" unicode="&#x201a;" horiz-adv-x="130" 
d="M-22 -72h-27l38 72h-21l17 58h50l-16 -54z" />
    <glyph glyph-name="quotedblbase" unicode="&#x201e;" horiz-adv-x="217" 
d="M-22 -72h-27l38 72h-21l17 58h50l-16 -54zM65 -72h-27l38 72h-21l17 58h50l-16 -54z" />
    <glyph glyph-name="guilsinglleft" unicode="&#x2039;" horiz-adv-x="251" 
d="M162 82h-49l-63 204l180 204h56l-186 -212z" />
    <glyph glyph-name="guilsinglright" unicode="&#x203a;" horiz-adv-x="251" 
d="M109 490h50l63 -204l-180 -204h-53l184 208z" />
    <glyph glyph-name="guillemotleft" unicode="&#xab;" horiz-adv-x="379" 
d="M164 82h-49l-65 209l178 199h56l-184 -207zM290 82h-49l-64 199l182 209h56l-188 -217z" />
    <glyph glyph-name="guillemotright" unicode="&#xbb;" horiz-adv-x="379" 
d="M236 490h49l65 -209l-178 -199h-56l184 207zM110 490h49l64 -199l-182 -209h-56l188 217z" />
    <glyph glyph-name="asterisk" unicode="*" horiz-adv-x="350" 
d="M402 633l11 -38l-117 -64l79 -62l-30 -34l-79 62l-33 -113h-40l32 112l-114 -61l-12 36l121 66l-81 64l29 32l79 -61l32 113h40l-32 -114z" />
    <glyph glyph-name="dagger" unicode="&#x2020;" horiz-adv-x="413" 
d="M436 437l-13 -46h-152l-153 -534h-48l153 534h-153l13 46h153l56 193h48l-56 -193h152z" />
    <glyph glyph-name="daggerdbl" unicode="&#x2021;" horiz-adv-x="413" 
d="M435 434l-13 -46h-152l-80 -280h152l-13 -46h-152l-59 -205h-48l59 205h-153l13 46h153l80 280h-153l13 46h153l57 196h48l-57 -196h152z" />
    <glyph glyph-name="period" unicode="." horiz-adv-x="130" 
d="M-32 0l17 58h50l-17 -58h-50z" />
    <glyph glyph-name="colon" unicode=":" horiz-adv-x="130" 
d="M-32 0l17 58h50l-17 -58h-50zM95 442l17 58h50l-17 -58h-50z" />
    <glyph glyph-name="semicolon" unicode=";" horiz-adv-x="130" 
d="M95 442l17 58h50l-17 -58h-50zM-22 -72h-27l38 72h-21l17 58h50l-16 -54z" />
    <glyph glyph-name="ellipsis" unicode="&#x2026;" horiz-adv-x="390" 
d="M-32 0l17 58h50l-17 -58h-50zM98 0l17 58h50l-17 -58h-50zM228 0l17 58h50l-17 -58h-50z" />
    <glyph glyph-name="periodcentered" unicode="&#xb7;" horiz-adv-x="130" 
d="M41 256l17 58h50l-17 -58h-50z" />
    <glyph glyph-name="bullet" unicode="&#x2022;" horiz-adv-x="282" 
d="M167 398q24 0 43 -8.5t31.5 -23.5t18 -35.5t2.5 -44.5t-14.5 -44.5t-28.5 -35.5t-38.5 -23.5t-45.5 -8.5t-43 8.5t-31.5 23.5t-18 35.5t-2.5 44.5t14.5 44.5t28.5 35.5t38.5 23.5t45.5 8.5z" />
    <glyph glyph-name="exclam" unicode="!" horiz-adv-x="138" 
d="M71 173h-48l146 512h48zM-27 0l17 58h48l-17 -58h-48z" />
    <glyph glyph-name="exclamdown" unicode="&#xa1;" horiz-adv-x="138" 
d="M217 685l-17 -58h-48l17 58h48zM119 512h48l-146 -512h-48z" />
    <glyph glyph-name="question" unicode="?" horiz-adv-x="461" 
d="M451 486q8 36 2 65.5t-23.5 50.5t-45 32.5t-62.5 11.5q-69 0 -114 -38.5t-64 -95.5h-52q10 38 31.5 71t51.5 57t69 38t84 14q46 0 82 -15t59.5 -42.5t31.5 -66t-2 -84.5q-11 -47 -36.5 -81.5t-61 -58t-76.5 -36.5t-82 -16l-34 -119h-48l46 161q42 0 82 8.5t73 27
t56.5 47.5t32.5 69zM111 0l17 58h48l-17 -58h-48z" />
    <glyph glyph-name="questiondown" unicode="&#xbf;" horiz-adv-x="437" 
d="M389 685l-17 -58h-48l17 58h48zM49 199q-8 -36 -2 -65.5t23.5 -50.5t45 -32.5t62.5 -11.5q69 0 114 38.5t64 95.5h52q-11 -38 -32 -71t-51 -57t-69 -38t-84 -14q-46 0 -82 15t-59.5 42.5t-31.5 65.5t2 85q10 46 36 81t61.5 58.5t76.5 36.5t82 16l34 119h48l-46 -161
q-42 0 -82 -8.5t-73 -27t-56.5 -47.5t-32.5 -69z" />
    <glyph glyph-name="slash" unicode="/" horiz-adv-x="263" 
d="M-53 0l371 685h50l-371 -685h-50z" />
    <glyph glyph-name="backslash" unicode="\" horiz-adv-x="295" 
d="M189 0l-80 685h49l80 -685h-49z" />
    <glyph glyph-name="bar" unicode="|" horiz-adv-x="132" 
d="M-71 -143l237 828h48l-237 -828h-48z" />
    <glyph glyph-name="brokenbar" unicode="&#xa6;" horiz-adv-x="132" 
d="M74 361l92 324h48l-92 -324h-48zM-71 -143l93 323h48l-93 -323h-48z" />
    <glyph glyph-name="at" unicode="@" horiz-adv-x="744" 
d="M348 -70q-71 0 -129 23t-99 63t-64 94.5t-23 117.5q0 78 31 151t85 129t126.5 89.5t154.5 33.5q76 0 132.5 -22.5t94.5 -61t57 -88.5t19 -105q0 -52 -14 -98.5t-38 -82t-56.5 -56t-70.5 -20.5q-23 0 -46.5 10.5t-31.5 39.5q-35 -32 -68.5 -45t-65.5 -13q-36 0 -66 11.5
t-51 31.5t-33 48.5t-12 62.5q0 42 16 81t44 69.5t66.5 49t82.5 18.5q55 0 94 -27.5t50 -64.5l24 83h45l-76 -269q-5 -19 3 -33.5t33 -14.5t48 17t41 46.5t29 68.5t11 83q0 46 -15.5 89.5t-47.5 77.5t-81 54.5t-116 20.5q-73 0 -138 -30.5t-113.5 -80.5t-76.5 -115t-28 -135
q0 -57 20 -105t56 -83t86.5 -55t111.5 -20q78 0 149 37l14 -36q-38 -20 -79.5 -29.5t-84.5 -9.5zM345 132q34 0 63.5 14t51.5 37t34.5 52.5t12.5 60.5q0 51 -33.5 85.5t-88.5 34.5q-34 0 -63 -14t-50 -37t-33 -53t-12 -63q0 -51 32 -84t86 -33z" />
    <glyph glyph-name="ampersand" unicode="&#x26;" horiz-adv-x="661" 
d="M241 502q0 -27 8.5 -56.5t29.5 -64.5q93 15 147.5 56t54.5 113q0 44 -29 69.5t-73 25.5q-32 0 -57.5 -12t-43.5 -32t-27.5 -45.5t-9.5 -53.5zM217 38q48 0 96.5 20.5t93.5 58.5l-155 215q-94 -20 -138 -64t-44 -110q0 -52 39 -86t108 -34zM435 79q-48 -41 -103 -65
t-118 -24q-47 0 -83 12.5t-61 34.5t-38 52t-13 65q0 85 52.5 142t153.5 77q-20 33 -28 64.5t-8 60.5q0 42 15.5 78t41.5 61.5t61.5 40t76.5 14.5q67 0 107.5 -38.5t40.5 -99.5q0 -45 -16.5 -80t-46.5 -60.5t-71.5 -43.5t-91.5 -28l139 -190q51 52 93 123t71 157h49
q-14 -41 -33 -83.5t-42 -84t-50.5 -80t-59.5 -71.5l82 -113h-63z" />
    <glyph glyph-name="dollar" unicode="$" horiz-adv-x="479" 
d="M174 491q0 -44 26 -69.5t64 -42.5l72 252h-2q-74 0 -117 -39t-43 -101zM223 34q37 0 69 11t54.5 30.5t35.5 47.5t13 61q0 26 -8.5 46t-22.5 35t-33 26t-40 20l-79 -277h11zM198 -14l-22 -77h-47l24 83q-33 6 -61 19.5t-47.5 35.5t-30.5 53.5t-10 72.5h51q-1 -31 7 -54
t23 -39t35.5 -26t45.5 -15l83 288q-25 11 -47.5 25.5t-40 33.5t-28 43.5t-10.5 55.5q0 43 15.5 79t44 61.5t68.5 39.5t88 14h11l26 91h47l-28 -97q63 -13 93.5 -56t29.5 -112h-52q0 47 -19.5 78.5t-64.5 42.5l-76 -265q29 -11 54.5 -26t45 -35.5t31 -48.5t11.5 -65
q0 -40 -16 -76.5t-45.5 -64t-72 -43.5t-96.5 -16h-20z" />
    <glyph glyph-name="cent" unicode="&#xa2;" horiz-adv-x="549" 
d="M74 228q0 -69 36 -116.5t104 -62.5l130 451h-8q-56 0 -104 -22.5t-83 -60t-55 -87t-20 -102.5zM504 102q-22 -25 -48.5 -46t-58 -35.5t-69 -22t-82.5 -5.5l-24 -85h-48l26 91q-85 18 -131.5 77.5t-46.5 146.5q0 65 24.5 124.5t68 105t103 72.5t129.5 27h12l26 92h48
l-28 -97q59 -11 100 -44.5t60 -87.5l-49 -26q-18 48 -49 73t-77 34l-129 -452q66 -3 116.5 22.5t88.5 69.5z" />
    <glyph glyph-name="sterling" unicode="&#xa3;" horiz-adv-x="549" 
d="M206 488q12 43 31.5 80t48 65t66 44t87.5 16q60 0 100.5 -24t65.5 -66l-48 -30q-20 33 -50.5 51t-75.5 18q-36 0 -64 -12t-49 -33.5t-35.5 -50t-23.5 -61.5l-41 -142h178l-14 -50h-178l-54 -187q29 -4 51 -14.5t43 -22t43 -20t50 -8.5q29 0 54.5 9t44.5 20q22 13 41 30
l-15 -52q-18 -17 -41 -30q-20 -11 -47.5 -20.5t-59.5 -9.5q-35 0 -60.5 10t-48.5 22.5t-46.5 22.5t-53.5 10q-29 0 -54 -8.5t-44 -19.5q-22 -12 -40 -28l15 52q14 12 32 23q15 9 36 18t46 14l54 189h-97l14 50h97l42 145v0z" />
    <glyph glyph-name="yen" unicode="&#xa5;" horiz-adv-x="481" 
d="M471 355l-14 -48h-171l-25 -89h171l-14 -48h-171l-49 -170h-53l49 170h-176l14 48h176l25 89h-176l14 48h165l-94 330h58l79 -302l247 302h61l-277 -330h161z" />
    <glyph glyph-name="Euro" unicode="&#x20ac;" horiz-adv-x="573" 
d="M484 65q-36 -39 -81.5 -56.5t-91.5 -17.5q-48 0 -86.5 20t-62.5 54.5t-32 81t6 100.5h-97l14 49h97l28 96h-97l14 49h97l15 52q13 45 37.5 81.5t58 63t74 41t84.5 14.5q57 0 97.5 -22.5t60.5 -67.5l-49 -28q-14 35 -46.5 52.5t-72.5 17.5q-33 0 -63.5 -11.5t-56 -32.5
t-45 -50.5t-29.5 -65.5l-13 -44h201l-14 -49h-201l-27 -96h200l-14 -49h-200q-12 -45 -9.5 -83t19.5 -65.5t47 -43t73 -15.5q35 0 70.5 12.5t61.5 41.5l33 -29v0z" />
    <glyph glyph-name="numbersign" unicode="#" horiz-adv-x="575" 
d="M183 229h171l83 223h-171zM614 500l-13 -48h-113l-83 -223h132l-14 -48h-136l-67 -181h-50l66 181h-171l-67 -181h-51l67 181h-101l14 48h105l83 223h-124l13 48h128l69 185h51l-69 -185h171l69 185h51l-69 -185h109z" />
    <glyph glyph-name="florin" unicode="&#x192;" horiz-adv-x="299" 
d="M352 638q-17 0 -35 -4.5t-34.5 -16.5t-31 -32.5t-23.5 -51.5l-10 -33h126l-12 -44h-126l-136 -475q-12 -42 -33 -71.5t-46 -48t-52 -27.5t-50 -9l14 49q16 0 33 4.5t33 16.5t30 32.5t23 53.5l136 475h-74l12 44h74l10 33q12 43 33 72t46 47t52 25.5t53 7.5h32l-13 -47
h-31z" />
    <glyph glyph-name="asciicircum" unicode="^" horiz-adv-x="433" 
d="M271 420l-230 -324h-55l269 380h51l53 -380h-50z" />
    <glyph glyph-name="asciitilde" unicode="~" horiz-adv-x="433" 
d="M414 288q-15 -15 -33 -26q-16 -10 -37.5 -18t-47.5 -8t-45 7t-36 15t-34.5 15t-40.5 7t-43 -8t-37 -17q-19 -11 -36 -24l15 50q15 15 33 26q16 10 37.5 18t47.5 8t45 -7t36 -15t34.5 -15t40.5 -7t43.5 7.5t36.5 16.5q18 11 35 25z" />
    <glyph glyph-name="copyright" unicode="&#xa9;" horiz-adv-x="616" 
d="M61 358q0 68 26 129.5t71 107.5t105.5 73t128.5 27q55 0 101 -18.5t79 -51.5t51.5 -78t18.5 -99q0 -68 -25.5 -129t-69.5 -107.5t-104.5 -74t-129.5 -27.5q-56 0 -102.5 18.5t-79.5 51.5t-51.5 78.5t-18.5 99.5zM605 444q0 47 -15.5 87t-43.5 68.5t-67.5 44.5t-88.5 16
q-60 0 -113 -23.5t-93 -64.5t-63.5 -95.5t-23.5 -115.5q0 -47 16 -87t44.5 -68.5t68.5 -44.5t89 -16q60 0 113 24t92.5 65t62 95t22.5 115zM476 320q-58 -72 -142 -72q-61 0 -97 36t-36 93q0 34 13.5 66.5t37 58t56 40.5t71.5 15q86 0 120 -72l-40 -24q-11 25 -33.5 39.5
t-52.5 14.5q-27 0 -50 -10.5t-40.5 -28.5t-27 -42t-9.5 -51q0 -42 24.5 -67.5t69.5 -25.5q30 0 56.5 14.5t43.5 38.5z" />
    <glyph glyph-name="registered" unicode="&#xae;" horiz-adv-x="616" 
d="M61 358q0 68 26 129.5t71 107.5t105.5 73t128.5 27q55 0 101 -18.5t79 -51.5t51.5 -78t18.5 -99q0 -68 -25.5 -129t-69.5 -107.5t-104.5 -74t-129.5 -27.5q-56 0 -102.5 18.5t-79.5 51.5t-51.5 78.5t-18.5 99.5zM605 444q0 47 -15.5 87t-43.5 68.5t-67.5 44.5t-88.5 16
q-60 0 -113 -23.5t-93 -64.5t-63.5 -95.5t-23.5 -115.5q0 -47 16 -87t44.5 -68.5t68.5 -44.5t89 -16q60 0 113 24t92.5 65t62 95t22.5 115zM464 495q-54 0 -84.5 -25t-44.5 -77l-44 -152h-43l86 300h43l-13 -46q17 17 45.5 32.5t68.5 16.5z" />
    <glyph glyph-name="trademark" unicode="&#x2122;" horiz-adv-x="844" 
d="M318 582l-11 -39h-98l-60 -209q-6 -23 -3.5 -36t10.5 -20.5t20 -9.5t24 -2h26l-11 -41h-35q-18 0 -35.5 5.5t-28.5 18t-14.5 33.5t5.5 52l60 209h-53l11 39h53l30 104h42l-30 -104h98zM409 530q13 16 31 29q15 11 38 20t54 9q41 0 64 -19t28 -53q6 8 18.5 20t31 23.5
t42.5 20t54 8.5q57 0 83 -38t8 -101l-64 -224h-43l62 217q14 51 -2.5 77.5t-59.5 26.5q-45 0 -82 -27t-52 -81l-61 -213h-43l62 217q14 51 -2.5 77.5t-59.5 26.5q-48 0 -83.5 -28.5t-51.5 -84.5l-59 -208h-43l102 357h43z" />
    <glyph glyph-name="degree" unicode="&#xb0;" horiz-adv-x="357" 
d="M124 528q0 32 13 61.5t35 52t51.5 36t61.5 13.5q52 0 85.5 -34.5t33.5 -86.5q0 -33 -13.5 -62.5t-36 -51t-51 -34.5t-59.5 -13q-26 0 -48 9t-38 25t-25 38t-9 47zM356 564q0 36 -21.5 59t-55.5 23q-24 0 -43.5 -10t-33.5 -25.5t-21.5 -35.5t-7.5 -41q0 -35 21.5 -57.5
t54.5 -22.5q24 0 43.5 10t34 26t22 35.5t7.5 38.5z" />
    <glyph glyph-name="section" unicode="&#xa7;" horiz-adv-x="474" 
d="M195 402q-24 -2 -42.5 -11t-31 -22.5t-19 -29.5t-6.5 -32q0 -28 20.5 -45.5t50.5 -30.5t65 -24.5t64 -26.5q52 5 77.5 33t25.5 61q0 28 -20.5 46t-51 31t-66.5 24.5t-66 26.5zM363 85q0 -31 -12.5 -56.5t-35 -44t-53.5 -28.5t-69 -10q-41 0 -76 10t-59.5 28t-38.5 44
t-13 58h50q2 -40 39.5 -67.5t103.5 -27.5q56 0 84 24.5t28 59.5q0 19 -9 32.5t-26 24.5t-41.5 20t-55.5 20q-26 9 -50 20t-43 26.5t-30 35.5t-11 46q0 19 6 39t19.5 38t35 32t52.5 22q-15 15 -21.5 32.5t-6.5 37.5q0 25 10 49t31 43t53.5 30.5t76.5 11.5q90 0 139 -38.5
t47 -100.5h-51q-1 38 -38 66.5t-106 28.5q-29 0 -50 -7t-34.5 -18.5t-20 -26.5t-6.5 -31q0 -19 9.5 -32.5t25 -24t36 -19t42.5 -15.5q28 -10 55.5 -20.5t50 -25.5t36.5 -35.5t14 -50.5q0 -22 -6.5 -42.5t-20 -38.5t-35 -31.5t-51.5 -20.5q26 -29 26 -67z" />
    <glyph glyph-name="paragraph" unicode="&#xb6;" horiz-adv-x="420" 
d="M269 0l196 685h44l-196 -685h-44zM168 0l72 252q-76 14 -118 60.5t-42 116.5q0 18 3 38q7 47 29.5 87t56.5 69t76 45.5t88 16.5h77l-196 -685h-46z" />
    <glyph glyph-name="plus" unicode="+" horiz-adv-x="433" 
d="M420 309l-14 -46h-164l-49 -173h-48l49 173h-161l14 46h161l47 167h48l-47 -167h164z" />
    <glyph glyph-name="minus" unicode="&#x2212;" horiz-adv-x="433" 
d="M33 263l14 46h373l-14 -46h-373z" />
    <glyph glyph-name="plusminus" unicode="&#xb1;" horiz-adv-x="433" 
d="M440 380l-13 -46h-164l-50 -173h-48l50 173h-161l13 46h161l48 167h48l-48 -167h164zM-42 0l13 46h373l-13 -46h-373z" />
    <glyph glyph-name="divide" unicode="&#xf7;" horiz-adv-x="433" 
d="M239 418l16 58h48l-16 -58h-48zM33 263l14 46h373l-14 -46h-373zM145 90l16 58h48l-16 -58h-48z" />
    <glyph glyph-name="multiply" unicode="&#xd7;" horiz-adv-x="433" 
d="M221 256l-174 -139l-26 36l175 140l-90 131l37 30l90 -131l169 135l27 -36l-171 -136l93 -136l-37 -30z" />
    <glyph glyph-name="equal" unicode="=" horiz-adv-x="433" 
d="M54 335l13 46h373l-13 -46h-373zM11 186l14 46h373l-14 -46h-373z" />
    <glyph glyph-name="less" unicode="&#x3c;" horiz-adv-x="433" 
d="M47 312l420 163l-16 -56l-365 -136l287 -139l-14 -47l-326 163z" />
    <glyph glyph-name="greater" unicode="&#x3e;" horiz-adv-x="433" 
d="M406 260l-420 -163l16 56l365 136l-287 139l14 47l326 -163z" />
    <glyph glyph-name="lessequal" unicode="&#x2264;" horiz-adv-x="433" 
d="M66 379l420 163l-16 -56l-365 -136l287 -139l-14 -47l-326 163zM-42 0l13 46h373l-13 -46h-373z" />
    <glyph glyph-name="greaterequal" unicode="&#x2265;" horiz-adv-x="433" 
d="M426 327l-420 -163l16 56l365 136l-287 139l14 47l326 -163zM-42 0l13 46h373l-13 -46h-373z" />
    <glyph glyph-name="approxequal" unicode="&#x2248;" horiz-adv-x="433" 
d="M435 362q-15 -15 -33 -26q-16 -10 -37.5 -18t-47.5 -8t-45 7t-35.5 15t-34 15t-40.5 7q-22 0 -42.5 -8t-37.5 -17q-19 -11 -37 -24l15 50q16 15 34 26q16 10 37.5 18t47.5 8t45 -7t35.5 -15t34 -15t40.5 -7t43.5 7.5t36.5 16.5q18 11 35 25zM392 213q-15 -15 -33 -26
q-16 -10 -37.5 -18t-47.5 -8t-45 7t-35.5 15t-34 15t-40.5 7t-43 -8t-37 -17q-19 -11 -36 -24l14 50q16 15 34 26q16 10 37.5 18t47.5 8t45 -7t35.5 -15t34 -15t40.5 -7t43.5 7.5t36.5 16.5q18 11 35 25z" />
    <glyph glyph-name="notequal" unicode="&#x2260;" horiz-adv-x="433" 
d="M440 381l-13 -46h-148l-55 -103h174l-14 -46h-186l-70 -127h-47l69 127h-139l14 46h151l55 103h-177l13 46h189l73 130h47l-72 -130h136z" />
    <glyph glyph-name="uniF8FF" unicode="&#xf8ff;" horiz-adv-x="5000" 
d="M3288 559h-123v122h123v-122zM4915 624q21 0 36 -15t15 -37t-15 -37t-36 -15t-36 15t-15 37t15 37t36 15zM4915 617q-18 0 -30.5 -13t-12.5 -32t12.5 -32t30.5 -13t30.5 13t12.5 32t-12.5 32t-30.5 13zM4907 590v-15h10q11 0 11 8q0 7 -9 7h-12zM4920 597q16 0 16 -14
q0 -11 -13 -13l14 -25h-9l-14 24h-7v-24h-8v52h21zM1803 402h-1803v109h1803v-109zM3288 0h-123v511h123v-511zM2242 399q-28 0 -54 -12t-45.5 -32t-31.5 -46.5t-12 -56.5t12 -56.5t31.5 -47t45.5 -32t54 -11.5q31 0 58 11.5t47.5 32t32.5 47t12 56.5t-12 56.5t-32.5 46.5
t-47.5 32t-58 12zM2829 399q-31 0 -57.5 -12t-46 -32t-30.5 -46.5t-11 -56.5t11 -56.5t30.5 -47t46 -32t57.5 -11.5q30 0 56.5 11.5t46.5 32t32 47t12 56.5t-12 56.5t-32 46.5t-46.5 32t-56.5 12zM3609 399q-30 0 -56.5 -12t-46.5 -32t-31.5 -46.5t-11.5 -56.5t11.5 -56.5
t31.5 -47t46.5 -32t56.5 -11.5t56.5 11.5t46 32t30.5 47t11 56.5t-11 56.5t-30.5 46.5t-46 32t-56.5 12zM4193 399q-30 0 -57 -12t-47 -32t-32 -46.5t-12 -56.5t12 -56.5t32 -47t47 -32t57 -11.5q28 0 53.5 11.5t44.5 32t30.5 47t11.5 56.5t-11.5 56.5t-30.5 46.5t-44.5 32
t-53.5 12zM1803 198h-1803v109h1803v-109zM4643 162q0 -12 4.5 -25.5t16 -24.5t31.5 -19t51 -8q44 0 64 17t20 37q0 24 -23 34.5t-57 16.5t-74.5 12t-74.5 21.5t-57 45t-23 83.5q0 34 14.5 64t42 52t66 35t86.5 13q96 0 153.5 -46.5t63.5 -121.5h-128q-1 10 -3.5 22.5
t-10.5 23t-24.5 17.5t-44.5 7q-35 0 -58 -10t-26 -36q0 -22 23.5 -33t58.5 -18t76 -15t76 -23.5t58.5 -44t23.5 -76.5q0 -46 -18 -78.5t-49.5 -53t-73.5 -30t-89 -9.5q-51 0 -92.5 13t-71 35.5t-46 54t-17.5 68.5h132zM1803 0h-1803v104h1803v-104zM3103 0h-127v36
q-34 -22 -71.5 -33.5t-79.5 -11.5q-54 0 -102 20t-84 55.5t-57 83t-21 102.5t21 103t57 84t84 56.5t102 20.5q42 0 79.5 -11.5t71.5 -33.5v210h127v-681zM3879 0h-126v36q-28 -22 -66.5 -33.5t-81.5 -11.5q-54 0 -102.5 20t-85 55.5t-57.5 83t-21 102.5t21 103t57.5 84
t85 56.5t102.5 20.5q43 0 81 -11.5t67 -33.5v210h126v-681zM2392 36q-32 -22 -70.5 -33.5t-83.5 -11.5q-53 0 -100 20t-82.5 55.5t-56.5 83t-21 102.5t21 103t56.5 84t82.5 56.5t100 20.5q86 0 154 -45v40h126v-511h-126v36zM4333 36q-31 -22 -68.5 -33.5t-76.5 -11.5
q-55 0 -103.5 20t-85 55.5t-57.5 83t-21 102.5t21 103t57.5 84t85 56.5t103.5 20.5q38 0 76 -11.5t69 -33.5v40h127v-511h-127v36z" />
    <glyph glyph-name="space.quarter" horiz-adv-x="100" 
 />
    <glyph glyph-name="nonbreakingspace" unicode="&#xa0;" horiz-adv-x="190" 
 />
    <glyph glyph-name="Idotaccent" unicode="&#x130;" horiz-adv-x="153" 
d="M-22 0l196 685h53l-196 -685h-53zM217 818l14 52h48l-14 -52h-48z" />
    <glyph glyph-name="afii10051" unicode="&#x402;" horiz-adv-x="727" 
d="M449 -10q-64 0 -106 31l29 43q17 -14 39 -20t45 -6q35 0 67 13t56 37.5t38 59t14 78.5q0 60 -37 101t-111 41q-35 0 -68 -11t-60.5 -32t-49 -51.5t-32.5 -70.5l-58 -203h-53l182 636h-218l14 49h489l-14 -49h-218l-84 -295q32 33 77.5 54t103.5 21q46 0 81.5 -14.5
t59.5 -40t36 -60t12 -75.5q0 -44 -15 -86.5t-45 -75.5t-73.5 -53.5t-100.5 -20.5z" />
    <glyph glyph-name="afii10053" unicode="&#x404;" horiz-adv-x="693" 
d="M649 135q-55 -63 -128.5 -103.5t-168.5 -40.5q-71 0 -127.5 22t-95.5 61t-60 93t-21 117q0 79 32 153t88 131t132 91t163 34q54 0 96.5 -13t74.5 -35.5t54 -54t35 -67.5l-50 -25q-26 72 -77 108.5t-138 36.5q-63 0 -120 -22t-102.5 -60t-78 -88.5t-46.5 -106.5h366
l-15 -49h-360q-1 -8 -1 -15v-15q0 -53 16.5 -98t49 -78t79 -51.5t106.5 -18.5q78 0 142 33t117 94z" />
    <glyph glyph-name="afii10054" unicode="&#x405;" horiz-adv-x="568" 
d="M256 -10q-55 0 -101 11.5t-78.5 37.5t-50 67t-16.5 101h53q-1 -48 12.5 -80t39 -51.5t62 -28t80.5 -8.5q48 0 85 11.5t62 32.5t37.5 49.5t12.5 62.5q0 30 -13 51.5t-34.5 37t-49.5 27t-57 22.5q-32 12 -63 26t-55 34t-39 47t-15 65q0 42 17 77t48 60t74 38.5t94 13.5
q108 0 163 -52.5t53 -145.5h-54q0 33 -9 60.5t-29.5 47t-52.5 30.5t-77 11q-81 0 -127.5 -37t-46.5 -97q0 -28 12.5 -48.5t33 -36t47.5 -27t57 -22.5q33 -12 65 -26.5t57 -35t40 -49t15 -67.5q0 -42 -15.5 -80t-47 -66.5t-79 -45.5t-110.5 -17z" />
    <glyph glyph-name="afii10055" unicode="&#x406;" horiz-adv-x="153" 
d="M-22 0l196 685h53l-196 -685h-53z" />
    <glyph glyph-name="afii10056" unicode="&#x407;" horiz-adv-x="153" 
d="M-22 0l196 685h53l-196 -685h-53zM287 818l14 52h48l-14 -52h-48zM147 818l14 52h48l-14 -52h-48z" />
    <glyph glyph-name="afii10057" unicode="&#x408;" 
d="M61 216q-17 -87 15.5 -131t107.5 -44q69 0 118 48.5t73 133.5l133 462h53l-138 -479q-30 -105 -94.5 -160t-147.5 -55q-50 0 -86.5 16.5t-59 46t-29.5 71t2 91.5h53z" />
    <glyph glyph-name="afii10058" unicode="&#x409;" horiz-adv-x="897" 
d="M451 0l-52 613l-403 -613h-55l452 685h51l23 -260h187q50 0 88.5 -13.5t65 -38t40.5 -58t14 -73.5q0 -45 -18.5 -88.5t-53 -77.5t-84 -55t-110.5 -21h-145zM652 376h-180l29 -327h89q56 0 97.5 17.5t68.5 44.5t40 61t13 67q0 59 -40.5 98t-116.5 39z" />
    <glyph glyph-name="afii10059" unicode="&#x40a;" horiz-adv-x="982" 
d="M737 376h-153l-94 -327h168q54 0 98 16t74.5 43t47.5 63t17 76q0 56 -39.5 92.5t-118.5 36.5zM122 317l-91 -317h-53l196 685h53l-91 -319h392l91 319h53l-74 -260h151q47 0 83.5 -13.5t62 -37t39 -56t13.5 -70.5q0 -52 -21 -97.5t-59.5 -79t-92 -52.5t-118.5 -19h-233
l91 317h-392z" />
    <glyph glyph-name="afii10060" unicode="&#x40b;" horiz-adv-x="732" 
d="M271 195l-56 -195h-53l182 636h-218l14 49h489l-14 -49h-218l-86 -301q45 46 90.5 67.5t101.5 21.5q45 0 81 -18.5t57.5 -52t26.5 -81.5t-11 -106l-47 -166h-53l49 172q13 45 11.5 82t-16.5 64t-43 42t-67 15q-77 0 -134 -48t-86 -132z" />
    <glyph glyph-name="afii10145" unicode="&#x40f;" horiz-adv-x="588" 
d="M197 0h-219l196 685h53l-182 -636h382l182 636h53l-196 -685h-219l-37 -132l-52 -2z" />
    <glyph glyph-name="afii10017" unicode="&#x410;" horiz-adv-x="607" 
d="M410 618l-259 -387h298zM454 181h-336l-121 -181h-58l461 685h53l71 -685h-52z" />
    <glyph glyph-name="afii10018" unicode="&#x411;" horiz-adv-x="517" 
d="M483 240q0 -42 -17 -85t-49 -77.5t-80 -56t-109 -21.5h-250l196 685h392l-14 -49h-339l-63 -221h132q49 0 86.5 -13t63 -36.5t38.5 -55.5t13 -70zM45 49h177q48 0 86.5 15t66 40.5t42 59.5t14.5 72q0 56 -38.5 93t-110.5 37h-146z" />
    <glyph glyph-name="afii10019" unicode="&#x412;" horiz-adv-x="549" 
d="M-22 0l196 685h228q38 0 66.5 -12t47 -32.5t27.5 -47t9 -55.5q0 -26 -7.5 -54t-23.5 -53t-41.5 -46t-60.5 -34q49 -19 70 -54.5t21 -77.5q0 -50 -21 -90t-55.5 -69t-80.5 -44.5t-95 -15.5h-280zM213 636l-75 -262h172q46 0 81.5 12.5t59.5 34.5t36 50t12 60q0 21 -6.5 40
t-19 33.5t-32.5 23t-47 8.5h-181zM124 325l-79 -276h219q45 0 80.5 13t60.5 36t38.5 54t13.5 66q0 21 -6.5 40.5t-19.5 34t-33.5 23.5t-48.5 9h-225z" />
    <glyph glyph-name="afii10020" unicode="&#x413;" horiz-adv-x="465" 
d="M213 636l-182 -636h-53l196 685h389l-14 -49h-336z" />
    <glyph glyph-name="afii10052" unicode="&#x403;" horiz-adv-x="465" 
d="M213 636l-182 -636h-53l196 685h389l-14 -49h-336zM293 757l13 45l206 64l-14 -50z" />
    <glyph glyph-name="afii10021" unicode="&#x414;" horiz-adv-x="708" 
d="M512 49l-49 566l-378 -566h427zM537 -133l38 133h-586l-37 -131l-50 -2l50 182h74l429 636h54l56 -636h74l-51 -180z" />
    <glyph glyph-name="afii10022" unicode="&#x415;" horiz-adv-x="491" 
d="M174 685h404l-14 -49h-351l-76 -265h326l-14 -49h-326l-78 -273h370l-14 -49h-423z" />
    <glyph glyph-name="afii10023" unicode="&#x401;" horiz-adv-x="491" 
d="M174 685h404l-14 -49h-351l-76 -265h326l-14 -49h-326l-78 -273h370l-14 -49h-423zM472 818l14 52h48l-14 -52h-48zM332 818l14 52h48l-14 -52h-48z" />
    <glyph glyph-name="afii10024" unicode="&#x416;" horiz-adv-x="863" 
d="M339 0l94 332l-423 -332h-75l456 358l-218 327h60l211 -317l91 317h53l-91 -320l393 320h70l-419 -342l243 -343h-63l-234 330l-95 -330h-53z" />
    <glyph glyph-name="afii10025" unicode="&#x417;" horiz-adv-x="482" 
d="M203 -4q-70 0 -119.5 26.5t-81.5 83.5l45 25q26 -49 63.5 -68.5t94.5 -19.5q40 0 72 13t55 35t35.5 51.5t12.5 61.5q0 56 -33 93.5t-96 37.5h-86l14 49h87q34 0 62.5 12t49 32.5t31.5 46.5t11 54q0 54 -29.5 85t-89.5 31q-88 0 -148 -75l-36 27q32 46 82.5 71.5
t105.5 25.5q80 0 123.5 -43t43.5 -114q0 -23 -6.5 -47.5t-21 -48t-38 -45.5t-58.5 -39q45 -25 64 -65.5t19 -82.5t-17 -80.5t-47 -68t-72 -47t-92 -17.5z" />
    <glyph glyph-name="afii10026" unicode="&#x418;" horiz-adv-x="608" 
d="M433 0l169 592l-569 -592h-55l196 685h53l-169 -592l569 592h55l-196 -685h-53z" />
    <glyph glyph-name="afii10027" unicode="&#x419;" horiz-adv-x="608" 
d="M433 0l169 592l-569 -592h-55l196 685h53l-169 -592l569 592h55l-196 -685h-53zM591 872l-17 -61q-23 -22 -58.5 -33.5t-73.5 -11.5q-48 0 -80.5 16t-44.5 39l14 51q19 -29 44.5 -46.5t68.5 -17.5q46 0 83 18.5t64 45.5z" />
    <glyph glyph-name="afii10028" unicode="&#x41a;" horiz-adv-x="524" 
d="M126 331l-95 -331h-53l196 685h53l-92 -322l414 322h77l-445 -342l264 -343h-65z" />
    <glyph glyph-name="afii10061" unicode="&#x40c;" horiz-adv-x="524" 
d="M126 331l-95 -331h-53l196 685h53l-92 -322l414 322h77l-445 -342l264 -343h-65zM333 757l13 45l206 64l-14 -50z" />
    <glyph glyph-name="afii10029" unicode="&#x41b;" horiz-adv-x="580" 
d="M450 0l-52 614l-401 -614h-59l452 685h54l59 -685h-53z" />
    <glyph glyph-name="afii10030" unicode="&#x41c;" horiz-adv-x="732" 
d="M199 589l-169 -589h-52l196 685h60l85 -600l427 600h60l-196 -685h-50l162 567l-409 -567h-30z" />
    <glyph glyph-name="afii10031" unicode="&#x41d;" horiz-adv-x="598" 
d="M514 317h-392l-91 -317h-53l196 685h53l-91 -319h392l91 319h53l-196 -685h-53z" />
    <glyph glyph-name="afii10032" unicode="&#x41e;" horiz-adv-x="745" 
d="M447 694q66 0 120.5 -22t94.5 -61.5t62 -94t22 -118.5q0 -78 -30.5 -151.5t-84 -130.5t-126 -91.5t-155.5 -34.5q-66 0 -120.5 22t-94.5 61.5t-62 94t-22 118.5q0 78 30.5 151.5t84 130.5t126 91.5t155.5 34.5zM442 643q-70 0 -131.5 -30t-107.5 -79.5t-72.5 -113
t-26.5 -131.5q0 -54 18.5 -99.5t51.5 -78.5t79 -51.5t101 -18.5q70 0 132 30t108 79.5t72.5 113t26.5 131.5q0 54 -18.5 99.5t-51.5 78.5t-79.5 51.5t-101.5 18.5z" />
    <glyph glyph-name="afii10033" unicode="&#x41f;" horiz-adv-x="588" 
d="M213 636l-182 -636h-53l196 685h488l-196 -685h-53l182 636h-382z" />
    <glyph glyph-name="afii10034" unicode="&#x420;" horiz-adv-x="545" 
d="M100 240l-69 -240h-53l196 685h199q47 0 83.5 -14t62 -39t39 -59.5t13.5 -74.5q0 -54 -21 -101.5t-59.5 -82t-92 -54.5t-118.5 -20h-180zM213 636l-99 -347h168q54 0 98 16.5t74.5 45t47.5 66.5t17 80q0 60 -39.5 99.5t-118.5 39.5h-148z" />
    <glyph glyph-name="afii10035" unicode="&#x421;" horiz-adv-x="693" 
d="M468 693q53 0 94.5 -13t73 -35.5t53 -54t34.5 -67.5l-50 -25q-26 71 -76 108t-134 37q-75 0 -141 -31.5t-115 -83.5t-77.5 -117.5t-28.5 -133.5q0 -51 16.5 -94t48 -74.5t77 -49.5t104.5 -18q80 0 145 32.5t119 94.5l38 -33q-56 -64 -130.5 -104t-171.5 -40
q-70 0 -125.5 21.5t-94 59t-59 89.5t-20.5 113q0 79 32.5 154.5t89 134.5t133 94.5t165.5 35.5z" />
    <glyph glyph-name="afii10036" unicode="&#x422;" horiz-adv-x="520" 
d="M162 0l182 636h-218l14 49h489l-14 -49h-218l-182 -636h-53z" />
    <glyph glyph-name="afii10037" unicode="&#x423;" horiz-adv-x="545" 
d="M155 0h-63l156 211l-107 474h54l96 -416l298 416h63z" />
    <glyph glyph-name="afii10062" unicode="&#x40e;" horiz-adv-x="545" 
d="M155 0h-63l156 211l-107 474h54l96 -416l298 416h63zM557 872l-17 -61q-23 -22 -58.5 -33.5t-73.5 -11.5q-48 0 -80.5 16t-44.5 39l14 51q19 -29 44.5 -46.5t68.5 -17.5q46 0 83 18.5t64 45.5z" />
    <glyph glyph-name="afii10038" unicode="&#x424;" horiz-adv-x="714" 
d="M257 -10l24 83q-50 5 -92 22.5t-72.5 47t-47.5 69.5t-17 89q0 67 28.5 124.5t77.5 99.5t115 65.5t142 23.5h19l23 81h53l-23 -83q49 -5 91 -22.5t72.5 -46.5t47.5 -69.5t17 -89.5q0 -63 -26.5 -120t-74 -100t-113 -68t-144.5 -25h-24l-23 -81h-53zM105 306q0 -40 14 -72
t38.5 -56t59.5 -38.5t77 -18.5l126 444h-12q-62 1 -117 -17.5t-96 -52.5t-65.5 -82.5t-24.5 -106.5zM364 120q64 0 119 19.5t94.5 54.5t62 82t22.5 103q0 40 -14 73t-38.5 56.5t-59.5 38t-77 17.5l-126 -444h17z" />
    <glyph glyph-name="afii10039" unicode="&#x425;" horiz-adv-x="615" 
d="M327 311l-309 -311h-67l355 357l-140 328h57l123 -292l285 292h67l-329 -340l154 -345h-57z" />
    <glyph glyph-name="afii10040" unicode="&#x426;" horiz-adv-x="638" 
d="M468 -133l38 133h-528l196 685h53l-182 -636h382l182 636h53l-182 -636h90l-51 -180z" />
    <glyph glyph-name="afii10041" unicode="&#x427;" horiz-adv-x="558" 
d="M436 0h-53l96 338q-35 -39 -85.5 -62t-115.5 -23q-48 0 -86 18t-61 52t-28.5 81.5t11.5 106.5l50 174h53l-52 -180q-13 -45 -11 -82t18 -63.5t45.5 -41t72.5 -14.5q81 0 142 49t90 134l57 198h53z" />
    <glyph glyph-name="afii10042" unicode="&#x428;" horiz-adv-x="863" 
d="M-22 0l196 685h53l-182 -636h302l182 636h53l-182 -636h302l182 636h53l-196 -685h-763z" />
    <glyph glyph-name="afii10043" unicode="&#x429;" horiz-adv-x="913" 
d="M743 -133l38 133h-803l196 685h53l-182 -636h302l182 636h53l-182 -636h302l182 636h53l-182 -636h90l-51 -180z" />
    <glyph glyph-name="afii10044" unicode="&#x42a;" horiz-adv-x="673" 
d="M360 0h-246l182 636h-170l14 49h223l-74 -260h125q49 0 88 -13.5t65.5 -38t40.5 -57.5t14 -72q0 -48 -19 -92t-53.5 -78t-83 -54t-106.5 -20zM181 49h170q52 0 92.5 16t68.5 42t42.5 60.5t14.5 71.5q0 59 -39 98t-117 39h-138z" />
    <glyph glyph-name="afii10045" unicode="&#x42b;" horiz-adv-x="703" 
d="M153 425h125q49 0 88 -13.5t65.5 -38t40.5 -57.5t14 -72q0 -48 -19 -92t-53.5 -78t-83 -54t-106.5 -20h-246l196 685h53zM45 49h170q52 0 92.5 16t68.5 42t42.5 60.5t14.5 71.5q0 59 -39 98t-117 39h-138zM528 0l196 685h53l-196 -685h-53z" />
    <glyph glyph-name="afii10046" unicode="&#x42c;" horiz-adv-x="522" 
d="M153 425h125q49 0 88 -13.5t65.5 -38t40.5 -57.5t14 -72q0 -48 -19 -92t-53.5 -78t-83 -54t-106.5 -20h-246l196 685h53zM45 49h170q52 0 92.5 16t68.5 42t42.5 60.5t14.5 71.5q0 59 -39 98t-117 39h-138z" />
    <glyph glyph-name="afii10047" unicode="&#x42d;" horiz-adv-x="694" 
d="M289 -9q-55 0 -98.5 13t-75.5 35.5t-54.5 54t-35.5 67.5l48 25q26 -72 78.5 -108.5t141.5 -36.5q62 0 118 22t101 60t77 88t46 106h-366l15 49h359q1 8 1.5 15.5t0.5 15.5q0 53 -16.5 98t-49 78t-79 51.5t-106.5 18.5q-78 0 -142 -33t-117 -94l-38 33q55 64 128.5 104
t168.5 40q71 0 127.5 -22t95.5 -61t60 -93t21 -117q0 -80 -31.5 -153.5t-87 -130.5t-130 -91t-160.5 -34z" />
    <glyph glyph-name="afii10048" unicode="&#x42e;" horiz-adv-x="925" 
d="M540 -10q-63 0 -116.5 22t-91.5 61.5t-59.5 94t-21.5 118.5v15.5t1 15.5h-130l-91 -317h-53l196 685h53l-91 -319h123q14 66 48.5 125.5t84 104.5t112 71.5t133.5 26.5q63 0 116.5 -22t91.5 -61.5t59.5 -94t21.5 -118.5q0 -78 -30 -151.5t-82 -130.5t-122.5 -91.5
t-151.5 -34.5zM632 643q-68 0 -127.5 -30t-104 -79.5t-70.5 -113t-26 -131.5q0 -54 17.5 -99.5t49.5 -78.5t76 -51.5t97 -18.5q68 0 128 30t104.5 79.5t70.5 113t26 131.5q0 54 -17.5 99.5t-49.5 78.5t-76.5 51.5t-97.5 18.5z" />
    <glyph glyph-name="afii10049" unicode="&#x42f;" horiz-adv-x="542" 
d="M549 636h-178q-55 0 -95 -17t-66 -43.5t-38.5 -59t-12.5 -64.5q0 -58 41.5 -96t127.5 -38h130zM444 271l-403 -271h-82l407 271h-54q-48 0 -86 13.5t-64.5 37t-40.5 56t-14 70.5q0 43 17 85t49.5 76t81 55t111.5 21h249l-196 -685h-52z" />
    <glyph glyph-name="afii10050" unicode="&#x490;" horiz-adv-x="465" 
d="M31 0h-53l196 685h338l38 129l50 3l-51 -181h-336z" />
    <glyph glyph-name="afii10065" unicode="&#x430;" horiz-adv-x="569" 
d="M484 287q0 38 -13 70t-36 55t-55.5 36t-71.5 13q-51 0 -95 -22t-76.5 -57t-50.5 -80t-18 -91q0 -36 12.5 -67.5t36 -54.5t56 -36t72.5 -13q51 0 94.5 21.5t76 56t50.5 79t18 90.5zM430 74q-36 -36 -84 -58.5t-105 -22.5q-50 0 -91 16.5t-70 45.5t-44.5 68.5t-15.5 85.5
q0 54 21.5 107.5t60 96t92 69t116.5 26.5q42 0 76 -11t59.5 -29.5t43 -43t26.5 -51.5l36 127h49l-142 -500h-49z" />
    <glyph glyph-name="afii10066" unicode="&#x431;" horiz-adv-x="554" 
d="M246 -7q-53 0 -99 22.5t-76.5 62t-42 92.5t5.5 114l19 72q18 69 43 126.5t64 99.5t95 67t135 28l72 3q50 2 82.5 6t58.5 11l-13 -45q-24 -8 -58 -12.5t-82 -6.5l-67 -2q-56 -2 -98 -16.5t-74 -43t-56 -71t-44 -98.5q35 36 83 61.5t111 25.5q51 0 92 -16.5t70 -45.5
t44.5 -68.5t15.5 -85.5q0 -54 -21.5 -104.5t-59 -89.5t-89 -62.5t-111.5 -23.5zM302 442q-48 0 -90 -20t-73 -52t-48.5 -73t-17.5 -84q0 -37 12.5 -68.5t36 -55t56 -36.5t72.5 -13q49 0 91 19.5t72.5 52t48 73.5t17.5 84q0 37 -12.5 68.5t-35.5 54.5t-56 36.5t-73 13.5z" />
    <glyph glyph-name="afii10067" unicode="&#x432;" horiz-adv-x="436" 
d="M214 0h-247l144 500h171q64 0 96.5 -32.5t32.5 -79.5q0 -45 -25.5 -80.5t-66.5 -54.5q32 -15 45.5 -40.5t13.5 -54.5q0 -32 -12.5 -60.5t-34.5 -50t-52 -34.5t-65 -13zM280 456h-132l-51 -179h152q28 0 49 9.5t35.5 24.5t21.5 33.5t7 37.5q0 32 -20 53t-62 21zM237 233
h-153l-54 -189h180q30 0 52 9.5t37 25.5t22 36t7 40q0 33 -21.5 55.5t-69.5 22.5z" />
    <glyph glyph-name="afii10068" unicode="&#x433;" horiz-adv-x="444" 
d="M349 152h50q-30 -79 -96 -119.5t-148 -40.5q-72 0 -113.5 32.5t-41.5 89.5q0 49 27.5 77.5t69 46t89.5 29t89.5 25t69 34t27.5 57.5q0 35 -26.5 57t-72.5 22q-33 0 -59 -9t-45.5 -23t-32.5 -32.5t-20 -37.5h-49q23 67 78.5 107.5t131.5 40.5q64 0 103.5 -32.5t39.5 -92.5
q0 -48 -27.5 -76.5t-68.5 -46t-89.5 -28.5t-89.5 -25t-68.5 -34.5t-27.5 -57.5q0 -35 29 -55.5t86 -20.5q65 0 115 29.5t70 83.5z" />
    <glyph glyph-name="afii10100" unicode="&#x453;" horiz-adv-x="444" 
d="M349 152h50q-30 -79 -96 -119.5t-148 -40.5q-72 0 -113.5 32.5t-41.5 89.5q0 49 27.5 77.5t69 46t89.5 29t89.5 25t69 34t27.5 57.5q0 35 -26.5 57t-72.5 22q-33 0 -59 -9t-45.5 -23t-32.5 -32.5t-20 -37.5h-49q23 67 78.5 107.5t131.5 40.5q64 0 103.5 -32.5t39.5 -92.5
q0 -48 -27.5 -76.5t-68.5 -46t-89.5 -28.5t-89.5 -25t-68.5 -34.5t-27.5 -57.5q0 -35 29 -55.5t86 -20.5q65 0 115 29.5t70 83.5zM226 590l13 45l206 64l-14 -50z" />
    <glyph glyph-name="afii10069" unicode="&#x434;" horiz-adv-x="568" 
d="M243 -7q-50 0 -91 16.5t-70 45.5t-44.5 68.5t-15.5 85.5q0 57 22.5 111t61.5 96t91.5 67t113.5 25q42 0 80 -13l-167 190h64l182 -215q16 -19 28.5 -38t20.5 -40t12.5 -46t4.5 -55q0 -56 -22 -109.5t-61 -95.5t-92.5 -67.5t-117.5 -25.5zM308 461q-50 0 -93.5 -21.5
t-75.5 -56.5t-50.5 -79.5t-18.5 -90.5q0 -37 12.5 -68.5t36 -55t56 -36.5t72.5 -13q51 0 94.5 21.5t75.5 57t50.5 80t18.5 91.5q0 37 -12 68t-35 54t-56 36t-75 13z" />
    <glyph glyph-name="afii10070" unicode="&#x435;" horiz-adv-x="560" 
d="M473 89q-44 -45 -97.5 -69.5t-119.5 -24.5q-54 0 -98 16t-74.5 44.5t-47 67.5t-16.5 85q0 55 21.5 108t60.5 95t93 68t118 26q49 0 89 -16t68.5 -44.5t44 -66.5t15.5 -81q0 -33 -9 -64h-452q-1 -6 -1 -12.5v-12.5q0 -40 15 -71t41.5 -52t62 -32t77.5 -11q56 0 98 21
t77 57zM312 458q-41 0 -78.5 -13.5t-68 -37.5t-53.5 -57t-34 -72h403v12q0 37 -11.5 68t-33.5 53t-53.5 34.5t-70.5 12.5z" />
    <glyph glyph-name="afii10071" unicode="&#x451;" horiz-adv-x="550" 
d="M473 89q-44 -45 -97.5 -69.5t-119.5 -24.5q-54 0 -98 16t-74.5 44.5t-47 67.5t-16.5 85q0 55 21.5 108t60.5 95t93 68t118 26q49 0 89 -16t68.5 -44.5t44 -66.5t15.5 -81q0 -33 -9 -64h-452q-1 -6 -1 -12.5v-12.5q0 -40 15 -71t41.5 -52t62 -32t77.5 -11q56 0 98 21
t77 57zM312 458q-41 0 -78.5 -13.5t-68 -37.5t-53.5 -57t-34 -72h403v12q0 37 -11.5 68t-33.5 53t-53.5 34.5t-70.5 12.5zM420 633l14 52h48l-14 -52h-48zM280 633l14 52h48l-14 -52h-48z" />
    <glyph glyph-name="afii10072" unicode="&#x436;" horiz-adv-x="684" 
d="M252 0l69 241l-310 -241h-71l337 262l-138 238h53l137 -232l66 232h49l-67 -236l270 236h64l-289 -251l178 -249h-58l-173 238l-1 -5l-67 -233h-49z" />
    <glyph glyph-name="afii10073" unicode="&#x437;" horiz-adv-x="381" 
d="M146 -6q-51 0 -95 22.5t-70 72.5l40 24q23 -40 51.5 -58t70.5 -18q30 0 53.5 9.5t40 25t25.5 36.5t9 44q0 82 -85 82h-62l12 44h69q29 0 50 9.5t35 24.5t21 32.5t7 34.5q0 36 -24 59.5t-66 23.5q-23 0 -40 -4.5t-30 -12.5t-23.5 -18.5t-19.5 -22.5l-31 27q24 30 59 52
t91 22q59 0 96 -33t37 -87q0 -41 -23.5 -76.5t-75.5 -56.5q23 -14 38 -38.5t15 -59.5q0 -30 -12 -58.5t-34.5 -51t-55 -36.5t-73.5 -14z" />
    <glyph glyph-name="afii10074" unicode="&#x438;" horiz-adv-x="481" 
d="M342 69q-30 -35 -73 -56t-99 -21q-42 0 -75.5 15t-53.5 42t-25.5 65t8.5 85l87 301h49l-86 -297q-23 -77 6 -120.5t100 -43.5q75 0 127.5 47t75.5 128l82 286h49l-143 -500h-49z" />
    <glyph glyph-name="afii10075" unicode="&#x439;" horiz-adv-x="482" 
d="M342 69q-30 -35 -73 -56t-99 -21q-42 0 -75.5 15t-53.5 42t-25.5 65t8.5 85l87 301h49l-86 -297q-23 -77 6 -120.5t100 -43.5q75 0 127.5 47t75.5 128l82 286h49l-143 -500h-49zM481 668l-17 -61q-23 -22 -58.5 -33.5t-73.5 -11.5q-48 0 -80.5 16t-44.5 39l14 51
q19 -29 44.5 -46.5t68.5 -17.5q46 0 83 18.5t64 45.5z" />
    <glyph glyph-name="afii10076" unicode="&#x43a;" horiz-adv-x="422" 
d="M278 0l-192 240l-69 -240h-49l143 500h49l-68 -238l281 238h68l-299 -249l196 -251h-60z" />
    <glyph glyph-name="afii10109" unicode="&#x45c;" horiz-adv-x="422" 
d="M278 0l-192 240l-69 -240h-49l143 500h49l-68 -238l281 238h68l-299 -249l196 -251h-60zM246 591l13 45l206 64l-14 -50z" />
    <glyph glyph-name="afii10077" unicode="&#x43b;" horiz-adv-x="455" 
d="M269 500h62l42 -500h-50l-36 447l-292 -447h-57z" />
    <glyph glyph-name="afii10078" unicode="&#x43c;" horiz-adv-x="579" 
d="M198 0l-73 396l-113 -396h-45l143 500h45l78 -434l325 434h53l-143 -500h-49l113 397l-299 -397h-35z" />
    <glyph glyph-name="afii10079" unicode="&#x43d;" horiz-adv-x="473" 
d="M312 0l68 239h-295l-68 -239h-49l143 500h49l-62 -217h295l62 217h49l-143 -500h-49z" />
    <glyph glyph-name="afii10080" unicode="&#x43e;" horiz-adv-x="566" 
d="M311 508q51 0 92 -16.5t70 -45.5t44.5 -68.5t15.5 -85.5q0 -57 -22 -111t-61 -96t-92.5 -67t-114.5 -25q-50 0 -91 16.5t-70 45.5t-44.5 68.5t-15.5 85.5q0 57 22.5 111t61.5 96t91.5 67t113.5 25zM308 461q-50 0 -93.5 -21.5t-75.5 -56.5t-50.5 -79.5t-18.5 -90.5
q0 -37 12.5 -68.5t36 -55t56 -36.5t72.5 -13q51 0 94.5 21.5t75.5 56.5t50 79.5t18 90.5q0 37 -12.5 68.5t-35.5 54.5t-56 36.5t-73 13.5z" />
    <glyph glyph-name="afii10081" unicode="&#x43f;" 
d="M17 0h-49l143 500h49l-20 -69q30 35 73 56t99 21q42 0 75.5 -15t53.5 -42t25 -65.5t-8 -84.5l-87 -301h-49l86 297q23 77 -6 120.5t-100 43.5q-75 0 -127.5 -47t-75.5 -128z" />
    <glyph glyph-name="afii10082" unicode="&#x440;" horiz-adv-x="579" 
d="M84 214q0 -38 13 -70t36 -55t55.5 -36t71.5 -13q51 0 95 22t76.5 57t50.5 80t18 91q0 36 -12.5 67.5t-36 54.5t-56 36t-72.5 13q-51 0 -94.5 -21.5t-76 -56t-50.5 -79t-18 -90.5zM258 -7q-42 0 -76 11t-59.5 29.5t-43 43t-26.5 51.5l-86 -302h-49l192 674h49l-21 -73
q36 36 84 58.5t105 22.5q50 0 91 -16.5t70 -45.5t44.5 -68.5t15.5 -85.5q0 -54 -21.5 -107.5t-60 -96t-92 -69t-116.5 -26.5z" />
    <glyph glyph-name="afii10083" unicode="&#x441;" horiz-adv-x="519" 
d="M247 -8q-53 0 -94.5 15.5t-70.5 43.5t-44.5 67.5t-15.5 86.5q0 60 22.5 115t62.5 96.5t94.5 66.5t119.5 25q74 0 126.5 -33t73.5 -93l-45 -24q-21 55 -61.5 78.5t-103.5 23.5q-52 0 -96 -21t-76.5 -55.5t-50.5 -80t-18 -94.5q0 -75 47 -122.5t134 -47.5q57 0 100.5 22.5
t78.5 62.5l35 -31q-41 -46 -94 -73.5t-124 -27.5z" />
    <glyph glyph-name="afii10084" unicode="&#x442;" horiz-adv-x="793" 
d="M17 0h-49l143 500h49l-19 -68q29 34 69 55t94 21q53 0 90 -28.5t47 -79.5q29 45 79.5 76.5t113.5 31.5q39 0 69.5 -15t49 -42.5t23 -65.5t-8.5 -84l-86 -301h-49l85 297q23 76 -4.5 120t-90.5 44q-66 0 -116 -44t-72 -121l-85 -296h-49l85 297q11 38 9.5 68.5t-14 51.5
t-35 32.5t-53.5 11.5q-70 0 -120 -47t-73 -128z" />
    <glyph glyph-name="afii10085" unicode="&#x443;" horiz-adv-x="465" 
d="M520 500l-321 -490q-35 -54 -67.5 -91.5t-65.5 -59.5t-68 -29t-77 1l13 46q33 -5 60 0.5t51.5 23t48.5 46.5t53 71l-57 482h52l48 -423l274 423h56z" />
    <glyph glyph-name="afii10110" unicode="&#x45e;" horiz-adv-x="465" 
d="M520 500l-321 -490q-35 -54 -67.5 -91.5t-65.5 -59.5t-68 -29t-77 1l13 46q33 -5 60 0.5t51.5 23t48.5 46.5t53 71l-57 482h52l48 -423l274 423h56zM461 668l-17 -61q-23 -22 -58.5 -33.5t-73.5 -11.5q-48 0 -80.5 16t-44.5 39l14 51q19 -29 44.5 -46.5t68.5 -17.5
q46 0 83 18.5t64 45.5z" />
    <glyph glyph-name="afii10086" unicode="&#x444;" horiz-adv-x="666" 
d="M185 -174l49 170q-45 7 -82 26t-63 48.5t-40.5 67t-14.5 81.5q0 58 25 110.5t68 92.5t100.5 63t123.5 23h29l51 177h50l-52 -180q45 -6 82.5 -25.5t64.5 -48.5t41.5 -67t14.5 -81q0 -58 -25 -110.5t-68 -92.5t-101 -63.5t-124 -23.5h-31l-48 -167h-50zM82 222
q0 -35 11.5 -65.5t33.5 -54t52 -39t68 -21.5l120 420h-22q-55 0 -103 -19.5t-83.5 -52.5t-56 -76.5t-20.5 -91.5zM321 39q55 0 103 19.5t83 52.5t55.5 77t20.5 93q0 35 -12 65.5t-33.5 54t-52.5 39t-69 20.5l-120 -421h25z" />
    <glyph glyph-name="afii10087" unicode="&#x445;" horiz-adv-x="487" 
d="M230 221l-223 -221h-66l267 263l-106 237h55l89 -206l204 206h66l-247 -247l112 -253h-54z" />
    <glyph glyph-name="afii10088" unicode="&#x446;" horiz-adv-x="541" 
d="M376 -133l38 133h-92l20 69q-30 -35 -73 -56t-99 -21q-42 0 -75.5 15t-53.5 42t-25.5 65t8.5 85l87 301h49l-86 -297q-23 -77 6 -120.5t100 -43.5q75 0 127.5 47t75.5 128l82 286h49l-130 -456h88l-50 -175z" />
    <glyph glyph-name="afii10089" unicode="&#x447;" horiz-adv-x="452" 
d="M341 0h-49l75 260q-69 -64 -158 -64q-39 0 -70.5 15t-50.5 42.5t-24 65.5t9 84l28 97h49l-27 -93q-22 -76 5 -120t91 -44q72 0 121 47t72 128l23 82h49z" />
    <glyph glyph-name="afii10090" unicode="&#x448;" horiz-adv-x="770" 
d="M671 214l82 286h49l-143 -500h-49l19 68q-28 -33 -67 -54.5t-91 -21.5q-51 0 -86.5 28.5t-45.5 79.5q-28 -45 -77 -76.5t-111 -31.5q-37 0 -67 15t-48 42.5t-22.5 65.5t9.5 84l86 301h49l-85 -297q-11 -38 -9.5 -68.5t13.5 -51.5t34 -32.5t52 -11.5q64 0 112.5 44
t70.5 121l85 296h49l-85 -297q-22 -76 3.5 -120t84.5 -44q69 0 117 47t71 128z" />
    <glyph glyph-name="afii10091" unicode="&#x449;" horiz-adv-x="829" 
d="M664 -133l38 133h-92l19 68q-28 -33 -67 -54.5t-91 -21.5q-51 0 -86.5 28.5t-45.5 79.5q-28 -45 -77 -76.5t-111 -31.5q-37 0 -67 15t-48 42.5t-22.5 65.5t9.5 84l86 301h49l-85 -297q-11 -38 -9.5 -68.5t13.5 -51.5t34 -32.5t52 -11.5q64 0 112.5 44t70.5 121l85 296h49
l-85 -297q-22 -76 3.5 -120t84.5 -44q69 0 117 47t71 128l82 286h49l-130 -456h88l-50 -175z" />
    <glyph glyph-name="afii10092" unicode="&#x44a;" horiz-adv-x="532" 
d="M276 0h-199l131 456h-137l13 44h186l-50 -175h104q70 0 109.5 -38.5t39.5 -98.5q0 -41 -15.5 -75.5t-42.5 -59.5t-63 -39t-76 -14zM314 281h-107l-68 -237h139q33 0 59.5 12t45 32t28.5 44.5t10 50.5q0 42 -27.5 70t-79.5 28z" />
    <glyph glyph-name="afii10093" unicode="&#x44b;" horiz-adv-x="542" 
d="M431 0h-49l143 500h49zM203 281h-107l-68 -237h139q33 0 59.5 12t45 32t28.5 44.5t10 50.5q0 42 -27.5 70t-79.5 28zM-34 0l144 500h49l-50 -175h104q70 0 109.5 -38.5t39.5 -98.5q0 -41 -15.5 -75.5t-42.5 -59.5t-63 -39t-76 -14h-199z" />
    <glyph glyph-name="afii10094" unicode="&#x44c;" horiz-adv-x="413" 
d="M203 281h-107l-68 -237h139q33 0 59.5 12t45 32t28.5 44.5t10 50.5q0 42 -27.5 70t-79.5 28zM-34 0l144 500h49l-50 -175h104q70 0 109.5 -38.5t39.5 -98.5q0 -41 -15.5 -75.5t-42.5 -59.5t-63 -39t-76 -14h-199z" />
    <glyph glyph-name="afii10095" unicode="&#x44d;" horiz-adv-x="519" 
d="M201 -8q-74 0 -128.5 33t-75.5 93l44 23q21 -55 62 -78t104 -23q44 0 82.5 15t69 41.5t51.5 61.5t31 75h-265l12 44h259q1 4 1 8v8q0 75 -46.5 121.5t-134.5 46.5q-57 0 -100.5 -22.5t-78.5 -62.5l-35 31q41 47 94 74t124 27q52 0 94 -15.5t71 -43.5t44.5 -67.5
t15.5 -86.5q0 -60 -22 -115t-61 -96.5t-93.5 -66.5t-118.5 -25z" />
    <glyph glyph-name="afii10096" unicode="&#x44e;" horiz-adv-x="713" 
d="M400 -7q-48 0 -87 16.5t-66.5 45.5t-42.5 68.5t-15 85.5q0 8 0.5 15t1.5 15h-106l-68 -239h-49l143 500h49l-62 -217h101q12 46 37 87t60.5 71.5t79 48.5t92.5 18t88 -16.5t67 -45.5t42.5 -68.5t14.5 -85.5q0 -57 -21.5 -111t-59 -96t-89 -67t-110.5 -25zM465 461
q-48 0 -89.5 -21.5t-72.5 -56.5t-48.5 -79.5t-17.5 -90.5q0 -37 12 -68.5t34 -55t52.5 -36.5t68.5 -13q48 0 90 21.5t72.5 56.5t48 79.5t17.5 90.5q0 37 -11.5 68.5t-33.5 54.5t-53 36.5t-69 13.5z" />
    <glyph glyph-name="afii10097" unicode="&#x44f;" horiz-adv-x="401" 
d="M193 241h117l61 215h-115q-41 0 -72 -10t-52 -28t-32 -42t-11 -52q0 -38 28 -60.5t76 -22.5zM241 0l56 197l-288 -197h-76l291 197h-41q-65 0 -105 34.5t-40 91.5q0 40 16 73t45 56t69.5 35.5t88.5 12.5h176l-143 -500h-49z" />
    <glyph glyph-name="afii10099" unicode="&#x452;" 
d="M315 -30l94 327q23 77 -6 120.5t-100 43.5q-73 0 -126.5 -47t-76.5 -128l-82 -286h-49l159 554h-39l13 46h39l24 85h49l-24 -85h179l-13 -46h-179l-36 -123q30 35 73 56t99 21q42 0 75.5 -15t53.5 -42t25 -65.5t-8 -84.5l-97 -338q-12 -42 -32 -69t-44 -42t-49.5 -19
t-48.5 -1l13 46q15 -2 31.5 0.5t32 12.5t28.5 29t22 50z" />
    <glyph glyph-name="afii10101" unicode="&#x454;" horiz-adv-x="528" 
d="M465 93q-41 -46 -94 -73.5t-124 -27.5q-53 0 -94.5 15.5t-70.5 43.5t-44.5 67.5t-15.5 86.5q0 60 22.5 115t62.5 96.5t94.5 66.5t119.5 25q74 0 126.5 -33t73.5 -93l-45 -24q-21 55 -61.5 78.5t-103.5 23.5q-42 0 -78.5 -13.5t-66.5 -37.5t-52 -56.5t-33 -69.5h268
l-12 -44h-265q-1 -8 -1.5 -15t-0.5 -15q0 -75 47 -122.5t134 -47.5q57 0 100.5 22.5t78.5 62.5z" />
    <glyph glyph-name="afii10102" unicode="&#x455;" horiz-adv-x="441" 
d="M51 152q0 -65 38.5 -92t106.5 -27q67 0 103 31.5t36 74.5q0 21 -10.5 36t-27.5 25.5t-39 18.5t-45 16q-62 20 -96.5 49.5t-34.5 77.5q0 30 12 56.5t34.5 47t54.5 32t73 11.5q36 0 68.5 -9.5t56.5 -28t37.5 -46.5t12.5 -65h-49q0 46 -33 75t-99 29q-58 0 -88 -28t-30 -68
q0 -20 9 -33.5t24 -24t34.5 -18t40.5 -14.5q31 -10 57.5 -21.5t46 -27t30.5 -35t11 -46.5q0 -32 -13 -61t-38 -50.5t-61 -34t-82 -12.5q-93 0 -142 42t-47 120h49z" />
    <glyph glyph-name="afii10103" unicode="&#x456;" horiz-adv-x="128" 
d="M149 632l15 53h49l-15 -53h-49zM-32 0l143 500h49l-143 -500h-49z" />
    <glyph glyph-name="afii10104" unicode="&#x457;" horiz-adv-x="129" 
d="M-32 0l143 500h49l-143 -500h-49zM223 633l14 52h48l-14 -52h-48zM83 633l14 52h48l-14 -52h-48z" />
    <glyph glyph-name="afii10105" unicode="&#x458;" horiz-adv-x="128" 
d="M149 632l15 53h49l-15 -53h-49zM160 500l-154 -537q-12 -42 -32 -69t-44 -42t-49.5 -19t-48.5 -1l13 46q15 -2 31.5 0.5t32 12.5t28.5 29t22 50l152 530h49z" />
    <glyph glyph-name="afii10106" unicode="&#x459;" horiz-adv-x="693" 
d="M323 0l-37 445l-291 -445h-56l331 500h61l15 -175h147q71 0 110.5 -39t39.5 -99q0 -38 -14.5 -72t-41 -59.5t-63 -40.5t-79.5 -15h-122zM485 280h-135l20 -235h81q34 0 60.5 12t45 31.5t28 44t9.5 49.5q0 42 -27 70t-82 28z" />
    <glyph glyph-name="afii10107" unicode="&#x45a;" horiz-adv-x="727" 
d="M520 280h-99l-68 -235h131q34 0 61 12t45.5 31.5t28 44t9.5 49.5q0 42 -27 70t-81 28zM291 0l67 231h-275l-67 -231h-49l144 500h49l-65 -225h275l65 225h49l-50 -175h93q71 0 110.5 -39t39.5 -99q0 -38 -14.5 -72t-41 -59.5t-63 -40.5t-79.5 -15h-188z" />
    <glyph glyph-name="afii10108" unicode="&#x45b;" 
d="M18 0h-49l159 554h-39l13 46h39l24 85h49l-24 -85h179l-13 -46h-179l-36 -123q30 35 73 56t99 21q42 0 75.5 -15t53.5 -42t25 -65.5t-8 -84.5l-87 -301h-49l86 297q23 77 -6 120.5t-100 43.5q-73 0 -126.5 -47t-76.5 -128z" />
    <glyph glyph-name="afii10193" unicode="&#x45f;" horiz-adv-x="481" 
d="M169 -134l-46 -2q7 40 28.5 72t49.5 58q-8 -1 -16 -1.5t-16 -0.5q-42 0 -75.5 15t-53.5 42t-25.5 65t8.5 85l87 301h49l-86 -297q-23 -77 6 -120.5t100 -43.5q75 0 127.5 47t75.5 128l82 286h49l-143 -500h-49l20 69q-13 -15 -25 -24q-20 -18 -42 -37t-42.5 -40t-37 -46
t-25.5 -56z" />
    <glyph glyph-name="afii10098" unicode="&#x491;" horiz-adv-x="384" 
d="M407 456h-260l-130 -456h-49l143 500h262l43 149l46 2z" />
    <glyph glyph-name="afii10067.bgr" horiz-adv-x="448" 
d="M188 -8q-47 0 -84.5 18t-60.5 50.5t-28.5 78.5t10.5 102l77 269q13 48 35.5 82t50.5 56.5t61 33t69 10.5q74 0 114.5 -42.5t40.5 -111.5q0 -27 -9.5 -55t-27.5 -53t-44 -44.5t-59 -28.5q35 -20 55 -59.5t20 -88.5q0 -39 -14 -77.5t-42 -69.5t-69 -50.5t-95 -19.5z
M147 500l-32 -113h141q45 0 76.5 13.5t52 35.5t30 48.5t9.5 52.5q0 54 -31 82.5t-82 28.5q-56 0 -99 -35t-65 -113zM192 38q42 0 73.5 15t52.5 39t31 54t10 60q0 58 -31.5 97t-85.5 39h-140l-30 -108q-12 -43 -10 -79t17 -62t43.5 -40.5t69.5 -14.5z" />
    <glyph glyph-name="afii10068.bgr" horiz-adv-x="444" 
d="M349 152h50q-30 -79 -96 -119.5t-148 -40.5q-72 0 -113.5 32.5t-41.5 89.5q0 49 27.5 77.5t69 46t89.5 29t89.5 25t69 34t27.5 57.5q0 35 -26.5 57t-72.5 22q-33 0 -59 -9t-45.5 -23t-32.5 -32.5t-20 -37.5h-49q23 67 78.5 107.5t131.5 40.5q64 0 103.5 -32.5t39.5 -92.5
q0 -48 -27.5 -76.5t-68.5 -46t-89.5 -28.5t-89.5 -25t-68.5 -34.5t-27.5 -57.5q0 -35 29 -55.5t86 -20.5q65 0 115 29.5t70 83.5z" />
    <glyph glyph-name="afii10069.bgr" horiz-adv-x="562" 
d="M477 288q0 37 -12.5 69t-35.5 55t-55.5 36t-71.5 13q-51 0 -94 -21.5t-74.5 -56t-49.5 -79t-18 -89.5q0 -36 12.5 -67.5t35.5 -54.5t55 -36t72 -13q47 0 90 20t75.5 53.5t51.5 77.5t19 93zM176 -187q-79 0 -131 34t-72 93l44 23q23 -57 64 -79.5t98 -22.5q42 0 79.5 13.5
t68 37.5t53 58t34.5 75l10 32q-36 -36 -83.5 -58t-103.5 -22q-50 0 -90.5 16.5t-69 45t-44 67.5t-15.5 85q0 55 21.5 108t59.5 95t91 68t115 26q81 0 133 -39t71 -96l36 127h49l-131 -461q-15 -53 -42.5 -95t-65 -71t-83 -44.5t-96.5 -15.5z" />
    <glyph glyph-name="afii10072.bgr" horiz-adv-x="684" 
d="M252 0l68 240l-309 -240h-71l337 262l-138 238h53l136 -231l118 416h49l-118 -421l270 236h64l-289 -251l178 -249h-58l-173 238l-1 -5l-67 -233h-49z" />
    <glyph glyph-name="afii10073.bgr" horiz-adv-x="440" 
d="M127 -188q-127 0 -195 104l39 28q26 -41 62 -63.5t89 -22.5q42 0 75 14.5t55 39t33.5 56t11.5 65.5q0 23 -7.5 45.5t-23 40.5t-38.5 29t-54 11h-58l12 44h68q36 0 64.5 12.5t48 34t30 49t10.5 57.5q0 47 -28 77t-85 30q-44 0 -78 -17t-65 -54l-31 27q35 44 79.5 67
t99.5 23q74 0 115.5 -41.5t41.5 -110.5q0 -32 -10.5 -61t-27.5 -53t-39.5 -41.5t-47.5 -27.5q36 -22 55 -60.5t19 -80.5q0 -44 -15.5 -83.5t-44 -70.5t-69.5 -49t-91 -18z" />
    <glyph glyph-name="afii10074.bgr" horiz-adv-x="482" 
d="M342 69q-30 -35 -73 -56t-99 -21q-42 0 -75.5 15t-53.5 42t-25.5 65t8.5 85l87 301h49l-86 -297q-23 -77 6 -120.5t100 -43.5q75 0 127.5 47t75.5 128l82 286h49l-143 -500h-49z" />
    <glyph glyph-name="afii10075.bgr" horiz-adv-x="482" 
d="M342 69q-30 -35 -73 -56t-99 -21q-42 0 -75.5 15t-53.5 42t-25.5 65t8.5 85l87 301h49l-86 -297q-23 -77 6 -120.5t100 -43.5q75 0 127.5 47t75.5 128l82 286h49l-143 -500h-49zM481 668l-17 -61q-23 -22 -58.5 -33.5t-73.5 -11.5q-48 0 -80.5 16t-44.5 39l14 51
q19 -29 44.5 -46.5t68.5 -17.5q46 0 83 18.5t64 45.5z" />
    <glyph glyph-name="afii10076.bgr" horiz-adv-x="432" 
d="M86 240l-69 -240h-49l196 685h49l-121 -423l281 238h68l-299 -249l196 -251h-60z" />
    <glyph glyph-name="afii10077.bgr" horiz-adv-x="455" 
d="M269 500h62l42 -500h-50l-36 447l-292 -447h-57z" />
    <glyph glyph-name="afii10079.bgr" horiz-adv-x="473" 
d="M312 0l68 239h-295l-68 -239h-49l143 500h49l-62 -217h295l62 217h49l-143 -500h-49z" />
    <glyph glyph-name="afii10081.bgr" 
d="M17 0h-49l143 500h49l-20 -69q30 35 73 56t99 21q42 0 75.5 -15t53.5 -42t25 -65.5t-8 -84.5l-87 -301h-49l86 297q23 77 -6 120.5t-100 43.5q-75 0 -127.5 -47t-75.5 -128z" />
    <glyph glyph-name="afii10084.bgr" horiz-adv-x="793" 
d="M17 0h-49l143 500h49l-19 -68q29 34 69 55t94 21q53 0 90 -28.5t47 -79.5q29 45 79.5 76.5t113.5 31.5q39 0 69.5 -15t49 -42.5t23 -65.5t-8.5 -84l-86 -301h-49l85 297q23 76 -4.5 120t-90.5 44q-66 0 -116 -44t-72 -121l-85 -296h-49l85 297q11 38 9.5 68.5t-14 51.5
t-35 32.5t-53.5 11.5q-70 0 -120 -47t-73 -128z" />
    <glyph glyph-name="afii10088.bgr" horiz-adv-x="541" 
d="M376 -133l38 133h-92l20 69q-30 -35 -73 -56t-99 -21q-42 0 -75.5 15t-53.5 42t-25.5 65t8.5 85l87 301h49l-86 -297q-23 -77 6 -120.5t100 -43.5q75 0 127.5 47t75.5 128l82 286h49l-130 -456h88l-50 -175z" />
    <glyph glyph-name="afii10089.bgr" horiz-adv-x="452" 
d="M341 0h-49l75 260q-69 -64 -158 -64q-39 0 -70.5 15t-50.5 42.5t-24 65.5t9 84l28 97h49l-27 -93q-22 -76 5 -120t91 -44q72 0 121 47t72 128l23 82h49z" />
    <glyph glyph-name="afii10090.bgr" horiz-adv-x="771" 
d="M671 214l82 286h49l-143 -500h-49l19 68q-28 -33 -67 -54.5t-91 -21.5q-51 0 -86.5 28.5t-45.5 79.5q-28 -45 -77 -76.5t-111 -31.5q-37 0 -67 15t-48 42.5t-22.5 65.5t9.5 84l86 301h49l-85 -297q-11 -38 -9.5 -68.5t13.5 -51.5t34 -32.5t52 -11.5q64 0 112.5 44
t70.5 121l85 296h49l-85 -297q-22 -76 3.5 -120t84.5 -44q69 0 117 47t71 128z" />
    <glyph glyph-name="afii10091.bgr" horiz-adv-x="829" 
d="M664 -133l38 133h-92l19 68q-28 -33 -67 -54.5t-91 -21.5q-51 0 -86.5 28.5t-45.5 79.5q-28 -45 -77 -76.5t-111 -31.5q-37 0 -67 15t-48 42.5t-22.5 65.5t9.5 84l86 301h49l-85 -297q-11 -38 -9.5 -68.5t13.5 -51.5t34 -32.5t52 -11.5q64 0 112.5 44t70.5 121l85 296h49
l-85 -297q-22 -76 3.5 -120t84.5 -44q69 0 117 47t71 128l82 286h49l-130 -456h88l-50 -175z" />
    <glyph glyph-name="afii10092.bgr" horiz-adv-x="529" 
d="M269 -10q-36 0 -67.5 12t-52.5 36t-28 61t7 88l76 269h-140l13 44h189l-50 -175h95q73 0 111 -40.5t38 -106.5q0 -35 -13.5 -69t-38 -60.5t-60 -42.5t-79.5 -16zM268 36q35 0 62 12t45 31.5t27.5 45.5t9.5 54q0 45 -27 72.5t-88 27.5h-94l-29 -101q-10 -35 -7 -61.5
t16.5 -44.5t35.5 -27t49 -9z" />
    <glyph glyph-name="afii10094.bgr" horiz-adv-x="407" 
d="M162 -10q-36 0 -67.5 12t-52.5 36t-28 61t7 88l89 313h49l-50 -175h95q73 0 111 -40.5t38 -106.5q0 -35 -13.5 -69t-38 -60.5t-60 -42.5t-79.5 -16zM161 36q35 0 62 12t45 31.5t27.5 45.5t9.5 54q0 45 -27 72.5t-88 27.5h-94l-29 -101q-10 -35 -7 -61.5t16.5 -44.5
t35.5 -27t49 -9z" />
    <glyph glyph-name="afii10096.bgr" horiz-adv-x="713" 
d="M402 -7q-48 0 -87.5 16.5t-67.5 45.5t-43 68.5t-15 85.5q0 8 0.5 15t1.5 15h-105l-69 -239h-49l197 685h49l-116 -402h100q12 46 37 87t60 71.5t78.5 48.5t92.5 18t89 -16.5t67.5 -45.5t42.5 -68.5t15 -85.5q0 -57 -21 -111t-58.5 -96t-88.5 -67t-110 -25zM465 461
q-48 0 -89.5 -21.5t-72.5 -57t-48.5 -80t-17.5 -90.5q0 -37 12 -68.5t34 -54.5t52.5 -36t68.5 -13q48 0 89.5 21.5t72.5 57t48.5 80t17.5 90.5q0 37 -11.5 68.5t-33.5 54.5t-53 36t-69 13z" />
    <glyph glyph-name="afii10066.locl" horiz-adv-x="563" 
d="M243 -7q-50 0 -91 16.5t-70 45.5t-44.5 68.5t-15.5 85.5q0 48 16.5 93t46.5 83t70.5 65t88.5 39q-50 16 -72.5 37t-22.5 60q0 40 32.5 69.5t93.5 29.5h166q59 0 97.5 1.5t62.5 6.5l-13 -45q-24 -6 -64 -8.5t-97 -2.5h-158q-30 0 -49.5 -12t-19.5 -37q0 -18 9 -30t33 -20
l101 -31q41 -13 75 -32t58.5 -46.5t38 -63.5t13.5 -83q0 -56 -21.5 -108t-60 -92t-91 -64.5t-112.5 -24.5zM303 451q-49 0 -91.5 -20.5t-74 -54t-49.5 -76.5t-18 -87q0 -37 12.5 -68.5t36 -55t56 -36.5t72.5 -13q49 0 92 20.5t74.5 54t49 76.5t17.5 87q0 37 -12.5 68.5
t-35.5 54.5t-56 36.5t-73 13.5z" />
    <glyph glyph-name="afii10068.locl" horiz-adv-x="129" 
d="M-32 0l143 500h49l-143 -500h-49zM48 617l13 44h248l-13 -44h-248z" />
    <glyph glyph-name="afii10069.locl" horiz-adv-x="562" 
d="M477 288q0 37 -12.5 69t-35.5 55t-55.5 36t-71.5 13q-51 0 -94 -21.5t-74.5 -56t-49.5 -79t-18 -89.5q0 -36 12.5 -67.5t35.5 -54.5t55 -36t72 -13q47 0 90 20t75.5 53.5t51.5 77.5t19 93zM176 -187q-79 0 -131 34t-72 93l44 23q23 -57 64 -79.5t98 -22.5q42 0 79.5 13.5
t68 37.5t53 58t34.5 75l10 32q-36 -36 -83.5 -58t-103.5 -22q-50 0 -90.5 16.5t-69 45t-44 67.5t-15.5 85q0 55 21.5 108t59.5 95t91 68t115 26q81 0 133 -39t71 -96l36 127h49l-131 -461q-15 -53 -42.5 -95t-65 -71t-83 -44.5t-96.5 -15.5z" />
    <glyph glyph-name="afii10081.locl" horiz-adv-x="482" 
d="M495 617h-308l13 44h308zM342 69q-30 -35 -73 -56t-99 -21q-42 0 -75.5 15t-53.5 42t-25.5 65t8.5 85l87 301h49l-86 -297q-23 -77 6 -120.5t100 -43.5q75 0 127.5 47t75.5 128l82 286h49l-143 -500h-49z" />
    <glyph glyph-name="afii10084.locl" horiz-adv-x="770" 
d="M785 617h-598l13 44h598zM671 214l82 286h49l-143 -500h-49l19 68q-28 -33 -67 -54.5t-91 -21.5q-51 0 -86.5 28.5t-45.5 79.5q-28 -45 -77 -76.5t-111 -31.5q-37 0 -67 15t-48 42.5t-22.5 65.5t9.5 84l86 301h49l-85 -297q-11 -38 -9.5 -68.5t13.5 -51.5t34 -32.5
t52 -11.5q64 0 112.5 44t70.5 121l85 296h49l-85 -297q-22 -76 3.5 -120t84.5 -44q69 0 117 47t71 128z" />
    <glyph glyph-name="afii61352" unicode="&#x2116;" horiz-adv-x="1015" 
d="M674 469q0 44 18 84t48 71t70 49t84 18q35 0 65 -12.5t51.5 -34.5t33.5 -52.5t12 -65.5q0 -45 -18.5 -85t-49 -69.5t-69.5 -47t-81 -17.5q-36 0 -66 12.5t-52 34t-34 51t-12 64.5zM1007 521q0 56 -33 92t-86 36q-37 0 -67 -15.5t-51.5 -40t-33.5 -56t-12 -63.5
q0 -55 33 -90t84 -35q37 0 68 16t52.5 41t33.5 55.5t12 59.5zM612 203l14 49h357l-14 -49h-357zM416 0l-212 606l-174 -606h-52l196 685h54l213 -605l173 605h52l-196 -685h-54z" />
    <glyph glyph-name="uni20BD" unicode="&#x20bd;" horiz-adv-x="609" 
d="M280 636l-88 -308h157q52 0 94 14t71.5 38t45.5 56t16 67q0 58 -37 95.5t-111 37.5h-148zM424 141h-286l-40 -141h-53l40 141h-92l15 48h91l26 90h-88l16 48h86l102 358h199q45 0 80 -13.5t59 -37.5t36.5 -57.5t12.5 -72.5q0 -47 -20.5 -88t-57.5 -71.5t-88.5 -48
t-114.5 -17.5h-169l-26 -90h287z" />
    <glyph glyph-name="uni20B8" unicode="&#x20b8;" horiz-adv-x="523" 
d="M603 637h-466l13 48h466zM211 0h-53l149 498h-208l14 49h469l-14 -49h-208z" />
    <glyph glyph-name="uni20B4" unicode="&#x20b4;" horiz-adv-x="570" 
d="M351 438q83 0 124.5 34.5t41.5 83.5q0 38 -25.5 63.5t-80.5 25.5q-44 0 -76 -10.5t-55.5 -28.5t-39.5 -43t-27 -54h-53q32 90 99 138t155 48q77 0 118 -36.5t41 -96.5q0 -20 -6 -39.5t-17 -36.5t-25.5 -29.5t-30.5 -18.5h104l-13 -48h-519l13 48h272zM138 253h-112l14 48
h519l-14 -48h-264q-48 0 -81.5 -10.5t-54 -28t-30 -40.5t-9.5 -47q0 -38 28 -63.5t88 -25.5q89 0 141 38.5t75 97.5h53q-32 -90 -105 -138t-167 -48q-81 0 -125 36.5t-44 96.5q0 42 24 79t64 53z" />
    <glyph glyph-name="NULL" horiz-adv-x="0" 
 />
    <glyph glyph-name="NULL" horiz-adv-x="0" 
 />
    <glyph glyph-name="nonmarkingreturn" unicode="&#xd;" horiz-adv-x="235" 
 />
    <glyph glyph-name="cyr_breve.uc" horiz-adv-x="394" 
d="M454 872l-17 -61q-23 -22 -58.5 -33.5t-73.5 -11.5q-48 0 -80.5 16t-44.5 39l14 51q19 -29 44.5 -46.5t68.5 -17.5q46 0 83 18.5t64 45.5z" />
    <glyph glyph-name="cyr_breve" horiz-adv-x="394" 
d="M454 668l-17 -61q-23 -22 -58.5 -33.5t-73.5 -11.5q-48 0 -80.5 16t-44.5 39l14 51q19 -29 44.5 -46.5t68.5 -17.5q46 0 83 18.5t64 45.5z" />
    </font>
</defs>
</svg>
