<?xml version="1.0" standalone="no"?>
<!DOCTYPE svg PUBLIC "-//W3C//DTD SVG 1.1//EN" "http://www.w3.org/Graphics/SVG/1.1/DTD/svg11.dtd" >
<svg>
<metadata>
Created by FontForge 20131121 at Fri May 29 12:19:16 2015

Copyright (c) MCKL, Inc. All rights reserved.
</metadata>
<defs>
<font id="adineuePROCyr-BlackItalicWeb" horiz-adv-x="554" >
  <font-face 
    font-family="adineue PRO Cyr Black Italic Web"
    font-weight="800"
    font-style="italic"
    font-stretch="normal"
    units-per-em="1000"
    panose-1="2 0 0 0 0 0 0 0 0 0"
    ascent="750"
    descent="-250"
    x-height="518"
    cap-height="685"
    bbox="-273 -231 4968 947"
    underline-thickness="50"
    underline-position="-50"
    slope="-16"
    unicode-range="U+000D-FB02"
  />
<missing-glyph horiz-adv-x="381" 
 />
    <glyph glyph-name=".notdef" horiz-adv-x="381" 
 />
    <glyph glyph-name="space" unicode=" " horiz-adv-x="188" 
 />
    <glyph glyph-name="A" unicode="A" horiz-adv-x="712" 
d="M426 487l-134 -228h138zM433 100h-235l-59 -100h-207l422 685h253l25 -685h-197z" />
    <glyph glyph-name="B" unicode="B" horiz-adv-x="619" 
d="M-38 0l196 685h299q79 0 124 -41t45 -113q0 -62 -32 -109t-104 -71q48 -21 68 -55.5t20 -75.5q0 -52 -20 -92.5t-57 -69t-88.5 -43.5t-114.5 -15h-336zM310 527l-30 -105h77q32 0 50.5 19t18.5 46q0 17 -11.5 28.5t-32.5 11.5h-72zM236 269l-32 -111h105q36 0 57.5 18.5
t21.5 49.5q0 20 -12.5 31.5t-37.5 11.5h-102z" />
    <glyph glyph-name="C" unicode="C" horiz-adv-x="709" 
d="M455 699q114 0 182 -46.5t97 -125.5l-170 -99q-30 86 -128 86q-41 0 -76 -17.5t-61 -46t-41 -65t-15 -74.5q0 -63 34.5 -103t99.5 -40q51 0 93 25t72 67l129 -113q-63 -78 -142.5 -120t-184.5 -42q-68 0 -124 22t-96.5 61.5t-62.5 93.5t-22 118q0 89 34.5 165.5t92 133
t133 88.5t156.5 32z" />
    <glyph glyph-name="D" unicode="D" horiz-adv-x="704" 
d="M-39 0l196 685h240q80 0 139.5 -22.5t98.5 -61.5t58 -90.5t19 -109.5q0 -79 -28 -151.5t-82.5 -128t-136 -88.5t-188.5 -33h-316zM303 174q52 0 90.5 17.5t63.5 45t37.5 62.5t12.5 71q0 29 -8.5 55t-25.5 45t-42 30t-57 11h-69l-97 -337h95z" />
    <glyph glyph-name="E" unicode="E" horiz-adv-x="577" 
d="M157 685h514l-48 -168h-317l-26 -90h287l-47 -166h-287l-27 -93h319l-48 -168h-516z" />
    <glyph glyph-name="F" unicode="F" horiz-adv-x="561" 
d="M221 219l-63 -219h-197l196 685h505l-49 -174h-308l-36 -124h278l-48 -168h-278z" />
    <glyph glyph-name="G" unicode="G" horiz-adv-x="755" 
d="M772 395q-14 -100 -52 -176.5t-93.5 -128.5t-124 -78.5t-144.5 -26.5q-77 0 -136 24.5t-100 65.5t-62 96t-21 117q0 75 31 149t87 132t135 94t174 36q47 0 91.5 -10t82 -30t66.5 -50.5t45 -70.5l-176 -104q-15 42 -49.5 62.5t-82.5 20.5q-43 0 -80 -18t-64 -47.5
t-42.5 -68t-15.5 -79.5q0 -62 38 -102t107 -40q49 0 84 21.5t52 53.5h-165l43 158h372v0z" />
    <glyph glyph-name="H" unicode="H" horiz-adv-x="682" 
d="M448 250h-218l-72 -250h-197l196 685h197l-74 -261h218l74 261h197l-196 -685h-197z" />
    <glyph glyph-name="I" unicode="I" horiz-adv-x="267" 
d="M-39 0l196 685h197l-196 -685h-197z" />
    <glyph glyph-name="J" unicode="J" horiz-adv-x="582" 
d="M216 256q-6 -27 -4 -44.5t9.5 -28t19.5 -14.5t27 -4q30 0 50.5 19t29.5 50l129 451h197l-133 -466q-15 -51 -39.5 -93t-60 -72.5t-82.5 -47t-106 -16.5t-108 16t-81 49t-44.5 83t1.5 118h195z" />
    <glyph glyph-name="K" unicode="K" horiz-adv-x="658" 
d="M243 299l-85 -299h-197l196 685h197l-83 -290l268 290h244l-340 -342l149 -343h-222z" />
    <glyph glyph-name="L" unicode="L" horiz-adv-x="533" 
d="M157 685h197l-146 -511h281l-50 -174h-478z" />
    <glyph glyph-name="M" unicode="M" horiz-adv-x="861" 
d="M259 386l-111 -386h-187l196 685h246l40 -351l241 351h264l-196 -685h-183l110 386l-270 -386h-101z" />
    <glyph glyph-name="N" unicode="N" horiz-adv-x="690" 
d="M256 363l-104 -363h-191l196 685h218l105 -370l106 370h191l-196 -685h-218z" />
    <glyph glyph-name="O" unicode="O" horiz-adv-x="757" 
d="M358 -15q-70 0 -128 23t-100 64t-65.5 97t-23.5 122q0 79 31.5 153t86.5 131t129 91t160 34q70 0 128 -23t100 -64t65.5 -97t23.5 -122q0 -79 -31.5 -153t-86.5 -131t-129.5 -91t-159.5 -34zM376 171q37 0 70.5 16t59.5 43.5t41.5 64t15.5 77.5q0 28 -9 54t-26 45.5
t-42 31t-57 11.5q-36 0 -69.5 -16.5t-59.5 -44t-42 -64t-16 -76.5q0 -29 9 -54.5t26 -45t42 -31t57 -11.5z" />
    <glyph glyph-name="P" unicode="P" horiz-adv-x="602" 
d="M208 173l-50 -173h-197l196 685h275q57 0 97.5 -16t66.5 -43.5t38 -63.5t12 -76q0 -66 -24 -123.5t-68.5 -99.5t-108 -66t-141.5 -24h-96zM331 347q47 0 78.5 27.5t31.5 76.5q0 26 -15.5 43t-47.5 17h-73l-47 -164h73z" />
    <glyph glyph-name="Q" unicode="Q" horiz-adv-x="757" 
d="M459 -2q-24 -6 -49.5 -9.5t-51.5 -3.5q-70 0 -128 23t-100 64t-65.5 97t-23.5 122q0 79 31.5 153t86.5 131t129 91t160 34q70 0 128 -23t100 -64t65.5 -97t23.5 -122q0 -92 -41.5 -176t-113.5 -142l50 -101l-171 -36zM493 309l29 -59q20 26 30.5 57t10.5 65q0 28 -9 54
t-26 45.5t-42 31t-57 11.5q-36 0 -69.5 -16.5t-59.5 -44t-42 -64t-16 -76.5q0 -29 9 -54.5t25.5 -45t40.5 -31t55 -11.5l-51 102z" />
    <glyph glyph-name="R" unicode="R" horiz-adv-x="615" 
d="M323 370q56 0 82 25.5t26 61.5q0 23 -16 38.5t-56 15.5h-54l-41 -141h59zM222 223l-64 -223h-197l196 685h269q47 0 85.5 -15t66 -41t42.5 -62.5t15 -79.5q0 -48 -16 -91.5t-43.5 -78.5t-64.5 -59.5t-79 -34.5l108 -223h-227z" />
    <glyph glyph-name="S" unicode="S" horiz-adv-x="602" 
d="M274 -14q-57 0 -107 12t-86 39.5t-54 72.5t-12 111h192q-2 -40 18.5 -60t68.5 -20q32 0 49.5 13t17.5 31q0 20 -20.5 33.5t-53.5 26.5q-44 18 -80.5 37t-62 43.5t-39.5 56.5t-14 76q0 52 20.5 96.5t57.5 76.5t88 50.5t111 18.5q59 0 108 -15t83.5 -44.5t51 -74
t10.5 -102.5h-187q6 33 -13 54.5t-60 21.5q-38 0 -54.5 -14t-16.5 -34q0 -25 29 -41t69 -31q33 -12 66 -26.5t59 -36t42 -52t16 -74.5q0 -52 -21 -97t-60 -78t-94 -51.5t-122 -18.5z" />
    <glyph glyph-name="T" unicode="T" horiz-adv-x="599" 
d="M127 0l147 511h-185l49 174h566l-49 -174h-184l-147 -511h-197z" />
    <glyph glyph-name="U" unicode="U" horiz-adv-x="656" 
d="M622 243q-17 -58 -46.5 -105.5t-72 -81t-97.5 -51.5t-122 -18q-74 0 -127.5 26t-84 71t-37 106.5t13.5 132.5l103 362h197l-110 -382q-18 -62 0.5 -100t77.5 -38q45 0 73 28t42 76l119 416h197z" />
    <glyph glyph-name="V" unicode="V" horiz-adv-x="681" 
d="M143 0l-15 685h200l-3 -473l263 473h209l-401 -685h-253z" />
    <glyph glyph-name="W" unicode="W" horiz-adv-x="960" 
d="M510 352l-199 -352h-228l46 685h201l-43 -419l235 419h156l-5 -426l198 426h207l-347 -685h-227z" />
    <glyph glyph-name="X" unicode="X" horiz-adv-x="695" 
d="M337 195l-168 -195h-230l323 357l-127 328h217l64 -181l153 181h232l-311 -338l132 -347h-216z" />
    <glyph glyph-name="Y" unicode="Y" horiz-adv-x="667" 
d="M160 0l70 246l-105 439h201l47 -258l191 258h220l-356 -436l-71 -249h-197z" />
    <glyph glyph-name="Z" unicode="Z" horiz-adv-x="538" 
d="M236 169h265l-48 -169h-512l44 154l366 362h-268l48 169h520l-45 -158z" />
    <glyph glyph-name="A.left" horiz-adv-x="699" 
d="M547 519l-202 -260h127zM426 100h-204l-78 -100h-218l556 685h304l-196 -685h-193z" />
    <glyph glyph-name="A.right" horiz-adv-x="688" 
d="M285 501l-66 -242h125zM383 100h-208l-27 -100h-187l196 685h263l194 -685h-206z" />
    <glyph glyph-name="M.left" horiz-adv-x="1017" 
d="M451 400l-306 -400h-219l542 685h223l-97 -341l272 341h238l-196 -685h-194l113 392l-313 -392h-178z" />
    <glyph glyph-name="M.right" horiz-adv-x="1017" 
d="M264 432l-118 -432h-185l196 685h223l77 -378l113 378h223l150 -685h-195l-83 433l-133 -433h-170z" />
    <glyph glyph-name="V.left" horiz-adv-x="688" 
d="M122 685h206l123 -501l137 501h187l-196 -685h-263z" />
    <glyph glyph-name="V.right" horiz-adv-x="699" 
d="M157 685h193l-144 -498l387 498h228l-556 -685h-304z" />
    <glyph glyph-name="W.left" horiz-adv-x="1017" 
d="M608 378l-113 -378h-223l-150 685h195l83 -433l133 433h170l98 -432l118 432h185l-196 -685h-223z" />
    <glyph glyph-name="W.right" horiz-adv-x="1017" 
d="M471 341l-272 -341h-238l196 685h194l-113 -392l313 392h178l-115 -400l306 400h219l-542 -685h-223z" />
    <glyph glyph-name="Aacute" unicode="&#xc1;" horiz-adv-x="712" 
d="M426 487l-134 -228h138zM433 100h-235l-59 -100h-207l422 685h253l25 -685h-197zM365 720l44 155l263 54l-45 -157z" />
    <glyph glyph-name="acute" unicode="&#xb4;" horiz-adv-x="394" 
d="M161 553l44 155l263 54l-45 -157z" />
    <glyph glyph-name="Abreve" unicode="&#x102;" horiz-adv-x="712" 
d="M426 487l-134 -228h138zM433 100h-235l-59 -100h-207l422 685h253l25 -685h-197zM652 779q-24 -20 -62.5 -36t-89.5 -16q-53 0 -87.5 16.5t-54.5 45.5l31 111q29 -17 60.5 -27t79.5 -10q47 0 90 11.5t68 25.5z" />
    <glyph glyph-name="breve" unicode="&#x2d8;" horiz-adv-x="394" 
d="M446 612q-24 -20 -62.5 -36t-89.5 -16q-53 0 -87.5 16.5t-54.5 45.5l31 111q29 -17 60.5 -27t79.5 -10q47 0 90 11.5t68 25.5z" />
    <glyph glyph-name="Acircumflex" unicode="&#xc2;" horiz-adv-x="712" 
d="M426 487l-134 -228h138zM433 100h-235l-59 -100h-207l422 685h253l25 -685h-197zM531 870l141 -43l-31 -109l-132 23l-176 -23l31 109z" />
    <glyph glyph-name="circumflex" unicode="&#x2c6;" horiz-adv-x="394" 
d="M325 703l141 -43l-31 -109l-132 23l-176 -23l31 109z" />
    <glyph glyph-name="Adieresis" unicode="&#xc4;" horiz-adv-x="712" 
d="M426 487l-134 -228h138zM433 100h-235l-59 -100h-207l422 685h253l25 -685h-197zM505 729l38 133h157l-38 -133h-157zM318 729l38 133h157l-38 -133h-157z" />
    <glyph glyph-name="dieresis" unicode="&#xa8;" horiz-adv-x="394" 
d="M299 562l38 133h157l-38 -133h-157zM112 562l38 133h157l-38 -133h-157z" />
    <glyph glyph-name="AE" unicode="&#xc6;" horiz-adv-x="982" 
d="M425 487l-134 -228h138zM433 100h-235l-59 -100h-207l420 685h724l-48 -168h-416l3 -90h357l-47 -166h-303l3 -93h305l-48 -168h-447z" />
    <glyph glyph-name="Agrave" unicode="&#xc0;" horiz-adv-x="712" 
d="M426 487l-134 -228h138zM433 100h-235l-59 -100h-207l422 685h253l25 -685h-197zM608 710l-233 52l45 157l232 -54z" />
    <glyph glyph-name="grave" unicode="`" horiz-adv-x="394" 
d="M396 543l-233 52l45 157l232 -54z" />
    <glyph glyph-name="Amacron" unicode="&#x100;" horiz-adv-x="712" 
d="M426 487l-134 -228h138zM433 100h-235l-59 -100h-207l422 685h253l25 -685h-197zM350 731l45 157h282l-45 -157h-282z" />
    <glyph glyph-name="macron" unicode="&#xaf;" horiz-adv-x="394" 
d="M144 564l45 157h282l-45 -157h-282z" />
    <glyph glyph-name="Aogonek" unicode="&#x104;" horiz-adv-x="712" 
d="M427 487l-134 -228h138zM499 -168q-8 -5 -19 -9q-9 -4 -22 -6.5t-28 -2.5q-39 0 -59.5 18.5t-20.5 48.5q0 16 7 33.5t19 33.5t27.5 29.5t33.5 22.5h-1l-2 100h-235l-59 -100h-207l422 685h253l25 -685h-115q-31 -17 -47 -41t-16 -41q0 -21 28 -21q17 0 26 3q5 1 10 3z
" />
    <glyph glyph-name="Aring" unicode="&#xc5;" horiz-adv-x="712" 
d="M426 487l-134 -228h138zM433 100h-235l-59 -100h-207l422 685h253l25 -685h-197zM410 812q0 26 10.5 49t27.5 39.5t39.5 26t46.5 9.5q41 0 67.5 -26.5t26.5 -68.5q0 -27 -10 -49.5t-26.5 -39.5t-39.5 -26.5t-48 -9.5q-40 0 -67 26.5t-27 69.5zM550 832q0 14 -7.5 21.5
t-18.5 7.5q-15 0 -25.5 -12t-10.5 -29q0 -14 7.5 -21.5t18.5 -7.5q16 0 26 12.5t10 28.5z" />
    <glyph glyph-name="ring" unicode="&#x2da;" horiz-adv-x="394" 
d="M204 645q0 26 10.5 49t27.5 39.5t39.5 26t46.5 9.5q41 0 67.5 -26.5t26.5 -68.5q0 -27 -10 -49.5t-26.5 -39.5t-39.5 -26.5t-48 -9.5q-40 0 -67 26.5t-27 69.5zM344 665q0 14 -7.5 21.5t-18.5 7.5q-15 0 -25.5 -12t-10.5 -29q0 -14 7.5 -21.5t18.5 -7.5q16 0 26 12.5
t10 28.5z" />
    <glyph glyph-name="Atilde" unicode="&#xc3;" horiz-adv-x="712" 
d="M426 487l-134 -228h138zM433 100h-235l-59 -100h-207l422 685h253l25 -685h-197zM371 847q20 17 49 31.5t59 14.5q22 0 38.5 -5t31.5 -10.5t30 -10.5t33 -5q12 0 26 3t25 8q13 4 26 11l-33 -112q-26 -20 -52 -32t-55 -12q-22 0 -39 4.5t-32 10t-30 10t-33 4.5
q-13 0 -26 -3.5t-24 -7.5q-13 -5 -26 -11z" />
    <glyph glyph-name="tilde" unicode="&#x2dc;" horiz-adv-x="394" 
d="M165 680q20 17 49 31.5t59 14.5q22 0 38.5 -5t31.5 -10.5t30 -10.5t33 -5q12 0 26 3t25 8q13 4 26 11l-33 -112q-26 -20 -52 -32t-55 -12q-22 0 -39 4.5t-32 10t-30 10t-33 4.5q-13 0 -26 -3.5t-24 -7.5q-13 -5 -26 -11z" />
    <glyph glyph-name="Cacute" unicode="&#x106;" horiz-adv-x="709" 
d="M455 699q114 0 182 -46.5t97 -125.5l-170 -99q-30 86 -128 86q-41 0 -76 -17.5t-61 -46t-41 -65t-15 -74.5q0 -63 34.5 -103t99.5 -40q51 0 93 25t72 67l129 -113q-63 -78 -142.5 -120t-184.5 -42q-68 0 -124 22t-96.5 61.5t-62.5 93.5t-22 118q0 89 34.5 165.5t92 133
t133 88.5t156.5 32zM357 720l44 155l263 54l-45 -157z" />
    <glyph glyph-name="Ccaron" unicode="&#x10c;" horiz-adv-x="709" 
d="M455 699q114 0 182 -46.5t97 -125.5l-170 -99q-30 86 -128 86q-41 0 -76 -17.5t-61 -46t-41 -65t-15 -74.5q0 -63 34.5 -103t99.5 -40q51 0 93 25t72 67l129 -113q-63 -78 -142.5 -120t-184.5 -42q-68 0 -124 22t-96.5 61.5t-62.5 93.5t-22 118q0 89 34.5 165.5t92 133
t133 88.5t156.5 32zM481 726l-141 43l31 109l132 -23l176 23l-31 -109z" />
    <glyph glyph-name="caron" unicode="&#x2c7;" horiz-adv-x="394" 
d="M283 559l-141 43l31 109l132 -23l176 23l-31 -109z" />
    <glyph glyph-name="Ccedilla" unicode="&#xc7;" horiz-adv-x="710" 
d="M294 -223q-23 0 -40.5 8t-29.5 21t-17 30t-1 36h81q0 -9 5 -15t15 -6q11 0 17.5 7.5t6.5 17.5q0 19 -22 19h-65l67 91q-61 6 -111 30t-86 62.5t-55.5 90t-19.5 111.5q0 89 34.5 165.5t92 133t133 88.5t156.5 32q114 0 182 -46.5t97 -125.5l-170 -99q-30 86 -128 86
q-41 0 -76 -17.5t-61 -46t-41 -65t-15 -74.5q0 -63 34.5 -103t99.5 -40q51 0 93 25t72 67l129 -113q-57 -71 -127.5 -112t-161.5 -49l-21 -26q26 -3 40 -21t14 -47q0 -22 -8 -42.5t-23.5 -36.5t-38 -26t-51.5 -10z" />
    <glyph glyph-name="Ccircumflex" unicode="&#x108;" horiz-adv-x="709" 
d="M455 699q114 0 182 -46.5t97 -125.5l-170 -99q-30 86 -128 86q-41 0 -76 -17.5t-61 -46t-41 -65t-15 -74.5q0 -63 34.5 -103t99.5 -40q51 0 93 25t72 67l129 -113q-63 -78 -142.5 -120t-184.5 -42q-68 0 -124 22t-96.5 61.5t-62.5 93.5t-22 118q0 89 34.5 165.5t92 133
t133 88.5t156.5 32zM523 870l141 -43l-31 -109l-132 23l-176 -23l31 109z" />
    <glyph glyph-name="Cdotaccent" unicode="&#x10a;" horiz-adv-x="709" 
d="M455 699q114 0 182 -46.5t97 -125.5l-170 -99q-30 86 -128 86q-41 0 -76 -17.5t-61 -46t-41 -65t-15 -74.5q0 -63 34.5 -103t99.5 -40q51 0 93 25t72 67l129 -113q-63 -78 -142.5 -120t-184.5 -42q-68 0 -124 22t-96.5 61.5t-62.5 93.5t-22 118q0 89 34.5 165.5t92 133
t133 88.5t156.5 32zM393 729l38 133h178l-38 -133h-178z" />
    <glyph glyph-name="dotaccent" unicode="&#x2d9;" horiz-adv-x="394" 
d="M194 562l38 133h178l-38 -133h-178z" />
    <glyph glyph-name="Dcaron" unicode="&#x10e;" horiz-adv-x="704" 
d="M-39 0l196 685h240q80 0 139.5 -22.5t98.5 -61.5t58 -90.5t19 -109.5q0 -79 -28 -151.5t-82.5 -128t-136 -88.5t-188.5 -33h-316zM303 174q52 0 90.5 17.5t63.5 45t37.5 62.5t12.5 71q0 29 -8.5 55t-25.5 45t-42 30t-57 11h-69l-97 -337h95zM499 726l-141 43l31 109
l132 -23l176 23l-31 -109z" />
    <glyph glyph-name="Dcroat" unicode="&#x110;" horiz-adv-x="709" 
d="M-28 0l76 264h-37l44 156h37l76 265h240q80 0 139.5 -22.5t98.5 -61.5t58 -90.5t19 -109.5q0 -79 -28 -151.5t-82.5 -128t-136 -88.5t-188.5 -33h-316zM314 174q52 0 90.5 17.5t63.5 45t37.5 62.5t12.5 71q0 29 -8.5 55t-25.5 45t-42 30t-57 11h-69l-26 -91h89l-44 -156
h-90l-26 -90h95z" />
    <glyph glyph-name="Eacute" unicode="&#xc9;" horiz-adv-x="577" 
d="M157 685h514l-48 -168h-317l-26 -90h287l-47 -166h-287l-27 -93h319l-48 -168h-516zM302 720l44 155l263 54l-45 -157z" />
    <glyph glyph-name="Ebreve" unicode="&#x114;" horiz-adv-x="577" 
d="M157 685h514l-48 -168h-317l-26 -90h287l-47 -166h-287l-27 -93h319l-48 -168h-516zM589 779q-24 -20 -62.5 -36t-89.5 -16q-53 0 -87.5 16.5t-54.5 45.5l31 111q29 -17 60.5 -27t79.5 -10q47 0 90 11.5t68 25.5z" />
    <glyph glyph-name="Ecaron" unicode="&#x11a;" horiz-adv-x="577" 
d="M157 685h514l-48 -168h-317l-26 -90h287l-47 -166h-287l-27 -93h319l-48 -168h-516zM426 726l-141 43l31 109l132 -23l176 23l-31 -109z" />
    <glyph glyph-name="Ecircumflex" unicode="&#xca;" horiz-adv-x="577" 
d="M157 685h514l-48 -168h-317l-26 -90h287l-47 -166h-287l-27 -93h319l-48 -168h-516zM468 870l141 -43l-31 -109l-132 23l-176 -23l31 109z" />
    <glyph glyph-name="Edieresis" unicode="&#xcb;" horiz-adv-x="577" 
d="M157 685h514l-48 -168h-317l-26 -90h287l-47 -166h-287l-27 -93h319l-48 -168h-516zM442 729l38 133h157l-38 -133h-157zM255 729l38 133h157l-38 -133h-157z" />
    <glyph glyph-name="Edotaccent" unicode="&#x116;" horiz-adv-x="577" 
d="M157 685h514l-48 -168h-317l-26 -90h287l-47 -166h-287l-27 -93h319l-48 -168h-516zM338 729l38 133h178l-38 -133h-178z" />
    <glyph glyph-name="Egrave" unicode="&#xc8;" horiz-adv-x="577" 
d="M157 685h514l-48 -168h-317l-26 -90h287l-47 -166h-287l-27 -93h319l-48 -168h-516zM545 710l-233 52l45 157l232 -54z" />
    <glyph glyph-name="Emacron" unicode="&#x112;" horiz-adv-x="577" 
d="M157 685h514l-48 -168h-317l-26 -90h287l-47 -166h-287l-27 -93h319l-48 -168h-516zM287 731l45 157h282l-45 -157h-282z" />
    <glyph glyph-name="Eng" unicode="&#x14a;" horiz-adv-x="690" 
d="M581 1q-33 -117 -103 -161t-190 -26l43 154q26 -4 40.5 2t22.5 23l-137 374l-105 -367h-191l196 685h218l119 -322l92 322h191l-196 -684v0z" />
    <glyph glyph-name="Eogonek" unicode="&#x118;" horiz-adv-x="576" 
d="M433 -168q-8 -5 -19 -9q-9 -4 -22 -6.5t-28 -2.5q-39 0 -59.5 18.5t-20.5 48.5q0 16 7 33.5t19 33.5t27.5 29.5t33.5 22.5h-409l196 685h514l-48 -168h-317l-26 -90h287l-47 -166h-287l-27 -93h319l-48 -168h-26q-31 -17 -47 -41t-16 -41q0 -21 28 -21q17 0 26 3
q5 1 10 3l-20 -71v0z" />
    <glyph glyph-name="Eth" unicode="&#xd0;" horiz-adv-x="709" 
d="M-28 0l76 264h-37l44 156h37l76 265h240q80 0 139.5 -22.5t98.5 -61.5t58 -90.5t19 -109.5q0 -79 -28 -151.5t-82.5 -128t-136 -88.5t-188.5 -33h-316zM314 174q52 0 90.5 17.5t63.5 45t37.5 62.5t12.5 71q0 29 -8.5 55t-25.5 45t-42 30t-57 11h-69l-26 -91h89l-44 -156
h-90l-26 -90h95z" />
    <glyph glyph-name="Gbreve" unicode="&#x11e;" horiz-adv-x="755" 
d="M772 395q-14 -100 -52 -176.5t-93.5 -128.5t-124 -78.5t-144.5 -26.5q-77 0 -136 24.5t-100 65.5t-62 96t-21 117q0 75 31 149t87 132t135 94t174 36q47 0 91.5 -10t82 -30t66.5 -50.5t45 -70.5l-176 -104q-15 42 -49.5 62.5t-82.5 20.5q-43 0 -80 -18t-64 -47.5
t-42.5 -68t-15.5 -79.5q0 -62 38 -102t107 -40q49 0 84 21.5t52 53.5h-165l43 158h372v0zM659 779q-24 -20 -62.5 -36t-89.5 -16q-53 0 -87.5 16.5t-54.5 45.5l31 111q29 -17 60.5 -27t79.5 -10q47 0 90 11.5t68 25.5z" />
    <glyph glyph-name="Gcircumflex" unicode="&#x11c;" horiz-adv-x="755" 
d="M772 395q-14 -100 -52 -176.5t-93.5 -128.5t-124 -78.5t-144.5 -26.5q-77 0 -136 24.5t-100 65.5t-62 96t-21 117q0 75 31 149t87 132t135 94t174 36q47 0 91.5 -10t82 -30t66.5 -50.5t45 -70.5l-176 -104q-15 42 -49.5 62.5t-82.5 20.5q-43 0 -80 -18t-64 -47.5
t-42.5 -68t-15.5 -79.5q0 -62 38 -102t107 -40q49 0 84 21.5t52 53.5h-165l43 158h372v0zM538 870l141 -43l-31 -109l-132 23l-176 -23l31 109z" />
    <glyph glyph-name="Gcommaaccent" unicode="&#x122;" horiz-adv-x="755" 
d="M772 395q-14 -100 -52 -176.5t-93.5 -128.5t-124 -78.5t-144.5 -26.5q-77 0 -136 24.5t-100 65.5t-62 96t-21 117q0 75 31 149t87 132t135 94t174 36q47 0 91.5 -10t82 -30t66.5 -50.5t45 -70.5l-176 -104q-15 42 -49.5 62.5t-82.5 20.5q-43 0 -80 -18t-64 -47.5
t-42.5 -68t-15.5 -79.5q0 -62 38 -102t107 -40q49 0 84 21.5t52 53.5h-165l43 158h372v0zM302 -231h-115l57 69h-37l36 128h161l-27 -96z" />
    <glyph glyph-name="commaaccent" unicode="&#xf6c3;" horiz-adv-x="385" 
d="M87 -231h-115l57 69h-37l36 128h161l-27 -96z" />
    <glyph glyph-name="Gdotaccent" unicode="&#x120;" horiz-adv-x="755" 
d="M772 395q-14 -100 -52 -176.5t-93.5 -128.5t-124 -78.5t-144.5 -26.5q-77 0 -136 24.5t-100 65.5t-62 96t-21 117q0 75 31 149t87 132t135 94t174 36q47 0 91.5 -10t82 -30t66.5 -50.5t45 -70.5l-176 -104q-15 42 -49.5 62.5t-82.5 20.5q-43 0 -80 -18t-64 -47.5
t-42.5 -68t-15.5 -79.5q0 -62 38 -102t107 -40q49 0 84 21.5t52 53.5h-165l43 158h372v0zM408 729l38 133h178l-38 -133h-178z" />
    <glyph glyph-name="Hbar" unicode="&#x126;" horiz-adv-x="682" 
d="M499 424l15 53h-218l-15 -53h218zM159 0h-197l136 477h-36l45 156h36l15 52h197l-15 -52h218l15 52h197l-15 -52h38l-45 -156h-38l-136 -477h-197l72 250h-218z" />
    <glyph glyph-name="Hcircumflex" unicode="&#x124;" horiz-adv-x="682" 
d="M448 250h-218l-72 -250h-197l196 685h197l-74 -261h218l74 261h197l-196 -685h-197zM516 870l141 -43l-31 -109l-132 23l-176 -23l31 109z" />
    <glyph glyph-name="Iacute" unicode="&#xcd;" horiz-adv-x="267" 
d="M-39 0l196 685h197l-196 -685h-197zM143 720l44 155l263 54l-45 -157z" />
    <glyph glyph-name="Ibreve" unicode="&#x12c;" horiz-adv-x="267" 
d="M-39 0l196 685h197l-196 -685h-197zM430 779q-24 -20 -62.5 -36t-89.5 -16q-53 0 -87.5 16.5t-54.5 45.5l31 111q29 -17 60.5 -27t79.5 -10q47 0 90 11.5t68 25.5z" />
    <glyph glyph-name="Icircumflex" unicode="&#xce;" horiz-adv-x="267" 
d="M-39 0l196 685h197l-196 -685h-197zM309 870l141 -43l-31 -109l-132 23l-176 -23l31 109z" />
    <glyph glyph-name="Idieresis" unicode="&#xcf;" horiz-adv-x="267" 
d="M-39 0l196 685h197l-196 -685h-197zM283 729l38 133h157l-38 -133h-157zM96 729l38 133h157l-38 -133h-157z" />
    <glyph glyph-name="Igrave" unicode="&#xcc;" horiz-adv-x="267" 
d="M-39 0l196 685h197l-196 -685h-197zM386 710l-233 52l45 157l232 -54z" />
    <glyph glyph-name="IJ" unicode="&#x132;" horiz-adv-x="849" 
d="M-39 0l196 685h197l-196 -685h-197zM483 256q-6 -27 -4 -44.5t9.5 -28t19.5 -14.5t27 -4q30 0 50.5 19t29.5 50l129 451h197l-133 -466q-15 -51 -39.5 -93t-60 -72.5t-82.5 -47t-106 -16.5t-108 16t-81 49t-44.5 83t1.5 118h195z" />
    <glyph glyph-name="Imacron" unicode="&#x12a;" horiz-adv-x="267" 
d="M-39 0l196 685h197l-196 -685h-197zM128 731l45 157h282l-45 -157h-282z" />
    <glyph glyph-name="Iogonek" unicode="&#x12e;" horiz-adv-x="267" 
d="M112 -168q-8 -5 -19 -9q-9 -4 -22 -6.5t-28 -2.5q-39 0 -59.5 18.5t-20.5 48.5q0 16 7 33.5t19 33.5t27.5 29.5t33.5 22.5h-88l196 685h197l-196 -685h-28q-31 -17 -47 -41t-16 -41q0 -21 28 -21q17 0 26 3q5 1 10 3l-20 -71v0z" />
    <glyph glyph-name="Itilde" unicode="&#x128;" horiz-adv-x="267" 
d="M-39 0l196 685h197l-196 -685h-197zM149 847q20 17 49 31.5t59 14.5q22 0 38.5 -5t31.5 -10.5t30 -10.5t33 -5q12 0 26 3t25 8q13 4 26 11l-33 -112q-26 -20 -52 -32t-55 -12q-22 0 -39 4.5t-32 10t-30 10t-33 4.5q-13 0 -26 -3.5t-24 -7.5q-13 -5 -26 -11z" />
    <glyph glyph-name="Jcircumflex" unicode="&#x134;" horiz-adv-x="582" 
d="M216 256q-6 -27 -4 -44.5t9.5 -28t19.5 -14.5t27 -4q30 0 50.5 19t29.5 50l129 451h197l-133 -466q-15 -51 -39.5 -93t-60 -72.5t-82.5 -47t-106 -16.5t-108 16t-81 49t-44.5 83t1.5 118h195zM626 870l141 -43l-31 -109l-132 23l-176 -23l31 109z" />
    <glyph glyph-name="Kcommaaccent" unicode="&#x136;" horiz-adv-x="658" 
d="M243 299l-85 -299h-197l196 685h197l-83 -290l268 290h244l-340 -342l149 -343h-222zM239 -231h-115l57 69h-37l36 128h161l-27 -96z" />
    <glyph glyph-name="Lacute" unicode="&#x139;" horiz-adv-x="533" 
d="M157 685h197l-146 -511h281l-50 -174h-478zM144 720l44 155l263 54l-45 -157z" />
    <glyph glyph-name="Lcaron" unicode="&#x13d;" horiz-adv-x="533" 
d="M581 535l-101 -137h-121l79 106h-49l52 181h183l-43 -150v0zM157 685h197l-146 -511h281l-50 -174h-478z" />
    <glyph glyph-name="quoteright" unicode="&#x2019;" horiz-adv-x="231" 
d="M184 398h-121l79 106h-49l52 181h183l-43 -150z" />
    <glyph glyph-name="Lcommaaccent" unicode="&#x13b;" horiz-adv-x="533" 
d="M157 685h197l-146 -511h281l-50 -174h-478zM170 -231h-115l57 69h-37l36 128h161l-27 -96z" />
    <glyph glyph-name="Ldot" unicode="&#x13f;" horiz-adv-x="533" 
d="M157 685h197l-146 -511h281l-50 -174h-478zM324 308l38 133h178l-38 -133h-178z" />
    <glyph glyph-name="Lslash" unicode="&#x141;" horiz-adv-x="543" 
d="M-28 0l75 262l-42 -20l38 132l42 20l83 291h197l-53 -184l51 24l-39 -133l-49 -23l-56 -195h281l-50 -174h-478z" />
    <glyph glyph-name="Nacute" unicode="&#x143;" horiz-adv-x="690" 
d="M256 363l-104 -363h-191l196 685h218l105 -370l106 370h191l-196 -685h-218zM354 720l44 155l263 54l-45 -157z" />
    <glyph glyph-name="Napostrophe" horiz-adv-x="690" 
d="M256 363l-104 -363h-191l196 685h218l105 -370l106 370h191l-196 -685h-218zM287 750h-115l57 69h-37l36 128h161l-27 -96z" />
    <glyph glyph-name="Ncaron" unicode="&#x147;" horiz-adv-x="690" 
d="M256 363l-104 -363h-191l196 685h218l105 -370l106 370h191l-196 -685h-218zM478 726l-141 43l31 109l132 -23l176 23l-31 -109z" />
    <glyph glyph-name="Ncommaaccent" unicode="&#x145;" horiz-adv-x="690" 
d="M256 363l-104 -363h-191l196 685h218l105 -370l106 370h191l-196 -685h-218zM237 -231h-115l57 69h-37l36 128h161l-27 -96z" />
    <glyph glyph-name="Ntilde" unicode="&#xd1;" horiz-adv-x="690" 
d="M256 363l-104 -363h-191l196 685h218l105 -370l106 370h191l-196 -685h-218zM360 847q20 17 49 31.5t59 14.5q22 0 38.5 -5t31.5 -10.5t30 -10.5t33 -5q12 0 26 3t25 8q13 4 26 11l-33 -112q-26 -20 -52 -32t-55 -12q-22 0 -39 4.5t-32 10t-30 10t-33 4.5q-13 0 -26 -3.5
t-24 -7.5q-13 -5 -26 -11z" />
    <glyph glyph-name="Oacute" unicode="&#xd3;" horiz-adv-x="757" 
d="M358 -15q-70 0 -128 23t-100 64t-65.5 97t-23.5 122q0 79 31.5 153t86.5 131t129 91t160 34q70 0 128 -23t100 -64t65.5 -97t23.5 -122q0 -79 -31.5 -153t-86.5 -131t-129.5 -91t-159.5 -34zM376 171q37 0 70.5 16t59.5 43.5t41.5 64t15.5 77.5q0 28 -9 54t-26 45.5
t-42 31t-57 11.5q-36 0 -69.5 -16.5t-59.5 -44t-42 -64t-16 -76.5q0 -29 9 -54.5t26 -45t42 -31t57 -11.5zM364 720l44 155l263 54l-45 -157z" />
    <glyph glyph-name="Obreve" unicode="&#x14e;" horiz-adv-x="757" 
d="M358 -15q-70 0 -128 23t-100 64t-65.5 97t-23.5 122q0 79 31.5 153t86.5 131t129 91t160 34q70 0 128 -23t100 -64t65.5 -97t23.5 -122q0 -79 -31.5 -153t-86.5 -131t-129.5 -91t-159.5 -34zM376 171q37 0 70.5 16t59.5 43.5t41.5 64t15.5 77.5q0 28 -9 54t-26 45.5
t-42 31t-57 11.5q-36 0 -69.5 -16.5t-59.5 -44t-42 -64t-16 -76.5q0 -29 9 -54.5t26 -45t42 -31t57 -11.5zM651 779q-24 -20 -62.5 -36t-89.5 -16q-53 0 -87.5 16.5t-54.5 45.5l31 111q29 -17 60.5 -27t79.5 -10q47 0 90 11.5t68 25.5z" />
    <glyph glyph-name="Ocircumflex" unicode="&#xd4;" horiz-adv-x="757" 
d="M358 -15q-70 0 -128 23t-100 64t-65.5 97t-23.5 122q0 79 31.5 153t86.5 131t129 91t160 34q70 0 128 -23t100 -64t65.5 -97t23.5 -122q0 -79 -31.5 -153t-86.5 -131t-129.5 -91t-159.5 -34zM376 171q37 0 70.5 16t59.5 43.5t41.5 64t15.5 77.5q0 28 -9 54t-26 45.5
t-42 31t-57 11.5q-36 0 -69.5 -16.5t-59.5 -44t-42 -64t-16 -76.5q0 -29 9 -54.5t26 -45t42 -31t57 -11.5zM530 870l141 -43l-31 -109l-132 23l-176 -23l31 109z" />
    <glyph glyph-name="Odieresis" unicode="&#xd6;" horiz-adv-x="757" 
d="M358 -15q-70 0 -128 23t-100 64t-65.5 97t-23.5 122q0 79 31.5 153t86.5 131t129 91t160 34q70 0 128 -23t100 -64t65.5 -97t23.5 -122q0 -79 -31.5 -153t-86.5 -131t-129.5 -91t-159.5 -34zM376 171q37 0 70.5 16t59.5 43.5t41.5 64t15.5 77.5q0 28 -9 54t-26 45.5
t-42 31t-57 11.5q-36 0 -69.5 -16.5t-59.5 -44t-42 -64t-16 -76.5q0 -29 9 -54.5t26 -45t42 -31t57 -11.5zM504 729l38 133h157l-38 -133h-157zM317 729l38 133h157l-38 -133h-157z" />
    <glyph glyph-name="OE" unicode="&#x152;" horiz-adv-x="1014" 
d="M356 0q-80 0 -139.5 22.5t-98.5 61.5t-58 90.5t-19 109.5q0 79 28 151.5t82.5 128t136 88.5t188.5 33h632l-48 -168h-316l-26 -90h287l-47 -166h-287l-27 -93h319l-48 -168h-559zM450 511q-52 0 -90.5 -17.5t-63.5 -45t-37.5 -62.5t-12.5 -71q0 -29 8.5 -55t25.5 -45
t42 -30t57 -11h69l97 337h-95z" />
    <glyph glyph-name="Ograve" unicode="&#xd2;" horiz-adv-x="757" 
d="M358 -15q-70 0 -128 23t-100 64t-65.5 97t-23.5 122q0 79 31.5 153t86.5 131t129 91t160 34q70 0 128 -23t100 -64t65.5 -97t23.5 -122q0 -79 -31.5 -153t-86.5 -131t-129.5 -91t-159.5 -34zM376 171q37 0 70.5 16t59.5 43.5t41.5 64t15.5 77.5q0 28 -9 54t-26 45.5
t-42 31t-57 11.5q-36 0 -69.5 -16.5t-59.5 -44t-42 -64t-16 -76.5q0 -29 9 -54.5t26 -45t42 -31t57 -11.5zM607 710l-233 52l45 157l232 -54z" />
    <glyph glyph-name="Ohungarumlaut" unicode="&#x150;" horiz-adv-x="757" 
d="M358 -15q-70 0 -128 23t-100 64t-65.5 97t-23.5 122q0 79 31.5 153t86.5 131t129 91t160 34q70 0 128 -23t100 -64t65.5 -97t23.5 -122q0 -79 -31.5 -153t-86.5 -131t-129.5 -91t-159.5 -34zM376 171q37 0 70.5 16t59.5 43.5t41.5 64t15.5 77.5q0 28 -9 54t-26 45.5
t-42 31t-57 11.5q-36 0 -69.5 -16.5t-59.5 -44t-42 -64t-16 -76.5q0 -29 9 -54.5t26 -45t42 -31t57 -11.5zM507 725l94 147h173l-98 -147h-169zM301 725l91 147h172l-95 -147h-168z" />
    <glyph glyph-name="hungarumlaut" unicode="&#x2dd;" horiz-adv-x="394" 
d="M302 558l94 147h173l-98 -147h-169zM96 558l91 147h172l-95 -147h-168z" />
    <glyph glyph-name="Omacron" unicode="&#x14c;" horiz-adv-x="757" 
d="M358 -15q-70 0 -128 23t-100 64t-65.5 97t-23.5 122q0 79 31.5 153t86.5 131t129 91t160 34q70 0 128 -23t100 -64t65.5 -97t23.5 -122q0 -79 -31.5 -153t-86.5 -131t-129.5 -91t-159.5 -34zM376 171q37 0 70.5 16t59.5 43.5t41.5 64t15.5 77.5q0 28 -9 54t-26 45.5
t-42 31t-57 11.5q-36 0 -69.5 -16.5t-59.5 -44t-42 -64t-16 -76.5q0 -29 9 -54.5t26 -45t42 -31t57 -11.5zM349 731l45 157h282l-45 -157h-282z" />
    <glyph glyph-name="Oslash" unicode="&#xd8;" horiz-adv-x="757" 
d="M243 313q0 -26 8 -53l222 248q-20 6 -43 6q-36 0 -69.5 -16.5t-59.5 -44t-42 -64t-16 -76.5zM377 171q37 0 70.5 16t59.5 43.5t41.5 64t15.5 77.5q0 26 -8 53l-221 -248q19 -6 42 -6zM359 -15q-45 0 -85.5 10t-75.5 29l-57 -64h-158l124 139q-31 38 -48 87t-17 105
q0 79 31.5 153t86.5 131t129 91t160 34q45 0 85.5 -10t75.5 -28l57 63h157l-123 -138q31 -39 48 -88t17 -105q0 -79 -31.5 -153t-86.5 -131t-129.5 -91t-159.5 -34z" />
    <glyph glyph-name="Otilde" unicode="&#xd5;" horiz-adv-x="757" 
d="M358 -15q-70 0 -128 23t-100 64t-65.5 97t-23.5 122q0 79 31.5 153t86.5 131t129 91t160 34q70 0 128 -23t100 -64t65.5 -97t23.5 -122q0 -79 -31.5 -153t-86.5 -131t-129.5 -91t-159.5 -34zM376 171q37 0 70.5 16t59.5 43.5t41.5 64t15.5 77.5q0 28 -9 54t-26 45.5
t-42 31t-57 11.5q-36 0 -69.5 -16.5t-59.5 -44t-42 -64t-16 -76.5q0 -29 9 -54.5t26 -45t42 -31t57 -11.5zM370 847q20 17 49 31.5t59 14.5q22 0 38.5 -5t31.5 -10.5t30 -10.5t33 -5q12 0 26 3t25 8q13 4 26 11l-33 -112q-26 -20 -52 -32t-55 -12q-22 0 -39 4.5t-32 10
t-30 10t-33 4.5q-13 0 -26 -3.5t-24 -7.5q-13 -5 -26 -11z" />
    <glyph glyph-name="Racute" unicode="&#x154;" horiz-adv-x="615" 
d="M323 370q56 0 82 25.5t26 61.5q0 23 -16 38.5t-56 15.5h-54l-41 -141h59zM222 223l-64 -223h-197l196 685h269q47 0 85.5 -15t66 -41t42.5 -62.5t15 -79.5q0 -48 -16 -91.5t-43.5 -78.5t-64.5 -59.5t-79 -34.5l108 -223h-227zM338 720l44 155l263 54l-45 -157z" />
    <glyph glyph-name="Rcaron" unicode="&#x158;" horiz-adv-x="615" 
d="M323 370q56 0 82 25.5t26 61.5q0 23 -16 38.5t-56 15.5h-54l-41 -141h59zM222 223l-64 -223h-197l196 685h269q47 0 85.5 -15t66 -41t42.5 -62.5t15 -79.5q0 -48 -16 -91.5t-43.5 -78.5t-64.5 -59.5t-79 -34.5l108 -223h-227zM462 726l-141 43l31 109l132 -23l176 23
l-31 -109z" />
    <glyph glyph-name="Rcommaaccent" unicode="&#x156;" horiz-adv-x="615" 
d="M323 370q56 0 82 25.5t26 61.5q0 23 -16 38.5t-56 15.5h-54l-41 -141h59zM222 223l-64 -223h-197l196 685h269q47 0 85.5 -15t66 -41t42.5 -62.5t15 -79.5q0 -48 -16 -91.5t-43.5 -78.5t-64.5 -59.5t-79 -34.5l108 -223h-227zM213 -231h-115l57 69h-37l36 128h161
l-27 -96z" />
    <glyph glyph-name="Sacute" unicode="&#x15a;" horiz-adv-x="602" 
d="M274 -14q-57 0 -107 12t-86 39.5t-54 72.5t-12 111h192q-2 -40 18.5 -60t68.5 -20q32 0 49.5 13t17.5 31q0 20 -20.5 33.5t-53.5 26.5q-44 18 -80.5 37t-62 43.5t-39.5 56.5t-14 76q0 52 20.5 96.5t57.5 76.5t88 50.5t111 18.5q59 0 108 -15t83.5 -44.5t51 -74
t10.5 -102.5h-187q6 33 -13 54.5t-60 21.5q-38 0 -54.5 -14t-16.5 -34q0 -25 29 -41t69 -31q33 -12 66 -26.5t59 -36t42 -52t16 -74.5q0 -52 -21 -97t-60 -78t-94 -51.5t-122 -18.5zM280 720l44 155l263 54l-45 -157z" />
    <glyph glyph-name="Scaron" unicode="&#x160;" horiz-adv-x="602" 
d="M274 -14q-57 0 -107 12t-86 39.5t-54 72.5t-12 111h192q-2 -40 18.5 -60t68.5 -20q32 0 49.5 13t17.5 31q0 20 -20.5 33.5t-53.5 26.5q-44 18 -80.5 37t-62 43.5t-39.5 56.5t-14 76q0 52 20.5 96.5t57.5 76.5t88 50.5t111 18.5q59 0 108 -15t83.5 -44.5t51 -74
t10.5 -102.5h-187q6 33 -13 54.5t-60 21.5q-38 0 -54.5 -14t-16.5 -34q0 -25 29 -41t69 -31q33 -12 66 -26.5t59 -36t42 -52t16 -74.5q0 -52 -21 -97t-60 -78t-94 -51.5t-122 -18.5zM404 726l-141 43l31 109l132 -23l176 23l-31 -109z" />
    <glyph glyph-name="Scedilla" unicode="&#x15e;" horiz-adv-x="602" 
d="M201 -223q-23 0 -40.5 8t-29.5 21t-17 30t-1 36h81q0 -9 5 -15t15 -6q11 0 17.5 7.5t6.5 17.5q0 19 -22 19h-65l68 94q-47 5 -87 20t-67.5 42.5t-41.5 69.5t-8 100h192q-2 -40 18.5 -60t68.5 -20q32 0 49.5 13t17.5 31q0 20 -20.5 33.5t-53.5 26.5q-44 18 -80.5 37
t-62 43.5t-39.5 56.5t-14 76q0 52 20.5 96.5t57.5 76.5t88 50.5t111 18.5q59 0 108 -15t83.5 -44.5t51 -74t10.5 -102.5h-187q6 33 -13 54.5t-60 21.5q-38 0 -54.5 -14t-16.5 -34q0 -25 29 -41t69 -31q33 -12 66 -26.5t59 -36t42 -52t16 -74.5q0 -51 -20 -94.5t-57 -76.5
t-89.5 -52.5t-116.5 -21.5l-20 -26q26 -3 40 -21t14 -47q0 -22 -8 -42.5t-23.5 -36.5t-38 -26t-51.5 -10z" />
    <glyph glyph-name="Scircumflex" unicode="&#x15c;" horiz-adv-x="602" 
d="M274 -14q-57 0 -107 12t-86 39.5t-54 72.5t-12 111h192q-2 -40 18.5 -60t68.5 -20q32 0 49.5 13t17.5 31q0 20 -20.5 33.5t-53.5 26.5q-44 18 -80.5 37t-62 43.5t-39.5 56.5t-14 76q0 52 20.5 96.5t57.5 76.5t88 50.5t111 18.5q59 0 108 -15t83.5 -44.5t51 -74
t10.5 -102.5h-187q6 33 -13 54.5t-60 21.5q-38 0 -54.5 -14t-16.5 -34q0 -25 29 -41t69 -31q33 -12 66 -26.5t59 -36t42 -52t16 -74.5q0 -52 -21 -97t-60 -78t-94 -51.5t-122 -18.5zM446 870l141 -43l-31 -109l-132 23l-176 -23l31 109z" />
    <glyph glyph-name="Scommaaccent" unicode="&#x218;" horiz-adv-x="602" 
d="M274 -14q-57 0 -107 12t-86 39.5t-54 72.5t-12 111h192q-2 -40 18.5 -60t68.5 -20q32 0 49.5 13t17.5 31q0 20 -20.5 33.5t-53.5 26.5q-44 18 -80.5 37t-62 43.5t-39.5 56.5t-14 76q0 52 20.5 96.5t57.5 76.5t88 50.5t111 18.5q59 0 108 -15t83.5 -44.5t51 -74
t10.5 -102.5h-187q6 33 -13 54.5t-60 21.5q-38 0 -54.5 -14t-16.5 -34q0 -25 29 -41t69 -31q33 -12 66 -26.5t59 -36t42 -52t16 -74.5q0 -52 -21 -97t-60 -78t-94 -51.5t-122 -18.5zM226 -231h-115l57 69h-37l36 128h161l-27 -96z" />
    <glyph glyph-name="Tbar" unicode="&#x166;" horiz-adv-x="599" 
d="M392 232l-67 -232h-197l67 232h-141l44 156h142l35 123h-185l49 174h566l-49 -174h-184l-35 -123h139l-44 -156h-140z" />
    <glyph glyph-name="Tcaron" unicode="&#x164;" horiz-adv-x="599" 
d="M127 0l147 511h-185l49 174h566l-49 -174h-184l-147 -511h-197zM432 726l-141 43l31 109l132 -23l176 23l-31 -109z" />
    <glyph glyph-name="Tcedilla" unicode="&#x162;" horiz-adv-x="599" 
d="M164 -223q-23 0 -40.5 8t-29.5 21t-17 30t-1 36h81q0 -9 5 -15t15 -6q11 0 17.5 7.5t6.5 17.5q0 19 -22 19h-65l76 105h-62l147 511h-185l49 174h566l-49 -174h-184l-147 -511h-63l-31 -40q26 -3 40 -21t14 -47q0 -22 -8 -42.5t-23.5 -36.5t-38 -26t-51.5 -10z" />
    <glyph glyph-name="uni021A" unicode="&#x21a;" horiz-adv-x="599" 
d="M127 0l147 511h-185l49 174h566l-49 -174h-184l-147 -511h-197zM194 -231h-115l57 69h-37l36 128h161l-27 -96z" />
    <glyph glyph-name="Thorn" unicode="&#xde;" horiz-adv-x="602" 
d="M183 87l-25 -87h-197l196 685h197l-24 -86h77q57 0 97.5 -16t66.5 -43.5t38 -63.5t12 -76q0 -66 -24 -123.5t-68.5 -99.5t-108 -66t-141.5 -24h-96zM306 261q47 0 78.5 27.5t31.5 76.5q0 26 -15.5 43t-47.5 17h-73l-47 -164h73z" />
    <glyph glyph-name="Uacute" unicode="&#xda;" horiz-adv-x="656" 
d="M622 243q-17 -58 -46.5 -105.5t-72 -81t-97.5 -51.5t-122 -18q-74 0 -127.5 26t-84 71t-37 106.5t13.5 132.5l103 362h197l-110 -382q-18 -62 0.5 -100t77.5 -38q45 0 73 28t42 76l119 416h197zM331 720l44 155l263 54l-45 -157z" />
    <glyph glyph-name="Ubreve" unicode="&#x16c;" horiz-adv-x="656" 
d="M622 243q-17 -58 -46.5 -105.5t-72 -81t-97.5 -51.5t-122 -18q-74 0 -127.5 26t-84 71t-37 106.5t13.5 132.5l103 362h197l-110 -382q-18 -62 0.5 -100t77.5 -38q45 0 73 28t42 76l119 416h197zM618 779q-24 -20 -62.5 -36t-89.5 -16q-53 0 -87.5 16.5t-54.5 45.5l31 111
q29 -17 60.5 -27t79.5 -10q47 0 90 11.5t68 25.5z" />
    <glyph glyph-name="Ucircumflex" unicode="&#xdb;" horiz-adv-x="656" 
d="M622 243q-17 -58 -46.5 -105.5t-72 -81t-97.5 -51.5t-122 -18q-74 0 -127.5 26t-84 71t-37 106.5t13.5 132.5l103 362h197l-110 -382q-18 -62 0.5 -100t77.5 -38q45 0 73 28t42 76l119 416h197zM497 870l141 -43l-31 -109l-132 23l-176 -23l31 109z" />
    <glyph glyph-name="Udieresis" unicode="&#xdc;" horiz-adv-x="656" 
d="M622 243q-17 -58 -46.5 -105.5t-72 -81t-97.5 -51.5t-122 -18q-74 0 -127.5 26t-84 71t-37 106.5t13.5 132.5l103 362h197l-110 -382q-18 -62 0.5 -100t77.5 -38q45 0 73 28t42 76l119 416h197zM471 729l38 133h157l-38 -133h-157zM284 729l38 133h157l-38 -133h-157z
" />
    <glyph glyph-name="Ugrave" unicode="&#xd9;" horiz-adv-x="656" 
d="M622 243q-17 -58 -46.5 -105.5t-72 -81t-97.5 -51.5t-122 -18q-74 0 -127.5 26t-84 71t-37 106.5t13.5 132.5l103 362h197l-110 -382q-18 -62 0.5 -100t77.5 -38q45 0 73 28t42 76l119 416h197zM574 710l-233 52l45 157l232 -54z" />
    <glyph glyph-name="Uhungarumlaut" unicode="&#x170;" horiz-adv-x="656" 
d="M622 243q-17 -58 -46.5 -105.5t-72 -81t-97.5 -51.5t-122 -18q-74 0 -127.5 26t-84 71t-37 106.5t13.5 132.5l103 362h197l-110 -382q-18 -62 0.5 -100t77.5 -38q45 0 73 28t42 76l119 416h197zM474 725l94 147h173l-98 -147h-169zM268 725l91 147h172l-95 -147h-168z
" />
    <glyph glyph-name="Umacron" unicode="&#x16a;" horiz-adv-x="656" 
d="M622 243q-17 -58 -46.5 -105.5t-72 -81t-97.5 -51.5t-122 -18q-74 0 -127.5 26t-84 71t-37 106.5t13.5 132.5l103 362h197l-110 -382q-18 -62 0.5 -100t77.5 -38q45 0 73 28t42 76l119 416h197zM316 731l45 157h282l-45 -157h-282z" />
    <glyph glyph-name="Uogonek" unicode="&#x172;" horiz-adv-x="656" 
d="M268 -186q-39 0 -59.5 18.5t-20.5 48.5q0 29 19 58t48 49q-66 6 -113 33.5t-74 72.5t-32 103.5t14 125.5l103 362h197l-110 -382q-18 -62 0.5 -100t77.5 -38q45 0 73 28t42 76l119 416h197l-126 -442q-29 -104 -100 -171t-182 -81q-23 -17 -35.5 -37.5t-12.5 -35.5
q0 -21 28 -21q17 0 26 3q5 1 10 3l-20 -71q-8 -5 -19 -9q-9 -4 -22 -6.5t-28 -2.5z" />
    <glyph glyph-name="Uring" unicode="&#x16e;" horiz-adv-x="656" 
d="M622 243q-17 -58 -46.5 -105.5t-72 -81t-97.5 -51.5t-122 -18q-74 0 -127.5 26t-84 71t-37 106.5t13.5 132.5l103 362h197l-110 -382q-18 -62 0.5 -100t77.5 -38q45 0 73 28t42 76l119 416h197zM376 812q0 26 10.5 49t27.5 39.5t39.5 26t46.5 9.5q41 0 67.5 -26.5
t26.5 -68.5q0 -27 -10 -49.5t-26.5 -39.5t-39.5 -26.5t-48 -9.5q-40 0 -67 26.5t-27 69.5zM516 832q0 14 -7.5 21.5t-18.5 7.5q-15 0 -25.5 -12t-10.5 -29q0 -14 7.5 -21.5t18.5 -7.5q16 0 26 12.5t10 28.5z" />
    <glyph glyph-name="Utilde" unicode="&#x168;" horiz-adv-x="656" 
d="M622 243q-17 -58 -46.5 -105.5t-72 -81t-97.5 -51.5t-122 -18q-74 0 -127.5 26t-84 71t-37 106.5t13.5 132.5l103 362h197l-110 -382q-18 -62 0.5 -100t77.5 -38q45 0 73 28t42 76l119 416h197zM337 847q20 17 49 31.5t59 14.5q22 0 38.5 -5t31.5 -10.5t30 -10.5t33 -5
q12 0 26 3t25 8q13 4 26 11l-33 -112q-26 -20 -52 -32t-55 -12q-22 0 -39 4.5t-32 10t-30 10t-33 4.5q-13 0 -26 -3.5t-24 -7.5q-13 -5 -26 -11z" />
    <glyph glyph-name="Wacute" unicode="&#x1e82;" horiz-adv-x="960" 
d="M510 352l-199 -352h-228l46 685h201l-43 -419l235 419h156l-5 -426l198 426h207l-347 -685h-227zM488 720l44 155l263 54l-45 -157z" />
    <glyph glyph-name="Wdieresis" unicode="&#x1e84;" horiz-adv-x="960" 
d="M510 352l-199 -352h-228l46 685h201l-43 -419l235 419h156l-5 -426l198 426h207l-347 -685h-227zM628 729l38 133h157l-38 -133h-157zM441 729l38 133h157l-38 -133h-157z" />
    <glyph glyph-name="Wgrave" unicode="&#x1e80;" horiz-adv-x="960" 
d="M510 352l-199 -352h-228l46 685h201l-43 -419l235 419h156l-5 -426l198 426h207l-347 -685h-227zM731 710l-233 52l45 157l232 -54z" />
    <glyph glyph-name="Wcircumflex" unicode="&#x174;" horiz-adv-x="960" 
d="M510 352l-199 -352h-228l46 685h201l-43 -419l235 419h156l-5 -426l198 426h207l-347 -685h-227zM654 870l141 -43l-31 -109l-132 23l-176 -23l31 109z" />
    <glyph glyph-name="Yacute" unicode="&#xdd;" horiz-adv-x="667" 
d="M160 0l70 246l-105 439h201l47 -258l191 258h220l-356 -436l-71 -249h-197zM334 720l44 155l263 54l-45 -157z" />
    <glyph glyph-name="Ycircumflex" unicode="&#x176;" horiz-adv-x="667" 
d="M160 0l70 246l-105 439h201l47 -258l191 258h220l-356 -436l-71 -249h-197zM500 870l141 -43l-31 -109l-132 23l-176 -23l31 109z" />
    <glyph glyph-name="Ydieresis" unicode="&#x178;" horiz-adv-x="667" 
d="M160 0l70 246l-105 439h201l47 -258l191 258h220l-356 -436l-71 -249h-197zM474 729l38 133h157l-38 -133h-157zM287 729l38 133h157l-38 -133h-157z" />
    <glyph glyph-name="Ygrave" unicode="&#x1ef2;" horiz-adv-x="667" 
d="M160 0l70 246l-105 439h201l47 -258l191 258h220l-356 -436l-71 -249h-197zM577 710l-233 52l45 157l232 -54z" />
    <glyph glyph-name="Zacute" unicode="&#x179;" horiz-adv-x="538" 
d="M236 169h265l-48 -169h-512l44 154l366 362h-268l48 169h520l-45 -158zM278 720l44 155l263 54l-45 -157z" />
    <glyph glyph-name="Zcaron" unicode="&#x17d;" horiz-adv-x="538" 
d="M236 169h265l-48 -169h-512l44 154l366 362h-268l48 169h520l-45 -158zM402 726l-141 43l31 109l132 -23l176 23l-31 -109z" />
    <glyph glyph-name="Zdotaccent" unicode="&#x17b;" horiz-adv-x="538" 
d="M236 169h265l-48 -169h-512l44 154l366 362h-268l48 169h520l-45 -158zM314 729l38 133h178l-38 -133h-178z" />
    <glyph glyph-name="a" unicode="a" horiz-adv-x="598" 
d="M400 272q0 40 -24.5 64.5t-62.5 24.5q-25 0 -47.5 -10.5t-39.5 -28t-27 -40t-10 -47.5q0 -40 25 -65t63 -25q23 0 45 10.5t39.5 27.5t28 40t10.5 49zM337 29q-25 -17 -56 -24.5t-56 -7.5q-42 0 -80 15t-67 43.5t-46 68.5t-17 91q0 60 24 115.5t65 97.5t96 67.5t117 25.5
q39 0 73.5 -11.5t65.5 -40.5l14 49h179l-149 -518h-171z" />
    <glyph glyph-name="b" unicode="b" horiz-adv-x="599" 
d="M282 -3q-39 0 -73.5 11.5t-65.5 40.5l-15 -49h-178l196 685h176l-53 -188q28 13 54 18.5t49 5.5q42 0 80.5 -15t67.5 -43.5t46.5 -68.5t17.5 -91q0 -60 -24 -115.5t-65 -97.5t-96 -67.5t-117 -25.5zM199 246q0 -40 24.5 -64.5t62.5 -24.5q25 0 47.5 10.5t39.5 28t27 40
t10 47.5q0 40 -25 65t-63 25q-23 0 -45.5 -10.5t-39.5 -27.5t-27.5 -40.5t-10.5 -48.5z" />
    <glyph glyph-name="c" unicode="c" horiz-adv-x="551" 
d="M260 -13q-56 0 -101.5 18t-77 49.5t-48.5 74t-17 91.5q0 59 23 115t64.5 99.5t99 69.5t126.5 26q34 0 67 -8t62.5 -25t52.5 -43.5t36 -63.5l-150 -82q-8 24 -28.5 40.5t-56.5 16.5q-29 0 -51.5 -11t-38.5 -28t-24.5 -39t-8.5 -44q0 -40 25 -68.5t68 -28.5q36 0 64 19.5
t45 43.5l117 -93q-44 -60 -109 -94.5t-139 -34.5z" />
    <glyph glyph-name="d" unicode="d" horiz-adv-x="598" 
d="M400 272q0 40 -24.5 64.5t-62.5 24.5q-25 0 -47.5 -10.5t-39.5 -28t-27 -40t-10 -47.5q0 -40 25 -65t63 -25q23 0 45 10.5t39.5 27.5t28 40t10.5 49zM337 29q-25 -17 -56 -24.5t-56 -7.5q-42 0 -80 15t-67 43.5t-46 68.5t-17 91q0 60 24 115.5t65 97.5t96 67.5t117 25.5
q39 0 73.5 -12t66.5 -41l61 217h179l-197 -685h-171z" />
    <glyph glyph-name="e" unicode="e" horiz-adv-x="569" 
d="M501 95q-15 -20 -38 -39t-52.5 -34t-65.5 -24.5t-76 -9.5q-56 0 -102 17.5t-79 49t-51.5 75t-18.5 96.5q0 64 24.5 119.5t66.5 96.5t97.5 64.5t118.5 23.5q54 0 97 -16t73 -45t46 -70t16 -91q0 -29 -5.5 -54t-12.5 -46h-351q8 -39 36.5 -59.5t68.5 -20.5q28 0 56 13
t52 41zM309 392q-37 0 -62.5 -18.5t-40.5 -47.5h188q-8 32 -30 49t-55 17z" />
    <glyph glyph-name="f" unicode="f" horiz-adv-x="400" 
d="M454 518l-45 -157h-102l-104 -361h-176l104 361h-80l45 157h80l11 32q55 162 255 162h68l-39 -138h-44q-59 0 -75 -56h102z" />
    <glyph glyph-name="g" unicode="g" horiz-adv-x="592" 
d="M393 276q0 40 -24.5 63.5t-58.5 23.5q-25 0 -47 -10.5t-38.5 -27.5t-26.5 -39.5t-10 -46.5q0 -36 23.5 -62t61.5 -26q24 0 45.5 10.5t38 28t26.5 40t10 46.5zM164 -196q-79 0 -133.5 23.5t-81.5 68.5l119 105q18 -25 46 -39.5t69 -14.5q47 0 85.5 21.5t55.5 58.5
q-27 -13 -52.5 -18.5t-49.5 -5.5q-41 0 -78.5 15t-66 43.5t-45.5 68t-17 89.5q0 60 24 115t65 97t95.5 67t114.5 25q35 0 69.5 -11.5t66.5 -41.5l13 48h179l-144 -493q-16 -54 -48.5 -95.5t-77 -69.5t-98 -42t-110.5 -14z" />
    <glyph glyph-name="h" unicode="h" 
d="M126 0h-176l196 685h176l-60 -211q29 22 67.5 38t80.5 16q41 0 73 -15.5t51.5 -43.5t24.5 -66t-8 -84l-93 -319h-176l79 277q11 37 -2.5 63t-50.5 26q-36 0 -63 -24t-41 -71z" />
    <glyph glyph-name="i" unicode="i" horiz-adv-x="225" 
d="M107 547l39 138h176l-39 -138h-176zM-50 0l149 518h176l-149 -518h-176z" />
    <glyph glyph-name="j" unicode="j" horiz-adv-x="225" 
d="M107 547l39 138h176l-39 -138h-176zM274 518l-147 -517q-33 -117 -103 -161t-190 -26l43 154q38 -5 53.5 9t26.5 51l142 490h175z" />
    <glyph glyph-name="k" unicode="k" horiz-adv-x="545" 
d="M188 218l-62 -218h-176l196 685h176l-106 -371l187 204h216l-257 -262l112 -256h-200z" />
    <glyph glyph-name="l" unicode="l" horiz-adv-x="225" 
d="M-50 0l196 685h176l-196 -685h-176z" />
    <glyph glyph-name="m" unicode="m" horiz-adv-x="855" 
d="M126 0h-176l149 518h173l-12 -46q28 23 65.5 39.5t79.5 16.5t74 -19t49 -52q35 33 81 52t97 19q41 0 73.5 -16t53 -44t26 -66t-7.5 -83l-93 -319h-176l82 287q9 32 -2.5 55.5t-44.5 23.5q-68 0 -96 -95l-79 -271h-176l82 287q9 32 -2.5 55.5t-45.5 23.5q-32 0 -57 -24
t-39 -71z" />
    <glyph glyph-name="n" unicode="n" 
d="M126 0h-176l149 518h173l-12 -46q29 23 68.5 39.5t81.5 16.5q41 0 73 -16t51.5 -45t23.5 -70.5t-11 -93.5l-89 -303h-176l79 277q11 39 -1 64t-50 25t-65 -24t-41 -71z" />
    <glyph glyph-name="o" unicode="o" horiz-adv-x="582" 
d="M325 530q53 0 97.5 -18t76.5 -49t50 -73.5t18 -91.5q0 -62 -24 -118.5t-66 -99.5t-98.5 -68t-120.5 -25q-54 0 -99 18t-77 49.5t-49.5 74.5t-17.5 92q0 63 25 119t67.5 98.5t99 67t118.5 24.5zM394 273q0 39 -24.5 65t-63.5 26q-24 0 -45.5 -9.5t-37.5 -26.5t-25.5 -40
t-9.5 -50q0 -36 23 -63t65 -27q25 0 47 10.5t37.5 28t24.5 40t9 46.5z" />
    <glyph glyph-name="p" unicode="p" horiz-adv-x="599" 
d="M199 246q0 -40 24.5 -64.5t62.5 -24.5q25 0 47.5 10.5t39.5 28t27 40t10 47.5q0 40 -25 65t-63 25q-23 0 -45.5 -10.5t-39.5 -27.5t-27.5 -40.5t-10.5 -48.5zM282 -3q-39 0 -73.5 12t-66.5 41l-65 -233h-179l201 701h171l-8 -29q25 17 56 24.5t56 7.5q42 0 80 -15
t67 -43.5t46 -68.5t17 -91q0 -60 -24 -115.5t-65 -97.5t-96 -67.5t-117 -25.5z" />
    <glyph glyph-name="q" unicode="q" horiz-adv-x="598" 
d="M272 -183l58 204q-28 -13 -54 -18.5t-49 -5.5q-42 0 -80.5 15t-67.5 43.5t-46.5 68.5t-17.5 91q0 60 24 115.5t65 97.5t96 67.5t117 25.5q39 0 73 -11.5t65 -40.5l15 49h179l-201 -701h-176zM400 272q0 40 -24.5 64.5t-62.5 24.5q-25 0 -47.5 -10.5t-39.5 -28t-27 -40
t-10 -47.5q0 -40 25 -65t63 -25q23 0 45 10.5t39.5 27.5t28 40t10.5 49z" />
    <glyph glyph-name="r" unicode="r" horiz-adv-x="352" 
d="M362 349q-38 0 -66.5 -9t-49.5 -26t-34.5 -41t-22.5 -54l-63 -219h-176l149 518h175l-18 -61q19 19 44 34q21 13 49.5 23.5t63.5 10.5z" />
    <glyph glyph-name="s" unicode="s" horiz-adv-x="485" 
d="M154 161q-3 -23 11.5 -38.5t48.5 -15.5q21 0 32 8t11 20q0 13 -15.5 20.5t-38.5 14.5q-24 7 -53 17t-54 27.5t-42 45t-17 70.5q0 42 18 78t50.5 63t77.5 42t99 15q45 0 83 -11t63.5 -32.5t36.5 -55t4 -78.5h-167q5 25 -7 38.5t-38 13.5q-20 0 -32.5 -9.5t-12.5 -23.5
q0 -20 24.5 -29.5t58.5 -20.5q24 -7 50 -17t47.5 -26t35 -41t13.5 -62q0 -44 -19 -78.5t-52.5 -58.5t-79 -36.5t-97.5 -12.5q-57 0 -98.5 13t-68 36.5t-36 55t-1.5 68.5h165z" />
    <glyph glyph-name="t" unicode="t" horiz-adv-x="401" 
d="M256 216q-9 -32 0 -50t41 -18h53l-41 -148h-99q-48 0 -80 15.5t-47.5 43t-16.5 66.5t13 87l43 149h-71l45 157h71l36 127h176l-36 -127h114l-45 -157h-115z" />
    <glyph glyph-name="u" unicode="u" 
d="M295 46q-29 -23 -68.5 -39.5t-81.5 -16.5q-41 0 -73 15.5t-51.5 45t-23.5 71t11 93.5l89 303h176l-79 -277q-11 -39 1 -64t50 -25t65 24t41 71l78 271h176l-149 -518h-173z" />
    <glyph glyph-name="v" unicode="v" horiz-adv-x="589" 
d="M104 0l-18 518h183l-7 -348l192 348h198l-316 -518h-232z" />
    <glyph glyph-name="w" unicode="w" horiz-adv-x="810" 
d="M406 256l-129 -256h-198l10 518h175l-21 -298l159 298h153l-12 -299l149 299h181l-286 -518h-197z" />
    <glyph glyph-name="x" unicode="x" horiz-adv-x="567" 
d="M251 124l-107 -124h-212l253 266l-94 252h191l39 -123l107 123h207l-247 -263l94 -255h-191z" />
    <glyph glyph-name="y" unicode="y" horiz-adv-x="551" 
d="M278 -25q-36 -57 -70.5 -91.5t-73.5 -52t-85.5 -20t-106.5 5.5l43 156q30 -5 51.5 -4t37 8t26 21t18.5 35l-35 485h182l2 -272l156 272h202l-347 -543v0z" />
    <glyph glyph-name="z" unicode="z" horiz-adv-x="472" 
d="M231 150h188l-43 -150h-429l37 128l262 238h-202l44 152h443l-38 -131z" />
    <glyph glyph-name="k.alt" horiz-adv-x="544" 
d="M241 166l-92 -85l-23 -81h-176l196 685h176l-106 -371l187 204h216l-228 -212l83 -306h-200z" />
    <glyph glyph-name="aacute" unicode="&#xe1;" horiz-adv-x="598" 
d="M400 272q0 40 -24.5 64.5t-62.5 24.5q-25 0 -47.5 -10.5t-39.5 -28t-27 -40t-10 -47.5q0 -40 25 -65t63 -25q23 0 45 10.5t39.5 27.5t28 40t10.5 49zM337 29q-25 -17 -56 -24.5t-56 -7.5q-42 0 -80 15t-67 43.5t-46 68.5t-17 91q0 60 24 115.5t65 97.5t96 67.5t117 25.5
q39 0 73.5 -11.5t65.5 -40.5l14 49h179l-149 -518h-171zM240 553l44 155l263 54l-45 -157z" />
    <glyph glyph-name="abreve" unicode="&#x103;" horiz-adv-x="598" 
d="M400 272q0 40 -24.5 64.5t-62.5 24.5q-25 0 -47.5 -10.5t-39.5 -28t-27 -40t-10 -47.5q0 -40 25 -65t63 -25q23 0 45 10.5t39.5 27.5t28 40t10.5 49zM337 29q-25 -17 -56 -24.5t-56 -7.5q-42 0 -80 15t-67 43.5t-46 68.5t-17 91q0 60 24 115.5t65 97.5t96 67.5t117 25.5
q39 0 73.5 -11.5t65.5 -40.5l14 49h179l-149 -518h-171zM527 612q-24 -20 -62.5 -36t-89.5 -16q-53 0 -87.5 16.5t-54.5 45.5l31 111q29 -17 60.5 -27t79.5 -10q47 0 90 11.5t68 25.5z" />
    <glyph glyph-name="acircumflex" unicode="&#xe2;" horiz-adv-x="598" 
d="M400 272q0 40 -24.5 64.5t-62.5 24.5q-25 0 -47.5 -10.5t-39.5 -28t-27 -40t-10 -47.5q0 -40 25 -65t63 -25q23 0 45 10.5t39.5 27.5t28 40t10.5 49zM337 29q-25 -17 -56 -24.5t-56 -7.5q-42 0 -80 15t-67 43.5t-46 68.5t-17 91q0 60 24 115.5t65 97.5t96 67.5t117 25.5
q39 0 73.5 -11.5t65.5 -40.5l14 49h179l-149 -518h-171zM406 703l141 -43l-31 -109l-132 23l-176 -23l31 109z" />
    <glyph glyph-name="adieresis" unicode="&#xe4;" horiz-adv-x="598" 
d="M400 272q0 40 -24.5 64.5t-62.5 24.5q-25 0 -47.5 -10.5t-39.5 -28t-27 -40t-10 -47.5q0 -40 25 -65t63 -25q23 0 45 10.5t39.5 27.5t28 40t10.5 49zM337 29q-25 -17 -56 -24.5t-56 -7.5q-42 0 -80 15t-67 43.5t-46 68.5t-17 91q0 60 24 115.5t65 97.5t96 67.5t117 25.5
q39 0 73.5 -11.5t65.5 -40.5l14 49h179l-149 -518h-171zM380 562l38 133h157l-38 -133h-157zM193 562l38 133h157l-38 -133h-157z" />
    <glyph glyph-name="ae" unicode="&#xe6;" horiz-adv-x="973" 
d="M674 -12q-50 0 -91 14t-71 40l-12 -42h-171l8 29q-25 -17 -55 -24.5t-55 -7.5q-42 0 -80.5 15t-67.5 43.5t-46.5 68.5t-17.5 91q0 60 24 115.5t65 97.5t96 67.5t117 25.5q39 0 73.5 -11.5t65.5 -40.5l14 49h179l-6 -22q28 13 54 18.5t49 5.5q50 0 90 -15.5t68 -43
t43 -66.5t15 -87q0 -29 -5.5 -54t-12.5 -46h-351q8 -39 36.5 -59.5t68.5 -20.5q28 0 56 13t52 41l100 -87q-15 -20 -38 -39t-52.5 -34t-65.5 -24.5t-76 -9.5zM714 392q-37 0 -62.5 -18.5t-40.5 -47.5h188q-8 32 -30 49t-55 17zM400 272q0 40 -24.5 64.5t-62.5 24.5
q-25 0 -47.5 -10.5t-39.5 -28t-27 -40t-10 -47.5q0 -40 25 -65t63 -25q23 0 45 10.5t39.5 27.5t28 40t10.5 49z" />
    <glyph glyph-name="agrave" unicode="&#xe0;" horiz-adv-x="598" 
d="M400 272q0 40 -24.5 64.5t-62.5 24.5q-25 0 -47.5 -10.5t-39.5 -28t-27 -40t-10 -47.5q0 -40 25 -65t63 -25q23 0 45 10.5t39.5 27.5t28 40t10.5 49zM337 29q-25 -17 -56 -24.5t-56 -7.5q-42 0 -80 15t-67 43.5t-46 68.5t-17 91q0 60 24 115.5t65 97.5t96 67.5t117 25.5
q39 0 73.5 -11.5t65.5 -40.5l14 49h179l-149 -518h-171zM483 543l-233 52l45 157l232 -54z" />
    <glyph glyph-name="amacron" unicode="&#x101;" horiz-adv-x="598" 
d="M400 272q0 40 -24.5 64.5t-62.5 24.5q-25 0 -47.5 -10.5t-39.5 -28t-27 -40t-10 -47.5q0 -40 25 -65t63 -25q23 0 45 10.5t39.5 27.5t28 40t10.5 49zM337 29q-25 -17 -56 -24.5t-56 -7.5q-42 0 -80 15t-67 43.5t-46 68.5t-17 91q0 60 24 115.5t65 97.5t96 67.5t117 25.5
q39 0 73.5 -11.5t65.5 -40.5l14 49h179l-149 -518h-171zM225 564l45 157h282l-45 -157h-282z" />
    <glyph glyph-name="aogonek" unicode="&#x105;" horiz-adv-x="591" 
d="M401 272q0 40 -24.5 64.5t-62.5 24.5q-25 0 -47.5 -10.5t-39.5 -28t-27 -40t-10 -47.5q0 -40 25 -65t63 -25q23 0 45 10.5t39.5 27.5t28 40t10.5 49zM455 -168q-8 -5 -19 -9q-9 -4 -22 -6.5t-28 -2.5q-39 0 -59.5 18.5t-20.5 48.5q0 16 7 33.5t19 33.5t27.5 29.5
t33.5 22.5h-63l8 29q-25 -17 -56 -24.5t-56 -7.5q-42 0 -80 15t-67 43.5t-46 68.5t-17 91q0 60 24 115.5t65 97.5t96 67.5t117 25.5q39 0 73.5 -11.5t65.5 -40.5l14 49h179l-149 -518h-27q-31 -17 -47 -41t-16 -41q0 -21 28 -21q17 0 26 3q5 1 10 3z" />
    <glyph glyph-name="aring" unicode="&#xe5;" horiz-adv-x="598" 
d="M400 272q0 40 -24.5 64.5t-62.5 24.5q-25 0 -47.5 -10.5t-39.5 -28t-27 -40t-10 -47.5q0 -40 25 -65t63 -25q23 0 45 10.5t39.5 27.5t28 40t10.5 49zM337 29q-25 -17 -56 -24.5t-56 -7.5q-42 0 -80 15t-67 43.5t-46 68.5t-17 91q0 60 24 115.5t65 97.5t96 67.5t117 25.5
q39 0 73.5 -11.5t65.5 -40.5l14 49h179l-149 -518h-171zM285 645q0 26 10.5 49t27.5 39.5t39.5 26t46.5 9.5q41 0 67.5 -26.5t26.5 -68.5q0 -27 -10 -49.5t-26.5 -39.5t-39.5 -26.5t-48 -9.5q-40 0 -67 26.5t-27 69.5zM425 665q0 14 -7.5 21.5t-18.5 7.5q-15 0 -25.5 -12
t-10.5 -29q0 -14 7.5 -21.5t18.5 -7.5q16 0 26 12.5t10 28.5z" />
    <glyph glyph-name="atilde" unicode="&#xe3;" horiz-adv-x="598" 
d="M400 272q0 40 -24.5 64.5t-62.5 24.5q-25 0 -47.5 -10.5t-39.5 -28t-27 -40t-10 -47.5q0 -40 25 -65t63 -25q23 0 45 10.5t39.5 27.5t28 40t10.5 49zM337 29q-25 -17 -56 -24.5t-56 -7.5q-42 0 -80 15t-67 43.5t-46 68.5t-17 91q0 60 24 115.5t65 97.5t96 67.5t117 25.5
q39 0 73.5 -11.5t65.5 -40.5l14 49h179l-149 -518h-171zM246 680q20 17 49 31.5t59 14.5q22 0 38.5 -5t31.5 -10.5t30 -10.5t33 -5q12 0 26 3t25 8q13 4 26 11l-33 -112q-26 -20 -52 -32t-55 -12q-22 0 -39 4.5t-32 10t-30 10t-33 4.5q-13 0 -26 -3.5t-24 -7.5
q-13 -5 -26 -11z" />
    <glyph glyph-name="cacute" unicode="&#x107;" horiz-adv-x="551" 
d="M260 -13q-56 0 -101.5 18t-77 49.5t-48.5 74t-17 91.5q0 59 23 115t64.5 99.5t99 69.5t126.5 26q34 0 67 -8t62.5 -25t52.5 -43.5t36 -63.5l-150 -82q-8 24 -28.5 40.5t-56.5 16.5q-29 0 -51.5 -11t-38.5 -28t-24.5 -39t-8.5 -44q0 -40 25 -68.5t68 -28.5q36 0 64 19.5
t45 43.5l117 -93q-44 -60 -109 -94.5t-139 -34.5zM230 553l44 155l263 54l-45 -157z" />
    <glyph glyph-name="ccaron" unicode="&#x10d;" horiz-adv-x="551" 
d="M260 -13q-56 0 -101.5 18t-77 49.5t-48.5 74t-17 91.5q0 59 23 115t64.5 99.5t99 69.5t126.5 26q34 0 67 -8t62.5 -25t52.5 -43.5t36 -63.5l-150 -82q-8 24 -28.5 40.5t-56.5 16.5q-29 0 -51.5 -11t-38.5 -28t-24.5 -39t-8.5 -44q0 -40 25 -68.5t68 -28.5q36 0 64 19.5
t45 43.5l117 -93q-44 -60 -109 -94.5t-139 -34.5zM354 559l-141 43l31 109l132 -23l176 23l-31 -109z" />
    <glyph glyph-name="ccedilla" unicode="&#xe7;" horiz-adv-x="551" 
d="M202 -223q-23 0 -40.5 8t-29.5 21t-17 30t-1 36h81q0 -9 5 -15t15 -6q11 0 17.5 7.5t6.5 17.5q0 19 -22 19h-65l69 94q-48 6 -86 26.5t-64.5 51t-40.5 70t-14 83.5q0 59 23 115t64.5 99.5t99 69.5t126.5 26q34 0 67 -8t62.5 -25t52.5 -43.5t36 -63.5l-150 -82
q-8 24 -28.5 40.5t-56.5 16.5q-29 0 -51.5 -11t-38.5 -28t-24.5 -39t-8.5 -44q0 -40 25 -68.5t68 -28.5q36 0 64 19.5t45 43.5l117 -93q-39 -54 -95.5 -87t-121.5 -40l-22 -29q26 -3 40 -21t14 -47q0 -22 -8 -42.5t-23.5 -36.5t-38 -26t-51.5 -10z" />
    <glyph glyph-name="ccircumflex" unicode="&#x109;" horiz-adv-x="551" 
d="M260 -13q-56 0 -101.5 18t-77 49.5t-48.5 74t-17 91.5q0 59 23 115t64.5 99.5t99 69.5t126.5 26q34 0 67 -8t62.5 -25t52.5 -43.5t36 -63.5l-150 -82q-8 24 -28.5 40.5t-56.5 16.5q-29 0 -51.5 -11t-38.5 -28t-24.5 -39t-8.5 -44q0 -40 25 -68.5t68 -28.5q36 0 64 19.5
t45 43.5l117 -93q-44 -60 -109 -94.5t-139 -34.5zM396 703l141 -43l-31 -109l-132 23l-176 -23l31 109z" />
    <glyph glyph-name="cdotaccent" unicode="&#x10b;" horiz-adv-x="551" 
d="M260 -13q-56 0 -101.5 18t-77 49.5t-48.5 74t-17 91.5q0 59 23 115t64.5 99.5t99 69.5t126.5 26q34 0 67 -8t62.5 -25t52.5 -43.5t36 -63.5l-150 -82q-8 24 -28.5 40.5t-56.5 16.5q-29 0 -51.5 -11t-38.5 -28t-24.5 -39t-8.5 -44q0 -40 25 -68.5t68 -28.5q36 0 64 19.5
t45 43.5l117 -93q-44 -60 -109 -94.5t-139 -34.5zM266 562l38 133h178l-38 -133h-178z" />
    <glyph glyph-name="dcaron" unicode="&#x10f;" horiz-adv-x="826" 
d="M882 535l-101 -137h-121l79 106h-49l52 181h183l-43 -150v0zM400 272q0 40 -24.5 64.5t-62.5 24.5q-25 0 -47.5 -10.5t-39.5 -28t-27 -40t-10 -47.5q0 -40 25 -65t63 -25q23 0 45 10.5t39.5 27.5t28 40t10.5 49zM337 29q-25 -17 -56 -24.5t-56 -7.5q-42 0 -80 15
t-67 43.5t-46 68.5t-17 91q0 60 24 115.5t65 97.5t96 67.5t117 25.5q39 0 73.5 -12t66.5 -41l61 217h179l-197 -685h-171z" />
    <glyph glyph-name="dcroat" unicode="&#x111;" horiz-adv-x="596" 
d="M398 272q0 40 -24.5 64.5t-62.5 24.5q-25 0 -47.5 -10.5t-39.5 -28t-27 -40t-10 -47.5q0 -40 25 -65t63 -25q23 0 45 10.5t39.5 27.5t28 40t10.5 49zM335 29q-25 -17 -56 -24.5t-56 -7.5q-42 0 -80 15t-67 43.5t-46 68.5t-17 91q0 60 24 115.5t65 97.5t96 67.5t117 25.5
q39 0 73.5 -12t66.5 -41l21 77h-115l28 96h115l12 44h179l-13 -44h38l-28 -96h-37l-157 -545h-171z" />
    <glyph glyph-name="dotlessi" unicode="&#x131;" horiz-adv-x="225" 
d="M-50 0l149 518h176l-149 -518h-176z" />
    <glyph glyph-name="dotlessj" unicode="&#x237;" horiz-adv-x="225" 
d="M274 518l-147 -517q-33 -117 -103 -161t-190 -26l43 154q38 -5 53.5 9t26.5 51l142 490h175z" />
    <glyph glyph-name="eacute" unicode="&#xe9;" horiz-adv-x="569" 
d="M501 95q-15 -20 -38 -39t-52.5 -34t-65.5 -24.5t-76 -9.5q-56 0 -102 17.5t-79 49t-51.5 75t-18.5 96.5q0 64 24.5 119.5t66.5 96.5t97.5 64.5t118.5 23.5q54 0 97 -16t73 -45t46 -70t16 -91q0 -29 -5.5 -54t-12.5 -46h-351q8 -39 36.5 -59.5t68.5 -20.5q28 0 56 13
t52 41zM309 392q-37 0 -62.5 -18.5t-40.5 -47.5h188q-8 32 -30 49t-55 17zM232 553l44 155l263 54l-45 -157z" />
    <glyph glyph-name="ebreve" unicode="&#x115;" horiz-adv-x="569" 
d="M501 95q-15 -20 -38 -39t-52.5 -34t-65.5 -24.5t-76 -9.5q-56 0 -102 17.5t-79 49t-51.5 75t-18.5 96.5q0 64 24.5 119.5t66.5 96.5t97.5 64.5t118.5 23.5q54 0 97 -16t73 -45t46 -70t16 -91q0 -29 -5.5 -54t-12.5 -46h-351q8 -39 36.5 -59.5t68.5 -20.5q28 0 56 13
t52 41zM309 392q-37 0 -62.5 -18.5t-40.5 -47.5h188q-8 32 -30 49t-55 17zM519 612q-24 -20 -62.5 -36t-89.5 -16q-53 0 -87.5 16.5t-54.5 45.5l31 111q29 -17 60.5 -27t79.5 -10q47 0 90 11.5t68 25.5z" />
    <glyph glyph-name="ecaron" unicode="&#x11b;" horiz-adv-x="569" 
d="M501 95q-15 -20 -38 -39t-52.5 -34t-65.5 -24.5t-76 -9.5q-56 0 -102 17.5t-79 49t-51.5 75t-18.5 96.5q0 64 24.5 119.5t66.5 96.5t97.5 64.5t118.5 23.5q54 0 97 -16t73 -45t46 -70t16 -91q0 -29 -5.5 -54t-12.5 -46h-351q8 -39 36.5 -59.5t68.5 -20.5q28 0 56 13
t52 41zM309 392q-37 0 -62.5 -18.5t-40.5 -47.5h188q-8 32 -30 49t-55 17zM356 559l-141 43l31 109l132 -23l176 23l-31 -109z" />
    <glyph glyph-name="ecircumflex" unicode="&#xea;" horiz-adv-x="569" 
d="M501 95q-15 -20 -38 -39t-52.5 -34t-65.5 -24.5t-76 -9.5q-56 0 -102 17.5t-79 49t-51.5 75t-18.5 96.5q0 64 24.5 119.5t66.5 96.5t97.5 64.5t118.5 23.5q54 0 97 -16t73 -45t46 -70t16 -91q0 -29 -5.5 -54t-12.5 -46h-351q8 -39 36.5 -59.5t68.5 -20.5q28 0 56 13
t52 41zM309 392q-37 0 -62.5 -18.5t-40.5 -47.5h188q-8 32 -30 49t-55 17zM398 703l141 -43l-31 -109l-132 23l-176 -23l31 109z" />
    <glyph glyph-name="edieresis" unicode="&#xeb;" horiz-adv-x="569" 
d="M501 95q-15 -20 -38 -39t-52.5 -34t-65.5 -24.5t-76 -9.5q-56 0 -102 17.5t-79 49t-51.5 75t-18.5 96.5q0 64 24.5 119.5t66.5 96.5t97.5 64.5t118.5 23.5q54 0 97 -16t73 -45t46 -70t16 -91q0 -29 -5.5 -54t-12.5 -46h-351q8 -39 36.5 -59.5t68.5 -20.5q28 0 56 13
t52 41zM309 392q-37 0 -62.5 -18.5t-40.5 -47.5h188q-8 32 -30 49t-55 17zM372 562l38 133h157l-38 -133h-157zM185 562l38 133h157l-38 -133h-157z" />
    <glyph glyph-name="edotaccent" unicode="&#x117;" horiz-adv-x="569" 
d="M501 95q-15 -20 -38 -39t-52.5 -34t-65.5 -24.5t-76 -9.5q-56 0 -102 17.5t-79 49t-51.5 75t-18.5 96.5q0 64 24.5 119.5t66.5 96.5t97.5 64.5t118.5 23.5q54 0 97 -16t73 -45t46 -70t16 -91q0 -29 -5.5 -54t-12.5 -46h-351q8 -39 36.5 -59.5t68.5 -20.5q28 0 56 13
t52 41zM309 392q-37 0 -62.5 -18.5t-40.5 -47.5h188q-8 32 -30 49t-55 17zM268 562l38 133h178l-38 -133h-178z" />
    <glyph glyph-name="egrave" unicode="&#xe8;" horiz-adv-x="569" 
d="M501 95q-15 -20 -38 -39t-52.5 -34t-65.5 -24.5t-76 -9.5q-56 0 -102 17.5t-79 49t-51.5 75t-18.5 96.5q0 64 24.5 119.5t66.5 96.5t97.5 64.5t118.5 23.5q54 0 97 -16t73 -45t46 -70t16 -91q0 -29 -5.5 -54t-12.5 -46h-351q8 -39 36.5 -59.5t68.5 -20.5q28 0 56 13
t52 41zM309 392q-37 0 -62.5 -18.5t-40.5 -47.5h188q-8 32 -30 49t-55 17zM475 543l-233 52l45 157l232 -54z" />
    <glyph glyph-name="emacron" unicode="&#x113;" horiz-adv-x="569" 
d="M501 95q-15 -20 -38 -39t-52.5 -34t-65.5 -24.5t-76 -9.5q-56 0 -102 17.5t-79 49t-51.5 75t-18.5 96.5q0 64 24.5 119.5t66.5 96.5t97.5 64.5t118.5 23.5q54 0 97 -16t73 -45t46 -70t16 -91q0 -29 -5.5 -54t-12.5 -46h-351q8 -39 36.5 -59.5t68.5 -20.5q28 0 56 13
t52 41zM309 392q-37 0 -62.5 -18.5t-40.5 -47.5h188q-8 32 -30 49t-55 17zM217 564l45 157h282l-45 -157h-282z" />
    <glyph glyph-name="eng" unicode="&#x14b;" 
d="M258 470q34 29 74.5 43.5t81.5 14.5q44 0 76 -15t49.5 -43t20 -66.5t-10.5 -84.5l-83 -290q-34 -118 -106 -170.5t-195 -51.5l44 156q38 0 54.5 16t27.5 53l70 245q11 38 -0.5 63.5t-49.5 25.5q-34 0 -64 -25t-43 -70l-78 -271h-176l149 518h173z" />
    <glyph glyph-name="eogonek" unicode="&#x119;" horiz-adv-x="562" 
d="M221 -186q-39 0 -59.5 18.5t-20.5 48.5t21.5 61t52.5 51q-44 8 -80.5 28t-62 50.5t-39.5 69.5t-14 85q0 64 24.5 119.5t66.5 96.5t97.5 64.5t118.5 23.5q54 0 97 -16t73 -45t46 -70t16 -91q0 -29 -5.5 -54t-12.5 -46h-351q8 -39 36.5 -59.5t68.5 -20.5q28 0 56 13t52 41
l100 -87q-14 -18 -35 -36t-48 -33t-59 -25t-68 -12q-23 -17 -34.5 -36.5t-11.5 -34.5q0 -21 28 -21q17 0 26 3q5 1 10 3l-20 -71q-8 -5 -19 -9q-9 -4 -22 -6.5t-28 -2.5zM310 392q-37 0 -62.5 -18.5t-40.5 -47.5h188q-8 32 -30 49t-55 17z" />
    <glyph glyph-name="eth" unicode="&#xf0;" horiz-adv-x="565" 
d="M246 -13q-52 0 -95 17.5t-73.5 47.5t-47.5 71t-17 88q0 59 23 112t62.5 93t91.5 63.5t109 23.5q27 0 53 -6l-5 37l-81 -11l28 98l36 5l-10 59h178l6 -36l79 12l-29 -98l-34 -5l25 -147q5 -33 7 -53.5t2 -35.5q0 -56 -19 -115.5t-57.5 -108t-96.5 -80t-135 -31.5zM376 260
q0 38 -23 63t-61 25q-23 0 -43.5 -9.5t-36 -25.5t-24.5 -38.5t-9 -47.5q0 -35 22.5 -60.5t61.5 -25.5q24 0 45 10t36 27t23.5 38t8.5 44z" />
    <glyph glyph-name="schwa" unicode="&#x259;" horiz-adv-x="562" 
d="M59 422q15 20 38 39t52.5 34t65 24.5t76.5 9.5q55 0 101.5 -17.5t79.5 -49t51.5 -75.5t18.5 -96q0 -64 -24.5 -119.5t-66.5 -96.5t-97.5 -64.5t-118.5 -23.5q-54 0 -97 16t-73 45t-46 70t-16 91q0 29 5.5 54t12.5 46h351q-8 39 -36.5 59.5t-68.5 20.5q-28 0 -56 -13
t-52 -41zM251 125q37 0 62.5 18.5t40.5 47.5h-188q8 -32 30 -49t55 -17z" />
    <glyph glyph-name="gbreve" unicode="&#x11f;" horiz-adv-x="592" 
d="M393 276q0 40 -24.5 63.5t-58.5 23.5q-25 0 -47 -10.5t-38.5 -27.5t-26.5 -39.5t-10 -46.5q0 -36 23.5 -62t61.5 -26q24 0 45.5 10.5t38 28t26.5 40t10 46.5zM164 -196q-79 0 -133.5 23.5t-81.5 68.5l119 105q18 -25 46 -39.5t69 -14.5q47 0 85.5 21.5t55.5 58.5
q-27 -13 -52.5 -18.5t-49.5 -5.5q-41 0 -78.5 15t-66 43.5t-45.5 68t-17 89.5q0 60 24 115t65 97t95.5 67t114.5 25q35 0 69.5 -11.5t66.5 -41.5l13 48h179l-144 -493q-16 -54 -48.5 -95.5t-77 -69.5t-98 -42t-110.5 -14zM521 612q-24 -20 -62.5 -36t-89.5 -16
q-53 0 -87.5 16.5t-54.5 45.5l31 111q29 -17 60.5 -27t79.5 -10q47 0 90 11.5t68 25.5z" />
    <glyph glyph-name="gcircumflex" unicode="&#x11d;" horiz-adv-x="592" 
d="M393 276q0 40 -24.5 63.5t-58.5 23.5q-25 0 -47 -10.5t-38.5 -27.5t-26.5 -39.5t-10 -46.5q0 -36 23.5 -62t61.5 -26q24 0 45.5 10.5t38 28t26.5 40t10 46.5zM164 -196q-79 0 -133.5 23.5t-81.5 68.5l119 105q18 -25 46 -39.5t69 -14.5q47 0 85.5 21.5t55.5 58.5
q-27 -13 -52.5 -18.5t-49.5 -5.5q-41 0 -78.5 15t-66 43.5t-45.5 68t-17 89.5q0 60 24 115t65 97t95.5 67t114.5 25q35 0 69.5 -11.5t66.5 -41.5l13 48h179l-144 -493q-16 -54 -48.5 -95.5t-77 -69.5t-98 -42t-110.5 -14zM400 703l141 -43l-31 -109l-132 23l-176 -23l31 109
z" />
    <glyph glyph-name="gcommaaccent" unicode="&#x123;" horiz-adv-x="582" 
d="M391 759h115l-57 -69h37l-36 -128h-161l27 96zM393 276q0 40 -24.5 63.5t-58.5 23.5q-25 0 -47 -10.5t-38.5 -27.5t-26.5 -39.5t-10 -46.5q0 -36 23.5 -62t61.5 -26q24 0 45.5 10.5t38 28t26.5 40t10 46.5zM164 -196q-79 0 -133.5 23.5t-81.5 68.5l119 105
q18 -25 46 -39.5t69 -14.5q47 0 85.5 21.5t55.5 58.5q-27 -13 -52.5 -18.5t-49.5 -5.5q-41 0 -78.5 15t-66 43.5t-45.5 68t-17 89.5q0 60 24 115t65 97t95.5 67t114.5 25q35 0 69.5 -11.5t66.5 -41.5l13 48h179l-144 -493q-16 -54 -48.5 -95.5t-77 -69.5t-98 -42t-110.5 -14
z" />
    <glyph glyph-name="gdotaccent" unicode="&#x121;" horiz-adv-x="592" 
d="M393 276q0 40 -24.5 63.5t-58.5 23.5q-25 0 -47 -10.5t-38.5 -27.5t-26.5 -39.5t-10 -46.5q0 -36 23.5 -62t61.5 -26q24 0 45.5 10.5t38 28t26.5 40t10 46.5zM164 -196q-79 0 -133.5 23.5t-81.5 68.5l119 105q18 -25 46 -39.5t69 -14.5q47 0 85.5 21.5t55.5 58.5
q-27 -13 -52.5 -18.5t-49.5 -5.5q-41 0 -78.5 15t-66 43.5t-45.5 68t-17 89.5q0 60 24 115t65 97t95.5 67t114.5 25q35 0 69.5 -11.5t66.5 -41.5l13 48h179l-144 -493q-16 -54 -48.5 -95.5t-77 -69.5t-98 -42t-110.5 -14zM270 562l38 133h178l-38 -133h-178z" />
    <glyph glyph-name="germandbls" unicode="&#xdf;" horiz-adv-x="499" 
d="M124 0h-175l146 509q11 39 34 72.5t55 57.5t73.5 38t90.5 14q43 0 78.5 -14t61 -37t39.5 -54.5t14 -65.5q0 -57 -25 -104t-73 -76q17 -21 24.5 -45.5t7.5 -48.5q0 -51 -21 -96t-59.5 -78.5t-92.5 -52.5t-121 -19h-30l45 157h28q33 0 53 23.5t20 56.5q0 19 -10 32t-28 13
h-27l45 156h39q23 0 39 16.5t16 37.5q0 19 -11 30.5t-34 11.5q-25 0 -41 -14.5t-24 -40.5z" />
    <glyph glyph-name="hbar" unicode="&#x127;" horiz-adv-x="555" 
d="M126 0h-176l156 545h-38l28 96h37l13 44h176l-12 -44h117l-28 -96h-117l-20 -71q29 22 67.5 38t80.5 16q41 0 73 -15.5t51.5 -43.5t24.5 -66t-8 -84l-93 -319h-176l79 277q11 37 -2.5 63t-50.5 26q-36 0 -63 -24t-41 -71z" />
    <glyph glyph-name="hcircumflex" unicode="&#x125;" 
d="M126 0h-176l196 685h176l-60 -211q29 22 67.5 38t80.5 16q41 0 73 -15.5t51.5 -43.5t24.5 -66t-8 -84l-93 -319h-176l79 277q11 37 -2.5 63t-50.5 26q-36 0 -63 -24t-41 -71zM284 870l141 -43l-31 -109l-132 23l-176 -23l31 109z" />
    <glyph glyph-name="iacute" unicode="&#xed;" horiz-adv-x="225" 
d="M-50 0l149 518h176l-149 -518h-176zM75 553l44 155l263 54l-45 -157z" />
    <glyph glyph-name="ibreve" unicode="&#x12d;" horiz-adv-x="225" 
d="M-50 0l149 518h176l-149 -518h-176zM362 612q-24 -20 -62.5 -36t-89.5 -16q-53 0 -87.5 16.5t-54.5 45.5l31 111q29 -17 60.5 -27t79.5 -10q47 0 90 11.5t68 25.5z" />
    <glyph glyph-name="icircumflex" unicode="&#xee;" horiz-adv-x="225" 
d="M-50 0l149 518h176l-149 -518h-176zM241 703l141 -43l-31 -109l-132 23l-176 -23l31 109z" />
    <glyph glyph-name="idieresis" unicode="&#xef;" horiz-adv-x="225" 
d="M-50 0l149 518h176l-149 -518h-176zM215 562l38 133h157l-38 -133h-157zM28 562l38 133h157l-38 -133h-157z" />
    <glyph glyph-name="igrave" unicode="&#xec;" horiz-adv-x="225" 
d="M-50 0l149 518h176l-149 -518h-176zM318 543l-233 52l45 157l232 -54z" />
    <glyph glyph-name="ij" unicode="&#x133;" horiz-adv-x="450" 
d="M107 547l39 138h176l-39 -138h-176zM-50 0l149 518h176l-149 -518h-176zM332 547l39 138h176l-39 -138h-176zM499 518l-147 -517q-33 -117 -103 -161t-190 -26l43 154q38 -5 53.5 9t26.5 51l142 490h175z" />
    <glyph glyph-name="imacron" unicode="&#x12b;" horiz-adv-x="225" 
d="M-50 0l149 518h176l-149 -518h-176zM60 564l45 157h282l-45 -157h-282z" />
    <glyph glyph-name="iogonek" unicode="&#x12f;" horiz-adv-x="225" 
d="M108 547l39 138h176l-39 -138h-176zM82 -168q-8 -5 -19 -9q-9 -4 -22 -6.5t-28 -2.5q-39 0 -59.5 18.5t-20.5 48.5q0 16 7 33.5t19 33.5t27.5 29.5t33.5 22.5h-69l149 518h176l-149 -518h-26q-31 -17 -47 -41t-16 -41q0 -21 28 -21q17 0 26 3q5 1 10 3z" />
    <glyph glyph-name="itilde" unicode="&#x129;" horiz-adv-x="225" 
d="M-50 0l149 518h176l-149 -518h-176zM81 680q20 17 49 31.5t59 14.5q22 0 38.5 -5t31.5 -10.5t30 -10.5t33 -5q12 0 26 3t25 8q13 4 26 11l-33 -112q-26 -20 -52 -32t-55 -12q-22 0 -39 4.5t-32 10t-30 10t-33 4.5q-13 0 -26 -3.5t-24 -7.5q-13 -5 -26 -11z" />
    <glyph glyph-name="jcircumflex" unicode="&#x135;" horiz-adv-x="225" 
d="M274 518l-147 -517q-33 -117 -103 -161t-190 -26l43 154q38 -5 53.5 9t26.5 51l142 490h175zM241 703l141 -43l-31 -109l-132 23l-176 -23l31 109z" />
    <glyph glyph-name="kcommaaccent" unicode="&#x137;" horiz-adv-x="545" 
d="M188 218l-62 -218h-176l196 685h176l-106 -371l187 204h216l-257 -262l112 -256h-200zM181 -231h-115l57 69h-37l36 128h161l-27 -96z" />
    <glyph glyph-name="kgreenlandic" unicode="&#x138;" horiz-adv-x="545" 
d="M188 218l-62 -218h-176l148 518h176l-58 -205l187 205h216l-257 -262l112 -256h-200z" />
    <glyph glyph-name="lacute" unicode="&#x13a;" horiz-adv-x="225" 
d="M-50 0l196 685h176l-196 -685h-176zM122 720l44 155l263 54l-45 -157z" />
    <glyph glyph-name="lcaron" unicode="&#x13e;" horiz-adv-x="460" 
d="M515 535l-101 -137h-121l79 106h-49l52 181h183l-43 -150v0zM-50 0l196 685h176l-196 -685h-176z" />
    <glyph glyph-name="lcommaaccent" unicode="&#x13c;" horiz-adv-x="225" 
d="M-50 0l196 685h176l-196 -685h-176zM8 -231h-115l57 69h-37l36 128h161l-27 -96z" />
    <glyph glyph-name="ldot" unicode="&#x140;" horiz-adv-x="399" 
d="M-50 0l196 685h176l-196 -685h-176zM233 296l38 133h178l-38 -133h-178z" />
    <glyph glyph-name="lslash" unicode="&#x142;" horiz-adv-x="235" 
d="M234 359l-103 -359h-175l76 264l-34 -17l36 127l34 17l84 294h175l-56 -197l36 18l-37 -128z" />
    <glyph glyph-name="nacute" unicode="&#x144;" 
d="M126 0h-176l149 518h173l-12 -46q29 23 68.5 39.5t81.5 16.5q41 0 73 -16t51.5 -45t23.5 -70.5t-11 -93.5l-89 -303h-176l79 277q11 39 -1 64t-50 25t-65 -24t-41 -71zM242 553l44 155l263 54l-45 -157z" />
    <glyph glyph-name="napostrophe" unicode="&#x149;" 
d="M126 0h-176l149 518h173l-12 -46q29 23 68.5 39.5t81.5 16.5q41 0 73 -16t51.5 -45t23.5 -70.5t-11 -93.5l-89 -303h-176l79 277q11 39 -1 64t-50 25t-65 -24t-41 -71zM221 553h-115l57 69h-37l36 128h161l-27 -96z" />
    <glyph glyph-name="ncaron" unicode="&#x148;" 
d="M126 0h-176l149 518h173l-12 -46q29 23 68.5 39.5t81.5 16.5q41 0 73 -16t51.5 -45t23.5 -70.5t-11 -93.5l-89 -303h-176l79 277q11 39 -1 64t-50 25t-65 -24t-41 -71zM366 559l-141 43l31 109l132 -23l176 23l-31 -109z" />
    <glyph glyph-name="ncommaaccent" unicode="&#x146;" 
d="M126 0h-176l149 518h173l-12 -46q29 23 68.5 39.5t81.5 16.5q41 0 73 -16t51.5 -45t23.5 -70.5t-11 -93.5l-89 -303h-176l79 277q11 39 -1 64t-50 25t-65 -24t-41 -71zM175 -231h-115l57 69h-37l36 128h161l-27 -96z" />
    <glyph glyph-name="ntilde" unicode="&#xf1;" 
d="M126 0h-176l149 518h173l-12 -46q29 23 68.5 39.5t81.5 16.5q41 0 73 -16t51.5 -45t23.5 -70.5t-11 -93.5l-89 -303h-176l79 277q11 39 -1 64t-50 25t-65 -24t-41 -71zM248 680q20 17 49 31.5t59 14.5q22 0 38.5 -5t31.5 -10.5t30 -10.5t33 -5q12 0 26 3t25 8q13 4 26 11
l-33 -112q-26 -20 -52 -32t-55 -12q-22 0 -39 4.5t-32 10t-30 10t-33 4.5q-13 0 -26 -3.5t-24 -7.5q-13 -5 -26 -11z" />
    <glyph glyph-name="oacute" unicode="&#xf3;" horiz-adv-x="582" 
d="M325 530q53 0 97.5 -18t76.5 -49t50 -73.5t18 -91.5q0 -62 -24 -118.5t-66 -99.5t-98.5 -68t-120.5 -25q-54 0 -99 18t-77 49.5t-49.5 74.5t-17.5 92q0 63 25 119t67.5 98.5t99 67t118.5 24.5zM394 273q0 39 -24.5 65t-63.5 26q-24 0 -45.5 -9.5t-37.5 -26.5t-25.5 -40
t-9.5 -50q0 -36 23 -63t65 -27q25 0 47 10.5t37.5 28t24.5 40t9 46.5zM236 553l44 155l263 54l-45 -157z" />
    <glyph glyph-name="obreve" unicode="&#x14f;" horiz-adv-x="582" 
d="M325 530q53 0 97.5 -18t76.5 -49t50 -73.5t18 -91.5q0 -62 -24 -118.5t-66 -99.5t-98.5 -68t-120.5 -25q-54 0 -99 18t-77 49.5t-49.5 74.5t-17.5 92q0 63 25 119t67.5 98.5t99 67t118.5 24.5zM394 273q0 39 -24.5 65t-63.5 26q-24 0 -45.5 -9.5t-37.5 -26.5t-25.5 -40
t-9.5 -50q0 -36 23 -63t65 -27q25 0 47 10.5t37.5 28t24.5 40t9 46.5zM523 612q-24 -20 -62.5 -36t-89.5 -16q-53 0 -87.5 16.5t-54.5 45.5l31 111q29 -17 60.5 -27t79.5 -10q47 0 90 11.5t68 25.5z" />
    <glyph glyph-name="ocircumflex" unicode="&#xf4;" horiz-adv-x="582" 
d="M325 530q53 0 97.5 -18t76.5 -49t50 -73.5t18 -91.5q0 -62 -24 -118.5t-66 -99.5t-98.5 -68t-120.5 -25q-54 0 -99 18t-77 49.5t-49.5 74.5t-17.5 92q0 63 25 119t67.5 98.5t99 67t118.5 24.5zM394 273q0 39 -24.5 65t-63.5 26q-24 0 -45.5 -9.5t-37.5 -26.5t-25.5 -40
t-9.5 -50q0 -36 23 -63t65 -27q25 0 47 10.5t37.5 28t24.5 40t9 46.5zM402 703l141 -43l-31 -109l-132 23l-176 -23l31 109z" />
    <glyph glyph-name="odieresis" unicode="&#xf6;" horiz-adv-x="582" 
d="M325 530q53 0 97.5 -18t76.5 -49t50 -73.5t18 -91.5q0 -62 -24 -118.5t-66 -99.5t-98.5 -68t-120.5 -25q-54 0 -99 18t-77 49.5t-49.5 74.5t-17.5 92q0 63 25 119t67.5 98.5t99 67t118.5 24.5zM394 273q0 39 -24.5 65t-63.5 26q-24 0 -45.5 -9.5t-37.5 -26.5t-25.5 -40
t-9.5 -50q0 -36 23 -63t65 -27q25 0 47 10.5t37.5 28t24.5 40t9 46.5zM376 562l38 133h157l-38 -133h-157zM189 562l38 133h157l-38 -133h-157z" />
    <glyph glyph-name="oe" unicode="&#x153;" horiz-adv-x="944" 
d="M687 392q-37 0 -62.5 -18.5t-40.5 -47.5h188q-8 32 -30 49t-55 17zM394 273q0 39 -24.5 65t-63.5 26q-24 0 -45.5 -9.5t-37.5 -26.5t-25.5 -40t-9.5 -50q0 -36 23 -63t65 -27q25 0 47 10.5t37.5 28t24.5 40t9 46.5zM647 -12q-61 0 -108.5 21t-79.5 58q-39 -37 -90 -58.5
t-111 -21.5q-54 0 -99 18t-77 49.5t-49.5 74.5t-17.5 92q0 63 25 119t67.5 98.5t99 67t118.5 24.5q57 0 102.5 -20.5t75.5 -56.5q39 36 90 56.5t110 20.5q54 0 97 -16t73 -45t46 -70t16 -91q0 -29 -5.5 -54t-12.5 -46h-351q8 -39 36.5 -59.5t68.5 -20.5q28 0 56 13t52 41
l100 -87q-15 -20 -38 -39t-52.5 -34t-65.5 -24.5t-76 -9.5z" />
    <glyph glyph-name="ograve" unicode="&#xf2;" horiz-adv-x="582" 
d="M325 530q53 0 97.5 -18t76.5 -49t50 -73.5t18 -91.5q0 -62 -24 -118.5t-66 -99.5t-98.5 -68t-120.5 -25q-54 0 -99 18t-77 49.5t-49.5 74.5t-17.5 92q0 63 25 119t67.5 98.5t99 67t118.5 24.5zM394 273q0 39 -24.5 65t-63.5 26q-24 0 -45.5 -9.5t-37.5 -26.5t-25.5 -40
t-9.5 -50q0 -36 23 -63t65 -27q25 0 47 10.5t37.5 28t24.5 40t9 46.5zM479 543l-233 52l45 157l232 -54z" />
    <glyph glyph-name="ohungarumlaut" unicode="&#x151;" horiz-adv-x="582" 
d="M325 530q53 0 97.5 -18t76.5 -49t50 -73.5t18 -91.5q0 -62 -24 -118.5t-66 -99.5t-98.5 -68t-120.5 -25q-54 0 -99 18t-77 49.5t-49.5 74.5t-17.5 92q0 63 25 119t67.5 98.5t99 67t118.5 24.5zM394 273q0 39 -24.5 65t-63.5 26q-24 0 -45.5 -9.5t-37.5 -26.5t-25.5 -40
t-9.5 -50q0 -36 23 -63t65 -27q25 0 47 10.5t37.5 28t24.5 40t9 46.5zM379 558l94 147h173l-98 -147h-169zM173 558l91 147h172l-95 -147h-168z" />
    <glyph glyph-name="omacron" unicode="&#x14d;" horiz-adv-x="582" 
d="M325 530q53 0 97.5 -18t76.5 -49t50 -73.5t18 -91.5q0 -62 -24 -118.5t-66 -99.5t-98.5 -68t-120.5 -25q-54 0 -99 18t-77 49.5t-49.5 74.5t-17.5 92q0 63 25 119t67.5 98.5t99 67t118.5 24.5zM394 273q0 39 -24.5 65t-63.5 26q-24 0 -45.5 -9.5t-37.5 -26.5t-25.5 -40
t-9.5 -50q0 -36 23 -63t65 -27q25 0 47 10.5t37.5 28t24.5 40t9 46.5zM221 564l45 157h282l-45 -157h-282z" />
    <glyph glyph-name="oslash" unicode="&#xf8;" horiz-adv-x="579" 
d="M188 238v-6.5t1 -6.5l124 139h-7q-24 0 -45.5 -9.5t-37.5 -26.5t-25.5 -40t-9.5 -50zM276 148q25 0 47 10.5t37.5 28t24.5 40t9 46.5q0 5 -0.5 9.5t-1.5 9.5l-128 -143q4 -1 12 -1zM258 -13q-63 0 -115 25l-47 -52h-144l108 121q-45 59 -45 140q0 63 25 119t67.5 98.5
t99 67t118.5 24.5t114 -25l47 52h143l-107 -120q45 -59 45 -139q0 -62 -24 -118.5t-66 -99.5t-98.5 -68t-120.5 -25z" />
    <glyph glyph-name="otilde" unicode="&#xf5;" horiz-adv-x="582" 
d="M325 530q53 0 97.5 -18t76.5 -49t50 -73.5t18 -91.5q0 -62 -24 -118.5t-66 -99.5t-98.5 -68t-120.5 -25q-54 0 -99 18t-77 49.5t-49.5 74.5t-17.5 92q0 63 25 119t67.5 98.5t99 67t118.5 24.5zM394 273q0 39 -24.5 65t-63.5 26q-24 0 -45.5 -9.5t-37.5 -26.5t-25.5 -40
t-9.5 -50q0 -36 23 -63t65 -27q25 0 47 10.5t37.5 28t24.5 40t9 46.5zM242 680q20 17 49 31.5t59 14.5q22 0 38.5 -5t31.5 -10.5t30 -10.5t33 -5q12 0 26 3t25 8q13 4 26 11l-33 -112q-26 -20 -52 -32t-55 -12q-22 0 -39 4.5t-32 10t-30 10t-33 4.5q-13 0 -26 -3.5t-24 -7.5
q-13 -5 -26 -11z" />
    <glyph glyph-name="racute" unicode="&#x155;" horiz-adv-x="352" 
d="M362 349q-38 0 -66.5 -9t-49.5 -26t-34.5 -41t-22.5 -54l-63 -219h-176l149 518h175l-18 -61q19 19 44 34q21 13 49.5 23.5t63.5 10.5zM199 553l44 155l263 54l-45 -157z" />
    <glyph glyph-name="rcaron" unicode="&#x159;" horiz-adv-x="352" 
d="M362 349q-38 0 -66.5 -9t-49.5 -26t-34.5 -41t-22.5 -54l-63 -219h-176l149 518h175l-18 -61q19 19 44 34q21 13 49.5 23.5t63.5 10.5zM323 559l-141 43l31 109l132 -23l176 23l-31 -109z" />
    <glyph glyph-name="rcommaaccent" unicode="&#x157;" horiz-adv-x="352" 
d="M362 349q-38 0 -66.5 -9t-49.5 -26t-34.5 -41t-22.5 -54l-63 -219h-176l149 518h175l-18 -61q19 19 44 34q21 13 49.5 23.5t63.5 10.5zM3 -231h-115l57 69h-37l36 128h161l-27 -96z" />
    <glyph glyph-name="sacute" unicode="&#x15b;" horiz-adv-x="485" 
d="M154 161q-3 -23 11.5 -38.5t48.5 -15.5q21 0 32 8t11 20q0 13 -15.5 20.5t-38.5 14.5q-24 7 -53 17t-54 27.5t-42 45t-17 70.5q0 42 18 78t50.5 63t77.5 42t99 15q45 0 83 -11t63.5 -32.5t36.5 -55t4 -78.5h-167q5 25 -7 38.5t-38 13.5q-20 0 -32.5 -9.5t-12.5 -23.5
q0 -20 24.5 -29.5t58.5 -20.5q24 -7 50 -17t47.5 -26t35 -41t13.5 -62q0 -44 -19 -78.5t-52.5 -58.5t-79 -36.5t-97.5 -12.5q-57 0 -98.5 13t-68 36.5t-36 55t-1.5 68.5h165zM188 553l44 155l263 54l-45 -157z" />
    <glyph glyph-name="scaron" unicode="&#x161;" horiz-adv-x="485" 
d="M154 161q-3 -23 11.5 -38.5t48.5 -15.5q21 0 32 8t11 20q0 13 -15.5 20.5t-38.5 14.5q-24 7 -53 17t-54 27.5t-42 45t-17 70.5q0 42 18 78t50.5 63t77.5 42t99 15q45 0 83 -11t63.5 -32.5t36.5 -55t4 -78.5h-167q5 25 -7 38.5t-38 13.5q-20 0 -32.5 -9.5t-12.5 -23.5
q0 -20 24.5 -29.5t58.5 -20.5q24 -7 50 -17t47.5 -26t35 -41t13.5 -62q0 -44 -19 -78.5t-52.5 -58.5t-79 -36.5t-97.5 -12.5q-57 0 -98.5 13t-68 36.5t-36 55t-1.5 68.5h165zM312 559l-141 43l31 109l132 -23l176 23l-31 -109z" />
    <glyph glyph-name="scedilla" unicode="&#x15f;" horiz-adv-x="485" 
d="M130 -223q-23 0 -40.5 8t-29.5 21t-17 30t-1 36h81q0 -9 5 -15t15 -6q11 0 17.5 7.5t6.5 17.5q0 19 -22 19h-65l69 95q-91 10 -132.5 57.5t-27.5 113.5h165q-3 -23 11.5 -38.5t48.5 -15.5q21 0 32 8t11 20q0 13 -15.5 20.5t-38.5 14.5q-24 7 -53 17t-54 27.5t-42 45
t-17 70.5q0 42 18 78t50.5 63t77.5 42t99 15q45 0 83 -11t63.5 -32.5t36.5 -55t4 -78.5h-167q5 25 -7 38.5t-38 13.5q-20 0 -32.5 -9.5t-12.5 -23.5q0 -20 24.5 -29.5t58.5 -20.5q24 -7 50 -17t47.5 -26t35 -41t13.5 -62q0 -41 -17 -74t-46.5 -56.5t-70 -37.5t-88.5 -17
l-22 -29q26 -3 40 -21t14 -47q0 -22 -8 -42.5t-23.5 -36.5t-38 -26t-51.5 -10z" />
    <glyph glyph-name="scircumflex" unicode="&#x15d;" horiz-adv-x="485" 
d="M154 161q-3 -23 11.5 -38.5t48.5 -15.5q21 0 32 8t11 20q0 13 -15.5 20.5t-38.5 14.5q-24 7 -53 17t-54 27.5t-42 45t-17 70.5q0 42 18 78t50.5 63t77.5 42t99 15q45 0 83 -11t63.5 -32.5t36.5 -55t4 -78.5h-167q5 25 -7 38.5t-38 13.5q-20 0 -32.5 -9.5t-12.5 -23.5
q0 -20 24.5 -29.5t58.5 -20.5q24 -7 50 -17t47.5 -26t35 -41t13.5 -62q0 -44 -19 -78.5t-52.5 -58.5t-79 -36.5t-97.5 -12.5q-57 0 -98.5 13t-68 36.5t-36 55t-1.5 68.5h165zM354 703l141 -43l-31 -109l-132 23l-176 -23l31 109z" />
    <glyph glyph-name="scommaaccent" unicode="&#x219;" horiz-adv-x="485" 
d="M154 161q-3 -23 11.5 -38.5t48.5 -15.5q21 0 32 8t11 20q0 13 -15.5 20.5t-38.5 14.5q-24 7 -53 17t-54 27.5t-42 45t-17 70.5q0 42 18 78t50.5 63t77.5 42t99 15q45 0 83 -11t63.5 -32.5t36.5 -55t4 -78.5h-167q5 25 -7 38.5t-38 13.5q-20 0 -32.5 -9.5t-12.5 -23.5
q0 -20 24.5 -29.5t58.5 -20.5q24 -7 50 -17t47.5 -26t35 -41t13.5 -62q0 -44 -19 -78.5t-52.5 -58.5t-79 -36.5t-97.5 -12.5q-57 0 -98.5 13t-68 36.5t-36 55t-1.5 68.5h165zM155 -231h-115l57 69h-37l36 128h161l-27 -96z" />
    <glyph glyph-name="tbar" unicode="&#x167;" horiz-adv-x="402" 
d="M309 0h-99q-46 0 -76.5 13.5t-47 38.5t-19.5 60.5t7 78.5h-72l38 132h71l11 38h-71l45 157h71l36 127h176l-36 -127h114l-45 -157h-115l-11 -38h116l-38 -132h-113q-1 -20 9.5 -31.5t36.5 -11.5h53z" />
    <glyph glyph-name="tcaron" unicode="&#x165;" horiz-adv-x="401" 
d="M619 700l-101 -137h-121l79 106h-49l52 181h183l-43 -150v0zM256 216q-9 -32 0 -50t41 -18h53l-41 -148h-99q-48 0 -80 15.5t-47.5 43t-16.5 66.5t13 87l43 149h-71l45 157h71l36 127h176l-36 -127h114l-45 -157h-115z" />
    <glyph glyph-name="tcedilla" unicode="&#x163;" horiz-adv-x="401" 
d="M100 -223q-23 0 -40.5 8t-29.5 21t-17 30t-1 36h81q0 -9 5 -15t15 -6q11 0 17.5 7.5t6.5 17.5q0 19 -22 19h-65l83 114h14q-58 19 -73.5 72t6.5 131l43 149h-71l45 157h71l36 127h176l-36 -127h114l-45 -157h-115l-41 -145q-9 -32 0 -50t41 -18h53l-41 -148h-99h-13
l-31 -40q26 -3 40 -21t14 -47q0 -22 -8 -42.5t-23.5 -36.5t-38 -26t-51.5 -10z" />
    <glyph glyph-name="uni021B" unicode="&#x21b;" horiz-adv-x="401" 
d="M256 216q-9 -32 0 -50t41 -18h53l-41 -148h-99q-48 0 -80 15.5t-47.5 43t-16.5 66.5t13 87l43 149h-71l45 157h71l36 127h176l-36 -127h114l-45 -157h-115zM170 -231h-115l57 69h-37l36 128h161l-27 -96z" />
    <glyph glyph-name="thorn" unicode="&#xfe;" horiz-adv-x="599" 
d="M199 246q0 -40 24.5 -64.5t62.5 -24.5q25 0 47.5 10.5t39.5 28t27 40t10 47.5q0 40 -25 65t-63 25q-23 0 -45.5 -10.5t-39.5 -27.5t-27.5 -40.5t-10.5 -48.5zM282 -3q-39 0 -73.5 12t-66.5 41l-65 -233h-179l249 868h176l-54 -188q28 13 54 18.5t49 5.5q42 0 80.5 -15
t67.5 -43.5t46.5 -68.5t17.5 -91q0 -60 -24 -115.5t-65 -97.5t-96 -67.5t-117 -25.5z" />
    <glyph glyph-name="uacute" unicode="&#xfa;" 
d="M295 46q-29 -23 -68.5 -39.5t-81.5 -16.5q-41 0 -73 15.5t-51.5 45t-23.5 71t11 93.5l89 303h176l-79 -277q-11 -39 1 -64t50 -25t65 24t41 71l78 271h176l-149 -518h-173zM238 553l44 155l263 54l-45 -157z" />
    <glyph glyph-name="ubreve" unicode="&#x16d;" 
d="M295 46q-29 -23 -68.5 -39.5t-81.5 -16.5q-41 0 -73 15.5t-51.5 45t-23.5 71t11 93.5l89 303h176l-79 -277q-11 -39 1 -64t50 -25t65 24t41 71l78 271h176l-149 -518h-173zM525 612q-24 -20 -62.5 -36t-89.5 -16q-53 0 -87.5 16.5t-54.5 45.5l31 111q29 -17 60.5 -27
t79.5 -10q47 0 90 11.5t68 25.5z" />
    <glyph glyph-name="ucircumflex" unicode="&#xfb;" 
d="M295 46q-29 -23 -68.5 -39.5t-81.5 -16.5q-41 0 -73 15.5t-51.5 45t-23.5 71t11 93.5l89 303h176l-79 -277q-11 -39 1 -64t50 -25t65 24t41 71l78 271h176l-149 -518h-173zM404 703l141 -43l-31 -109l-132 23l-176 -23l31 109z" />
    <glyph glyph-name="udieresis" unicode="&#xfc;" 
d="M295 46q-29 -23 -68.5 -39.5t-81.5 -16.5q-41 0 -73 15.5t-51.5 45t-23.5 71t11 93.5l89 303h176l-79 -277q-11 -39 1 -64t50 -25t65 24t41 71l78 271h176l-149 -518h-173zM378 562l38 133h157l-38 -133h-157zM191 562l38 133h157l-38 -133h-157z" />
    <glyph glyph-name="ugrave" unicode="&#xf9;" 
d="M295 46q-29 -23 -68.5 -39.5t-81.5 -16.5q-41 0 -73 15.5t-51.5 45t-23.5 71t11 93.5l89 303h176l-79 -277q-11 -39 1 -64t50 -25t65 24t41 71l78 271h176l-149 -518h-173zM481 543l-233 52l45 157l232 -54z" />
    <glyph glyph-name="uhungarumlaut" unicode="&#x171;" 
d="M295 46q-29 -23 -68.5 -39.5t-81.5 -16.5q-41 0 -73 15.5t-51.5 45t-23.5 71t11 93.5l89 303h176l-79 -277q-11 -39 1 -64t50 -25t65 24t41 71l78 271h176l-149 -518h-173zM381 558l94 147h173l-98 -147h-169zM175 558l91 147h172l-95 -147h-168z" />
    <glyph glyph-name="umacron" unicode="&#x16b;" 
d="M295 46q-29 -23 -68.5 -39.5t-81.5 -16.5q-41 0 -73 15.5t-51.5 45t-23.5 71t11 93.5l89 303h176l-79 -277q-11 -39 1 -64t50 -25t65 24t41 71l78 271h176l-149 -518h-173zM223 564l45 157h282l-45 -157h-282z" />
    <glyph glyph-name="uogonek" unicode="&#x173;" 
d="M410 -168q-8 -5 -19 -9q-9 -4 -22 -6.5t-28 -2.5q-39 0 -59.5 18.5t-20.5 48.5q0 16 7 33.5t19 33.5t27.5 29.5t33.5 22.5h-64l12 46q-29 -23 -68.5 -39.5t-81.5 -16.5q-41 0 -73 15.5t-51.5 45t-23.5 71t11 93.5l89 303h176l-79 -277q-11 -39 1 -64t50 -25t65 24t41 71
l78 271h176l-149 -518h-28q-31 -17 -47 -41t-16 -41q0 -21 28 -21q17 0 26 3q5 1 10 3l-20 -71v0z" />
    <glyph glyph-name="uring" unicode="&#x16f;" 
d="M295 46q-29 -23 -68.5 -39.5t-81.5 -16.5q-41 0 -73 15.5t-51.5 45t-23.5 71t11 93.5l89 303h176l-79 -277q-11 -39 1 -64t50 -25t65 24t41 71l78 271h176l-149 -518h-173zM283 645q0 26 10.5 49t27.5 39.5t39.5 26t46.5 9.5q41 0 67.5 -26.5t26.5 -68.5q0 -27 -10 -49.5
t-26.5 -39.5t-39.5 -26.5t-48 -9.5q-40 0 -67 26.5t-27 69.5zM423 665q0 14 -7.5 21.5t-18.5 7.5q-15 0 -25.5 -12t-10.5 -29q0 -14 7.5 -21.5t18.5 -7.5q16 0 26 12.5t10 28.5z" />
    <glyph glyph-name="utilde" unicode="&#x169;" 
d="M295 46q-29 -23 -68.5 -39.5t-81.5 -16.5q-41 0 -73 15.5t-51.5 45t-23.5 71t11 93.5l89 303h176l-79 -277q-11 -39 1 -64t50 -25t65 24t41 71l78 271h176l-149 -518h-173zM244 680q20 17 49 31.5t59 14.5q22 0 38.5 -5t31.5 -10.5t30 -10.5t33 -5q12 0 26 3t25 8
q13 4 26 11l-33 -112q-26 -20 -52 -32t-55 -12q-22 0 -39 4.5t-32 10t-30 10t-33 4.5q-13 0 -26 -3.5t-24 -7.5q-13 -5 -26 -11z" />
    <glyph glyph-name="wacute" unicode="&#x1e83;" horiz-adv-x="810" 
d="M406 256l-129 -256h-198l10 518h175l-21 -298l159 298h153l-12 -299l149 299h181l-286 -518h-197zM368 553l44 155l263 54l-45 -157z" />
    <glyph glyph-name="wdieresis" unicode="&#x1e85;" horiz-adv-x="810" 
d="M406 256l-129 -256h-198l10 518h175l-21 -298l159 298h153l-12 -299l149 299h181l-286 -518h-197zM508 562l38 133h157l-38 -133h-157zM321 562l38 133h157l-38 -133h-157z" />
    <glyph glyph-name="wgrave" unicode="&#x1e81;" horiz-adv-x="810" 
d="M406 256l-129 -256h-198l10 518h175l-21 -298l159 298h153l-12 -299l149 299h181l-286 -518h-197zM611 543l-233 52l45 157l232 -54z" />
    <glyph glyph-name="wcircumflex" unicode="&#x175;" horiz-adv-x="810" 
d="M406 256l-129 -256h-198l10 518h175l-21 -298l159 298h153l-12 -299l149 299h181l-286 -518h-197zM534 703l141 -43l-31 -109l-132 23l-176 -23l31 109z" />
    <glyph glyph-name="yacute" unicode="&#xfd;" horiz-adv-x="551" 
d="M278 -25q-36 -57 -70.5 -91.5t-73.5 -52t-85.5 -20t-106.5 5.5l43 156q30 -5 51.5 -4t37 8t26 21t18.5 35l-35 485h182l2 -272l156 272h202l-347 -543v0zM230 553l44 155l263 54l-45 -157z" />
    <glyph glyph-name="ycircumflex" unicode="&#x177;" horiz-adv-x="551" 
d="M278 -25q-36 -57 -70.5 -91.5t-73.5 -52t-85.5 -20t-106.5 5.5l43 156q30 -5 51.5 -4t37 8t26 21t18.5 35l-35 485h182l2 -272l156 272h202l-347 -543v0zM396 703l141 -43l-31 -109l-132 23l-176 -23l31 109z" />
    <glyph glyph-name="ydieresis" unicode="&#xff;" horiz-adv-x="551" 
d="M278 -25q-36 -57 -70.5 -91.5t-73.5 -52t-85.5 -20t-106.5 5.5l43 156q30 -5 51.5 -4t37 8t26 21t18.5 35l-35 485h182l2 -272l156 272h202l-347 -543v0zM370 562l38 133h157l-38 -133h-157zM183 562l38 133h157l-38 -133h-157z" />
    <glyph glyph-name="ygrave" unicode="&#x1ef3;" horiz-adv-x="551" 
d="M278 -25q-36 -57 -70.5 -91.5t-73.5 -52t-85.5 -20t-106.5 5.5l43 156q30 -5 51.5 -4t37 8t26 21t18.5 35l-35 485h182l2 -272l156 272h202l-347 -543v0zM473 543l-233 52l45 157l232 -54z" />
    <glyph glyph-name="zacute" unicode="&#x17a;" horiz-adv-x="472" 
d="M231 150h188l-43 -150h-429l37 128l262 238h-202l44 152h443l-38 -131zM193 553l44 155l263 54l-45 -157z" />
    <glyph glyph-name="zcaron" unicode="&#x17e;" horiz-adv-x="472" 
d="M231 150h188l-43 -150h-429l37 128l262 238h-202l44 152h443l-38 -131zM317 559l-141 43l31 109l132 -23l176 23l-31 -109z" />
    <glyph glyph-name="zdotaccent" unicode="&#x17c;" horiz-adv-x="472" 
d="M231 150h188l-43 -150h-429l37 128l262 238h-202l44 152h443l-38 -131zM229 562l38 133h178l-38 -133h-178z" />
    <glyph glyph-name="f_i" unicode="&#xfb01;" horiz-adv-x="625" 
d="M454 518l-45 -157h-102l-104 -361h-176l104 361h-80l45 157h80l11 32q55 162 255 162h68l-39 -138h-44q-59 0 -75 -56h102zM507 547l39 138h176l-39 -138h-176zM350 0l149 518h176l-149 -518h-176z" />
    <glyph glyph-name="f_l" unicode="&#xfb02;" horiz-adv-x="625" 
d="M454 518l-45 -157h-102l-104 -361h-176l104 361h-80l45 157h80l11 32q55 162 255 162h68l-39 -138h-44q-59 0 -75 -56h102zM350 0l196 685h176l-196 -685h-176z" />
    <glyph glyph-name="ordfeminine" unicode="&#xaa;" horiz-adv-x="380" 
d="M327 532q0 25 -15.5 40.5t-38.5 15.5q-32 0 -55 -24t-23 -55q0 -25 16 -40.5t39 -15.5q15 0 28.5 6.5t24.5 17t17.5 25t6.5 30.5zM288 380q-16 -11 -35.5 -15.5t-34.5 -4.5q-26 0 -50 9.5t-42 27t-29 42.5t-11 57q0 37 15 72t40.5 61.5t60 42.5t73.5 16q25 0 46.5 -7.5
t40.5 -26.5l9 32h112l-94 -324h-106z" />
    <glyph glyph-name="ordmasculine" unicode="&#xba;" horiz-adv-x="367" 
d="M280 692q33 0 60.5 -11t47.5 -30.5t31 -46t11 -56.5q0 -39 -15 -74t-41 -61.5t-61 -42t-75 -15.5q-34 0 -61.5 11.5t-47.5 31t-31 46t-11 56.5q0 39 15.5 74t42 61t61.5 41.5t74 15.5zM322 532q0 25 -15 41t-39 16q-30 0 -51.5 -22.5t-21.5 -55.5q0 -23 14 -39.5
t40 -16.5q16 0 29 6.5t23 17.5t15.5 24.5t5.5 28.5z" />
    <glyph glyph-name="cedilla" unicode="&#xb8;" horiz-adv-x="394" 
d="M183 -108q0 -22 -8 -42.5t-23.5 -36.5t-38 -26t-51.5 -10q-23 0 -40.5 8t-29.5 21t-17 30t-1 36h81q0 -9 5 -15t15 -6q11 0 17.5 7.5t6.5 17.5q0 19 -22 19h-65l83 114h72l-38 -49q26 -3 40 -21t14 -47z" />
    <glyph glyph-name="ogonek" unicode="&#x2db;" horiz-adv-x="394" 
d="M181 0q-31 -17 -47 -41t-16 -41q0 -21 28 -21q17 0 26 3q5 1 10 3l-20 -71q-8 -5 -19 -9q-9 -4 -22 -6.5t-28 -2.5q-39 0 -59.5 18.5t-20.5 48.5q0 19 9.5 39.5t25 38.5t35.5 31t41 19l48 13z" />
    <glyph glyph-name="zero" unicode="0" horiz-adv-x="583" 
d="M240 -11q-57 0 -103.5 19t-76.5 53.5t-40 83.5t7 109l58 203q32 112 107.5 173.5t197.5 61.5q56 0 102.5 -19t76.5 -53.5t40 -83.5t-7 -109l-58 -203q-32 -112 -107.5 -173.5t-196.5 -61.5zM269 157q38 0 62.5 22.5t35.5 59.5l56 193q12 41 -6.5 66.5t-55.5 25.5
q-38 0 -62.5 -22.5t-35.5 -59.5l-56 -193q-12 -41 6 -66.5t56 -25.5z" />
    <glyph glyph-name="one" unicode="1" horiz-adv-x="323" 
d="M27 0l145 508h-78l51 177h270l-196 -685h-192z" />
    <glyph glyph-name="two" unicode="2" horiz-adv-x="559" 
d="M-24 0l42 145l309 229q25 19 40.5 34t24.5 28t12 24.5t3 22.5q0 21 -15.5 33t-40.5 12q-36 0 -65.5 -23t-55.5 -59l-139 85q24 34 54.5 64.5t67.5 52.5t80 35t92 13q50 0 90.5 -13.5t69 -37t43.5 -56t15 -71.5q0 -32 -10.5 -65t-40.5 -72t-84 -86t-140 -106l-44 -30h224
l-46 -159h-486z" />
    <glyph glyph-name="three" unicode="3" horiz-adv-x="580" 
d="M247 -13q-100 0 -164 47t-81 145l168 65q7 -44 30.5 -68t63.5 -24q23 0 41 8t30 20.5t18 27.5t6 30q0 35 -22 54.5t-55 19.5q-16 0 -32 -3.5t-31 -12.5l-44 115l192 109h-219l47 165h438l-51 -180l-128 -83q48 -26 70.5 -67t22.5 -90q0 -51 -20.5 -100.5t-59 -89
t-94.5 -64t-126 -24.5z" />
    <glyph glyph-name="four" unicode="4" horiz-adv-x="609" 
d="M589 288l-47 -161h-62l-36 -127h-186l36 127h-303l47 161l395 399h208l-114 -399h62zM387 449l-156 -161h110z" />
    <glyph glyph-name="five" unicode="5" horiz-adv-x="580" 
d="M247 -13q-109 0 -169.5 52t-75.5 140l168 65q7 -47 31.5 -69.5t61.5 -22.5q42 0 69.5 28.5t27.5 70.5q0 33 -20.5 55t-55.5 22q-52 0 -86 -48l-137 62l155 343h399l-48 -163h-259l-26 -60q18 4 33.5 6t31.5 2q44 0 81 -13.5t63.5 -39t41.5 -62.5t15 -83q0 -54 -20.5 -105
t-59.5 -91t-95 -64.5t-126 -24.5z" />
    <glyph glyph-name="six" unicode="6" horiz-adv-x="555" 
d="M245 -11q-59 0 -102 17t-72 46t-43 67.5t-14 81.5q0 61 25 121.5t85 129.5l199 233h216l-188 -209q33 0 66.5 -12t60 -36.5t43.5 -62t17 -87.5q0 -53 -21.5 -105t-60.5 -93t-93 -66t-118 -25zM263 150q23 0 41.5 9.5t31 24.5t19.5 34t7 39q0 34 -21.5 55t-54.5 21
q-19 0 -36.5 -8t-31 -22.5t-21.5 -34t-8 -41.5q0 -35 20.5 -56t53.5 -21z" />
    <glyph glyph-name="seven" unicode="7" horiz-adv-x="546" 
d="M-6 0l395 511h-287l51 174h483l-49 -171l-371 -514h-222z" />
    <glyph glyph-name="eight" unicode="8" horiz-adv-x="576" 
d="M231 -9q-48 0 -86.5 13t-66 37t-42 57.5t-14.5 73.5q0 71 39 128t105 88q-23 42 -23 89q0 38 16.5 76.5t48.5 69t77.5 49.5t104.5 19q44 0 78 -11.5t57.5 -32.5t35.5 -50t12 -63q0 -40 -19.5 -84t-74.5 -86q25 -23 36.5 -53.5t11.5 -64.5q0 -49 -21 -95t-60 -81.5
t-93.5 -57t-121.5 -21.5zM345 436q15 0 27.5 6.5t21.5 16.5t14 22.5t5 25.5q0 21 -13.5 33t-31.5 12q-29 0 -48.5 -21t-19.5 -49q0 -22 13.5 -34t31.5 -12zM259 134q20 0 37 8.5t29.5 23t19.5 32.5t7 37q0 30 -18 45t-44 15q-18 0 -35 -7.5t-30 -21t-20.5 -31.5t-7.5 -39
q0 -29 18 -45.5t44 -16.5z" />
    <glyph glyph-name="nine" unicode="9" horiz-adv-x="555" 
d="M361 696q58 0 101.5 -17t72.5 -46t43 -67.5t14 -81.5q0 -61 -25 -121.5t-85 -129.5l-199 -233h-216l188 209q-33 0 -66.5 12t-60 36.5t-43.5 62t-17 87.5q0 53 21.5 105t60.5 93t92.5 66t118.5 25zM343 535q-23 0 -41.5 -9.5t-31.5 -24.5t-19.5 -34.5t-6.5 -38.5
q0 -34 21.5 -55t54.5 -21q19 0 36.5 8t31 22.5t21.5 33.5t8 42q0 35 -20.5 56t-53.5 21z" />
    <glyph glyph-name="zero.slash" horiz-adv-x="582" 
d="M240 -11q-57 0 -103.5 19t-76.5 53.5t-40 83.5t7 109l58 203q32 112 107.5 173.5t197.5 61.5q56 0 102.5 -19t76.5 -53.5t40 -83.5t-7 -109l-58 -203q-32 -112 -107.5 -173.5t-196.5 -61.5zM207 249q-2 -6 -2 -10l155 285q-37 0 -61.5 -22.5t-35.5 -59.5zM269 157
q38 0 62.5 22.5t35.5 59.5l56 193q2 7 4 17z" />
    <glyph glyph-name="four.alt" horiz-adv-x="609" 
d="M258 0l32 111h-303l46 162l345 416h218l-359 -416h99l33 113h187l-33 -113h64l-46 -162h-64l-32 -111h-187z" />
    <glyph glyph-name="zero.dnom" horiz-adv-x="337" 
d="M104 -6q-30 0 -56.5 9.5t-44 28.5t-24 46.5t3.5 62.5l33 114q19 69 62.5 104.5t119.5 35.5q32 0 58.5 -10t43.5 -29t22.5 -46t-4.5 -61l-32 -114q-20 -69 -63 -105t-119 -36zM126 99q19 0 31 12t17 31l31 106q5 19 -2.5 30.5t-24.5 11.5q-20 0 -32 -12t-18 -31l-30 -105
q-6 -20 2 -31.5t26 -11.5z" />
    <glyph glyph-name="one.dnom" horiz-adv-x="194" 
d="M-16 0l80 279h-44l32 111h165l-112 -390h-121z" />
    <glyph glyph-name="two.dnom" horiz-adv-x="323" 
d="M-43 0l25 88l180 142q17 14 24.5 24t7.5 20q0 19 -24 19q-18 0 -32.5 -13t-29.5 -34l-89 49q31 48 74 75.5t100 27.5q60 0 93.5 -29.5t33.5 -72.5q0 -15 -6 -34t-24 -42.5t-51 -53t-87 -66.5h114l-29 -100h-280z" />
    <glyph glyph-name="three.dnom" horiz-adv-x="336" 
d="M114 -8q-56 0 -93.5 25.5t-48.5 85.5l105 41q4 -23 16 -36t32 -13q23 0 33.5 13t10.5 24q0 16 -10.5 26t-27.5 10q-8 0 -17.5 -2t-18.5 -7l-27 70l110 59h-125l29 103h255l-33 -116l-64 -40q26 -16 37 -38.5t11 -48.5q0 -27 -11 -55t-33 -50.5t-54.5 -36.5t-75.5 -14z
" />
    <glyph glyph-name="four.dnom" horiz-adv-x="354" 
d="M315 171l-30 -100h-34l-20 -71h-117l20 71h-169l29 100l219 221h130l-63 -221h35zM185 248l-73 -77h51z" />
    <glyph glyph-name="five.dnom" horiz-adv-x="336" 
d="M111 -8q-63 0 -98 29.5t-44 81.5l105 41q4 -25 17 -37t30 -12q19 0 32 13t13 34q0 15 -9 26.5t-29 11.5q-23 0 -40 -23l-86 37l87 197h236l-30 -100h-146l-10 -26q18 3 30 3q53 0 84.5 -30.5t31.5 -84.5q0 -29 -11 -58t-33 -52t-54.5 -37t-75.5 -14z" />
    <glyph glyph-name="six.dnom" horiz-adv-x="318" 
d="M110 -7q-36 0 -61 10.5t-41 27.5t-23.5 39t-7.5 45q0 35 14 69.5t51 78.5l107 128h137l-108 -119q18 -1 36 -8.5t32.5 -21.5t23.5 -35t9 -49q0 -30 -12.5 -59.5t-34.5 -53t-53.5 -38t-68.5 -14.5zM122 95q23 0 34.5 16.5t11.5 34.5q0 17 -10.5 27.5t-25.5 10.5
q-18 0 -31.5 -14.5t-13.5 -37.5q0 -17 9.5 -27t25.5 -10z" />
    <glyph glyph-name="seven.dnom" horiz-adv-x="318" 
d="M-38 0l223 282h-159l32 109h280l-31 -107l-204 -284h-141z" />
    <glyph glyph-name="eight.dnom" horiz-adv-x="334" 
d="M95 -5q-54 0 -85.5 29t-31.5 74q0 42 23 74.5t58 47.5q-12 24 -12 50q0 21 9 43t27 40t44.5 29.5t62.5 11.5q52 0 80 -25t28 -64q0 -20 -10.5 -46.5t-42.5 -52.5q26 -26 26 -65q0 -27 -12 -53.5t-34.5 -47t-55 -33t-74.5 -12.5zM165 250q14 0 23.5 11t9.5 25
q0 10 -6.5 16t-14.5 6q-13 0 -23 -10t-10 -25q0 -11 6.5 -17t14.5 -6zM116 83q18 0 31.5 15.5t13.5 35.5q0 16 -9 22.5t-20 6.5q-14 0 -29 -13t-15 -36q0 -15 8.5 -23t19.5 -8z" />
    <glyph glyph-name="nine.dnom" horiz-adv-x="318" 
d="M1 0l108 120q-17 1 -35 8t-32.5 21t-23.5 34.5t-9 49.5q0 30 12 60t34.5 53t53.5 37.5t69 14.5q35 0 60.5 -10.5t41.5 -27.5t23.5 -39t7.5 -45q0 -35 -14 -69.5t-51 -77.5l-108 -129h-137zM166 297q-24 0 -35.5 -17t-11.5 -35q0 -17 10.5 -27t25.5 -10q18 0 32 14.5
t14 36.5q0 17 -10 27.5t-25 10.5z" />
    <glyph glyph-name="zero.sups" unicode="&#x2070;" horiz-adv-x="337" 
d="M184 288q-30 0 -56.5 9.5t-44 28.5t-24 46.5t3.5 62.5l33 114q19 69 62.5 104.5t119.5 35.5q32 0 58.5 -10t43.5 -29t22.5 -46t-4.5 -61l-32 -114q-20 -69 -63 -105t-119 -36zM206 393q19 0 31 12t17 31l31 106q5 19 -2.5 30.5t-24.5 11.5q-20 0 -32 -12t-18 -31
l-30 -105q-6 -20 2 -31.5t26 -11.5z" />
    <glyph glyph-name="onesuperior" unicode="&#xb9;" horiz-adv-x="194" 
d="M64 294l80 279h-44l32 111h165l-112 -390h-121z" />
    <glyph glyph-name="twosuperior" unicode="&#xb2;" horiz-adv-x="323" 
d="M37 294l25 88l180 142q17 14 24.5 24t7.5 20q0 19 -24 19q-18 0 -32.5 -13t-29.5 -34l-89 49q31 48 74 75.5t100 27.5q60 0 93.5 -29.5t33.5 -72.5q0 -15 -6 -34t-24 -42.5t-51 -53t-87 -66.5h114l-29 -100h-280z" />
    <glyph glyph-name="threesuperior" unicode="&#xb3;" horiz-adv-x="336" 
d="M194 286q-56 0 -93.5 25.5t-48.5 85.5l105 41q4 -23 16 -36t32 -13q23 0 33.5 13t10.5 24q0 16 -10.5 26t-27.5 10q-8 0 -17.5 -2t-18.5 -7l-27 70l110 59h-125l29 103h255l-33 -116l-64 -40q26 -16 37 -38.5t11 -48.5q0 -27 -11 -55t-33 -50.5t-54.5 -36.5t-75.5 -14z
" />
    <glyph glyph-name="four.sups" unicode="&#x2074;" horiz-adv-x="354" 
d="M395 465l-30 -100h-34l-20 -71h-117l20 71h-169l29 100l219 221h130l-63 -221h35zM265 542l-73 -77h51z" />
    <glyph glyph-name="five.sups" unicode="&#x2075;" horiz-adv-x="336" 
d="M191 286q-63 0 -98 29.5t-44 81.5l105 41q4 -25 17 -37t30 -12q19 0 32 13t13 34q0 15 -9 26.5t-29 11.5q-23 0 -40 -23l-86 37l87 197h236l-30 -100h-146l-10 -26q18 3 30 3q53 0 84.5 -30.5t31.5 -84.5q0 -29 -11 -58t-33 -52t-54.5 -37t-75.5 -14z" />
    <glyph glyph-name="six.sups" unicode="&#x2076;" horiz-adv-x="318" 
d="M190 287q-36 0 -61 10.5t-41 27.5t-23.5 39t-7.5 45q0 35 14 69.5t51 78.5l107 128h137l-108 -119q18 -1 36 -8.5t32.5 -21.5t23.5 -35t9 -49q0 -30 -12.5 -59.5t-34.5 -53t-53.5 -38t-68.5 -14.5zM202 389q23 0 34.5 16.5t11.5 34.5q0 17 -10.5 27.5t-25.5 10.5
q-18 0 -31.5 -14.5t-13.5 -37.5q0 -17 9.5 -27t25.5 -10z" />
    <glyph glyph-name="seven.sups" unicode="&#x2077;" horiz-adv-x="318" 
d="M42 294l223 282h-159l32 109h280l-31 -107l-204 -284h-141z" />
    <glyph glyph-name="eight.sups" unicode="&#x2078;" horiz-adv-x="334" 
d="M175 289q-54 0 -85.5 29t-31.5 74q0 42 23 74.5t58 47.5q-12 24 -12 50q0 21 9 43t27 40t44.5 29.5t62.5 11.5q52 0 80 -25t28 -64q0 -20 -10.5 -46.5t-42.5 -52.5q26 -26 26 -65q0 -27 -12 -53.5t-34.5 -47t-55 -33t-74.5 -12.5zM245 544q14 0 23.5 11t9.5 25
q0 10 -6.5 16t-14.5 6q-13 0 -23 -10t-10 -25q0 -11 6.5 -17t14.5 -6zM196 377q18 0 31.5 15.5t13.5 35.5q0 16 -9 22.5t-20 6.5q-14 0 -29 -13t-15 -36q0 -15 8.5 -23t19.5 -8z" />
    <glyph glyph-name="nine.sups" unicode="&#x2079;" horiz-adv-x="318" 
d="M81 294l108 120q-17 1 -35 8t-32.5 21t-23.5 34.5t-9 49.5q0 30 12 60t34.5 53t53.5 37.5t69 14.5q35 0 60.5 -10.5t41.5 -27.5t23.5 -39t7.5 -45q0 -35 -14 -69.5t-51 -77.5l-108 -129h-137zM246 591q-24 0 -35.5 -17t-11.5 -35q0 -17 10.5 -27t25.5 -10q18 0 32 14.5
t14 36.5q0 17 -10 27.5t-25 10.5z" />
    <glyph glyph-name="onequarter" unicode="&#xbc;" horiz-adv-x="712" 
d="M64 294l80 279h-44l32 111h165l-112 -390h-121zM674 171l-30 -100h-34l-20 -71h-117l20 71h-169l29 100l219 221h130l-63 -221h35zM544 248l-73 -77h51zM22 0l494 685h145l-494 -685h-145z" />
    <glyph glyph-name="fraction" unicode="&#x2044;" horiz-adv-x="22" 
d="M-273 0l494 685h145l-494 -685h-145z" />
    <glyph glyph-name="onehalf" unicode="&#xbd;" horiz-adv-x="725" 
d="M64 294l80 279h-44l32 111h165l-112 -390h-121zM359 0l25 88l180 142q17 14 24.5 24t7.5 20q0 19 -24 19q-18 0 -32.5 -13t-29.5 -34l-89 49q31 48 74 75.5t100 27.5q60 0 93.5 -29.5t33.5 -72.5q0 -15 -6 -34t-24 -42.5t-51 -53t-87 -66.5h114l-29 -100h-280zM22 0
l494 685h145l-494 -685h-145z" />
    <glyph glyph-name="threequarters" unicode="&#xbe;" horiz-adv-x="830" 
d="M194 286q-56 0 -93.5 25.5t-48.5 85.5l105 41q4 -23 16 -36t32 -13q23 0 33.5 13t10.5 24q0 16 -10.5 26t-27.5 10q-8 0 -17.5 -2t-18.5 -7l-27 70l110 59h-125l29 103h255l-33 -116l-64 -40q26 -16 37 -38.5t11 -48.5q0 -27 -11 -55t-33 -50.5t-54.5 -36.5t-75.5 -14z
M791 171l-30 -100h-34l-20 -71h-117l20 71h-169l29 100l219 221h130l-63 -221h35zM661 248l-73 -77h51zM141 0l494 685h145l-494 -685h-145z" />
    <glyph glyph-name="uni2153" unicode="&#x2153;" horiz-adv-x="740" 
d="M64 294l80 279h-44l32 111h165l-112 -390h-121zM22 0l494 685h145l-494 -685h-145zM517 -8q-56 0 -93.5 25.5t-48.5 85.5l105 41q4 -23 16 -36t32 -13q23 0 33.5 13t10.5 24q0 16 -10.5 26t-27.5 10q-8 0 -17.5 -2t-18.5 -7l-27 70l110 59h-125l29 103h255l-33 -116
l-64 -40q26 -16 37 -38.5t11 -48.5q0 -27 -11 -55t-33 -50.5t-54.5 -36.5t-75.5 -14z" />
    <glyph glyph-name="uni2154" unicode="&#x2154;" horiz-adv-x="873" 
d="M37 294l25 88l180 142q17 14 24.5 24t7.5 20q0 19 -24 19q-18 0 -32.5 -13t-29.5 -34l-89 49q31 48 74 75.5t100 27.5q60 0 93.5 -29.5t33.5 -72.5q0 -15 -6 -34t-24 -42.5t-51 -53t-87 -66.5h114l-29 -100h-280zM156 0l494 685h145l-494 -685h-145zM651 -8
q-56 0 -93.5 25.5t-48.5 85.5l105 41q4 -23 16 -36t32 -13q23 0 33.5 13t10.5 24q0 16 -10.5 26t-27.5 10q-8 0 -17.5 -2t-18.5 -7l-27 70l110 59h-125l29 103h255l-33 -116l-64 -40q26 -16 37 -38.5t11 -48.5q0 -27 -11 -55t-33 -50.5t-54.5 -36.5t-75.5 -14z" />
    <glyph glyph-name="percent" unicode="%" horiz-adv-x="841" 
d="M607 -6q-30 0 -56.5 9.5t-44 28.5t-24 46.5t3.5 62.5l33 114q19 69 62.5 104.5t119.5 35.5q32 0 58.5 -10t43.5 -29t22.5 -46t-4.5 -61l-32 -114q-20 -69 -63 -105t-119 -36zM629 99q19 0 31 12t17 31l31 106q5 19 -2.5 30.5t-24.5 11.5q-20 0 -32 -12t-18 -31l-30 -105
q-6 -20 2 -31.5t26 -11.5zM189 288q-30 0 -56.5 9.5t-44 28.5t-24 46.5t3.5 62.5l33 114q19 69 62.5 104.5t119.5 35.5q32 0 58.5 -10t43.5 -29t22.5 -46t-4.5 -61l-32 -114q-20 -69 -63 -105t-119 -36zM211 393q19 0 31 12t17 31l31 106q5 19 -2.5 30.5t-24.5 11.5
q-20 0 -32 -12t-18 -31l-30 -105q-6 -20 2 -31.5t26 -11.5zM125 0l494 685h145l-494 -685h-145z" />
    <glyph glyph-name="underscore" unicode="_" horiz-adv-x="492" 
d="M-130 -196l47 166h492l-47 -166h-492z" />
    <glyph glyph-name="hyphen" unicode="-" horiz-adv-x="355" 
d="M10 200l48 166h301l-48 -166h-301z" />
    <glyph glyph-name="figuredash" unicode="&#x2012;" horiz-adv-x="434" 
d="M-3 203l48 166h407l-48 -166h-407z" />
    <glyph glyph-name="endash" unicode="&#x2013;" horiz-adv-x="434" 
d="M-3 201l48 168h407l-48 -168h-407z" />
    <glyph glyph-name="emdash" unicode="&#x2014;" horiz-adv-x="822" 
d="M-3 201l47 166h795l-47 -166h-795z" />
    <glyph glyph-name="space.em" horiz-adv-x="982" 
 />
    <glyph glyph-name="space.en" horiz-adv-x="492" 
 />
    <glyph glyph-name="space.thin" horiz-adv-x="2" 
 />
    <glyph glyph-name="space.half" horiz-adv-x="149" 
 />
    <glyph glyph-name="parenleft" unicode="(" horiz-adv-x="372" 
d="M426 619q-32 -32 -64 -70.5t-60.5 -83.5t-52 -95t-39.5 -105q-14 -48 -20 -90.5t-6 -82.5q0 -53 10.5 -98.5t30.5 -86.5l-152 -81q-34 56 -51 122t-17 140q0 85 23 177q15 62 42 122.5t61.5 116.5t75.5 105.5t85 88.5z" />
    <glyph glyph-name="parenright" unicode=")" horiz-adv-x="372" 
d="M-55 -95q32 31 64 70t60.5 84t52 95t39.5 105q14 48 20 90.5t6 82.5q0 53 -10.5 98.5t-30.5 86.5l152 81q34 -56 51 -122t17 -140q0 -85 -23 -177q-15 -62 -42 -122.5t-61.5 -116.5t-75.5 -105.5t-85 -88.5z" />
    <glyph glyph-name="bracketleft" unicode="[" horiz-adv-x="359" 
d="M283 527l-150 -525h116l-47 -162h-294l242 845h294l-45 -158h-116z" />
    <glyph glyph-name="bracketright" unicode="]" horiz-adv-x="359" 
d="M73 -2l150 525h-116l47 162h294l-242 -845h-294l45 158h116z" />
    <glyph glyph-name="braceleft" unicode="{" horiz-adv-x="380" 
d="M369 524q-15 0 -28 -12.5t-13 -38.5q0 -13 3.5 -26.5t3.5 -33.5q0 -27 -10 -51t-26 -43.5t-36.5 -34t-41.5 -21.5q26 -14 37.5 -32.5t11.5 -45.5q0 -23 -11 -46t-24.5 -44t-24.5 -38.5t-11 -29.5q0 -13 8.5 -18.5t20.5 -5.5h42l-47 -162h-111q-53 0 -81.5 28t-28.5 74
q0 36 12 61.5t26.5 47.5t26.5 42t12 45q0 24 -14.5 39.5t-53.5 15.5h-3l40 140h3q29 0 50.5 9t36 23t22 30.5t7.5 32.5q0 19 -5 35.5t-5 41.5q0 30 13.5 62t39 58t62 43t83.5 17h111l-47 -162h-50z" />
    <glyph glyph-name="braceright" unicode="}" horiz-adv-x="380" 
d="M12 3q15 0 28 12.5t13 38.5q0 13 -3.5 26.5t-3.5 33.5q0 27 10 51t26 43.5t36.5 34t41.5 21.5q-26 14 -37.5 32.5t-11.5 45.5q0 22 11 45t24.5 44t24.5 39t11 30q0 13 -8.5 18.5t-20.5 5.5h-42l47 162h111q53 0 81.5 -28t28.5 -74q0 -36 -12 -61.5t-26.5 -47.5t-26.5 -42
t-12 -45q0 -24 14.5 -39.5t53.5 -15.5h3l-40 -140h-3q-29 0 -50.5 -9t-36 -23t-22 -30.5t-7.5 -32.5q0 -19 5 -35.5t5 -41.5q0 -30 -13.5 -62t-39 -58t-62 -43t-83.5 -17h-111l47 162h50z" />
    <glyph glyph-name="quotesingle" unicode="'" horiz-adv-x="241" 
d="M83 399l63 286h192l-106 -286h-149z" />
    <glyph glyph-name="quotedbl" unicode="&#x22;" horiz-adv-x="442" 
d="M291 399l63 286h186l-105 -286h-144zM81 399l64 286h187l-106 -286h-145z" />
    <glyph glyph-name="quoteleft" unicode="&#x2018;" horiz-adv-x="231" 
d="M207 685h121l-79 -106h49l-52 -181h-183l43 150z" />
    <glyph glyph-name="comma" unicode="," horiz-adv-x="231" 
d="M40 -106h-121l79 106h-49l52 181h183l-43 -150z" />
    <glyph glyph-name="quotedblleft" unicode="&#x201c;" horiz-adv-x="431" 
d="M208 685h115l-79 -106h49l-52 -181h-178l43 150zM417 685h116l-79 -106h49l-52 -181h-178l43 150z" />
    <glyph glyph-name="quotedblright" unicode="&#x201d;" horiz-adv-x="424" 
d="M388 398h-116l81 106h-49l51 181h178l-43 -150zM179 398h-116l80 106h-49l51 181h178l-43 -150z" />
    <glyph glyph-name="quotesinglbase" unicode="&#x201a;" horiz-adv-x="231" 
d="M41 -106h-121l79 106h-49l52 181h183l-43 -150z" />
    <glyph glyph-name="quotedblbase" unicode="&#x201e;" horiz-adv-x="435" 
d="M244 -106h-116l80 106h-49l52 181h178l-43 -150zM35 -106h-116l79 106h-49l52 181h178l-43 -150z" />
    <glyph glyph-name="guilsinglleft" unicode="&#x2039;" horiz-adv-x="328" 
d="M258 53h-174l-70 238l205 233h185l-212 -243z" />
    <glyph glyph-name="guilsinglright" unicode="&#x203a;" horiz-adv-x="328" 
d="M86 524h174l70 -238l-205 -233h-185l212 243z" />
    <glyph glyph-name="guillemotleft" unicode="&#xab;" horiz-adv-x="585" 
d="M244 53h-159l-71 243l201 228h170l-208 -238zM467 53h-159l-69 233l209 238h170l-216 -248z" />
    <glyph glyph-name="guillemotright" unicode="&#xbb;" horiz-adv-x="542" 
d="M316 524h159l71 -243l-201 -228h-170l208 238zM93 524h159l69 -233l-209 -238h-170l216 248z" />
    <glyph glyph-name="asterisk" unicode="*" horiz-adv-x="342" 
d="M395 654l25 -97l-71 -31l49 -31l-74 -87l-46 30l-20 -69h-110l20 71l-65 -32l-26 95l70 33l-48 29l75 89l46 -32l20 68h110l-20 -68z" />
    <glyph glyph-name="dagger" unicode="&#x2020;" horiz-adv-x="367" 
d="M416 468l-46 -162h-85l-129 -449h-174l129 449h-87l46 162h87l47 162h174l-47 -162h85z" />
    <glyph glyph-name="daggerdbl" unicode="&#x2021;" horiz-adv-x="367" 
d="M417 471l-47 -163h-85l-35 -123h85l-46 -162h-85l-48 -166h-174l48 166h-87l46 162h87l35 123h-87l47 163h87l46 159h174l-46 -159h85z" />
    <glyph glyph-name="period" unicode="." horiz-adv-x="231" 
d="M-51 0l52 181h183l-52 -181h-183z" />
    <glyph glyph-name="colon" unicode=":" horiz-adv-x="231" 
d="M-51 0l52 181h183l-52 -181h-183zM46 337l52 181h183l-52 -181h-183z" />
    <glyph glyph-name="semicolon" unicode=";" horiz-adv-x="231" 
d="M46 337l52 181h183l-52 -181h-183zM40 -106h-121l79 106h-49l52 181h183l-43 -150z" />
    <glyph glyph-name="ellipsis" unicode="&#x2026;" horiz-adv-x="693" 
d="M-51 0l52 181h183l-52 -181h-183zM180 0l52 181h183l-52 -181h-183zM411 0l52 181h183l-52 -181h-183z" />
    <glyph glyph-name="periodcentered" unicode="&#xb7;" horiz-adv-x="231" 
d="M4 193l52 181h183l-52 -181h-183z" />
    <glyph glyph-name="bullet" unicode="&#x2022;" horiz-adv-x="283" 
d="M37 269q0 25 10 48.5t27 41.5t40.5 28.5t50.5 10.5q43 0 69.5 -26.5t26.5 -68.5q0 -26 -10 -49t-27 -41t-40.5 -28.5t-50.5 -10.5q-43 0 -69.5 26.5t-26.5 68.5z" />
    <glyph glyph-name="exclam" unicode="!" horiz-adv-x="251" 
d="M197 204h-175l138 481h175zM-36 0l50 175h175l-50 -175h-175z" />
    <glyph glyph-name="exclamdown" unicode="&#xa1;" horiz-adv-x="251" 
d="M335 685l-50 -175h-175l50 175h175zM102 481h175l-138 -481h-175z" />
    <glyph glyph-name="question" unicode="?" horiz-adv-x="485" 
d="M209 377q39 0 67.5 8.5t46.5 22.5t26.5 33.5t8.5 40.5q0 24 -15.5 38.5t-38.5 14.5q-30 0 -48.5 -17t-28.5 -48h-162q10 54 34.5 95.5t59 70t79 43t95.5 14.5q50 0 87.5 -13.5t63 -38t38.5 -58t13 -73.5q0 -52 -19 -95t-50 -76t-71 -55t-82 -31l-15 -49h-176l50 173h37z
M64 0l50 175h176l-50 -175h-176z" />
    <glyph glyph-name="questiondown" unicode="&#xbf;" horiz-adv-x="485" 
d="M461 685l-50 -175h-176l50 175h176zM316 308q-39 0 -67.5 -8.5t-46.5 -22.5t-26.5 -33.5t-8.5 -40.5q0 -24 15.5 -38.5t38.5 -14.5q30 0 48.5 17t28.5 48h162q-11 -54 -35 -95.5t-58.5 -70t-79 -43t-95.5 -14.5q-50 0 -87.5 13.5t-63 38t-38.5 58t-13 73.5q0 52 19 95
t50 76t71 55t82 31l15 49h176l-50 -173h-37z" />
    <glyph glyph-name="slash" unicode="/" horiz-adv-x="385" 
d="M-68 0l372 685h198l-372 -685h-198z" />
    <glyph glyph-name="backslash" unicode="\" horiz-adv-x="415" 
d="M183 0l-80 685h178l80 -685h-178z" />
    <glyph glyph-name="bar" unicode="|" horiz-adv-x="223" 
d="M-93 -143l237 828h178l-237 -828h-178z" />
    <glyph glyph-name="brokenbar" unicode="&#xa6;" horiz-adv-x="223" 
d="M52 361l92 324h178l-92 -324h-178zM-93 -143l93 323h178l-93 -323h-178z" />
    <glyph glyph-name="at" unicode="@" horiz-adv-x="762" 
d="M375 -82q-78 0 -142.5 23t-110 64.5t-71 99t-25.5 126.5q0 81 33 155t90 130t133.5 89.5t163.5 33.5q70 0 128.5 -21t101 -58.5t66 -89.5t23.5 -114q0 -53 -15 -100.5t-43 -83.5t-68 -57t-90 -21q-31 0 -59.5 7.5t-51.5 35.5q-26 -23 -55.5 -32.5t-55.5 -9.5
q-32 0 -58.5 11.5t-45 32t-28.5 47.5t-10 58q0 43 17 81.5t45.5 67t64.5 45.5t75 17q33 0 58.5 -14t36.5 -33l9 35h128l-66 -231q-4 -14 3 -20t20 -6q18 0 35 11.5t29.5 32.5t20.5 51t8 67q0 45 -17 82t-48 63.5t-74 41t-94 14.5q-70 0 -127 -26.5t-98 -70.5t-63.5 -100.5
t-22.5 -116.5q0 -52 19 -94t53 -71.5t81.5 -45.5t105.5 -16q70 0 144 25l17 -83q-38 -17 -81.5 -24.5t-88.5 -7.5zM366 202q16 0 30.5 7t25 18.5t16.5 25.5t6 28q0 23 -16 40.5t-42 17.5q-31 0 -54 -23.5t-23 -55.5q0 -24 16.5 -41t40.5 -17z" />
    <glyph glyph-name="ampersand" unicode="&#x26;" horiz-adv-x="757" 
d="M334 500q0 -12 4 -27t14 -35q29 9 46.5 19t27.5 20t13 20t3 19q0 18 -13 31.5t-36 13.5t-41 -15.5t-18 -45.5zM288 135q30 0 63 12l-90 133q-37 -18 -48.5 -40.5t-11.5 -42.5q0 -29 24.5 -45.5t62.5 -16.5zM432 28q-45 -19 -90 -27.5t-88 -8.5q-110 0 -174 49.5
t-64 138.5q0 65 41.5 122.5t133.5 92.5q-11 25 -15.5 48t-4.5 44q0 46 18 85t49 67.5t73 44.5t91 16q46 0 83.5 -11.5t64 -32.5t41 -50t14.5 -63q0 -30 -8.5 -60.5t-29.5 -58t-55.5 -52t-86.5 -43.5l63 -87q34 37 63.5 84t49.5 104h173q-40 -106 -90.5 -182.5t-107.5 -128.5
l86 -119h-211z" />
    <glyph glyph-name="dollar" unicode="$" horiz-adv-x="604" 
d="M285 489q0 -11 5.5 -20t15.5 -17l24 85q-23 -6 -34 -19.5t-11 -28.5zM368 180q0 18 -23 34l-24 -82q23 5 35 17.5t12 30.5zM150 -91l25 85q-38 8 -69.5 24t-53 40.5t-31.5 59.5t-5 82h180q-1 -39 22 -55l32 111q-36 16 -64.5 33.5t-48.5 39.5t-31 49.5t-11 62.5
q0 55 20 101t56 79t85.5 51t108.5 18h9l24 83h107l-28 -97q76 -21 117.5 -74t36.5 -141h-183q4 35 -16 57l-32 -110q31 -11 60.5 -25.5t52.5 -35t37 -48.5t14 -67q0 -53 -21 -98.5t-58.5 -78.5t-90 -51.5t-115.5 -18.5l-22 -76h-107z" />
    <glyph glyph-name="cent" unicode="&#xa2;" horiz-adv-x="577" 
d="M203 259q0 -41 25 -71l55 193q-38 -17 -59 -51t-21 -71zM148 -92l26 91q-75 29 -117 91.5t-42 143.5q0 63 23.5 122t66.5 105.5t102 76t131 33.5l21 74h130l-26 -92q46 -17 84 -49.5t56 -84.5l-163 -89q-7 22 -30 40l-59 -207q23 9 41 25t31 34l127 -101
q-45 -61 -110.5 -98t-140.5 -41l-21 -74h-130z" />
    <glyph glyph-name="sterling" unicode="&#xa3;" horiz-adv-x="571" 
d="M152 466q14 49 37.5 90.5t56.5 72t75 48t94 17.5q48 0 83 -11.5t59 -32t39.5 -48.5t25.5 -61l-161 -76q-2 12 -6 23.5t-11 20.5t-19 14t-30 5q-26 0 -45.5 -17.5t-28.5 -49.5l-18 -63h172l-47 -166h-172l-11 -35q22 -6 41 -13.5t37.5 -13.5t37 -10.5t39.5 -4.5
q20 0 43.5 6t43.5 14q23 9 45 20l-47 -164q-22 -12 -48 -22q-23 -8 -53.5 -14.5t-67.5 -6.5t-66.5 8.5t-56 18t-52 18t-55.5 8.5q-21 0 -44.5 -7t-43.5 -15q-23 -10 -45 -22l48 166q8 5 19 10q9 5 23 10.5t31 10.5l11 38h-64l47 166h64l20 68v0z" />
    <glyph glyph-name="yen" unicode="&#xa5;" horiz-adv-x="615" 
d="M610 400l-39 -134h-169l-10 -36h169l-38 -134h-169l-28 -96h-186l28 96h-170l38 134h170l10 36h-170l39 134h101l-63 285h196l36 -247l181 247h200l-225 -285h99z" />
    <glyph glyph-name="Euro" unicode="&#x20ac;" horiz-adv-x="596" 
d="M558 124q-53 -68 -123.5 -101.5t-150.5 -33.5q-53 0 -97 15t-74 43.5t-44.5 69t-7.5 92.5h-60l33 115h57l11 37h-57l32 115h59q38 102 119 160.5t205 58.5q87 0 141.5 -38t70.5 -104l-161 -86q-6 29 -29 47.5t-59 18.5q-34 0 -59.5 -15.5t-41.5 -41.5h103l-32 -115h-110
l-11 -37h110l-33 -115h-105q1 -29 21.5 -43.5t57.5 -14.5q38 0 70 17.5t52 48.5l113 -93v0z" />
    <glyph glyph-name="numbersign" unicode="#" horiz-adv-x="587" 
d="M277 303h50l28 82h-49zM640 560l-50 -175h-72l-28 -82h77l-51 -176h-88l-44 -127h-163l44 127h-50l-45 -127h-163l44 127h-57l51 176h69l28 82h-74l50 175h85l44 125h164l-44 -125h50l43 125h163l-43 -125h60z" />
    <glyph glyph-name="florin" unicode="&#x192;" horiz-adv-x="396" 
d="M417 570q-29 0 -46 -14t-24 -38l-1 -1h103l-43 -152h-103l-89 -309q-36 -126 -112 -182t-206 -56l43 152q47 0 68.5 18.5t33.5 61.5l91 315h-80l43 152h80l1 3q24 85 88 135t171 50h69l-39 -135h-48z" />
    <glyph glyph-name="asciicircum" unicode="^" horiz-adv-x="434" 
d="M224 74l-4 173l-105 -173h-172l263 413h157l25 -413h-164z" />
    <glyph glyph-name="asciitilde" unicode="~" horiz-adv-x="434" 
d="M414 236q-20 -16 -43 -27q-20 -10 -45.5 -18t-54.5 -8t-51 7t-42 15t-39.5 15t-42.5 7q-17 0 -35 -5.5t-33 -11.5q-18 -8 -34 -17l45 155q19 15 42 26q20 10 45 18.5t53 8.5q29 0 51.5 -7t42.5 -15t39.5 -15t42.5 -7q17 0 35 5t33 12q18 7 35 17z" />
    <glyph glyph-name="copyright" unicode="&#xa9;" horiz-adv-x="617" 
d="M384 695q57 0 104.5 -19t81 -52.5t52.5 -79t19 -99.5q0 -65 -25 -125t-68.5 -106.5t-102.5 -74.5t-128 -28q-59 0 -106.5 19.5t-81.5 53.5t-52 79.5t-18 97.5q0 68 26 128.5t70.5 106.5t103.5 72.5t125 26.5zM553 439q0 36 -12 68t-34.5 56t-54 37.5t-71.5 13.5
q-47 0 -89.5 -20.5t-74.5 -55t-50.5 -79t-18.5 -93.5q0 -37 12 -69t34.5 -55t54.5 -36.5t71 -13.5q50 0 92.5 21.5t74 56.5t49 79.5t17.5 89.5zM473 316q-22 -29 -58.5 -48.5t-79.5 -19.5q-30 0 -55 10.5t-44 28.5t-29.5 42t-10.5 51q0 36 14.5 68t39.5 56t57.5 38t67.5 14
q56 0 89.5 -27.5t44.5 -73.5l-105 -37q-5 17 -13.5 27.5t-28.5 10.5q-27 0 -43.5 -20t-16.5 -43q0 -21 12.5 -32.5t31.5 -11.5q16 0 27.5 8.5t23.5 22.5z" />
    <glyph glyph-name="registered" unicode="&#xae;" horiz-adv-x="617" 
d="M384 695q57 0 104.5 -19t81 -52.5t52.5 -79t19 -99.5q0 -65 -25 -125t-68.5 -106.5t-102.5 -74.5t-128 -28q-59 0 -106.5 19.5t-81.5 53.5t-52 79.5t-18 97.5q0 68 26 128.5t70.5 106.5t103.5 72.5t125 26.5zM553 439q0 36 -12 68t-34.5 56t-54 37.5t-71.5 13.5
q-47 0 -89.5 -20.5t-74.5 -55t-50.5 -79t-18.5 -93.5q0 -37 12 -69t34.5 -55t54.5 -36.5t71 -13.5q50 0 92.5 21.5t74 56.5t49 79.5t17.5 89.5zM469 434q-35 0 -56.5 -1.5t-34 -6t-19.5 -14t-11 -24.5l-36 -128h-122l81 285h122l-9 -34q14 11 26.5 18t26 11t29 6t36.5 2z
" />
    <glyph glyph-name="trademark" unicode="&#x2122;" horiz-adv-x="905" 
d="M372 597l-33 -116h-77l-28 -97q-12 -44 25 -44h39l-31 -109h-66q-75 0 -97 31.5t-2 99.5l34 119h-51l33 116h51l26 89h126l-26 -89h77zM529 567q25 16 50 26.5t52 10.5q62 0 85 -45q26 20 58.5 32.5t70.5 12.5q66 0 91.5 -41t6.5 -107l-65 -225h-129l57 199q7 23 1.5 39
t-28.5 16q-20 0 -38.5 -16.5t-26.5 -45.5l-55 -192h-128l57 199q7 23 1.5 39t-27.5 16q-21 0 -40.5 -16.5t-27.5 -45.5l-55 -192h-126l105 366h119z" />
    <glyph glyph-name="degree" unicode="&#xb0;" horiz-adv-x="388" 
d="M74 477q0 43 18 82t48 68.5t69.5 46.5t81.5 17q35 0 65 -12t52 -33.5t34.5 -50.5t12.5 -63q0 -44 -18.5 -82.5t-48.5 -67.5t-69.5 -46t-81.5 -17q-35 0 -65 11.5t-52 32.5t-34 50t-12 64zM328 512q0 24 -16 39.5t-39 15.5q-15 0 -28 -6.5t-23 -17t-15.5 -24t-5.5 -27.5
q0 -23 15.5 -38.5t38.5 -15.5q15 0 28.5 7t23.5 17.5t15.5 24t5.5 25.5z" />
    <glyph glyph-name="section" unicode="&#xa7;" horiz-adv-x="483" 
d="M202 338q-11 -5 -16.5 -14.5t-5.5 -20.5q0 -16 13.5 -26t35.5 -18q11 -5 23 -8.5t25 -8.5q17 1 25.5 10t8.5 20q0 14 -11.5 23.5t-31.5 17.5q-14 6 -31.5 11.5t-34.5 13.5zM191 -52q-50 0 -90.5 8.5t-69 27t-43.5 48t-13 71.5h156q0 -24 16 -34.5t40 -10.5q29 0 39.5 8.5
t10.5 19.5q0 16 -23 25.5t-54 20.5q-23 8 -48 18t-46 26t-34.5 38t-13.5 54q0 15 3 34t12.5 39t27 39.5t45.5 36.5q-5 12 -6.5 23t-1.5 22q0 35 14 66.5t41 55.5t66 38.5t90 14.5q103 0 155.5 -45t45.5 -119h-158q2 22 -10.5 35t-39.5 13q-22 0 -33 -10t-11 -23
q0 -18 20 -29t70 -27q23 -8 46 -17.5t42 -24.5t30.5 -35.5t11.5 -50.5q0 -37 -16 -71.5t-67 -69.5q11 -23 11 -47q0 -33 -13 -63.5t-39.5 -53.5t-67 -37t-95.5 -14z" />
    <glyph glyph-name="paragraph" unicode="&#xb6;" horiz-adv-x="522" 
d="M317 0l196 685h104l-196 -685h-104zM166 0l72 252q-76 14 -118 61t-42 117q0 17 3 37q7 47 29.5 87t56.5 69t76 45.5t88 16.5h134l-196 -685h-103z" />
    <glyph glyph-name="plus" unicode="+" horiz-adv-x="434" 
d="M451 367l-47 -166h-118l-38 -130h-168l38 130h-121l47 166h121l38 133h168l-38 -133h118z" />
    <glyph glyph-name="minus" unicode="&#x2212;" horiz-adv-x="434" 
d="M-3 203l48 166h407l-48 -166h-407z" />
    <glyph glyph-name="plusminus" unicode="&#xb1;" horiz-adv-x="434" 
d="M474 448l-45 -157h-120l-33 -117h-165l33 117h-122l45 157h122l35 120h165l-35 -120h120zM-61 0l40 138h407l-40 -138h-407z" />
    <glyph glyph-name="divide" unicode="&#xf7;" horiz-adv-x="434" 
d="M170 402l39 135h178l-39 -135h-178zM-3 201l47 166h407l-47 -166h-407zM63 29l40 137h178l-40 -137h-178z" />
    <glyph glyph-name="multiply" unicode="&#xd7;" horiz-adv-x="430" 
d="M342 284l65 -94l-164 -129l-61 90l-110 -90l-91 129l116 94l-61 95l165 126l58 -87l112 87l91 -126z" />
    <glyph glyph-name="equal" unicode="=" horiz-adv-x="434" 
d="M25 301l51 176h407l-51 -176h-407zM-35 91l51 176h407l-51 -176h-407z" />
    <glyph glyph-name="less" unicode="&#x3c;" horiz-adv-x="434" 
d="M256 275l155 -51l-51 -174l-360 161l40 142l453 160l-51 -181z" />
    <glyph glyph-name="greater" unicode="&#x3e;" horiz-adv-x="434" 
d="M407 211l-454 -161l53 184l182 51l-151 57l49 171l361 -160z" />
    <glyph glyph-name="lessequal" unicode="&#x2264;" horiz-adv-x="434" 
d="M283 376l158 -46l-46 -158l-368 134l36 127l445 133l-45 -161zM-61 0l44 153h407l-44 -153h-407z" />
    <glyph glyph-name="greaterequal" unicode="&#x2265;" horiz-adv-x="434" 
d="M433 305l-445 -133l46 161l179 39l-157 36l45 158l369 -134zM-61 0l44 153h407l-44 -153h-407z" />
    <glyph glyph-name="approxequal" unicode="&#x2248;" horiz-adv-x="434" 
d="M442 336q-17 -13 -36 -24q-17 -9 -38.5 -16.5t-44.5 -7.5q-31 0 -56 5.5t-47.5 11.5t-44.5 11.5t-47 5.5q-17 0 -35.5 -5.5t-34.5 -11.5q-18 -8 -36 -17l43 150q18 11 39 21q18 8 42 15t51 7q30 0 53.5 -5.5t44.5 -11.5t41.5 -11.5t44.5 -5.5q17 0 35 5t33 12q18 7 35 17
zM384 131q-18 -12 -40 -22q-19 -8 -43.5 -14.5t-51.5 -6.5q-30 0 -53 5.5t-44 11.5t-41.5 11.5t-44.5 5.5q-17 0 -35 -5.5t-33 -11.5q-18 -8 -34 -17l42 145q17 13 36 24q17 9 38 16.5t44 7.5q31 0 56 -5.5t47.5 -11.5t44.5 -11.5t47 -5.5q17 0 36.5 5t35.5 12q18 7 36 17z
" />
    <glyph glyph-name="notequal" unicode="&#x2260;" horiz-adv-x="434" 
d="M482 474l-48 -166h-135l-24 -45h146l-47 -166h-190l-56 -105h-126l56 105h-91l47 166h135l25 45h-147l48 166h190l55 104h126l-56 -104h92z" />
    <glyph glyph-name="uniF8FF" unicode="&#xf8ff;" horiz-adv-x="5000" 
d="M3288 559h-123v122h123v-122zM4915 624q21 0 36 -15t15 -37t-15 -37t-36 -15t-36 15t-15 37t15 37t36 15zM4915 617q-18 0 -30.5 -13t-12.5 -32t12.5 -32t30.5 -13t30.5 13t12.5 32t-12.5 32t-30.5 13zM4907 590v-15h10q11 0 11 8q0 7 -9 7h-12zM4920 597q16 0 16 -14
q0 -11 -13 -13l14 -25h-9l-14 24h-7v-24h-8v52h21zM1803 402h-1803v109h1803v-109zM3288 0h-123v511h123v-511zM2242 399q-28 0 -54 -12t-45.5 -32t-31.5 -46.5t-12 -56.5t12 -56.5t31.5 -47t45.5 -32t54 -11.5q31 0 58 11.5t47.5 32t32.5 47t12 56.5t-12 56.5t-32.5 46.5
t-47.5 32t-58 12zM2829 399q-31 0 -57.5 -12t-46 -32t-30.5 -46.5t-11 -56.5t11 -56.5t30.5 -47t46 -32t57.5 -11.5q30 0 56.5 11.5t46.5 32t32 47t12 56.5t-12 56.5t-32 46.5t-46.5 32t-56.5 12zM3609 399q-30 0 -56.5 -12t-46.5 -32t-31.5 -46.5t-11.5 -56.5t11.5 -56.5
t31.5 -47t46.5 -32t56.5 -11.5t56.5 11.5t46 32t30.5 47t11 56.5t-11 56.5t-30.5 46.5t-46 32t-56.5 12zM4193 399q-30 0 -57 -12t-47 -32t-32 -46.5t-12 -56.5t12 -56.5t32 -47t47 -32t57 -11.5q28 0 53.5 11.5t44.5 32t30.5 47t11.5 56.5t-11.5 56.5t-30.5 46.5t-44.5 32
t-53.5 12zM1803 198h-1803v109h1803v-109zM4643 162q0 -12 4.5 -25.5t16 -24.5t31.5 -19t51 -8q44 0 64 17t20 37q0 24 -23 34.5t-57 16.5t-74.5 12t-74.5 21.5t-57 45t-23 83.5q0 34 14.5 64t42 52t66 35t86.5 13q96 0 153.5 -46.5t63.5 -121.5h-128q-1 10 -3.5 22.5
t-10.5 23t-24.5 17.5t-44.5 7q-35 0 -58 -10t-26 -36q0 -22 23.5 -33t58.5 -18t76 -15t76 -23.5t58.5 -44t23.5 -76.5q0 -46 -18 -78.5t-49.5 -53t-73.5 -30t-89 -9.5q-51 0 -92.5 13t-71 35.5t-46 54t-17.5 68.5h132zM1803 0h-1803v104h1803v-104zM3103 0h-127v36
q-34 -22 -71.5 -33.5t-79.5 -11.5q-54 0 -102 20t-84 55.5t-57 83t-21 102.5t21 103t57 84t84 56.5t102 20.5q42 0 79.5 -11.5t71.5 -33.5v210h127v-681zM3879 0h-126v36q-28 -22 -66.5 -33.5t-81.5 -11.5q-54 0 -102.5 20t-85 55.5t-57.5 83t-21 102.5t21 103t57.5 84
t85 56.5t102.5 20.5q43 0 81 -11.5t67 -33.5v210h126v-681zM2392 36q-32 -22 -70.5 -33.5t-83.5 -11.5q-53 0 -100 20t-82.5 55.5t-56.5 83t-21 102.5t21 103t56.5 84t82.5 56.5t100 20.5q86 0 154 -45v40h126v-511h-126v36zM4333 36q-31 -22 -68.5 -33.5t-76.5 -11.5
q-55 0 -103.5 20t-85 55.5t-57.5 83t-21 102.5t21 103t57.5 84t85 56.5t103.5 20.5q38 0 76 -11.5t69 -33.5v40h127v-511h-127v36z" />
    <glyph glyph-name="space.quarter" horiz-adv-x="100" 
 />
    <glyph glyph-name="nonbreakingspace" unicode="&#xa0;" horiz-adv-x="190" 
 />
    <glyph glyph-name="Idotaccent" unicode="&#x130;" horiz-adv-x="267" 
d="M-39 0l196 685h197l-196 -685h-197zM179 729l38 133h178l-38 -133h-178z" />
    <glyph glyph-name="afii10051" unicode="&#x402;" horiz-adv-x="812" 
d="M496 -66q-50 0 -84.5 15.5t-54.5 35.5l92 125q7 -7 19 -11t26 -4q35 0 57 24.5t22 57.5q0 35 -21.5 54.5t-54.5 19.5q-42 0 -79 -27t-51 -75l-43 -149h-197l147 511h-185l49 174h566l-49 -174h-184l-39 -137q29 19 61.5 30t73.5 11q46 0 84 -14.5t65 -41.5t41.5 -65.5
t14.5 -86.5q0 -51 -19 -100t-54.5 -87.5t-86.5 -62t-116 -23.5z" />
    <glyph glyph-name="afii10053" unicode="&#x404;" horiz-adv-x="709" 
d="M671 147q-57 -74 -135.5 -117.5t-188.5 -43.5q-67 0 -123.5 22t-97.5 62.5t-64 97t-23 124.5q0 89 34.5 164t92 129t131.5 84.5t152 30.5q112 0 181 -44t104 -129l-166 -96q-35 89 -136 89q-52 0 -96 -25.5t-69 -70.5h246l-49 -168h-223q12 -43 47.5 -67t86.5 -24
q57 0 100.5 26t71.5 65z" />
    <glyph glyph-name="afii10054" unicode="&#x405;" horiz-adv-x="602" 
d="M274 -14q-57 0 -107 12t-86 39.5t-54 72.5t-12 111h192q-2 -40 18.5 -60t68.5 -20q32 0 49.5 13t17.5 31q0 20 -20.5 33.5t-53.5 26.5q-44 18 -80.5 37t-62 43.5t-39.5 56.5t-14 76q0 52 20.5 96.5t57.5 76.5t88 50.5t111 18.5q59 0 108 -15t83.5 -44.5t51 -74
t10.5 -102.5h-187q6 33 -13 54.5t-60 21.5q-38 0 -54.5 -14t-16.5 -34q0 -25 29 -41t69 -31q33 -12 66 -26.5t59 -36t42 -52t16 -74.5q0 -52 -21 -97t-60 -78t-94 -51.5t-122 -18.5z" />
    <glyph glyph-name="afii10055" unicode="&#x406;" horiz-adv-x="267" 
d="M-39 0l196 685h197l-196 -685h-197z" />
    <glyph glyph-name="afii10056" unicode="&#x407;" horiz-adv-x="267" 
d="M-39 0l196 685h197l-196 -685h-197zM283 729l38 133h157l-38 -133h-157zM96 729l38 133h157l-38 -133h-157z" />
    <glyph glyph-name="afii10057" unicode="&#x408;" horiz-adv-x="582" 
d="M216 256q-6 -27 -4 -44.5t9.5 -28t19.5 -14.5t27 -4q30 0 50.5 19t29.5 50l129 451h197l-133 -466q-15 -51 -39.5 -93t-60 -72.5t-82.5 -47t-106 -16.5t-108 16t-81 49t-44.5 83t1.5 118h195z" />
    <glyph glyph-name="afii10058" unicode="&#x409;" horiz-adv-x="974" 
d="M401 0l3 463l-263 -463h-209l401 685h253l4 -198h150q53 0 94.5 -16.5t70.5 -45.5t44 -68t15 -85q0 -55 -24 -104.5t-68 -86.5t-107 -59t-141 -22h-223zM690 318h-96l3 -144h67q42 0 70 22t28 60q0 28 -17.5 45t-54.5 17z" />
    <glyph glyph-name="afii10059" unicode="&#x40a;" horiz-adv-x="1019" 
d="M741 328h-74l-44 -154h73q46 0 77 24.5t31 67.5q0 28 -15.5 45t-47.5 17zM230 250l-72 -250h-197l196 685h197l-74 -261h218l74 261h197l-52 -183h68q53 0 94.5 -16.5t70.5 -45.5t44 -68t15 -85q0 -58 -24 -110t-68 -91.5t-107 -62.5t-141 -23h-293l72 250h-218z" />
    <glyph glyph-name="afii10060" unicode="&#x40b;" horiz-adv-x="829" 
d="M383 140l-40 -140h-197l147 511h-185l49 174h566l-49 -174h-184l-36 -127q27 15 59 23.5t71 8.5q55 0 98.5 -22t69.5 -61t32 -93.5t-13 -119.5l-36 -120h-197l38 132q14 48 -5 80.5t-69 32.5q-48 0 -77 -30t-42 -75z" />
    <glyph glyph-name="afii10145" unicode="&#x40f;" horiz-adv-x="672" 
d="M168 0h-207l196 685h197l-145 -511h208l145 511h197l-196 -685h-208l-37 -131l-190 -10z" />
    <glyph glyph-name="afii10017" unicode="&#x410;" horiz-adv-x="712" 
d="M426 487l-134 -228h138zM433 100h-235l-59 -100h-207l422 685h253l25 -685h-197z" />
    <glyph glyph-name="afii10018" unicode="&#x411;" horiz-adv-x="612" 
d="M-39 0l196 685h507l-49 -174h-311l-18 -67h76q55 0 96 -15t69 -41t42 -61t14 -75q0 -52 -23 -98t-66 -80t-104 -54t-136 -20h-293zM323 278h-85l-30 -104h91q35 0 57 15t22 41q0 22 -13.5 35t-41.5 13z" />
    <glyph glyph-name="afii10019" unicode="&#x412;" horiz-adv-x="619" 
d="M-38 0l196 685h299q79 0 124 -41t45 -113q0 -62 -32 -109t-104 -71q48 -21 68 -55.5t20 -75.5q0 -52 -20 -92.5t-57 -69t-88.5 -43.5t-114.5 -15h-336zM310 527l-30 -105h77q32 0 50.5 19t18.5 46q0 17 -11.5 28.5t-32.5 11.5h-72zM236 269l-32 -111h105q36 0 57.5 18.5
t21.5 49.5q0 20 -12.5 31.5t-37.5 11.5h-102z" />
    <glyph glyph-name="afii10020" unicode="&#x413;" horiz-adv-x="551" 
d="M305 511l-147 -511h-197l196 685h495l-49 -174h-298z" />
    <glyph glyph-name="afii10052" unicode="&#x403;" horiz-adv-x="551" 
d="M305 511l-147 -511h-197l196 685h495l-49 -174h-298zM299 720l44 155l263 54l-45 -157z" />
    <glyph glyph-name="afii10021" unicode="&#x414;" horiz-adv-x="752" 
d="M440 -141l40 141h-357l-37 -131l-190 -10l90 315h70l317 511h252l23 -511h69l-87 -305zM255 174h183l-7 293z" />
    <glyph glyph-name="afii10022" unicode="&#x415;" horiz-adv-x="577" 
d="M157 685h514l-48 -168h-317l-26 -90h287l-47 -166h-287l-27 -93h319l-48 -168h-516z" />
    <glyph glyph-name="afii10023" unicode="&#x401;" horiz-adv-x="577" 
d="M157 685h514l-48 -168h-317l-26 -90h287l-47 -166h-287l-27 -93h319l-48 -168h-516zM442 729l38 133h157l-38 -133h-157zM255 729l38 133h157l-38 -133h-157z" />
    <glyph glyph-name="afii10024" unicode="&#x416;" horiz-adv-x="1006" 
d="M351 0l75 301l-254 -301h-238l325 380l-109 305h201l99 -288l71 288h198l-72 -293l242 293h235l-309 -345l125 -340h-212l-106 296l-73 -296h-198z" />
    <glyph glyph-name="afii10025" unicode="&#x417;" horiz-adv-x="577" 
d="M266 -11q-53 0 -98.5 11.5t-81 35t-60 59.5t-34.5 86l162 66q7 -46 35 -71t71 -25q41 0 62.5 19.5t21.5 46.5q0 19 -12 32.5t-36 13.5h-99l48 167h76q34 0 53 16t19 40q0 23 -17.5 36.5t-47.5 13.5q-28 0 -54 -12.5t-51 -42.5l-120 104q51 57 113.5 85t134.5 28
q62 0 106.5 -16t73.5 -41.5t42.5 -58.5t13.5 -67q0 -51 -25.5 -97.5t-75.5 -78.5q49 -48 49 -119q0 -42 -19.5 -83.5t-54.5 -74t-84.5 -53t-110.5 -20.5z" />
    <glyph glyph-name="afii10026" unicode="&#x418;" horiz-adv-x="690" 
d="M389 0l102 356l-317 -356h-213l196 685h192l-104 -363l319 363h213l-196 -685h-192z" />
    <glyph glyph-name="afii10027" unicode="&#x419;" horiz-adv-x="690" 
d="M389 0l102 356l-317 -356h-213l196 685h192l-104 -363l319 363h213l-196 -685h-192zM483 724q-63 0 -103 15t-48 28l40 140q17 -20 50 -36t85 -16q53 0 95 15.5t72 36.5l-41 -142q-16 -16 -55.5 -28.5t-94.5 -12.5z" />
    <glyph glyph-name="afii10028" unicode="&#x41a;" horiz-adv-x="658" 
d="M243 299l-85 -299h-197l196 685h197l-83 -290l268 290h244l-340 -342l149 -343h-222z" />
    <glyph glyph-name="afii10061" unicode="&#x40c;" horiz-adv-x="658" 
d="M243 299l-85 -299h-197l196 685h197l-83 -290l268 290h244l-340 -342l149 -343h-222zM349 720l44 155l263 54l-45 -157z" />
    <glyph glyph-name="afii10029" unicode="&#x41b;" horiz-adv-x="681" 
d="M401 0l3 453l-261 -453h-211l401 685h253l15 -685h-200z" />
    <glyph glyph-name="afii10030" unicode="&#x41c;" horiz-adv-x="861" 
d="M259 386l-111 -386h-187l196 685h246l40 -351l241 351h264l-196 -685h-183l110 386l-270 -386h-101z" />
    <glyph glyph-name="afii10031" unicode="&#x41d;" horiz-adv-x="682" 
d="M448 250h-218l-72 -250h-197l196 685h197l-74 -261h218l74 261h197l-196 -685h-197z" />
    <glyph glyph-name="afii10032" unicode="&#x41e;" horiz-adv-x="757" 
d="M358 -15q-70 0 -128 23t-100 64t-65.5 97t-23.5 122q0 79 31.5 153t86.5 131t129 91t160 34q70 0 128 -23t100 -64t65.5 -97t23.5 -122q0 -79 -31.5 -153t-86.5 -131t-129.5 -91t-159.5 -34zM376 171q37 0 70.5 16t59.5 43.5t41.5 64t15.5 77.5q0 28 -9 54t-26 45.5
t-42 31t-57 11.5q-36 0 -69.5 -16.5t-59.5 -44t-42 -64t-16 -76.5q0 -29 9 -54.5t26 -45t42 -31t57 -11.5z" />
    <glyph glyph-name="afii10033" unicode="&#x41f;" horiz-adv-x="672" 
d="M366 0l145 511h-208l-145 -511h-197l196 685h602l-196 -685h-197z" />
    <glyph glyph-name="afii10034" unicode="&#x420;" horiz-adv-x="602" 
d="M208 173l-50 -173h-197l196 685h275q57 0 97.5 -16t66.5 -43.5t38 -63.5t12 -76q0 -66 -24 -123.5t-68.5 -99.5t-108 -66t-141.5 -24h-96zM331 347q47 0 78.5 27.5t31.5 76.5q0 26 -15.5 43t-47.5 17h-73l-47 -164h73z" />
    <glyph glyph-name="afii10035" unicode="&#x421;" horiz-adv-x="709" 
d="M455 699q114 0 182 -46.5t97 -125.5l-170 -99q-30 86 -128 86q-41 0 -76 -17.5t-61 -46t-41 -65t-15 -74.5q0 -63 34.5 -103t99.5 -40q51 0 93 25t72 67l129 -113q-63 -78 -142.5 -120t-184.5 -42q-68 0 -124 22t-96.5 61.5t-62.5 93.5t-22 118q0 89 34.5 165.5t92 133
t133 88.5t156.5 32z" />
    <glyph glyph-name="afii10036" unicode="&#x422;" horiz-adv-x="599" 
d="M127 0l147 511h-185l49 174h566l-49 -174h-184l-147 -511h-197z" />
    <glyph glyph-name="afii10037" unicode="&#x423;" horiz-adv-x="659" 
d="M284 0h-216l160 211l-101 474h201l46 -275l191 275h216z" />
    <glyph glyph-name="afii10062" unicode="&#x40e;" horiz-adv-x="659" 
d="M284 0h-216l160 211l-101 474h201l46 -275l191 275h216zM454 724q-63 0 -103 15t-48 28l40 140q17 -20 50 -36t85 -16q53 0 95 15.5t72 36.5l-41 -142q-16 -16 -55.5 -28.5t-94.5 -12.5z" />
    <glyph glyph-name="afii10038" unicode="&#x424;" horiz-adv-x="835" 
d="M242 -10l23 79q-57 7 -101 30.5t-73 59.5t-41 83t-4 101q8 59 38 109.5t76 88t105.5 58.5t128.5 21h29l21 75h197l-22 -78q57 -8 101 -31.5t72.5 -59.5t40 -82.5t4.5 -100.5q-8 -59 -38 -109.5t-76 -88t-105.5 -58.5t-128.5 -21h-28l-22 -76h-197zM235 343
q-5 -38 13.5 -65t66.5 -33l57 198h-3q-63 0 -95.5 -29t-38.5 -71zM514 243q63 0 95.5 29t38.5 71q5 38 -13.5 65t-66.5 33l-57 -198h3z" />
    <glyph glyph-name="afii10039" unicode="&#x425;" horiz-adv-x="695" 
d="M337 195l-168 -195h-230l323 357l-127 328h217l64 -181l153 181h232l-311 -338l132 -347h-216z" />
    <glyph glyph-name="afii10040" unicode="&#x426;" horiz-adv-x="747" 
d="M425 -141l40 141h-504l196 685h197l-145 -511h208l145 511h197l-146 -511h89l-87 -305z" />
    <glyph glyph-name="afii10041" unicode="&#x427;" horiz-adv-x="655" 
d="M546 0h-197l77 266q-29 -19 -62 -28.5t-72 -9.5q-54 0 -99.5 18.5t-74 57t-35 96.5t16.5 137l44 148h197l-47 -166q-14 -49 4 -81t72 -32q27 0 47.5 8.5t36 23t26.5 34t17 41.5l48 172h197z" />
    <glyph glyph-name="afii10042" unicode="&#x428;" horiz-adv-x="959" 
d="M-39 0l196 685h197l-146 -511h149l146 511h197l-146 -511h149l146 511h197l-196 -685h-889z" />
    <glyph glyph-name="afii10043" unicode="&#x429;" horiz-adv-x="1034" 
d="M712 -141l40 141h-791l196 685h197l-146 -511h149l146 511h197l-146 -511h149l146 511h197l-146 -511h89l-87 -305z" />
    <glyph glyph-name="afii10044" unicode="&#x42a;" horiz-adv-x="742" 
d="M385 0h-293l146 511h-149l49 174h347l-56 -197h81q51 0 90.5 -16t67.5 -44t42.5 -66t14.5 -82q0 -57 -24 -107.5t-68 -89t-107 -61t-141 -22.5zM457 316h-78l-40 -142h78q44 0 73.5 22.5t29.5 61.5q0 26 -15.5 42t-47.5 16z" />
    <glyph glyph-name="afii10045" unicode="&#x42b;" horiz-adv-x="867" 
d="M326 316h-78l-40 -142h78q44 0 73.5 22.5t29.5 61.5q0 26 -15.5 42t-47.5 16zM-39 0l196 685h197l-56 -197h81q51 0 90.5 -16t67.5 -44t42.5 -66t14.5 -82q0 -57 -24 -107.5t-68 -89t-107 -61t-141 -22.5h-293zM561 0l196 685h197l-196 -685h-197z" />
    <glyph glyph-name="afii10046" unicode="&#x42c;" horiz-adv-x="604" 
d="M326 316h-78l-40 -142h78q44 0 73.5 22.5t29.5 61.5q0 26 -15.5 42t-47.5 16zM-39 0l196 685h197l-56 -197h81q51 0 90.5 -16t67.5 -44t42.5 -66t14.5 -82q0 -57 -24 -107.5t-68 -89t-107 -61t-141 -22.5h-293z" />
    <glyph glyph-name="afii10047" unicode="&#x42d;" horiz-adv-x="708" 
d="M304 -14q-112 0 -181 44t-104 129l166 96q35 -89 136 -89q52 0 96 25.5t69 70.5h-246l49 168h223q-12 43 -47.5 67t-86.5 24q-57 0 -100.5 -26t-71.5 -65l-124 109q57 74 135.5 117.5t188.5 43.5q67 0 123.5 -22t97.5 -62.5t64 -97t23 -124.5q0 -89 -34.5 -164t-92 -129
t-131.5 -84.5t-152 -30.5z" />
    <glyph glyph-name="afii10048" unicode="&#x42e;" horiz-adv-x="1001" 
d="M605 -15q-62 0 -115 19.5t-92.5 55t-65 84t-32.5 106.5h-70l-72 -250h-197l196 685h197l-74 -261h41q20 58 55.5 108t84 87.5t108 59t126.5 21.5t123.5 -23t97.5 -64t63.5 -97t22.5 -122q0 -79 -31 -153t-84.5 -131t-126 -91t-155.5 -34zM623 171q35 0 67 14.5t56.5 41
t39 63.5t14.5 82q0 28 -8 54t-24 45.5t-39 31t-53 11.5q-34 0 -66 -15t-56.5 -41.5t-39.5 -63.5t-15 -81q0 -29 8 -54.5t24 -45t39 -31t53 -11.5z" />
    <glyph glyph-name="afii10049" unicode="&#x42f;" horiz-adv-x="647" 
d="M379 397h76l32 114h-98q-13 0 -26 -4.5t-23.5 -12.5t-17 -20.5t-6.5 -27.5q0 -21 15.5 -35t47.5 -14zM341 0l67 233l-227 -233h-235l265 262q-48 26 -74 69t-26 97q0 52 21.5 98.5t61.5 82t96.5 56t126.5 20.5h317l-196 -685h-197z" />
    <glyph glyph-name="afii10050" unicode="&#x490;" horiz-adv-x="551" 
d="M305 511l-147 -511h-197l196 685h308l38 131l190 10l-90 -315h-298z" />
    <glyph glyph-name="afii10065" unicode="&#x430;" horiz-adv-x="598" 
d="M400 272q0 40 -24.5 64.5t-62.5 24.5q-25 0 -47.5 -10.5t-39.5 -28t-27 -40t-10 -47.5q0 -40 25 -65t63 -25q23 0 45 10.5t39.5 27.5t28 40t10.5 49zM337 29q-25 -17 -56 -24.5t-56 -7.5q-42 0 -80 15t-67 43.5t-46 68.5t-17 91q0 60 24 115.5t65 97.5t96 67.5t117 25.5
q39 0 73.5 -11.5t65.5 -40.5l14 49h179l-149 -518h-171z" />
    <glyph glyph-name="afii10066" unicode="&#x431;" horiz-adv-x="564" 
d="M252 -13q-47 0 -88.5 14.5t-72.5 43.5t-49 71.5t-18 99.5q0 10 0.5 19.5t2 22t4 29t7.5 39.5q15 71 38 134.5t64 112.5t103 78.5t155 33.5l52 2q48 2 89 6t64 11l-38 -143q-44 -16 -135 -19l-52 -2q-72 -2 -110.5 -32t-52.5 -74q21 15 53 27t76 12q46 0 83 -15t63 -42
t40 -63.5t14 -78.5q0 -58 -22.5 -110t-61.5 -91.5t-92.5 -62.5t-115.5 -23zM190 229q0 -35 23 -58t58 -23q28 0 48 11t32.5 26.5t18 33.5t5.5 33q0 35 -23.5 58.5t-58.5 23.5q-26 0 -45 -9.5t-32 -25t-19.5 -34t-6.5 -36.5z" />
    <glyph glyph-name="afii10067" unicode="&#x432;" horiz-adv-x="502" 
d="M291 389h-63l-20 -68h67q23 0 35 12.5t12 26.5q0 29 -31 29zM253 198h-80l-20 -69h83q26 0 38.5 12.5t12.5 26.5q0 30 -34 30zM-50 0l149 518h258q62 0 101.5 -33.5t39.5 -89.5q0 -44 -24 -76t-64 -52q20 -14 34 -38t14 -58q0 -37 -17.5 -68t-48.5 -54t-74 -36t-94 -13
h-274z" />
    <glyph glyph-name="afii10068" unicode="&#x433;" horiz-adv-x="491" 
d="M268 160h187q-11 -37 -33.5 -68.5t-56 -55t-77 -36.5t-95.5 -13q-44 0 -80.5 9t-62.5 27t-40.5 45t-14.5 63q0 64 41.5 110t136.5 67q42 9 67.5 16.5t39.5 15t19 15t5 17.5q0 25 -32 25q-23 0 -34.5 -14.5t-17.5 -32.5h-184q12 36 33 68t51.5 56.5t72 38.5t94.5 14
q89 0 139.5 -40.5t50.5 -112.5q0 -69 -48.5 -114.5t-139.5 -63.5q-36 -8 -60 -13.5t-38 -12t-19.5 -14.5t-5.5 -20q0 -25 40 -25q24 0 39.5 14t22.5 35z" />
    <glyph glyph-name="afii10100" unicode="&#x453;" horiz-adv-x="491" 
d="M268 160h187q-11 -37 -33.5 -68.5t-56 -55t-77 -36.5t-95.5 -13q-44 0 -80.5 9t-62.5 27t-40.5 45t-14.5 63q0 64 41.5 110t136.5 67q42 9 67.5 16.5t39.5 15t19 15t5 17.5q0 25 -32 25q-23 0 -34.5 -14.5t-17.5 -32.5h-184q12 36 33 68t51.5 56.5t72 38.5t94.5 14
q89 0 139.5 -40.5t50.5 -112.5q0 -69 -48.5 -114.5t-139.5 -63.5q-36 -8 -60 -13.5t-38 -12t-19.5 -14.5t-5.5 -20q0 -25 40 -25q24 0 39.5 14t22.5 35zM182 553l44 155l263 54l-45 -157z" />
    <glyph glyph-name="afii10069" unicode="&#x434;" horiz-adv-x="563" 
d="M245 -13q-52 0 -95 17.5t-73.5 47.5t-47.5 71t-17 88q0 60 20 112.5t57 92t90 62t119 22.5h8l-170 185h195l81 -92q34 -39 60.5 -72.5t44.5 -66.5t27 -67.5t9 -75.5q0 -62 -19 -120.5t-57.5 -103.5t-96 -72.5t-135.5 -27.5zM375 260q0 38 -23 63t-61 25q-23 0 -43.5 -9.5
t-36 -25.5t-24.5 -38.5t-9 -47.5q0 -35 22.5 -60.5t61.5 -25.5q24 0 45 10t36 27t23.5 38t8.5 44z" />
    <glyph glyph-name="afii10070" unicode="&#x435;" horiz-adv-x="569" 
d="M501 95q-15 -20 -38 -39t-52.5 -34t-65.5 -24.5t-76 -9.5q-56 0 -102 17.5t-79 49t-51.5 75t-18.5 96.5q0 64 24.5 119.5t66.5 96.5t97.5 64.5t118.5 23.5q54 0 97 -16t73 -45t46 -70t16 -91q0 -29 -5.5 -54t-12.5 -46h-351q8 -39 36.5 -59.5t68.5 -20.5q28 0 56 13
t52 41zM309 392q-37 0 -62.5 -18.5t-40.5 -47.5h188q-8 32 -30 49t-55 17z" />
    <glyph glyph-name="afii10071" unicode="&#x451;" horiz-adv-x="569" 
d="M501 95q-15 -20 -38 -39t-52.5 -34t-65.5 -24.5t-76 -9.5q-56 0 -102 17.5t-79 49t-51.5 75t-18.5 96.5q0 64 24.5 119.5t66.5 96.5t97.5 64.5t118.5 23.5q54 0 97 -16t73 -45t46 -70t16 -91q0 -29 -5.5 -54t-12.5 -46h-351q8 -39 36.5 -59.5t68.5 -20.5q28 0 56 13
t52 41zM309 392q-37 0 -62.5 -18.5t-40.5 -47.5h188q-8 32 -30 49t-55 17zM372 562l38 133h157l-38 -133h-157zM185 562l38 133h157l-38 -133h-157z" />
    <glyph glyph-name="afii10072" unicode="&#x436;" horiz-adv-x="882" 
d="M287 0l60 218l-206 -218h-218l289 295l-83 223h180l67 -204l59 204h176l-58 -204l187 204h216l-257 -262l112 -256h-200l-86 218l-62 -218h-176z" />
    <glyph glyph-name="afii10073" unicode="&#x437;" horiz-adv-x="467" 
d="M199 -13q-45 0 -81 11.5t-63 30.5t-46 44.5t-30 54.5l139 61q14 -32 36 -46.5t49 -14.5q28 0 41.5 13t13.5 29q0 13 -8.5 22t-25.5 9h-76l34 120h57q26 0 39 11t13 28q0 14 -11.5 22.5t-30.5 8.5q-43 0 -81 -33l-88 93q31 31 78.5 55t110.5 24q49 0 85 -12t59.5 -32
t35 -46t11.5 -54q0 -38 -20 -73.5t-55 -57.5q36 -33 36 -81q0 -38 -17.5 -71.5t-47.5 -59.5t-70.5 -41t-86.5 -15z" />
    <glyph glyph-name="afii10074" unicode="&#x438;" 
d="M295 46q-29 -23 -68.5 -39.5t-81.5 -16.5q-41 0 -73 15.5t-51.5 45t-23.5 71t11 93.5l89 303h176l-79 -277q-11 -39 1 -64t50 -25t65 24t41 71l78 271h176l-149 -518h-173z" />
    <glyph glyph-name="afii10075" unicode="&#x439;" 
d="M295 46q-29 -23 -68.5 -39.5t-81.5 -16.5q-41 0 -73 15.5t-51.5 45t-23.5 71t11 93.5l89 303h176l-79 -277q-11 -39 1 -64t50 -25t65 24t41 71l78 271h176l-149 -518h-173zM354 557q-63 0 -103 15t-48 28l40 140q17 -20 50 -36t85 -16q53 0 95 15.5t72 36.5l-41 -142
q-16 -16 -55.5 -28.5t-94.5 -12.5z" />
    <glyph glyph-name="afii10076" unicode="&#x43a;" horiz-adv-x="545" 
d="M274 0l-86 218l-62 -218h-176l148 518h176l-58 -204l187 204h216l-257 -262l112 -256h-200z" />
    <glyph glyph-name="afii10109" unicode="&#x45c;" horiz-adv-x="545" 
d="M274 0l-86 218l-62 -218h-176l148 518h176l-58 -204l187 204h216l-257 -262l112 -256h-200zM241 553l44 155l263 54l-45 -157z" />
    <glyph glyph-name="afii10077" unicode="&#x43b;" horiz-adv-x="582" 
d="M317 0l7 341l-192 -341h-198l316 518h232l18 -518h-183z" />
    <glyph glyph-name="afii10078" unicode="&#x43c;" horiz-adv-x="751" 
d="M232 0l-38 290l-83 -290h-161l149 518h240l35 -265l188 265h240l-149 -518h-176l82 288l-203 -288h-124z" />
    <glyph glyph-name="afii10079" unicode="&#x43d;" horiz-adv-x="546" 
d="M272 0l52 180h-146l-52 -180h-176l149 518h176l-52 -181h146l52 181h176l-149 -518h-176z" />
    <glyph glyph-name="afii10080" unicode="&#x43e;" horiz-adv-x="588" 
d="M325 530q53 0 97.5 -18t76.5 -49t50 -73.5t18 -91.5q0 -62 -24 -118.5t-66 -99.5t-98.5 -68t-120.5 -25q-54 0 -99 18t-77 49.5t-49.5 74.5t-17.5 92q0 63 25 119t67.5 98.5t99 67t118.5 24.5zM394 273q0 39 -24.5 65t-63.5 26q-24 0 -45.5 -9.5t-37.5 -26.5t-25.5 -40
t-9.5 -50q0 -36 23 -63t65 -27q25 0 47 10.5t37.5 28t24.5 40t9 46.5z" />
    <glyph glyph-name="afii10081" unicode="&#x43f;" horiz-adv-x="555" 
d="M126 0h-176l149 518h173l-12 -46q29 23 68.5 39.5t81.5 16.5q41 0 73 -16t51.5 -45t23.5 -70.5t-11 -93.5l-89 -303h-176l79 277q11 39 -1 64t-50 25t-65 -24t-41 -71z" />
    <glyph glyph-name="afii10082" unicode="&#x440;" horiz-adv-x="599" 
d="M199 246q0 -40 24.5 -64.5t62.5 -24.5q25 0 47.5 10.5t39.5 28t27 40t10 47.5q0 40 -25 65t-63 25q-23 0 -45.5 -10.5t-39.5 -27.5t-27.5 -40.5t-10.5 -48.5zM282 -3q-39 0 -73.5 12t-66.5 41l-65 -233h-179l201 701h171l-8 -29q25 17 56 24.5t56 7.5q42 0 80 -15
t67 -43.5t46 -68.5t17 -91q0 -60 -24 -115.5t-65 -97.5t-96 -67.5t-117 -25.5z" />
    <glyph glyph-name="afii10083" unicode="&#x441;" horiz-adv-x="551" 
d="M260 -13q-56 0 -101.5 18t-77 49.5t-48.5 74t-17 91.5q0 59 23 115t64.5 99.5t99 69.5t126.5 26q34 0 67 -8t62.5 -25t52.5 -43.5t36 -63.5l-150 -82q-8 24 -28.5 40.5t-56.5 16.5q-29 0 -51.5 -11t-38.5 -28t-24.5 -39t-8.5 -44q0 -40 25 -68.5t68 -28.5q36 0 64 19.5
t45 43.5l117 -93q-44 -60 -109 -94.5t-139 -34.5z" />
    <glyph glyph-name="afii10084" unicode="&#x442;" horiz-adv-x="855" 
d="M126 0h-176l149 518h173l-12 -46q28 23 65.5 39.5t79.5 16.5t74 -19t49 -52q35 33 81 52t97 19q41 0 73.5 -16t53 -44t26 -66t-7.5 -83l-93 -319h-176l82 287q9 32 -2.5 55.5t-44.5 23.5q-68 0 -96 -95l-79 -271h-176l82 287q9 32 -2.5 55.5t-45.5 23.5q-32 0 -57 -24
t-39 -71z" />
    <glyph glyph-name="afii10085" unicode="&#x443;" horiz-adv-x="551" 
d="M278 -25q-36 -57 -70.5 -91.5t-73.5 -52t-85.5 -20t-106.5 5.5l43 156q30 -5 51.5 -4t37 8t26 21t18.5 35l-35 485h182l2 -272l156 272h202l-347 -543v0z" />
    <glyph glyph-name="afii10110" unicode="&#x45e;" horiz-adv-x="551" 
d="M278 -25q-36 -57 -70.5 -91.5t-73.5 -52t-85.5 -20t-106.5 5.5l43 156q30 -5 51.5 -4t37 8t26 21t18.5 35l-35 485h182l2 -272l156 272h202l-347 -543v0zM359 557q-63 0 -103 15t-48 28l40 140q17 -20 50 -36t85 -16q53 0 95 15.5t72 36.5l-41 -142q-16 -16 -55.5 -28.5
t-94.5 -12.5z" />
    <glyph glyph-name="afii10086" unicode="&#x444;" horiz-adv-x="736" 
d="M191 241q0 -32 18 -54.5t48 -30.5l58 203h-4q-27 0 -49 -10t-38 -26.5t-24.5 -37.5t-8.5 -44zM555 269q0 36 -19 58.5t-50 28.5l-58 -204h6q26 0 48.5 9.5t38.5 26t25 37.5t9 44zM408 -7h-26l-54 -189h-172l55 194q-41 9 -75.5 28.5t-60 49t-40 66.5t-14.5 80
q0 66 25.5 122t68.5 96t100.5 62.5t121.5 22.5h25l46 160h172l-47 -164q41 -9 76 -29t61 -49t40.5 -66.5t14.5 -80.5q0 -66 -27.5 -122t-72 -96t-101.5 -62.5t-116 -22.5z" />
    <glyph glyph-name="afii10087" unicode="&#x445;" horiz-adv-x="567" 
d="M251 124l-107 -124h-212l253 266l-94 252h191l39 -123l107 123h207l-247 -263l94 -255h-191z" />
    <glyph glyph-name="afii10088" unicode="&#x446;" horiz-adv-x="613" 
d="M323 -141l40 141h-80l12 46q-29 -23 -68.5 -39.5t-81.5 -16.5q-41 0 -73 15.5t-51.5 45t-23.5 71t11 93.5l89 303h176l-79 -277q-11 -39 1 -64t50 -25t65 24t41 71l78 271h176l-104 -361h73l-82 -288z" />
    <glyph glyph-name="afii10089" unicode="&#x447;" horiz-adv-x="542" 
d="M386 414l29 104h176l-147 -518h-176l60 211q-24 -22 -58.5 -38t-73.5 -16q-41 0 -73.5 17t-51.5 47.5t-23.5 73.5t10.5 94l37 129h176l-30 -110q-10 -37 2.5 -63t47.5 -26q32 0 57 24t38 71z" />
    <glyph glyph-name="afii10090" unicode="&#x448;" horiz-adv-x="853" 
d="M650 247l78 271h176l-149 -518h-173l12 46q-28 -23 -65.5 -39.5t-79.5 -16.5t-74 19t-49 52q-35 -33 -81 -52t-97 -19q-41 0 -73.5 16t-53 44t-26 66t7.5 83l93 319h176l-82 -287q-9 -32 2.5 -55.5t44.5 -23.5q68 0 96 95l79 271h176l-82 -287q-9 -32 2.5 -55.5
t45.5 -23.5q32 0 57 24t39 71z" />
    <glyph glyph-name="afii10091" unicode="&#x449;" horiz-adv-x="912" 
d="M622 -141l40 141h-80l12 46q-28 -23 -65.5 -39.5t-79.5 -16.5t-74 19t-49 52q-35 -33 -81 -52t-97 -19q-41 0 -73.5 16t-53 44t-26 66t7.5 83l93 319h176l-82 -287q-9 -32 2.5 -55.5t44.5 -23.5q68 0 96 95l79 271h176l-82 -287q-9 -32 2.5 -55.5t45.5 -23.5q32 0 57 24
t39 71l78 271h176l-104 -361h73l-82 -288z" />
    <glyph glyph-name="afii10092" unicode="&#x44a;" horiz-adv-x="622" 
d="M321 0h-255l104 361h-120l45 157h296l-36 -124h75q37 0 67 -13t51.5 -36t33 -53.5t11.5 -64.5q0 -48 -19.5 -89t-55 -72t-86 -48.5t-111.5 -17.5zM381 240h-70l-27 -93h71q26 0 45 15t19 40q0 15 -9.5 26.5t-28.5 11.5z" />
    <glyph glyph-name="afii10093" unicode="&#x44b;" horiz-adv-x="723" 
d="M774 518l-149 -518h-176l149 518h176zM265 240h-70l-27 -93h71q26 0 45 15t19 40q0 15 -9.5 26.5t-28.5 11.5zM-50 0l149 518h176l-36 -124h75q37 0 67 -13t51.5 -36t33 -53.5t11.5 -64.5q0 -48 -19.5 -89t-55 -72t-86 -48.5t-111.5 -17.5h-255z" />
    <glyph glyph-name="afii10094" unicode="&#x44c;" horiz-adv-x="506" 
d="M265 240h-70l-27 -93h71q26 0 45 15t19 40q0 15 -9.5 26.5t-28.5 11.5zM-50 0l149 518h176l-36 -124h75q37 0 67 -13t51.5 -36t33 -53.5t11.5 -64.5q0 -48 -19.5 -89t-55 -72t-86 -48.5t-111.5 -17.5h-255z" />
    <glyph glyph-name="afii10095" unicode="&#x44d;" horiz-adv-x="548" 
d="M210 -13q-74 0 -131.5 36.5t-84.5 102.5l136 74q13 -28 36.5 -43.5t59.5 -15.5q32 0 59 11.5t45 36.5h-155l37 132h139q-10 26 -32.5 38t-54.5 12q-37 0 -66.5 -15.5t-51.5 -43.5l-109 86q42 63 108.5 97.5t139.5 34.5q54 0 98.5 -17.5t76 -49t49 -74.5t17.5 -94
q0 -59 -22 -114t-63.5 -98.5t-100 -69.5t-130.5 -26z" />
    <glyph glyph-name="afii10096" unicode="&#x44e;" horiz-adv-x="791" 
d="M466 -13q-48 0 -88 14.5t-70.5 40.5t-50 61t-26.5 77h-54l-51 -180h-176l148 518h176l-52 -181h29q18 42 47 77.5t65.5 61t80 40t89.5 14.5q52 0 95.5 -18t75 -49t49 -73.5t17.5 -91.5q0 -62 -23.5 -118.5t-65 -99.5t-97 -68t-118.5 -25zM597 273q0 39 -23 65t-60 26
q-23 0 -43.5 -9t-36 -25.5t-24.5 -40t-9 -51.5q0 -36 22 -63t61 -27q24 0 45 10t36 27t23.5 39.5t8.5 48.5z" />
    <glyph glyph-name="afii10097" unicode="&#x44f;" horiz-adv-x="506" 
d="M269 284h48l26 89h-60q-27 0 -41 -17.5t-14 -34.5t10.5 -27t30.5 -10zM236 0l44 155l-144 -155h-207l198 194q-35 19 -54.5 49.5t-19.5 71.5q0 43 18.5 80t50.5 64.5t75 43t92 15.5h267l-148 -518h-172z" />
    <glyph glyph-name="afii10099" unicode="&#x452;" horiz-adv-x="553" 
d="M292 32l69 245q11 37 -2.5 63t-50.5 26q-36 0 -63 -24t-41 -71l-78 -271h-176l156 545h-38l28 96h37l13 44h176l-12 -44h117l-28 -96h-117l-20 -71q29 22 67.5 38t80.5 16q41 0 73 -15.5t51.5 -43.5t24.5 -66t-8 -84l-84 -290q-17 -59 -43.5 -101t-63.5 -69t-86 -39.5
t-112 -12.5l45 156q39 0 56.5 16t28.5 53z" />
    <glyph glyph-name="afii10101" unicode="&#x454;" horiz-adv-x="551" 
d="M505 119q-42 -63 -108.5 -97.5t-139.5 -34.5q-54 0 -98.5 17.5t-76 49t-49 74.5t-17.5 94q0 58 22 113.5t63.5 99t100 69.5t130.5 26q74 0 131.5 -36.5t84.5 -102.5l-136 -74q-13 28 -36.5 43.5t-59.5 15.5q-35 0 -63 -13t-45 -42h159l-37 -132h-136q11 -22 33 -32.5
t51 -10.5q37 0 66.5 15.5t51.5 43.5z" />
    <glyph glyph-name="afii10102" unicode="&#x455;" horiz-adv-x="485" 
d="M154 161q-3 -23 11.5 -38.5t48.5 -15.5q21 0 32 8t11 20q0 13 -15.5 20.5t-38.5 14.5q-24 7 -53 17t-54 27.5t-42 45t-17 70.5q0 42 18 78t50.5 63t77.5 42t99 15q45 0 83 -11t63.5 -32.5t36.5 -55t4 -78.5h-167q5 25 -7 38.5t-38 13.5q-20 0 -32.5 -9.5t-12.5 -23.5
q0 -20 24.5 -29.5t58.5 -20.5q24 -7 50 -17t47.5 -26t35 -41t13.5 -62q0 -44 -19 -78.5t-52.5 -58.5t-79 -36.5t-97.5 -12.5q-57 0 -98.5 13t-68 36.5t-36 55t-1.5 68.5h165z" />
    <glyph glyph-name="afii10103" unicode="&#x456;" horiz-adv-x="225" 
d="M107 547l39 138h176l-39 -138h-176zM-50 0l149 518h176l-149 -518h-176z" />
    <glyph glyph-name="afii10104" unicode="&#x457;" horiz-adv-x="225" 
d="M-50 0l149 518h176l-149 -518h-176zM215 562l38 133h157l-38 -133h-157zM28 562l38 133h157l-38 -133h-157z" />
    <glyph glyph-name="afii10105" unicode="&#x458;" horiz-adv-x="225" 
d="M107 547l39 138h176l-39 -138h-176zM274 518l-147 -517q-33 -117 -103 -161t-190 -26l43 154q38 -5 53.5 9t26.5 51l142 490h175z" />
    <glyph glyph-name="afii10106" unicode="&#x459;" horiz-adv-x="827" 
d="M319 0l7 341l-192 -341h-198l316 518h232l4 -124h129q40 0 73.5 -12.5t58.5 -35t39 -53.5t14 -69q0 -42 -17.5 -82.5t-49 -72t-76 -50.5t-98.5 -19h-242zM585 237h-91l3 -87h75q26 0 39 16.5t13 33.5t-11 27t-28 10z" />
    <glyph glyph-name="afii10107" unicode="&#x45a;" horiz-adv-x="828" 
d="M585 237h-69l-25 -87h81q26 0 39 16.5t13 33.5t-11 27t-28 10zM272 0l52 180h-146l-52 -180h-176l149 518h176l-52 -181h146l52 181h176l-36 -124h56q40 0 73.5 -12.5t58.5 -35t39 -53.5t14 -69q0 -42 -17.5 -82.5t-49 -72t-76 -50.5t-98.5 -19h-289z" />
    <glyph glyph-name="afii10108" unicode="&#x45b;" 
d="M126 0h-176l156 545h-38l28 96h37l13 44h176l-12 -44h117l-28 -96h-117l-20 -71q29 22 67.5 38t80.5 16q41 0 73 -15.5t51.5 -43.5t24.5 -66t-8 -84l-93 -319h-176l79 277q11 37 -2.5 63t-50.5 26q-36 0 -63 -24t-41 -71z" />
    <glyph glyph-name="afii10193" unicode="&#x45f;" 
d="M222 -131l-149 -10q2 36 11 70.5t25 63.5q-33 7 -57.5 25t-38.5 46.5t-16 66.5t11 84l89 303h176l-79 -277q-11 -39 1 -64t50 -25t65 24t41 71l78 271h176l-149 -518h-173l12 46q-35 -29 -53.5 -76t-19.5 -101z" />
    <glyph glyph-name="afii10098" unicode="&#x491;" horiz-adv-x="410" 
d="M425 361h-195l-104 -361h-176l149 518h205l37 131l169 10z" />
    <glyph glyph-name="afii10067.bgr" horiz-adv-x="529" 
d="M226 -12q-66 0 -112 23t-71 61.5t-30 89t11 105.5l64 226q13 45 36 82t55 64t73.5 41.5t90.5 14.5q51 0 89 -14.5t63.5 -38.5t38.5 -55t13 -64q0 -48 -24.5 -95t-73.5 -78q22 -21 34.5 -49t12.5 -62q0 -41 -18.5 -85.5t-53 -81.5t-84.5 -60.5t-114 -23.5zM255 480
l-14 -50h65q31 0 50 19t19 45q0 23 -14.5 35.5t-35.5 12.5q-25 0 -43 -15t-27 -47zM244 139q17 0 32 6.5t26.5 18t18 26.5t6.5 33q0 23 -15 41t-46 18h-67l-14 -51q-13 -45 6.5 -68.5t52.5 -23.5z" />
    <glyph glyph-name="afii10068.bgr" horiz-adv-x="491" 
d="M268 160h187q-11 -37 -33.5 -68.5t-56 -55t-77 -36.5t-95.5 -13q-44 0 -80.5 9t-62.5 27t-40.5 45t-14.5 63q0 64 41.5 110t136.5 67q42 9 67.5 16.5t39.5 15t19 15t5 17.5q0 25 -32 25q-23 0 -34.5 -14.5t-17.5 -32.5h-184q12 36 33 68t51.5 56.5t72 38.5t94.5 14
q89 0 139.5 -40.5t50.5 -112.5q0 -69 -48.5 -114.5t-139.5 -63.5q-36 -8 -60 -13.5t-38 -12t-19.5 -14.5t-5.5 -20q0 -25 40 -25q24 0 39.5 14t22.5 35z" />
    <glyph glyph-name="afii10069.bgr" horiz-adv-x="592" 
d="M393 276q0 40 -24.5 63.5t-58.5 23.5q-25 0 -47 -10.5t-38.5 -27.5t-26.5 -39.5t-10 -46.5q0 -36 23.5 -62t61.5 -26q24 0 45.5 10.5t38 28t26.5 40t10 46.5zM164 -196q-79 0 -133.5 23.5t-81.5 68.5l119 105q18 -25 46 -39.5t69 -14.5q47 0 85.5 21.5t55.5 58.5
q-27 -13 -52.5 -18.5t-49.5 -5.5q-41 0 -78.5 15t-66 43.5t-45.5 68t-17 89.5q0 60 24 115t65 97t95.5 67t114.5 25q35 0 69.5 -11.5t66.5 -41.5l13 48h179l-144 -493q-16 -54 -48.5 -95.5t-77 -69.5t-98 -42t-110.5 -14z" />
    <glyph glyph-name="afii10072.bgr" horiz-adv-x="882" 
d="M287 0l62 220l-208 -220h-218l289 295l-83 223h180l67 -204l105 371h176l-105 -372l188 205h216l-257 -262l112 -256h-200l-86 218l-62 -218h-176z" />
    <glyph glyph-name="afii10073.bgr" horiz-adv-x="497" 
d="M152 -194q-47 0 -83 9.5t-63.5 27.5t-48 42.5t-36.5 54.5l128 95q23 -40 48.5 -58t65.5 -18q22 0 39.5 7t29.5 18.5t18.5 26t6.5 29.5q0 23 -15 40.5t-45 17.5h-82l43 156h73q40 0 62.5 20t22.5 49q0 26 -18 40t-48 14q-32 0 -55.5 -12.5t-43.5 -37.5l-104 90
q14 22 36.5 42t51.5 36t64.5 25.5t74.5 9.5q47 0 86 -12.5t67 -35.5t43.5 -56t15.5 -73q0 -24 -6.5 -50t-20 -51t-34 -47t-48.5 -38q21 -22 33.5 -51t12.5 -64q0 -46 -19 -90t-54.5 -78.5t-85.5 -56t-112 -21.5z" />
    <glyph glyph-name="afii10074.bgr" 
d="M295 46q-29 -23 -68.5 -39.5t-81.5 -16.5q-41 0 -73 15.5t-51.5 45t-23.5 71t11 93.5l89 303h176l-79 -277q-11 -39 1 -64t50 -25t65 24t41 71l78 271h176l-149 -518h-173z" />
    <glyph glyph-name="afii10075.bgr" 
d="M295 46q-29 -23 -68.5 -39.5t-81.5 -16.5q-41 0 -73 15.5t-51.5 45t-23.5 71t11 93.5l89 303h176l-79 -277q-11 -39 1 -64t50 -25t65 24t41 71l78 271h176l-149 -518h-173zM356 557q-63 0 -103 15t-48 28l40 140q17 -20 50 -36t85 -16q53 0 95 15.5t72 36.5l-41 -142
q-16 -16 -55.5 -28.5t-94.5 -12.5z" />
    <glyph glyph-name="afii10076.bgr" horiz-adv-x="545" 
d="M188 218l-62 -218h-176l196 685h176l-106 -371l187 204h216l-257 -262l112 -256h-200z" />
    <glyph glyph-name="afii10077.bgr" horiz-adv-x="582" 
d="M317 0l7 341l-192 -341h-198l316 518h232l18 -518h-183z" />
    <glyph glyph-name="afii10079.bgr" horiz-adv-x="546" 
d="M272 0l52 180h-146l-52 -180h-176l149 518h176l-52 -181h146l52 181h176l-149 -518h-176z" />
    <glyph glyph-name="afii10081.bgr" horiz-adv-x="555" 
d="M126 0h-176l149 518h173l-12 -46q29 23 68.5 39.5t81.5 16.5q41 0 73 -16t51.5 -45t23.5 -70.5t-11 -93.5l-89 -303h-176l79 277q11 39 -1 64t-50 25t-65 -24t-41 -71z" />
    <glyph glyph-name="afii10084.bgr" horiz-adv-x="855" 
d="M126 0h-176l149 518h173l-12 -46q28 23 65.5 39.5t79.5 16.5t74 -19t49 -52q35 33 81 52t97 19q41 0 73.5 -16t53 -44t26 -66t-7.5 -83l-93 -319h-176l82 287q9 32 -2.5 55.5t-44.5 23.5q-68 0 -96 -95l-79 -271h-176l82 287q9 32 -2.5 55.5t-45.5 23.5q-32 0 -57 -24
t-39 -71z" />
    <glyph glyph-name="afii10088.bgr" horiz-adv-x="613" 
d="M323 -141l40 141h-80l12 46q-29 -23 -68.5 -39.5t-81.5 -16.5q-41 0 -73 15.5t-51.5 45t-23.5 71t11 93.5l89 303h176l-79 -277q-11 -39 1 -64t50 -25t65 24t41 71l78 271h176l-104 -361h73l-82 -288z" />
    <glyph glyph-name="afii10089.bgr" horiz-adv-x="542" 
d="M386 414l29 104h176l-147 -518h-176l60 211q-24 -22 -58.5 -38t-73.5 -16q-41 0 -73.5 17t-51.5 47.5t-23.5 73.5t10.5 94l37 129h176l-30 -110q-10 -37 2.5 -63t47.5 -26q32 0 57 24t38 71z" />
    <glyph glyph-name="afii10090.bgr" horiz-adv-x="853" 
d="M650 247l78 271h176l-149 -518h-173l12 46q-28 -23 -65.5 -39.5t-79.5 -16.5t-74 19t-49 52q-35 -33 -81 -52t-97 -19q-41 0 -73.5 16t-53 44t-26 66t7.5 83l93 319h176l-82 -287q-9 -32 2.5 -55.5t44.5 -23.5q68 0 96 95l79 271h176l-82 -287q-9 -32 2.5 -55.5
t45.5 -23.5q32 0 57 24t39 71z" />
    <glyph glyph-name="afii10091.bgr" horiz-adv-x="912" 
d="M622 -141l40 141h-80l12 46q-28 -23 -65.5 -39.5t-79.5 -16.5t-74 19t-49 52q-35 -33 -81 -52t-97 -19q-41 0 -73.5 16t-53 44t-26 66t7.5 83l93 319h176l-82 -287q-9 -32 2.5 -55.5t44.5 -23.5q68 0 96 95l79 271h176l-82 -287q-9 -32 2.5 -55.5t45.5 -23.5q32 0 57 24
t39 71l78 271h176l-104 -361h73l-82 -288z" />
    <glyph glyph-name="afii10092.bgr" horiz-adv-x="613" 
d="M337 -14q-53 0 -97 18.5t-72 53t-36.5 83.5t8.5 109l31 111h-121l45 157h296l-32 -112h50q44 0 78 -13.5t57.5 -36.5t35.5 -54.5t12 -67.5q0 -42 -17 -86t-49 -80t-80 -59t-109 -23zM353 137q30 0 49.5 21t19.5 51q0 19 -12.5 34.5t-40.5 15.5h-51l-14 -50
q-5 -17 -2.5 -30.5t10 -22.5t18.5 -14t23 -5z" />
    <glyph glyph-name="afii10094.bgr" horiz-adv-x="497" 
d="M221 -14q-53 0 -97 18.5t-72 53t-36.5 83.5t8.5 109l76 268h175l-32 -112h50q44 0 78 -13.5t57.5 -36.5t35.5 -54.5t12 -67.5q0 -42 -17 -86t-49 -80t-80 -59t-109 -23zM237 137q30 0 49.5 21t19.5 51q0 19 -12.5 34.5t-40.5 15.5h-51l-14 -50q-5 -17 -2.5 -30.5
t10 -22.5t18.5 -14t23 -5z" />
    <glyph glyph-name="afii10096.bgr" horiz-adv-x="790" 
d="M466 -13q-48 0 -88 14.5t-70.5 40.5t-50 61t-26.5 77h-53l-52 -180h-176l196 685h176l-100 -348h29q18 42 47 77.5t65.5 61t80 40t89.5 14.5q52 0 95.5 -18t75 -49t49 -73.5t17.5 -91.5q0 -62 -23.5 -118.5t-65 -99.5t-97 -68t-118.5 -25zM597 273q0 39 -23 65t-60 26
q-23 0 -43.5 -9t-36 -25.5t-24.5 -40t-9 -51.5q0 -36 22 -63t61 -27q24 0 45 10t36 27t23.5 39.5t8.5 48.5z" />
    <glyph glyph-name="afii10066.locl" horiz-adv-x="576" 
d="M258 -13q-54 0 -99 18t-77 49.5t-49.5 74.5t-17.5 92q0 70 34.5 125.5t94.5 87.5q-10 15 -16 34.5t-6 42.5q0 32 13.5 63t40.5 56t66.5 40t92.5 15h101q66 0 109.5 1t70.5 7l-40 -142q-28 -7 -72 -9t-109 -2h-81q-18 0 -25.5 -8t-7.5 -16q0 -18 25 -21l32 -4
q38 -4 76 -18t68 -39.5t49 -63.5t19 -92q0 -58 -22.5 -111t-62 -93t-93 -63.5t-114.5 -23.5zM377 253q0 39 -24.5 65t-63.5 26q-21 0 -39 -8t-32 -22.5t-22 -34t-8 -41.5q0 -36 23 -63t65 -27q22 0 40.5 9t32 23.5t21 33.5t7.5 39z" />
    <glyph glyph-name="afii10068.locl" horiz-adv-x="225" 
d="M-50 0l149 518h176l-149 -518h-176zM60 564l45 157h282l-45 -157h-282z" />
    <glyph glyph-name="afii10069.locl" horiz-adv-x="592" 
d="M393 276q0 40 -24.5 63.5t-58.5 23.5q-25 0 -47 -10.5t-38.5 -27.5t-26.5 -39.5t-10 -46.5q0 -36 23.5 -62t61.5 -26q24 0 45.5 10.5t38 28t26.5 40t10 46.5zM164 -196q-79 0 -133.5 23.5t-81.5 68.5l119 105q18 -25 46 -39.5t69 -14.5q47 0 85.5 21.5t55.5 58.5
q-27 -13 -52.5 -18.5t-49.5 -5.5q-41 0 -78.5 15t-66 43.5t-45.5 68t-17 89.5q0 60 24 115t65 97t95.5 67t114.5 25q35 0 69.5 -11.5t66.5 -41.5l13 48h179l-144 -493q-16 -54 -48.5 -95.5t-77 -69.5t-98 -42t-110.5 -14z" />
    <glyph glyph-name="afii10081.locl" 
d="M545 564h-362l45 157h362zM295 46q-29 -23 -68.5 -39.5t-81.5 -16.5q-41 0 -73 15.5t-51.5 45t-23.5 71t11 93.5l89 303h176l-79 -277q-11 -39 1 -64t50 -25t65 24t41 71l78 271h176l-149 -518h-173z" />
    <glyph glyph-name="afii10084.locl" horiz-adv-x="853" 
d="M805 564h-622l45 157h622zM650 247l78 271h176l-149 -518h-173l12 46q-28 -23 -65.5 -39.5t-79.5 -16.5t-74 19t-49 52q-35 -33 -81 -52t-97 -19q-41 0 -73.5 16t-53 44t-26 66t7.5 83l93 319h176l-82 -287q-9 -32 2.5 -55.5t44.5 -23.5q68 0 96 95l79 271h176l-82 -287
q-9 -32 2.5 -55.5t45.5 -23.5q32 0 57 24t39 71z" />
    <glyph glyph-name="afii61352" unicode="&#x2116;" horiz-adv-x="1110" 
d="M761 470q0 45 18.5 85t49.5 70.5t71.5 48t84.5 17.5q36 0 67 -12.5t53.5 -34.5t35.5 -52t13 -65q0 -45 -19 -85t-50 -70t-72 -47.5t-84 -17.5q-36 0 -67 12t-53.5 34t-35 51.5t-12.5 65.5zM1012 504q0 21 -13.5 34.5t-33.5 13.5q-26 0 -44 -20t-18 -44q0 -20 13 -33.5
t33 -13.5q13 0 25 6t20 15t13 20t5 22zM672 144l39 135h377l-39 -135h-377zM363 0l-107 363l-104 -363h-191l196 685h218l105 -370l106 370h191l-196 -685h-218z" />
    <glyph glyph-name="uni20BD" unicode="&#x20bd;" horiz-adv-x="662" 
d="M398 522l-36 -125h49q42 0 71 20.5t29 56.5q0 21 -11 34.5t-34 13.5h-68zM469 93h-194l-27 -93h-197l27 93h-100l38 134h100l10 36h-100l39 134h100l82 288h249q58 0 100 -14.5t68.5 -39t39 -57t12.5 -68.5q0 -53 -23 -98t-64.5 -77t-97.5 -50t-122 -18h-85l-11 -36h194z
" />
    <glyph glyph-name="uni20B8" unicode="&#x20b8;" horiz-adv-x="569" 
d="M636 549h-537l39 136h537zM309 0h-197l97 339h-170l50 174h537l-50 -174h-170z" />
    <glyph glyph-name="uni20B4" unicode="&#x20b4;" horiz-adv-x="579" 
d="M587 354h-539l34 120h274q40 0 55 16.5t15 32.5t-10 26t-34 10q-32 0 -46.5 -13.5t-21.5 -36.5h-182q14 41 37.5 75.5t58 59t81.5 38t109 13.5q94 0 147 -35.5t53 -95.5q0 -26 -14.5 -50.5t-33.5 -39.5h51zM505 169q-32 -90 -107 -138t-184 -48q-97 0 -151.5 35t-54.5 95
q0 25 12.5 49t36.5 42h-53l35 120h539l-35 -120h-272q-20 0 -33.5 -4.5t-21.5 -12t-11 -16t-3 -15.5q0 -14 11 -25.5t37 -11.5q35 0 51 13.5t22 36.5h182z" />
    <glyph glyph-name="NULL" horiz-adv-x="0" 
 />
    <glyph glyph-name="NULL" horiz-adv-x="0" 
 />
    <glyph glyph-name="nonmarkingreturn" unicode="&#xd;" horiz-adv-x="235" 
 />
    <glyph glyph-name="cyr_breve.uc" horiz-adv-x="394" 
d="M303 724q-63 0 -103 15t-48 28l40 140q17 -20 50 -36t85 -16q53 0 95 15.5t72 36.5l-41 -142q-16 -16 -55.5 -28.5t-94.5 -12.5z" />
    <glyph glyph-name="cyr_breve" horiz-adv-x="394" 
d="M303 557q-63 0 -103 15t-48 28l40 140q17 -20 50 -36t85 -16q53 0 95 15.5t72 36.5l-41 -142q-16 -16 -55.5 -28.5t-94.5 -12.5z" />
    </font>
</defs>
</svg>
